<svg width="140" height="42" viewBox="0 0 140 42" fill="none" xmlns="http://www.w3.org/2000/svg">
<g clip-path="url(#clip0_1_6118)">
<path d="M86.3519 32.8117C78.2712 38.765 66.5586 41.9412 56.4743 41.9412C42.3344 41.9412 29.605 36.714 19.9746 28.0201C19.218 27.3364 19.8959 26.4047 20.8039 26.9371C31.1969 32.9811 44.0474 36.6172 57.3217 36.6172C66.2741 36.6172 76.1224 34.7659 85.1777 30.9241C86.5456 30.3433 87.6897 31.8195 86.3519 32.8117Z" fill="#FF9900"/>
<path d="M89.7114 28.9699C88.6824 27.651 82.8836 28.3468 80.2808 28.6553C79.4879 28.7521 79.3668 28.0624 80.0811 27.5663C84.6995 24.3174 92.2779 25.2552 93.1616 26.3442C94.0454 27.4393 92.9316 35.0321 88.5916 38.656C87.9258 39.2126 87.2902 38.9162 87.5868 38.1781C88.5614 35.746 90.7465 30.2949 89.7114 28.9699Z" fill="#FF9900"/>
<path d="M80.4623 4.63068V1.47255C80.4623 0.994602 80.8255 0.67395 81.2613 0.67395H95.4072C95.8611 0.67395 96.2243 1.00065 96.2243 1.47255V4.17692C96.2183 4.63068 95.8369 5.22358 95.159 6.16134L87.8288 16.6219C90.5527 16.5553 93.4278 16.9607 95.8975 18.3522C96.4543 18.6668 96.6057 19.1266 96.648 19.5803V22.9502C96.648 23.41 96.1396 23.9485 95.6069 23.6702C91.2548 21.3893 85.4742 21.1412 80.662 23.6944C80.1717 23.9606 79.6572 23.4282 79.6572 22.9684V19.7679C79.6572 19.2536 79.6633 18.3764 80.1778 17.5959L88.6702 5.42323H81.2794C80.8255 5.42323 80.4623 5.10258 80.4623 4.63068Z" fill="#221F1F"/>
<path d="M28.8595 24.3356H24.5558C24.1442 24.3054 23.8174 23.9968 23.7871 23.6036V1.52697C23.7871 1.08531 24.1563 0.734408 24.6164 0.734408H28.6295C29.0472 0.752547 29.3801 1.07321 29.4104 1.47251V4.35839H29.4891C30.5362 1.56931 32.5034 0.268555 35.1547 0.268555C37.8483 0.268555 39.531 1.56931 40.7416 4.35839C41.7827 1.56931 44.1494 0.268555 46.6857 0.268555C48.4895 0.268555 50.4627 1.01271 51.6673 2.68252C53.0292 4.53988 52.7508 7.2382 52.7508 9.60377L52.7447 23.537C52.7447 23.9787 52.3755 24.3356 51.9155 24.3356H47.6178C47.1881 24.3054 46.843 23.9605 46.843 23.537V11.8362C46.843 10.9045 46.9278 8.58131 46.722 7.698C46.4012 6.21575 45.4387 5.79829 44.1918 5.79829C43.1507 5.79829 42.0612 6.49405 41.6193 7.60726C41.1774 8.72046 41.2198 10.5839 41.2198 11.8362V23.537C41.2198 23.9787 40.8506 24.3356 40.3905 24.3356H36.0929C35.6571 24.3054 35.3181 23.9605 35.3181 23.537L35.312 11.8362C35.312 9.37387 35.7176 5.74989 32.6608 5.74989C29.5677 5.74989 29.6888 9.28311 29.6888 11.8362V23.537C29.6888 23.9787 29.3196 24.3356 28.8595 24.3356Z" fill="#221F1F"/>
<path d="M108.403 0.268555C114.789 0.268555 118.245 5.74989 118.245 12.7195C118.245 19.4532 114.425 24.7954 108.403 24.7954C102.132 24.7954 98.7178 19.3141 98.7178 12.4836C98.7178 5.61074 102.174 0.268555 108.403 0.268555ZM108.439 4.77584C105.267 4.77584 105.067 9.09556 105.067 11.7878C105.067 14.4862 105.025 20.2458 108.403 20.2458C111.738 20.2458 111.895 15.5994 111.895 12.7679C111.895 10.9045 111.817 8.67811 111.254 6.9115C110.769 5.37479 109.807 4.77584 108.439 4.77584Z" fill="#221F1F"/>
<path d="M126.525 24.3356H122.24C121.81 24.3054 121.465 23.9605 121.465 23.537L121.459 1.45436C121.495 1.04901 121.852 0.734408 122.288 0.734408H126.277C126.652 0.752547 126.961 1.00666 127.046 1.35151V4.72743H127.125C128.329 1.70847 130.018 0.268555 132.99 0.268555C134.921 0.268555 136.803 0.96431 138.014 2.87007C139.14 4.63668 139.14 7.60726 139.14 9.74292V23.6399C139.091 24.0271 138.734 24.3356 138.311 24.3356H133.995C133.601 24.3054 133.274 24.015 133.232 23.6399V11.6487C133.232 9.23472 133.511 5.70149 130.539 5.70149C129.491 5.70149 128.529 6.4033 128.051 7.4681C127.445 8.81726 127.367 10.1604 127.367 11.6487V23.537C127.361 23.9787 126.985 24.3356 126.525 24.3356Z" fill="#221F1F"/>
<path d="M69.185 13.7904V12.8587C66.0737 12.8587 62.7869 13.5242 62.7869 17.1905C62.7869 19.0478 63.7494 20.3063 65.4018 20.3063C66.6124 20.3063 67.6959 19.5621 68.3799 18.3521C69.2273 16.8638 69.185 15.4662 69.185 13.7904ZM73.525 24.2751C73.2405 24.5292 72.8289 24.5473 72.5081 24.3779C71.0796 23.1921 70.8253 22.6416 70.0384 21.5102C67.6778 23.9181 66.0071 24.6381 62.9443 24.6381C59.3246 24.6381 56.5039 22.4056 56.5039 17.9346C56.5039 14.4438 58.3985 12.0661 61.0921 10.9045C63.4286 9.87598 66.6911 9.69448 69.185 9.41013V8.85352C69.185 7.83106 69.2637 6.62106 68.6644 5.73775C68.1378 4.9452 67.133 4.61849 66.2493 4.61849C64.6089 4.61849 63.1441 5.45945 62.7869 7.20186C62.7143 7.58907 62.4298 7.97022 62.0424 7.98837L57.8658 7.54066C57.5148 7.46202 57.1274 7.17766 57.2242 6.63921C58.1866 1.58138 62.7567 0.0567627 66.8485 0.0567627C68.9428 0.0567627 71.6788 0.613366 73.3313 2.19848C75.4256 4.15264 75.2259 6.76021 75.2259 9.59768V16.3011C75.2259 18.3158 76.0612 19.1991 76.8481 20.2881C77.1265 20.6753 77.1871 21.1412 76.836 21.4316C75.9583 22.1636 74.3966 23.5249 73.5371 24.2872L73.525 24.2751Z" fill="#221F1F"/>
<path d="M12.765 13.7904V12.8587C9.6538 12.8587 6.36701 13.5242 6.36701 17.1905C6.36701 19.0478 7.32944 20.3063 8.98191 20.3063C10.1925 20.3063 11.276 19.5621 11.96 18.3521C12.8074 16.8638 12.765 15.4662 12.765 13.7904ZM17.1051 24.2751C16.8206 24.5292 16.409 24.5473 16.0882 24.3779C14.6596 23.1921 14.4054 22.6416 13.6185 21.5102C11.2578 23.9181 9.58722 24.6381 6.52439 24.6381C2.90468 24.6381 0.0839844 22.4056 0.0839844 17.9346C0.0839844 14.4438 1.97858 12.0661 4.67217 10.9045C7.00863 9.87598 10.2712 9.69448 12.765 9.41013V8.85352C12.765 7.83106 12.8437 6.62106 12.2445 5.73775C11.7179 4.9452 10.7131 4.61849 9.82933 4.61849C8.18897 4.61849 6.72414 5.45945 6.36701 7.20186C6.29437 7.58907 6.00988 7.97022 5.62249 7.98837L1.44591 7.54066C1.09484 7.46202 0.707444 7.17766 0.804292 6.63921C1.76672 1.58138 6.33674 0.0567627 10.4286 0.0567627C12.5229 0.0567627 15.2589 0.613366 16.9114 2.19848C19.0057 4.15264 18.806 6.76021 18.806 9.59768V16.3011C18.806 18.3158 19.6413 19.1991 20.4282 20.2881C20.7066 20.6753 20.7671 21.1412 20.4161 21.4316C19.5384 22.1636 17.9767 23.5249 17.1172 24.2872L17.1051 24.2751Z" fill="#221F1F"/>
</g>
<defs>
<clipPath id="clip0_1_6118">
<rect width="139.222" height="42" fill="white"/>
</clipPath>
</defs>
</svg>
