<svg width="95" height="38" viewBox="0 0 95 38" fill="none" xmlns="http://www.w3.org/2000/svg">
<path d="M12.9193 8.38977C6.2757 8.38977 0.74707 11.2191 0.74707 19.7329C0.74707 26.484 4.46533 30.728 13.0922 30.728C23.2553 30.728 23.9011 24.0267 23.9011 24.0267H18.9667C18.9667 24.0267 17.9015 27.626 12.7702 27.626C8.58098 27.626 5.58209 24.7967 5.58209 20.8253H24.3978V18.3441C24.4199 14.4206 21.9417 8.38977 12.9193 8.38977ZM12.7445 11.5673C16.7111 11.5673 19.4377 13.9987 19.4377 17.6736H5.72928C5.72928 13.7758 9.27459 11.5673 12.7445 11.5673Z" fill="#5B5B5B"/>
<path d="M24.4197 0.150391V26.4582C24.4197 27.9465 24.3203 30.0575 24.3203 30.0575H29.0063C29.0063 30.0575 29.1792 28.5433 29.1792 27.1784C29.1792 27.1784 31.5103 30.8016 37.8061 30.8016C44.4497 30.8016 48.9609 26.1855 48.9609 19.5837C48.9609 13.4295 44.8213 8.48923 37.83 8.48923C31.2858 8.48923 29.2528 12.0388 29.2528 12.0388V0.176179H24.4197V0.150391ZM36.5918 11.7165C41.1031 11.7165 43.9787 15.0671 43.9787 19.5598C43.9787 24.3748 40.6578 27.5265 36.6415 27.5265C31.8323 27.5265 29.2289 23.7541 29.2289 19.5837C29.2289 15.7118 31.56 11.7165 36.5918 11.7165Z" fill="#5B5B5B"/>
<path d="M60.6127 8.38977C50.6226 8.38977 49.9786 13.8753 49.9786 14.7429H54.9608C54.9608 14.7429 55.2331 11.5415 60.2908 11.5415C63.5877 11.5415 66.1156 13.0556 66.1156 15.9347V16.9773H60.2908C52.5562 16.9773 48.4424 19.2356 48.4424 23.8517C48.4424 28.3941 52.2342 30.8514 57.3415 30.8514C64.3071 30.8514 66.5627 27.0052 66.5627 27.0052C66.5627 28.5433 66.6859 30.0575 66.6859 30.0575H71.0978C71.0978 30.0575 70.9249 28.1952 70.9249 26.9795V16.6291C70.9009 9.80445 65.4459 8.38977 60.6127 8.38977ZM66.1156 20.0792V21.4442C66.1156 23.2309 65.0007 27.6979 58.5061 27.6979C54.9369 27.6979 53.4246 25.9111 53.4246 23.8517C53.4246 20.0792 58.5558 20.0792 66.1156 20.0792Z" fill="#5B5B5B"/>
<path d="M68.2227 9.25903H73.8249L81.8556 25.3657L89.8625 9.25903H94.9459L80.3452 37.9504H75.0152L79.2302 29.9578L68.2227 9.25903Z" fill="#5B5B5B"/>
</svg>
