<svg width="85" height="44" viewBox="0 0 85 44" fill="none" xmlns="http://www.w3.org/2000/svg">
<path d="M18.4395 33H0.246094V0.875977H18.4395V5.31445H5.51953V14.0376H17.6265V18.4541H5.51953V28.5396H18.4395V33ZM33.9082 29.2646C34.582 29.2646 35.2485 29.2061 35.9077 29.0889C36.5669 28.957 37.1675 28.8032 37.7095 28.6274V32.5386C37.1382 32.7876 36.3984 33 35.4902 33.1758C34.582 33.3516 33.6372 33.4395 32.6558 33.4395C31.2788 33.4395 30.041 33.2124 28.9424 32.7583C27.8438 32.2896 26.9722 31.4912 26.3276 30.3633C25.6831 29.2354 25.3608 27.6753 25.3608 25.6831V12.6094H22.043V10.3022L25.6025 8.47852L27.2944 3.271H30.5464V8.67627H37.5117V12.6094H30.5464V25.6172C30.5464 26.8477 30.854 27.7632 31.4692 28.3638C32.0845 28.9644 32.8975 29.2646 33.9082 29.2646ZM59.001 26.0566C59.001 27.6533 58.6128 29.001 57.8364 30.0996C57.0601 31.1982 55.9248 32.0332 54.4307 32.6045C52.9512 33.1611 51.1348 33.4395 48.9814 33.4395C47.2822 33.4395 45.8174 33.3149 44.5869 33.0659C43.3711 32.8315 42.2212 32.4653 41.1372 31.9673V27.5068C42.2944 28.0488 43.5908 28.5176 45.0264 28.9131C46.4766 29.3086 47.8462 29.5063 49.1353 29.5063C50.8345 29.5063 52.0576 29.2427 52.8047 28.7153C53.5518 28.1733 53.9253 27.4556 53.9253 26.562C53.9253 26.0347 53.7715 25.5659 53.4639 25.1558C53.1709 24.731 52.6143 24.2988 51.7939 23.8594C50.9883 23.4053 49.8018 22.8633 48.2344 22.2334C46.6963 21.6182 45.3999 21.0029 44.3452 20.3877C43.2905 19.7725 42.4922 19.0327 41.9502 18.1685C41.4082 17.2896 41.1372 16.1689 41.1372 14.8066C41.1372 12.6533 41.9868 11.02 43.686 9.90674C45.3999 8.77881 47.6631 8.21484 50.4756 8.21484C51.9697 8.21484 53.376 8.36865 54.6943 8.67627C56.0273 8.96924 57.3311 9.40137 58.6055 9.97266L56.9795 13.8618C55.8809 13.3784 54.7749 12.9829 53.6616 12.6753C52.563 12.353 51.4424 12.1919 50.2998 12.1919C48.9668 12.1919 47.9487 12.397 47.2456 12.8071C46.5571 13.2173 46.2129 13.8032 46.2129 14.5649C46.2129 15.1362 46.3813 15.6196 46.7183 16.0151C47.0552 16.4106 47.6338 16.8062 48.4541 17.2017C49.2891 17.5972 50.4463 18.0879 51.9258 18.6738C53.376 19.2305 54.6284 19.8164 55.6831 20.4316C56.7524 21.0322 57.5728 21.772 58.144 22.6509C58.7153 23.5298 59.001 24.665 59.001 26.0566ZM60.9126 8.67627H66.5376L71.5254 22.563C71.7451 23.1929 71.9429 23.8154 72.1187 24.4307C72.3091 25.0312 72.4702 25.6245 72.6021 26.2104C72.7485 26.7964 72.8657 27.3823 72.9536 27.9683H73.0854C73.2319 27.2065 73.437 26.3569 73.7007 25.4194C73.979 24.4673 74.2866 23.5151 74.6235 22.563L79.4136 8.67627H84.9727L74.5356 36.3398C73.9351 37.9219 73.1953 39.2695 72.3164 40.3828C71.4521 41.5107 70.4268 42.3604 69.2402 42.9316C68.0537 43.5176 66.6987 43.8105 65.1753 43.8105C64.4429 43.8105 63.8057 43.7666 63.2637 43.6787C62.7217 43.6055 62.2603 43.5249 61.8794 43.437V39.3062C62.187 39.3794 62.5752 39.4453 63.0439 39.5039C63.5127 39.5625 63.9961 39.5918 64.4941 39.5918C65.417 39.5918 66.2153 39.4087 66.8892 39.0425C67.563 38.6763 68.1343 38.1562 68.603 37.4824C69.0718 36.8232 69.46 36.0688 69.7676 35.2192L70.6245 32.9341L60.9126 8.67627Z" fill="#5B5B5B"/>
</svg>
