<svg width="157" height="38" viewBox="0 0 157 38" fill="none" xmlns="http://www.w3.org/2000/svg">
<path d="M139.525 12.8754C140.41 12.8754 141.138 12.4149 141.236 11.8199L142.11 1.93034C142.11 0.95285 140.966 0.150391 139.528 0.150391C138.091 0.150391 136.948 0.952846 136.948 1.93051L137.821 11.8199C137.917 12.4147 138.646 12.8754 139.528 12.8754H139.525ZM134.186 15.9643C134.63 15.1982 134.597 14.3372 134.129 13.9547L126.01 8.2526C125.166 7.76315 123.9 8.35228 123.182 9.59955C122.461 10.8452 122.589 12.2365 123.431 12.7261L132.421 16.9169C132.983 17.1255 133.749 16.7241 134.189 15.9585L134.186 15.9643ZM144.868 15.959C145.311 16.7246 146.074 17.1262 146.636 16.9175L155.626 12.7266C156.473 12.2372 156.594 10.8458 155.88 9.60008C155.158 8.35405 153.89 7.76368 153.048 8.25313L144.929 13.9552C144.464 14.3372 144.43 15.1989 144.871 15.9649L144.868 15.959ZM139.525 25.2289C140.41 25.2289 141.138 25.6856 141.236 26.2811L142.11 36.1692C142.11 37.1497 140.966 37.9504 139.528 37.9504C138.091 37.9504 136.948 37.1497 136.948 36.1692L137.821 26.2811C137.917 25.6856 138.646 25.2289 139.528 25.2289H139.525ZM144.868 22.1393C145.311 21.3716 146.074 20.9735 146.636 21.1845L155.626 25.3726C156.473 25.8625 156.594 27.2552 155.88 28.5019C155.158 29.7439 153.89 30.3359 153.048 29.8471L144.929 24.1504C144.464 23.7654 144.43 22.9031 144.871 22.1377H144.868M134.186 22.1382C134.63 22.9031 134.597 23.7654 134.129 24.1511L126.01 29.8477C125.166 30.3364 123.9 29.7444 123.182 28.5025C122.461 27.2557 122.589 25.8631 123.431 25.3731L132.421 21.1851C132.983 20.974 133.749 21.3721 134.189 22.14H134.186" fill="#5B5B5B"/>
<path d="M88.3125 23.8278C88.3125 24.1313 88.2855 24.4443 88.2025 24.7192C87.8582 25.861 86.6774 26.8265 85.2003 26.8265C83.9686 26.8265 82.9903 26.126 82.9903 24.6465C82.9903 22.3823 85.4796 21.7569 88.3132 21.7727L88.3125 23.8277V23.8278ZM92.757 19.8819C92.757 16.1482 91.1635 12.8629 85.7794 12.8629C83.0155 12.8629 80.822 13.6401 79.6247 14.3328L80.5016 17.3344C81.5958 16.6428 83.3398 16.0702 84.9902 16.0702C87.7212 16.0626 88.1685 17.6187 88.1685 18.6145V18.8502C82.2153 18.8414 78.4521 20.9053 78.4521 25.1095C78.4521 27.6785 80.3688 30.0846 83.7005 30.0846C85.7478 30.0846 87.4625 29.2665 88.4887 27.9546H88.59C88.59 27.9546 89.269 30.8028 93.0176 29.7131C92.822 28.5286 92.7577 27.2642 92.7577 25.7438L92.7572 19.8819M0 7.77817C0 7.77817 3.89027 23.738 4.51148 26.3282C5.23613 29.3515 6.54217 30.4645 10.3059 29.7131L12.7349 19.8186C13.3508 17.3597 13.763 15.6065 14.1599 13.1078H14.2289C14.5076 15.633 14.9028 17.3673 15.4097 19.8267C15.4097 19.8267 16.398 24.3189 16.905 26.6776C17.4125 29.0355 18.8252 30.5226 22.5123 29.7131L28.3003 7.77747H23.6285L21.6516 17.2617C21.12 20.0213 20.6382 22.1801 20.2664 24.7041H20.2003C19.8625 22.2023 19.4323 20.1316 18.8925 17.4422L16.8359 7.77747H11.9674L9.76629 17.1986C9.14331 20.0622 8.55911 22.3736 8.18903 24.8136H8.12171C7.74176 22.516 7.23598 19.6098 6.68862 16.8392C6.68862 16.8392 5.38187 10.1003 4.92227 7.77747L0 7.77817ZM37.1375 23.8278C37.1375 24.1313 37.1106 24.4443 37.0263 24.7192C36.6827 25.861 35.5013 26.8265 34.0241 26.8265C32.7923 26.8265 31.8154 26.126 31.8154 24.6465C31.8154 22.3823 34.304 21.7569 37.1381 21.7727L37.1375 23.8277V23.8278ZM41.5815 19.8819C41.5815 16.1482 39.9881 12.8629 34.605 12.8629C31.8404 12.8629 29.6451 13.6401 28.4486 14.3328L29.3244 17.3344C30.4184 16.6428 32.1624 16.0702 33.8133 16.0702C36.5463 16.0626 36.9936 17.6187 36.9936 18.6145V18.8502C31.0379 18.8414 27.2764 20.9053 27.2764 25.1095C27.2764 27.6785 29.1921 30.0846 32.5214 30.0846C34.5715 30.0846 36.2851 29.2665 37.3125 27.9546H37.4126C37.4126 27.9546 38.0936 30.8028 41.8413 29.7131C41.6453 28.5286 41.5815 27.2642 41.5815 25.7438V19.8819ZM48.9983 25.0568V7.77817H44.5485V29.7138H48.9983V25.0568ZM107.21 7.77817V23.9596C107.21 26.1916 107.63 27.7537 108.526 28.7096C109.311 29.5454 110.602 30.0864 112.149 30.0864C113.465 30.0864 114.759 29.835 115.37 29.6083L115.312 26.1278C114.858 26.2389 114.336 26.3289 113.622 26.3289C112.106 26.3289 111.599 25.3564 111.599 23.3536V17.1622H115.474V12.9647H111.599V7.77817H107.21ZM95.7242 13.235V29.7138H100.314V21.2763C100.314 20.8202 100.342 20.4229 100.414 20.0594C100.754 18.2911 102.103 17.1622 104.043 17.1622C104.574 17.1622 104.955 17.2201 105.367 17.2787V12.9647C105.021 12.8957 104.786 12.8634 104.356 12.8634C102.643 12.8634 100.694 13.97 99.876 16.3439H99.7519V13.235H95.7242ZM52.1141 13.235V29.7138H56.5862V20.0506C56.5862 19.5971 56.6395 19.1176 56.7963 18.7019C57.1669 17.729 58.0713 16.5895 59.5145 16.5895C61.3199 16.5895 62.163 18.117 62.163 20.3214V29.7125H66.6317V19.9317C66.6317 19.499 66.6907 18.9775 66.8185 18.596C67.1854 17.4886 68.1596 16.5883 69.5014 16.5883C71.3308 16.5883 72.209 18.0889 72.209 20.6837V29.712H76.6806V20.0059C76.6806 14.8879 74.0848 12.8618 71.1541 12.8618C69.8574 12.8618 68.8328 13.187 67.9062 13.7555C67.1281 14.2354 66.4302 14.9154 65.8214 15.8093H65.7553C65.0486 14.0334 63.3859 12.8627 61.2191 12.8627C58.4356 12.8627 57.1845 14.2755 56.4257 15.4735H56.3591V13.2345H52.1141" fill="#5B5B5B"/>
</svg>
