<svg width="135" height="96" viewBox="0 0 135 96" fill="none" xmlns="http://www.w3.org/2000/svg">
<path d="M84.1854 30.2725C83.3505 31.1593 82.2365 31.7325 81.0297 31.8964C80.1264 32.054 79.198 31.9843 78.3283 31.6935C77.4586 31.4027 76.6749 30.9 76.0478 30.2307C75.2385 29.3894 74.7155 28.3139 74.5535 27.1577C74.3786 26.0039 74.5657 24.8243 75.0888 23.7813C75.612 22.7383 76.4455 21.8832 77.4746 21.3336C78.1003 20.9906 78.7893 20.7789 79.4996 20.7115C79.6089 20.7115 79.7261 20.7115 79.8096 20.624H80.4773C80.7317 20.783 81.0297 20.7373 81.304 20.793C82.4449 21.0323 83.4835 21.6196 84.2768 22.474C85.0701 23.3283 85.579 24.4078 85.7334 25.5635C85.8604 26.4148 85.7866 27.284 85.5178 28.1017C85.249 28.9193 84.7927 29.6627 84.1854 30.2725Z" fill="#3830C9"/>
<path d="M108.652 67.431C108.972 67.316 109.056 67.5838 108.8 67.8071C108.526 68.0466 108.234 68.2657 107.927 68.4626C106.303 69.6644 104.498 70.5991 102.579 71.2315C101.361 71.6451 100.08 71.8468 98.7935 71.8279C97.4313 71.805 96.0897 71.4917 94.8581 70.909C93.6265 70.3263 92.5334 69.4876 91.6516 68.4487C91.2682 67.9578 90.9427 67.4242 90.6818 66.8585C89.4809 64.5834 88.4378 62.2284 87.5599 59.8101C87.234 58.9215 87.0353 57.9833 86.777 57.069C86.2285 55.1329 85.7456 53.177 85.0581 51.2827C84.442 49.5872 83.667 47.9811 82.4966 46.5817C81.7874 45.7469 80.9446 45.0356 80.0026 44.4767C79.0687 43.9023 78.1426 43.9599 77.2027 44.4588C76.4492 44.8687 75.7524 45.3752 75.13 45.9655C73.3922 47.5988 71.8389 49.4178 70.4979 51.39C68.2146 54.6738 65.983 57.9933 63.7196 61.2929C62.3771 63.2988 60.9173 65.2237 59.3478 67.0573C57.9011 68.7111 56.3332 70.2377 54.4136 71.3548C53.1784 72.0826 51.7805 72.4893 50.3478 72.5375C48.1618 72.619 46.274 71.8656 44.5273 70.6472C42.1705 69.0013 40.3959 66.8148 38.83 64.4415C38.0989 63.3246 37.4353 62.1651 36.8428 60.9689C34.5814 56.4369 32.3146 51.9075 30.0426 47.3808C29.9691 47.2317 29.9313 47.0508 29.7267 46.9534C29.4923 47.3257 29.3066 47.7265 29.1742 48.1461C28.3941 50.1838 28.0732 52.3685 28.2343 54.5446C28.3828 56.5127 28.9899 58.4188 30.0069 60.1102C31.1018 61.9727 32.7946 62.8187 34.4996 64.1227V64.1227C35.0784 64.664 35.4629 64.8195 34.7679 65.2003C34.5019 65.3461 34.2722 65.4608 34.1959 65.4989C32.8366 66.2304 31.3621 66.4212 29.8558 66.3238C28.204 66.2383 26.5762 65.8915 25.0329 65.2962C24.4119 65.0535 23.8167 64.7492 23.2564 64.3878C22.3547 62.8199 21.6251 61.1591 21.0804 59.4344C20.5728 57.8657 20.2396 56.2459 20.0868 54.6042C19.9922 53.5919 19.9749 52.5739 20.0351 51.559C20.173 49.355 20.6935 47.1919 21.5732 45.1665C22.2058 43.6584 23.0278 42.237 24.0194 40.9366C25.0965 39.5452 26.4041 38.4698 28.0991 37.9371C30.142 37.299 32.0735 37.5912 33.9077 38.6686C35.1338 39.3881 36.0797 40.4158 36.9123 41.5508C38.2517 43.3775 39.297 45.3752 40.2449 47.4225C41.006 49.0644 41.7174 50.7301 42.5202 52.3501C43.2932 53.9165 44.1557 55.4371 44.9804 56.9776C45.5864 58.1106 46.2084 59.2376 46.8006 60.3786C47.2402 61.1904 47.8202 61.9179 48.5136 62.5273C49.0004 62.9705 49.223 62.9606 49.7576 62.5452C50.5078 61.931 51.1864 61.2342 51.7805 60.468C54.3182 57.385 56.5259 54.0675 58.7357 50.748C60.0572 48.7603 61.5058 46.8739 62.881 44.9299C63.8554 43.5387 64.9174 42.2108 66.0605 40.9545C68.0656 38.768 70.2336 36.7802 72.9103 35.4087C74.2344 34.7173 75.6687 34.262 77.149 34.063C79.2858 33.7969 81.4544 34.1278 83.4146 35.0191C85.2024 35.8122 86.852 36.8858 88.3011 38.1995C89.9927 39.7454 91.4192 41.5584 92.5239 43.5664C93.9647 46.0967 94.8947 48.8239 95.6478 51.6186C96.4705 54.6638 97.2574 57.719 98.1556 60.7383C98.4892 61.9722 99.1172 63.1065 99.9859 64.0439V64.0439C100.22 64.2862 100.54 64.4602 100.783 64.6936C102.022 65.8828 103.378 66.8969 105.057 67.431C106.225 67.8136 107.484 67.8136 108.652 67.431V67.431Z" fill="#3830C9"/>
<path d="M114.224 53.6346C114.043 56.7931 113.491 59.8761 112.247 62.806C111.636 64.2577 110.827 65.6182 109.845 66.849V66.849C109.546 67.2562 109.035 67.4216 108.555 67.5795C108.361 67.6436 108.165 67.704 107.963 67.7475C106.672 67.9786 105.341 67.7992 104.157 67.2346C102.766 66.6125 101.586 65.6723 100.503 64.6089V64.6089C100.351 64.4611 100.523 64.3053 100.728 64.2512C102.411 63.806 103.687 62.7979 104.622 61.3112C105.37 60.0701 105.879 58.7003 106.124 57.2721C106.576 54.9644 106.601 52.6328 106.452 50.2952C106.345 48.6469 106.142 47.0063 105.844 45.3816V45.3816C105.806 45.1704 105.516 45.1351 105.416 45.325C104.05 47.922 102.707 50.4739 101.35 53.0502C100.867 53.9671 99.5223 53.8696 99.1812 52.8912V52.8912C98.2631 50.2714 97.351 47.6476 96.423 45.0297C96.362 44.8868 96.3362 44.7312 96.348 44.5762C96.3598 44.4212 96.4087 44.2713 96.4906 44.1392C97.2755 42.7478 98.0684 41.3445 99.0481 40.0664C100.028 38.7883 101.188 37.6811 102.687 36.9914C105.544 35.6655 108.587 36.2102 110.78 38.4663C111.609 39.3488 112.27 40.3754 112.73 41.4956C113.342 42.9454 113.749 44.4734 113.94 46.0355C114.274 48.5539 114.37 51.0983 114.224 53.6346Z" fill="#22E393"/>
<path d="M90.1333 71.3608C90.1895 71.4269 90.2286 71.5431 90.1592 71.5951V71.5951C88.3707 73.0283 86.457 74.2388 84.2413 74.8788C80.4179 75.982 76.9563 75.2426 73.8761 72.7321C72.3837 71.5136 71.1874 70.0288 70.1442 68.4267C68.9916 66.6556 67.8867 64.8488 66.756 63.0737C66.6814 62.9852 66.6394 62.8739 66.6368 62.7581C66.6343 62.6424 66.6714 62.5293 66.7421 62.4376C68.7611 59.3182 70.7728 56.1942 72.7772 53.0655V53.0655C72.8433 52.9605 72.9894 52.9251 73.0637 53.0244C73.1239 53.1049 73.1618 53.2025 73.2104 53.2901C75.1221 56.4705 77.0311 59.6581 78.9375 62.8531C79.2848 63.4399 79.8194 63.8927 80.4553 64.1386C81.0912 64.3845 81.7913 64.4092 82.4429 64.2087C82.6709 64.1389 82.8853 64.0307 83.0768 63.8887C83.6724 63.4652 84.2315 62.9924 84.748 62.4754C84.8383 62.3728 84.9224 62.265 84.9999 62.1525C85.0368 62.0989 85.1083 62.081 85.1649 62.1129V62.1129C85.1908 62.1275 85.2105 62.151 85.2204 62.1791C85.805 63.8399 86.4975 65.4608 87.2936 67.0313C88.0577 68.5865 89.0115 70.0407 90.1333 71.3608Z" fill="#22E393"/>
<path d="M62.9128 39.706C61.1403 41.7832 59.3975 43.8802 57.7302 46.0508C57.6925 46.0998 57.6548 46.1489 57.6171 46.198C57.0788 46.9005 56.052 46.9729 55.3436 46.4424V46.4424C55.0236 46.2084 54.6766 46.0135 54.3103 45.862C54.1816 45.801 54.038 45.7786 53.8969 45.7977C53.7558 45.8167 53.6233 45.8764 53.5154 45.9693C53.0926 46.3066 52.7263 46.7092 52.4304 47.162C51.761 48.2047 51.2218 49.3255 50.8247 50.4993C50.0398 52.6322 49.4774 54.8286 48.917 57.027C48.8998 57.0922 48.8819 57.1571 48.864 57.2215C48.8163 57.3927 48.6623 57.483 48.5732 57.3292V57.3292L41.9042 45.5082C41.8409 45.429 41.8003 45.334 41.787 45.2334C41.7737 45.1329 41.7881 45.0306 41.8287 44.9377C42.868 42.6319 44.1339 40.4792 45.976 38.7141C47.7366 37.0265 49.7775 35.8657 52.2098 35.4582C54.2291 35.1343 56.2987 35.3836 58.1833 36.1778C59.9296 36.9114 61.5363 37.9409 62.9327 39.221C63.0899 39.3651 63.0176 39.5832 62.9128 39.706Z" fill="#22E393"/>
<path d="M33.6476 27.9468C33.6118 31.161 30.9271 33.6198 27.9682 33.5125C27.2279 33.5212 26.4934 33.3821 25.8076 33.1034C25.1218 32.8246 24.4985 32.4117 23.9742 31.889C23.4499 31.3662 23.0352 30.7441 22.7543 30.059C22.4734 29.3739 22.3321 28.6396 22.3384 27.8991C22.3279 27.1476 22.4672 26.4015 22.7481 25.7045C23.0291 25.0074 23.4461 24.3733 23.9748 23.8392C24.5034 23.3052 25.1332 22.8818 25.8273 22.594C26.5214 22.3061 27.2659 22.1595 28.0173 22.1626C28.7687 22.1658 29.5119 22.3187 30.2035 22.6124C30.8952 22.9061 31.5214 23.3348 32.0455 23.8733C32.5697 24.4118 32.9814 25.0494 33.2564 25.7488C33.5315 26.4482 33.6645 27.1954 33.6476 27.9468Z" fill="#3830C9"/>
<path d="M112.183 27.9785C112.166 29.0993 111.816 30.1896 111.178 31.1109C110.539 32.0322 109.642 32.7429 108.599 33.1527C107.555 33.5625 106.414 33.6528 105.32 33.4123C104.225 33.1718 103.227 32.6112 102.452 31.8018C101.676 30.9924 101.159 29.9707 100.966 28.8666C100.772 27.7625 100.911 26.6258 101.365 25.601C101.819 24.5762 102.567 23.7094 103.515 23.111C104.463 22.5125 105.567 22.2093 106.687 22.2399C108.173 22.2821 109.583 22.9078 110.612 23.9817C111.64 25.0556 112.205 26.4914 112.183 27.9785Z" fill="#22E393"/>
<path d="M61.3094 27.883C61.3106 29.0018 60.9798 30.0957 60.3588 31.0262C59.7379 31.9568 58.8548 32.682 57.8214 33.11C56.788 33.5381 55.6508 33.6497 54.554 33.4307C53.4571 33.2117 52.45 32.672 51.6601 31.8799C50.8701 31.0878 50.3331 30.0791 50.1168 28.9814C49.9006 27.8837 50.015 26.7465 50.4455 25.7139C50.8759 24.6813 51.6031 23.7998 52.535 23.1809C53.4668 22.5621 54.5612 22.2339 55.6797 22.2378C57.1746 22.2399 58.6074 22.8358 59.6631 23.8944C60.7188 24.953 61.311 26.3877 61.3094 27.883Z" fill="#22E393"/>
<path d="M41.1225 72.3705C41.1435 72.4053 41.147 72.4497 41.1239 72.4831V72.4831C41.1153 72.4956 41.1064 72.5029 41.096 72.514C40.7628 72.8712 37.3181 74.0611 35.3306 73.7879C33.2202 73.5196 31.3721 72.6132 29.5836 71.51C27.3739 70.1365 25.7166 68.2422 24.2957 66.1073C23.9174 65.5581 23.5691 64.9888 23.2524 64.4019C23.4134 64.3283 23.5267 64.4456 23.6399 64.5092C25.1947 65.3445 26.8929 65.8792 28.6457 66.0855C30.152 66.2842 31.6503 66.2942 33.1208 65.833C33.7001 65.666 34.2404 65.3856 34.7106 65.0081V65.0081C35.153 64.6986 35.6888 64.6924 36.0125 65.1245C37.3682 66.9344 40.5801 71.4705 41.1225 72.3705Z" fill="#22E393"/>
</svg>
