<svg width="19" height="57" viewBox="0 0 19 57" fill="none" xmlns="http://www.w3.org/2000/svg">
<path d="M18.3757 54.9253H0.400391V56.3206H18.3757V54.9253Z" fill="black"/>
<path d="M18.3757 51.4368H0.400391V52.8321H18.3757V51.4368Z" fill="black"/>
<path d="M18.3757 7.20386H0.400391V8.59921H18.3757V7.20386Z" fill="black"/>
<path d="M18.3757 49.2695H0.400391V50.1171H18.3757V49.2695Z" fill="black"/>
<path d="M18.3757 25.4839H0.400391V26.8792H18.3757V25.4839Z" fill="black"/>
<path d="M18.3757 47.8215H0.400391V49.2169H18.3757V47.8215Z" fill="black"/>
<path d="M0.400391 45.298V45.7284V46.6934H18.3757V45.7284V45.298V44.333H0.400391V45.298Z" fill="black"/>
<path d="M0.400391 3.58716V4.20812V4.98251H18.3757V4.20812V3.58716V3.3606L0.400391 3.36177V3.58716Z" fill="black"/>
<path d="M0.400391 0.098877V0.784555V1.49423V2.17991H18.3757V1.49423V0.784555V0.098877H0.400391Z" fill="black"/>
<path d="M18.3757 38.1931H0.400391V39.5885H18.3757V38.1931Z" fill="black"/>
<path d="M0.400391 22.7567V22.9186V23.6042H18.3757V22.9186V22.7567V22.071H0.400391V22.7567Z" fill="black"/>
<path d="M0.400391 42.1647V43.0123V43.3443H18.3757V43.0123V42.1647V41.949H0.400391V42.1647Z" fill="black"/>
<path d="M18.3757 12.6521H0.400391V13.4996H18.3757V12.6521Z" fill="black"/>
<path d="M0.400391 15.6529V16.5004V17.0231H18.3757V16.5004V15.6529V14.0825H0.400391V15.6529Z" fill="black"/>
<path d="M0.400391 34.8437V36.0233V36.2391H18.3757V36.0233V34.8437V33.0828H0.400391V34.8437Z" fill="black"/>
<path d="M18.3757 20.0186H0.400391V21.4139H18.3757V20.0186Z" fill="black"/>
<path d="M0.400391 29.2575V30.0235V32.1981H18.3757V30.0235V29.2575V29.176H0.400391V29.2575Z" fill="black"/>
<path d="M0.400391 10.6925V12.0878V12.1046H18.3757V12.0878V10.6925V9.16406H0.400391V10.6925Z" fill="black"/>
</svg>
