<svg width="245" height="96" viewBox="0 0 245 96" fill="none" xmlns="http://www.w3.org/2000/svg">
<path d="M236.614 0H183.121L178.018 3.83603L172.915 0H8.39129C3.7569 0 0 3.7569 0 8.39129V87.6087C0 92.2431 3.7569 96 8.39129 96H172.916L178.019 92.164L183.122 96H236.615C241.25 96 245.007 92.2431 245.007 87.6087V8.39129C245.005 3.7569 241.248 0 236.614 0Z" fill="#22E393"/>
<mask id="mask0_2146_320" style="mask-type:alpha" maskUnits="userSpaceOnUse" x="0" y="0" width="246" height="96">
<path d="M236.614 0H183.121L178.018 3.83603L172.915 0H8.39129C3.7569 0 0 3.7569 0 8.39129V87.6087C0 92.2431 3.7569 96 8.39129 96H172.916L178.019 92.164L183.122 96H236.615C241.25 96 245.007 92.2431 245.007 87.6087V8.39129C245.005 3.7569 241.248 0 236.614 0Z" fill="#22E393"/>
</mask>
<g mask="url(#mask0_2146_320)">
<path d="M178.101 66.2214C177.836 66.2214 177.621 66.436 177.621 66.7009V67.66C177.621 67.9249 177.836 68.1395 178.101 68.1395C178.366 68.1395 178.58 67.9249 178.58 67.66V66.7009C178.58 66.436 178.366 66.2214 178.101 66.2214Z" fill="black"/>
<path d="M178.101 71.0166C177.836 71.0166 177.621 71.2312 177.621 71.4961V72.4551C177.621 72.72 177.836 72.9346 178.101 72.9346C178.366 72.9346 178.58 72.72 178.58 72.4551V71.4961C178.58 71.2312 178.366 71.0166 178.101 71.0166Z" fill="black"/>
<path d="M178.101 75.8115C177.836 75.8115 177.621 76.0261 177.621 76.291V77.25C177.621 77.515 177.836 77.7295 178.101 77.7295C178.366 77.7295 178.58 77.515 178.58 77.25V76.291C178.58 76.0261 178.366 75.8115 178.101 75.8115Z" fill="black"/>
<path d="M178.101 61.4265C177.836 61.4265 177.621 61.6411 177.621 61.906V62.865C177.621 63.13 177.836 63.3445 178.101 63.3445C178.366 63.3445 178.58 63.13 178.58 62.865V61.906C178.58 61.6411 178.366 61.4265 178.101 61.4265Z" fill="black"/>
<path d="M178.101 56.6316C177.836 56.6316 177.621 56.8462 177.621 57.1111V58.0701C177.621 58.335 177.836 58.5496 178.101 58.5496C178.366 58.5496 178.58 58.335 178.58 58.0701V57.1111C178.58 56.8462 178.366 56.6316 178.101 56.6316Z" fill="black"/>
<path d="M178.101 80.6067C177.836 80.6067 177.621 80.8213 177.621 81.0862V82.0452C177.621 82.3101 177.836 82.5247 178.101 82.5247C178.366 82.5247 178.58 82.3101 178.58 82.0452V81.0862C178.58 80.8213 178.366 80.6067 178.101 80.6067Z" fill="black"/>
<path d="M178.101 90.1968C177.836 90.1968 177.621 90.4113 177.621 90.6763V91.6353C177.621 91.9002 177.836 92.1148 178.101 92.1148C178.366 92.1148 178.58 91.9002 178.58 91.6353V90.6763C178.58 90.4113 178.366 90.1968 178.101 90.1968Z" fill="black"/>
<path d="M178.101 85.4016C177.836 85.4016 177.621 85.6162 177.621 85.8811V86.8401C177.621 87.1051 177.836 87.3196 178.101 87.3196C178.366 87.3196 178.58 87.1051 178.58 86.8401V85.8811C178.58 85.6162 178.366 85.4016 178.101 85.4016Z" fill="black"/>
<path d="M178.101 51.8364C177.836 51.8364 177.621 52.051 177.621 52.3159V53.2749C177.621 53.5399 177.836 53.7544 178.101 53.7544C178.366 53.7544 178.58 53.5399 178.58 53.2749V52.3159C178.58 52.051 178.366 51.8364 178.101 51.8364Z" fill="black"/>
<path d="M178.101 13.4763C177.836 13.4763 177.621 13.6909 177.621 13.9558V14.9148C177.621 15.1798 177.836 15.3943 178.101 15.3943C178.366 15.3943 178.58 15.1798 178.58 14.9148V13.9558C178.58 13.6909 178.366 13.4763 178.101 13.4763Z" fill="black"/>
<path d="M178.101 8.68115C177.836 8.68115 177.621 8.89572 177.621 9.16065V10.1197C177.621 10.3846 177.836 10.5992 178.101 10.5992C178.366 10.5992 178.58 10.3846 178.58 10.1197V9.16065C178.58 8.89572 178.366 8.68115 178.101 8.68115Z" fill="black"/>
<path d="M178.101 3.88623C177.836 3.88623 177.621 4.1008 177.621 4.36573V5.32475C177.621 5.58968 177.836 5.80425 178.101 5.80425C178.366 5.80425 178.58 5.58968 178.58 5.32475V4.36573C178.58 4.1008 178.366 3.88623 178.101 3.88623Z" fill="black"/>
<path d="M178.101 18.2712C177.836 18.2712 177.621 18.4858 177.621 18.7507V19.7098C177.621 19.9747 177.836 20.1893 178.101 20.1893C178.366 20.1893 178.58 19.9747 178.58 19.7098V18.7507C178.58 18.4858 178.366 18.2712 178.101 18.2712Z" fill="black"/>
<path d="M178.101 47.0415C177.836 47.0415 177.621 47.2561 177.621 47.521V48.48C177.621 48.745 177.836 48.9595 178.101 48.9595C178.366 48.9595 178.58 48.745 178.58 48.48V47.521C178.58 47.2561 178.366 47.0415 178.101 47.0415Z" fill="black"/>
<path d="M178.101 37.4514C177.836 37.4514 177.621 37.666 177.621 37.9309V38.8899C177.621 39.1549 177.836 39.3694 178.101 39.3694C178.366 39.3694 178.58 39.1549 178.58 38.8899V37.9309C178.58 37.666 178.366 37.4514 178.101 37.4514Z" fill="black"/>
<path d="M178.101 42.2463C177.836 42.2463 177.621 42.4609 177.621 42.7258V43.6849C177.621 43.9498 177.836 44.1644 178.101 44.1644C178.366 44.1644 178.58 43.9498 178.58 43.6849V42.7258C178.58 42.4609 178.366 42.2463 178.101 42.2463Z" fill="black"/>
<path d="M178.101 27.8613C177.836 27.8613 177.621 28.0759 177.621 28.3408V29.2999C177.621 29.5648 177.836 29.7793 178.101 29.7793C178.366 29.7793 178.58 29.5648 178.58 29.2999V28.3408C178.58 28.0759 178.366 27.8613 178.101 27.8613Z" fill="black"/>
<path d="M178.101 32.6565C177.836 32.6565 177.621 32.8711 177.621 33.136V34.095C177.621 34.3599 177.836 34.5745 178.101 34.5745C178.366 34.5745 178.58 34.3599 178.58 34.095V33.136C178.58 32.8711 178.366 32.6565 178.101 32.6565Z" fill="black"/>
<path d="M178.101 23.0664C177.836 23.0664 177.621 23.281 177.621 23.5459V24.5049C177.621 24.7699 177.836 24.9844 178.101 24.9844C178.366 24.9844 178.58 24.7699 178.58 24.5049V23.5459C178.58 23.281 178.366 23.0664 178.101 23.0664Z" fill="black"/>
</g>
</svg>
