<svg width="160" height="150" viewBox="0 0 160 150" fill="none" xmlns="http://www.w3.org/2000/svg">
<path d="M134.852 110.963C134.589 111.147 134.325 111.33 134.061 111.513C133.489 111.911 132.69 111.746 132.313 111.157C131.914 110.583 132.069 109.821 132.64 109.424C132.64 109.424 132.64 109.424 132.662 109.408C135.397 107.572 137.978 105.516 140.346 103.247C140.856 102.761 141.66 102.792 142.132 103.282C142.619 103.795 142.591 104.6 142.103 105.07C139.814 107.218 137.38 109.205 134.852 110.963ZM125.278 116.376C125.212 116.422 125.146 116.468 125.065 116.492C121.905 117.903 118.642 119.026 115.358 119.837C114.692 120.005 114.014 119.592 113.828 118.903C113.657 118.236 114.067 117.558 114.755 117.375C117.898 116.596 121.036 115.528 124.034 114.164C124.66 113.892 125.402 114.162 125.691 114.812C125.956 115.381 125.762 116.04 125.278 116.376ZM148.578 97.6864C148.139 97.9921 147.559 98.0024 147.098 97.668C146.539 97.2385 146.425 96.466 146.852 95.9073C148.826 93.2582 150.558 90.4495 151.982 87.5271C152.289 86.8886 153.042 86.6593 153.681 86.9682C154.298 87.2924 154.552 88.0327 154.245 88.6711C152.741 91.7141 150.946 94.6654 148.856 97.4283C148.783 97.5115 148.688 97.61 148.578 97.6864ZM105.822 121.13C105.646 121.253 105.417 121.346 105.165 121.358C101.666 121.532 98.2046 121.385 94.8691 120.855C94.1752 120.749 93.6928 120.102 93.8123 119.429C93.9164 118.735 94.5605 118.254 95.2324 118.376C98.4033 118.856 101.709 119.014 105.014 118.843C105.713 118.816 106.312 119.349 106.341 120.049C106.38 120.48 106.173 120.886 105.822 121.13ZM157.43 79.7446C157.123 79.9586 156.745 80.0249 156.378 79.9196C155.698 79.7381 155.303 79.0301 155.497 78.3713C156.36 75.2504 156.997 71.9919 157.313 68.6945C157.379 67.9933 158.008 67.4906 158.687 67.5753C159.387 67.6448 159.892 68.2764 159.809 68.9556C159.467 72.4024 158.826 75.795 157.914 79.0806C157.831 79.3353 157.672 79.5764 157.43 79.7446ZM86.1516 124.592C84.1292 125.999 81.9355 127.393 79.4826 128.837C78.8804 129.19 78.1251 128.995 77.7701 128.39C77.415 127.786 77.607 127.03 78.2093 126.677C81.3524 124.819 83.9924 123.082 86.5183 121.227C87.1184 120.777 87.8803 120.935 88.2793 121.509C88.7003 122.067 88.5763 122.874 88.0048 123.271C87.4046 123.721 86.7891 124.149 86.1516 124.592ZM95.5991 116.746C95.1155 117.083 94.4303 117.035 94.0047 116.611C93.5112 116.135 93.5012 115.324 93.974 114.831C95.4299 113.361 96.765 111.81 97.9508 110.233C98.7032 109.251 99.3876 108.219 100.035 107.179C100.409 106.592 101.156 106.4 101.766 106.761C102.354 107.138 102.548 107.887 102.19 108.497C101.529 109.611 100.757 110.704 99.9914 111.76C98.755 113.406 97.3473 115.04 95.7969 116.609C95.731 116.655 95.665 116.7 95.5991 116.746ZM70.7506 133.631C70.7066 133.662 70.6627 133.693 70.5967 133.738C67.5947 135.237 64.4872 136.677 61.369 137.961C60.7427 138.233 59.9854 137.941 59.7183 137.275C59.4445 136.647 59.7332 135.89 60.3969 135.625C63.4557 134.349 66.5192 132.939 69.4773 131.472C70.1102 131.163 70.8588 131.395 71.1699 132.03C71.4349 132.599 71.2562 133.28 70.7506 133.631ZM86.0699 118.003C85.7401 118.232 85.2876 118.285 84.8903 118.135C81.5668 116.779 78.5469 115.016 75.8986 112.895C75.3611 112.451 75.2699 111.663 75.712 111.126C76.1388 110.568 76.9405 110.501 77.4781 110.946C79.9596 112.92 82.7688 114.568 85.8596 115.824C86.505 116.096 86.8181 116.828 86.5494 117.473C86.4349 117.683 86.2677 117.865 86.0699 118.003ZM52.1688 141.379C52.0808 141.44 51.9556 141.494 51.8523 141.533C48.6553 142.611 45.3969 143.599 42.1431 144.454C41.4774 144.622 40.7772 144.225 40.6068 143.558C40.4363 142.89 40.8304 142.191 41.4961 142.023C44.6906 141.176 47.927 140.203 51.0427 139.15C51.6996 138.922 52.4064 139.282 52.6362 139.941C52.8486 140.481 52.6304 141.058 52.1688 141.379ZM105.86 99.6583C105.574 99.857 105.174 99.9386 104.808 99.8334C104.127 99.6518 103.733 98.9439 103.927 98.285C104.831 95.0368 105.149 91.8361 104.927 88.7493C104.875 88.0651 105.39 87.4452 106.073 87.3959C106.756 87.3465 107.377 87.8643 107.429 88.5485C107.695 91.9324 107.324 95.432 106.351 98.957C106.26 99.2491 106.08 99.5055 105.86 99.6583ZM159.419 59.7647C159.243 59.887 159.015 59.9805 158.784 59.9771C158.101 60.0265 157.502 59.4934 157.45 58.8092C157.224 55.5288 156.729 52.2383 155.969 49.0345C155.821 48.3519 156.23 47.6744 156.911 47.5283C157.592 47.3821 158.27 47.7946 158.419 48.4771C159.212 51.8219 159.724 55.2312 159.946 58.6457C160 59.099 159.771 59.5202 159.419 59.7647ZM32.7358 146.542C32.604 146.634 32.4347 146.719 32.2568 146.744C28.9462 147.377 25.5741 147.921 22.244 148.337C21.5542 148.424 20.9267 147.943 20.8375 147.252C20.7483 146.561 21.2257 145.935 21.9155 145.848C25.1863 145.44 28.5144 144.927 31.7877 144.288C32.4687 144.141 33.1182 144.607 33.2667 145.289C33.3737 145.771 33.1315 146.267 32.7358 146.542ZM12.7616 149.004C12.5858 149.127 12.3572 149.22 12.1047 149.232C8.73968 149.411 5.29795 149.479 1.93546 149.427C1.24364 149.417 0.688718 148.854 0.680838 148.139C0.688304 147.446 1.24905 146.892 1.96286 146.887C5.26604 146.948 8.6331 146.866 11.9388 146.695C12.6372 146.668 13.2361 147.201 13.266 147.901C13.3203 148.354 13.1134 148.76 12.7616 149.004ZM70.6896 105.451C70.6676 105.466 70.6676 105.466 70.6456 105.482C70.0587 105.857 69.2815 105.677 68.9045 105.088C66.98 102.039 65.6092 98.8011 64.8601 95.4258C64.7117 94.7432 65.1363 94.0877 65.802 93.9195C66.4831 93.7734 67.1392 94.2011 67.3097 94.8684C67.9932 97.9619 69.2392 100.926 71.0322 103.739C71.3939 104.306 71.2392 105.069 70.6896 105.451ZM104.101 80.0578C104.057 80.0884 104.013 80.1189 103.991 80.1342C103.374 80.4654 102.625 80.2329 102.292 79.6133C101.904 78.8679 101.435 78.1464 100.944 77.4401C99.5783 75.4759 97.9508 73.7918 96.0923 72.4321C95.5327 72.0026 95.4195 71.2301 95.8089 70.6646C96.2357 70.1059 97.0068 69.9954 97.5729 70.3875C99.6356 71.9 101.476 73.7963 102.995 75.9812C103.532 76.7537 104.025 77.5567 104.475 78.3904C104.77 79.0033 104.607 79.7062 104.101 80.0578ZM154.843 40.1919C154.777 40.2377 154.689 40.2989 154.608 40.3227C153.966 40.5724 153.23 40.2652 152.957 39.637C151.687 36.5911 150.151 33.6319 148.426 30.8697C148.049 30.2806 148.248 29.4876 148.812 29.1276C149.399 28.7522 150.177 28.932 150.554 29.5212C152.371 32.4158 153.968 35.4633 155.286 38.6722C155.514 39.2341 155.304 39.8709 154.843 40.1919ZM66.6025 86.1599C66.3387 86.3433 65.9982 86.4164 65.6403 86.3706C64.953 86.2264 64.508 85.5863 64.6494 84.8986C64.6959 84.6372 64.7577 84.3977 64.8195 84.1583C65.5482 81.0323 67.0148 77.9826 69.1069 75.3165C69.5337 74.7578 70.3201 74.6694 70.8796 75.0988C71.4391 75.5283 71.5303 76.3161 71.1036 76.8748C69.2359 79.2539 67.9257 81.9658 67.3006 84.725C67.2608 84.9491 67.2056 85.1512 67.1658 85.3753C67.0314 85.698 66.8663 85.9764 66.6025 86.1599ZM88.2669 68.8695C88.0251 69.0377 87.7439 69.1022 87.4386 69.0853C84.4212 68.8261 81.3038 69.4548 78.3524 70.885C77.7195 71.1941 76.9775 70.9243 76.6817 70.3114C76.3707 69.6764 76.6154 68.9497 77.2483 68.6405C80.6041 66.9947 84.1807 66.2758 87.6526 66.5791C88.3532 66.6486 88.8641 67.2428 88.7974 67.944C88.7683 68.3244 88.5747 68.6555 88.2669 68.8695ZM144.082 23.2162C143.577 23.5677 142.876 23.4983 142.442 23.0144C140.249 20.6105 137.798 18.3527 135.168 16.3513C134.608 15.9219 134.517 15.134 134.944 14.5753C135.37 14.0166 136.157 13.9282 136.716 14.3577C139.461 16.4762 142.01 18.8291 144.302 21.3281C144.767 21.856 144.725 22.6388 144.236 23.1092C144.155 23.133 144.126 23.1856 144.082 23.2162ZM128.179 10.8971C127.805 11.157 127.294 11.2182 126.857 10.9653C123.975 9.40029 120.935 8.07643 117.818 6.96993C117.166 6.73573 116.808 6.03453 117.025 5.36042C117.256 4.70837 117.955 4.35341 118.629 4.57233C121.858 5.69919 125.041 7.08753 128.028 8.71023C128.645 9.03442 128.877 9.78995 128.533 10.4216C128.472 10.6611 128.333 10.7901 128.179 10.8971ZM109.2 4.28531C108.937 4.46873 108.596 4.54178 108.26 4.48071C105.013 3.8904 101.697 3.57689 98.4527 3.50784C97.7608 3.49777 97.2059 2.93415 97.198 2.21932C97.2055 1.52657 97.7882 0.957658 98.48 0.967726C101.88 1.02656 105.308 1.36045 108.705 1.9779C109.377 2.10004 109.837 2.76215 109.718 3.43455C109.667 3.83018 109.464 4.10189 109.2 4.28531ZM89.1595 3.97808C89.0056 4.08507 88.821 4.14792 88.6431 4.17342C88.2279 4.23292 87.8281 4.31451 87.4129 4.37401C86.7165 4.49808 86.067 4.03297 85.9558 3.35721C85.8293 2.65939 86.2694 2.02596 86.9658 1.90189C87.4029 1.82711 87.8181 1.76762 88.2553 1.69284C88.9297 1.58406 89.5792 2.04918 89.7057 2.74701C89.7534 3.2377 89.5332 3.71823 89.1595 3.97808Z" fill="#212121"/>
</svg>
