<svg width="102" height="93" viewBox="0 0 102 93" fill="none" xmlns="http://www.w3.org/2000/svg">
<path d="M6.87899 86.4597L6.87878 86.4598C7.66215 88 8.79314 89.337 10.1822 90.3649C14.158 93.201 19.7381 93.3277 23.651 90.6102C27.9714 87.5888 29.8626 82.5018 28.4506 77.602C27.8398 75.4895 27.2099 73.3852 26.5793 71.2786C26.1969 70.0012 25.8143 68.7229 25.4355 67.4415C24.7036 64.9686 23.9616 62.4993 23.2197 60.0302C21.4247 54.0566 19.6301 48.0843 17.9801 42.0649L18.3659 41.9591L17.9801 42.0648C14.129 28.0091 20.9571 16.1668 29.8652 10.01L29.8654 10.0099C42.4223 1.33968 61.3442 2.98432 71.6298 17.0973C77.5931 25.2737 78.9937 34.3522 76.1719 44.0124C74.6731 49.1447 71.8266 53.4763 67.9593 57.1379C67.9593 57.1379 67.9592 57.1379 67.9592 57.138L67.6842 56.8475C66.9021 57.5926 66.0654 57.9411 65.0245 57.5283L6.87899 86.4597ZM6.87899 86.4597L6.87227 86.4476M6.87899 86.4597L6.87227 86.4476M6.87227 86.4476C6.34881 85.5011 5.91883 84.5059 5.58841 83.4761C4.75958 80.8597 3.91114 78.2523 3.06313 75.6462C1.06759 69.5135 -0.925568 63.3881 -2.65523 57.1705C-4.06855 52.0371 -5.4371 46.9132 -6.05447 41.6435L-6.05448 41.6433M6.87227 86.4476L-6.05448 41.6433M-6.05448 41.6433C-7.71757 27.4904 -4.38594 14.6396 3.94562 3.07136L3.9466 3.06999C5.04835 1.52663 6.25433 0.0604373 7.55611 -1.31834M-6.05448 41.6433L7.55611 -1.31834M7.55611 -1.31834L11.9572 -5.62513C20.5713 -13.1082 31.3438 -17.6566 42.7175 -18.6124C54.0951 -19.5685 65.4842 -16.88 75.2372 -10.9357C101.156 4.86646 108.596 38.3628 92.4443 63.6224L92.4442 63.6226C86.4562 72.9962 78.2328 79.8198 67.9516 84.1354L67.9468 84.1375C64.6698 85.5641 61.1212 86.2607 57.5471 86.179C53.5549 86.0549 50.3215 84.3707 47.6532 81.4456C47.0573 80.7155 46.5649 79.9067 46.19 79.042L46.1866 79.0342L46.1829 79.0265C44.871 76.3237 43.7976 73.5118 42.9748 70.6227L42.9731 70.617C41.9067 67.072 40.8532 63.5219 39.7994 59.971L39.7992 59.9705L39.7974 59.9644C38.7442 56.4155 37.6908 52.8659 36.6245 49.3211C36.3202 48.3019 36.0015 47.2947 35.684 46.2912C35.0533 44.2976 34.4271 42.3184 33.9268 40.2873L33.9268 40.2871C32.7918 35.69 34.5069 30.7454 38.1325 28.0363C42.2064 25.0022 47.2085 24.6773 51.4866 27.1801L51.4866 27.1801L51.4921 27.1832C52.8242 27.9346 53.9903 28.948 54.9202 30.1623C55.85 31.3766 56.5243 32.7666 56.9022 34.2484L56.9032 34.2521C57.7976 37.6238 58.7955 40.9716 59.7912 44.312C60.3886 46.3161 60.9851 48.3176 61.5581 50.3199L7.55611 -1.31834Z" stroke="white" stroke-opacity="0.5" stroke-width="0.8"/>
</svg>
