<svg width="57" height="57" viewBox="0 0 57 57" fill="none" xmlns="http://www.w3.org/2000/svg">
<g clip-path="url(#clip0_1_6032)">
<path d="M47.0931 15.8328L46.4253 16.4922C45.4109 17.515 43.7371 17.515 42.7143 16.4922L40.4995 14.2775C39.4767 13.2548 39.4767 11.5893 40.4995 10.5664L43.7963 7.26978C43.8724 7.2867 43.9569 7.29494 44.0414 7.30362C43.6356 8.56296 43.4074 9.82264 43.3821 10.9722C43.137 11.0737 42.9003 11.2174 42.7059 11.4203C41.9114 12.2149 41.9114 13.4998 42.7059 14.2945C43.1793 14.7762 43.8471 14.9621 44.4641 14.8608C44.7768 15.2157 45.1404 15.4863 45.563 15.6638C45.9011 15.799 46.2646 15.8666 46.6366 15.8666C46.7888 15.8666 46.9408 15.8582 47.0931 15.8328Z" fill="#F8F1C3"/>
<path d="M39.1706 15.6086L41.3884 17.8264C42.4088 18.8468 44.0785 18.8468 45.0989 17.8264L47.0906 15.8347L46.4292 16.4961C45.4088 17.5165 43.7391 17.5165 42.7186 16.4961L40.5009 14.2783C39.4805 13.258 39.4804 11.5883 40.5007 10.5679L39.1706 11.8979C38.1502 12.9185 38.1502 14.5883 39.1706 15.6086Z" fill="#F8F1C3"/>
<path d="M52.9846 9.67041C52.19 11.6231 51.0826 13.2547 49.8738 14.3535C49.8231 13.9563 49.7724 13.5759 49.7216 13.2041C49.6878 12.9335 49.654 12.6629 49.6202 12.4095C50.3218 11.5642 51.0066 10.4568 51.556 9.09573C53.0691 5.37637 52.6295 2.18103 51.277 1.63174C51.1333 1.57251 50.9643 1.53867 50.7867 1.53867C49.4342 1.53867 47.2533 3.37291 45.8669 6.77109C45.7655 7.02469 45.6724 7.26995 45.5879 7.51509C45.1061 7.44741 44.5904 7.37972 44.041 7.30379C44.1594 6.93173 44.2946 6.55979 44.4383 6.19641C45.9261 2.5444 48.5381 0 50.7867 0C50.9642 0 51.1417 0.0169219 51.3024 0.0423047C51.4968 0.0761484 51.6828 0.126691 51.8603 0.20284C52.7479 0.566215 53.3987 1.36099 53.7454 2.48518C53.8806 2.91635 53.9736 3.40664 54.0159 3.93066C54.1595 5.65513 53.796 7.69255 52.9846 9.67041Z" fill="#8B8774"/>
<path d="M45.8034 14.022C45.3379 13.6229 45.0317 12.8432 44.9456 11.8053C44.9237 11.541 44.9168 11.2665 44.9233 10.9846C44.4322 10.7792 43.8769 10.775 43.3833 10.9724C43.3761 11.3014 43.3847 11.6224 43.4104 11.9327C43.514 13.1815 43.8796 14.1812 44.4673 14.8628C44.8728 14.7967 45.2623 14.6078 45.575 14.2951C45.6606 14.2094 45.7364 14.1177 45.8034 14.022Z" fill="#937D6B"/>
<path d="M49.7226 13.2022C49.6865 12.93 49.6511 12.6647 49.6166 12.4067C49.269 9.81148 49.0079 7.98859 49.0079 7.98859C49.0079 7.98859 47.6417 7.79288 45.5913 7.51489C45.1768 8.71701 44.9475 9.90811 44.9228 10.9845C45.1597 11.0836 45.3817 11.2291 45.5745 11.422C46.2822 12.1297 46.358 13.2296 45.803 14.0219C45.7358 14.1177 45.6601 14.2093 45.5745 14.2948C45.2618 14.6075 44.8724 14.7964 44.4668 14.8625C44.7745 15.2194 45.143 15.489 45.5667 15.6616C45.9031 15.7986 46.2644 15.8681 46.6404 15.8681C46.7888 15.8681 46.9389 15.8563 47.09 15.8346L49.7226 13.2022Z" fill="#ECE5BB"/>
<path d="M44.9237 10.9845C44.9484 9.90811 45.1778 8.71701 45.5922 7.51489C45.109 7.44932 44.5881 7.37929 44.0378 7.30615C43.6321 8.56628 43.4086 9.81983 43.3838 10.9723C43.8773 10.7748 44.4325 10.779 44.9237 10.9845Z" fill="#937D6B"/>
<path d="M51.2014 29.9329L25.4528 55.6814C24.2186 56.9155 22.4351 57.2874 20.8712 56.7802C20.2118 56.5689 19.5863 56.2054 19.0623 55.6814L1.31054 37.9296C0.794868 37.4054 0.431382 36.7884 0.220081 36.129C-0.28713 34.5735 0.0848176 32.7816 1.31054 31.5474L27.059 5.79901C27.6253 5.23246 37.4817 6.44148 43.7962 7.26987L40.4995 10.5665L39.1723 11.9022C38.1495 12.9165 38.1495 14.5903 39.1723 15.6047L41.3871 17.828C42.4099 18.8508 44.0752 18.8508 45.098 17.828L47.093 15.833L49.7219 13.2042C49.7727 13.5761 49.8233 13.9565 49.8741 14.3537C50.6941 20.6427 51.7338 29.4002 51.2014 29.9329Z" fill="#E5DD00"/>
<path d="M21.8268 39.4848C21.7 39.1215 21.4886 38.7831 21.1759 38.4705C20.8801 38.1749 20.5842 37.9548 20.2798 37.8027C19.9671 37.6591 19.6458 37.5914 19.3161 37.6083C19.0373 37.6083 18.7667 37.6675 18.4962 37.7773C18.2257 37.8958 17.9214 38.0817 17.5832 38.3354L16.6956 38.9863C16.5349 39.1046 16.3913 39.1892 16.2559 39.2397C16.1207 39.2905 15.9854 39.3243 15.8586 39.3243C15.7233 39.3243 15.605 39.2989 15.5036 39.2484C15.3937 39.1976 15.3006 39.1299 15.2161 39.0453C14.9964 38.8258 14.878 38.5551 14.878 38.2339C14.878 37.9128 15.0471 37.5829 15.3852 37.2449C15.5965 37.0336 15.8501 36.8391 16.1376 36.6532C16.4249 36.4673 16.7632 36.3742 17.1519 36.3658L17.1604 34.7849C16.611 34.7936 16.1122 34.9034 15.6726 35.1231C15.2246 35.3344 14.7765 35.6641 14.3285 36.1121C13.982 36.4672 13.7114 36.8307 13.534 37.2025C13.3564 37.5743 13.255 37.9465 13.2297 38.3099C13.2128 38.6733 13.2634 39.0283 13.3987 39.3665C13.534 39.7131 13.7537 40.0259 14.0412 40.3131C14.5907 40.8628 15.1655 41.1333 15.7657 41.1164C16.053 41.1164 16.3404 41.0571 16.6279 40.9389C16.9069 40.8289 17.2196 40.6515 17.5494 40.4062L18.437 39.7553C18.6229 39.6117 18.7751 39.5186 18.885 39.4678C18.9948 39.4257 19.1047 39.4004 19.2315 39.3919C19.502 39.3919 19.7472 39.5017 19.967 39.7215C20.229 39.9836 20.3304 40.2794 20.2797 40.6092C20.2206 40.9471 20.0007 41.3024 19.6287 41.6827C19.3329 41.9786 19.0116 42.2152 18.6651 42.4013C18.3185 42.5957 17.9466 42.6887 17.5323 42.6887V44.3116C18.1663 44.3203 18.7411 44.1934 19.2483 43.9312C19.7471 43.6776 20.2458 43.2972 20.736 42.8153C21.0741 42.4774 21.3446 42.1139 21.556 41.7336C21.7589 41.353 21.8857 40.9726 21.9365 40.5923C21.979 40.2119 21.9451 39.8398 21.8268 39.4848Z" fill="#0D0D0D"/>
<path d="M20.4402 30.1104L19.4512 31.0993L23.5509 39.8905L24.8612 38.5804L24.1173 37.0503L26.3996 34.7595L27.9211 35.5202L29.2399 34.2014L20.4402 30.1104ZM23.4073 35.6388L21.8773 32.4771L25.0135 34.0326L23.4073 35.6388Z" fill="#0D0D0D"/>
<path d="M33.0948 28.1069L30.17 31.0317L24.8445 25.7063L23.585 26.9656L30.0348 33.4071L34.2107 29.2313L33.0948 28.1069Z" fill="#0D0D0D"/>
<path d="M38.3609 22.8405L35.3685 25.8245L33.8047 24.2606L36.3491 21.7162L35.2248 20.592L32.6803 23.1364L31.1758 21.6232L34.1597 18.6392L33.0355 17.5149L28.792 21.7584L35.2333 28.2083L39.4768 23.9563L38.3609 22.8405Z" fill="#0D0D0D"/>
<path opacity="0.06" d="M47.0933 15.8061L47.0765 15.8315L49.7054 13.2025L47.0933 15.8061ZM47.0681 15.8315V15.8399H47.0765V15.8315H47.0681ZM47.0596 15.8399L46.4087 16.4909V16.4993L47.0681 15.8399H47.0596ZM47.0596 15.8399L46.4087 16.4909V16.4993L47.0681 15.8399H47.0596ZM54.0165 3.904C53.9743 3.37998 53.8812 2.88969 53.746 2.45852C53.6867 2.2726 53.6107 2.12052 53.5431 1.95142L52.3259 3.16868C52.6724 4.5634 52.5034 6.71893 51.5398 9.09434C51.3369 9.5932 51.1171 10.0579 50.8888 10.4806C50.8804 10.506 50.8635 10.5229 50.8635 10.5398C50.7873 10.675 50.7113 10.8019 50.6437 10.9202C50.5507 11.0725 50.4661 11.2077 50.3816 11.3429C50.2548 11.5373 50.128 11.7148 50.0012 11.8923C49.9421 11.977 49.8744 12.0616 49.8068 12.146C49.7476 12.2221 49.6885 12.3067 49.6208 12.3826C49.6377 12.4757 49.6462 12.5686 49.6547 12.6701C49.6377 12.577 49.6208 12.4842 49.6123 12.3911C49.6123 12.3996 49.6124 12.3996 49.6039 12.408C49.2489 9.81285 48.9953 7.98696 48.9953 7.98696C48.9953 7.98696 48.5134 7.91927 47.6935 7.80104L43.4077 12.0867C43.4246 12.2306 43.4414 12.3742 43.4668 12.518C43.4922 12.6532 43.5176 12.7883 43.5428 12.9238C43.5767 13.059 43.6105 13.1859 43.6444 13.3041C43.6782 13.4308 43.7204 13.5492 43.7627 13.6675C43.805 13.7859 43.8558 13.8957 43.9064 14.0055C43.9572 14.107 44.0079 14.2168 44.0671 14.3098C44.1685 14.4958 44.2784 14.6564 44.4052 14.8087C44.4137 14.8256 44.4221 14.8425 44.439 14.8595C44.1431 14.91 43.8304 14.8931 43.543 14.8002C43.2302 14.7072 42.9343 14.5382 42.6893 14.2929C42.4188 14.0224 42.2327 13.6927 42.1567 13.3378L40.8548 14.6482H40.8464L39.5192 15.9752L32.5115 22.983L31.2519 24.2425L27.3128 28.1903L26.0532 29.4414L23.8131 31.6815L22.6381 32.8563L22.2409 33.2535L21.0152 34.4794L16.2729 39.2215L14.6752 40.8193L9.45117 46.0433L19.0625 55.6544C19.5866 56.1787 20.212 56.542 20.8714 56.7534C22.4353 57.2607 24.2188 56.8885 25.453 55.6544L51.1845 29.9314L51.2014 29.906C51.2184 29.8891 51.2438 29.847 51.2522 29.8047C51.2607 29.7709 51.269 29.737 51.2775 29.6947C51.2859 29.644 51.2944 29.585 51.3029 29.5257C51.5311 27.6915 50.6097 19.9989 49.8743 14.3353V14.3269C49.9503 14.2592 50.0265 14.1917 50.1025 14.1156C50.1787 14.0479 50.2463 13.9635 50.3223 13.8873C51.3536 12.8223 52.2834 11.3683 52.9681 9.66924C52.9766 9.66078 52.985 9.65232 52.985 9.64386C53.7967 7.66555 54.1603 5.62847 54.0165 3.904ZM45.5549 11.4274C46.2649 12.1291 46.3411 13.2278 45.7831 14.0224C45.3182 13.6251 45.0139 12.8475 44.9293 11.8077C44.9039 11.5457 44.9039 11.2668 44.9039 10.9878C45.1406 11.0808 45.369 11.2331 45.5549 11.4274ZM46.3157 16.5922L45.0984 17.8011L46.2143 16.6768L46.2312 16.6599L46.4087 16.4909L46.4256 16.4655L47.0596 15.8399L46.4087 16.4909V16.4993L46.3157 16.5922ZM47.0596 15.8399L46.4087 16.4909V16.4993L47.0681 15.8399H47.0596ZM47.0681 15.8315V15.8399H47.0765V15.8315H47.0681Z" fill="#040000"/>
</g>
<defs>
<clipPath id="clip0_1_6032">
<rect width="57" height="57" fill="white"/>
</clipPath>
</defs>
</svg>
