<svg width="41" height="46" viewBox="0 0 41 46" fill="none" xmlns="http://www.w3.org/2000/svg">
<path d="M35.8923 23.9905C35.282 23.6386 34.6575 23.3509 34.0298 23.1217C34.6575 22.8926 35.282 22.6048 35.8923 22.2529C40.1973 19.7681 42.1662 15.12 40.2907 11.8717C38.4151 8.62344 33.4054 8.0055 29.1015 10.4903C28.4912 10.8422 27.9297 11.2396 27.4182 11.6686C27.5333 11.0105 27.5963 10.3263 27.5963 9.62149C27.5963 4.65081 24.5555 0.621704 20.8055 0.621704C17.0555 0.621704 14.0146 4.65081 14.0146 9.62149C14.0146 10.3263 14.0776 11.0105 14.1927 11.6686C13.6812 11.2396 13.1198 10.8422 12.5094 10.4903C8.20555 8.0055 3.19577 8.62344 1.32023 11.8717C-0.555315 15.12 1.41471 19.767 5.71858 22.2529C6.32892 22.6048 6.95337 22.8926 7.58109 23.1217C6.95337 23.3509 6.32892 23.6386 5.71858 23.9905C1.41363 26.4753 -0.555315 31.1234 1.32023 34.3717C3.19577 37.62 8.20555 38.2379 12.5094 35.7531C13.1198 35.4012 13.6812 35.0038 14.1927 34.5748C14.0776 35.2329 14.0146 35.9171 14.0146 36.6219C14.0146 41.5926 17.0555 45.6217 20.8055 45.6217C24.5555 45.6217 27.5963 41.5926 27.5963 36.6219C27.5963 35.9171 27.5333 35.2329 27.4182 34.5748C27.9297 35.0038 28.4912 35.4002 29.1015 35.7531C33.4065 38.2379 38.4162 37.62 40.2907 34.3717C42.1662 31.1224 40.1973 26.4753 35.8923 23.9905Z" fill="#7E77FF"/>
</svg>
