<svg width="26" height="30" viewBox="0 0 26 30" fill="none" xmlns="http://www.w3.org/2000/svg">
<circle cx="14.5" cy="18.4996" r="11.5" fill="#22E393"/>
<path d="M0.536491 4.92805C0.345089 6.10535 0.555358 7.31281 1.13346 8.35612C1.71156 9.39942 2.62387 10.2179 3.72356 10.6798C4.82326 11.1417 6.04638 11.2202 7.19608 10.9026C8.34578 10.585 9.3552 9.88987 10.0619 8.929C10.7686 7.96814 11.1314 6.79745 11.092 5.60534C11.0526 4.41323 10.6133 3.26904 9.84475 2.35691C9.07619 1.44477 8.02308 0.817743 6.85493 0.576733C5.68677 0.335723 4.47149 0.494748 3.40469 1.02822L4.18659 2.59182C4.90242 2.23386 5.71786 2.12715 6.50169 2.28887C7.28553 2.45059 7.99216 2.87132 8.50786 3.48336C9.02357 4.0954 9.31835 4.86315 9.34478 5.66305C9.37121 6.46296 9.12774 7.24849 8.65356 7.89322C8.17937 8.53796 7.50206 9.00441 6.73061 9.2175C5.95916 9.43059 5.13845 9.37793 4.40055 9.068C3.66266 8.75806 3.05051 8.20887 2.6626 7.50882C2.2747 6.80877 2.13361 5.99856 2.26204 5.2086L0.536491 4.92805Z" fill="#22E393"/>
</svg>
