<svg width="93" height="93" viewBox="0 0 93 93" fill="none" xmlns="http://www.w3.org/2000/svg">
<rect width="93" height="93" rx="10" fill="url(#paint0_linear_1_6547)" fill-opacity="0.1"/>
<rect x="1" y="1" width="91" height="91" rx="9" stroke="white" stroke-opacity="0.8" stroke-width="2"/>
<path fill-rule="evenodd" clip-rule="evenodd" d="M60.888 58.3763V54.6187C60.888 53.6883 61.2576 52.7959 61.9156 52.1379L64.5728 49.4807C65.9428 48.1107 65.9428 45.8891 64.5728 44.5191L61.9156 41.8619C61.2576 41.2039 60.888 40.3116 60.888 39.3811V35.6207C60.888 33.683 59.3172 32.1123 57.3796 32.1123H53.6192C52.6888 32.1123 51.7964 31.7426 51.1384 31.0847L48.4812 28.4275C47.1112 27.0574 44.8896 27.0574 43.5196 28.4275L40.8624 31.0847C40.2044 31.7426 39.312 32.1123 38.3816 32.1123H34.6212C33.6902 32.1123 32.7974 32.4823 32.1394 33.1409C31.4813 33.7994 31.112 34.6925 31.1128 35.6235V39.3811C31.1128 40.3116 30.7431 41.2039 30.0852 41.8619L27.428 44.5191C26.0579 45.8891 26.0579 48.1107 27.428 49.4807L30.0852 52.1379C30.7431 52.7959 31.1128 53.6883 31.1128 54.6187V58.3763C31.1128 60.3139 32.6835 61.8847 34.6212 61.8847H38.3816C39.312 61.8847 40.2044 62.2543 40.8624 62.9123L43.5196 65.5695C44.8896 66.9395 47.1112 66.9395 48.4812 65.5695L51.1384 62.9123C51.7964 62.2543 52.6888 61.8847 53.6192 61.8847H57.3768C58.3078 61.8855 59.2007 61.5162 59.8593 60.8579C60.5178 60.1999 60.888 59.3073 60.888 58.3763Z" stroke="#3830C9" stroke-width="3.6" stroke-linecap="round" stroke-linejoin="round"/>
<path fill-rule="evenodd" clip-rule="evenodd" d="M38.3899 43.195C37.6202 42.4255 37.39 41.2682 37.8064 40.2627C38.2229 39.2572 39.204 38.6016 40.2924 38.6016C41.3808 38.6016 42.3619 39.2572 42.7785 40.2627C43.1949 41.2682 42.9647 42.4255 42.195 43.195C41.1442 44.2458 39.4406 44.2458 38.3899 43.195Z" stroke="#3830C9" stroke-width="3.6" stroke-linecap="round" stroke-linejoin="round"/>
<path fill-rule="evenodd" clip-rule="evenodd" d="M49.8049 54.6103C49.0352 53.8406 48.8051 52.6833 49.2214 51.6778C49.6381 50.6721 50.6192 50.0166 51.7075 50.0166C52.7959 50.0166 53.777 50.6721 54.1934 51.6778C54.61 52.6833 54.3796 53.8406 53.6101 54.6103C52.5593 55.6608 50.8558 55.6608 49.8049 54.6103Z" stroke="#3830C9" stroke-width="3.6" stroke-linecap="round"/>
<path d="M53.6103 39.3867L38.3867 54.6131" stroke="#3830C9" stroke-width="3.6" stroke-linecap="round"/>
<defs>
<linearGradient id="paint0_linear_1_6547" x1="46.5" y1="0" x2="46.5" y2="93" gradientUnits="userSpaceOnUse">
<stop stop-color="#0143BE"/>
<stop offset="1" stop-color="#00B182"/>
</linearGradient>
</defs>
</svg>
