<svg width="93" height="93" viewBox="0 0 93 93" fill="none" xmlns="http://www.w3.org/2000/svg">
<rect width="93" height="93" rx="10" fill="url(#paint0_linear_1_6537)" fill-opacity="0.1"/>
<rect x="1" y="1" width="91" height="91" rx="9" stroke="white" stroke-opacity="0.8" stroke-width="2"/>
<path fill-rule="evenodd" clip-rule="evenodd" d="M46.5004 28.2335C36.4114 28.2335 28.2326 36.4123 28.2326 46.5014C28.2326 56.5904 36.4114 64.7693 46.5004 64.7693C56.5894 64.7693 64.7683 56.5904 64.7683 46.5014C64.7683 44.6224 64.4851 42.8126 63.9603 41.1107C63.6901 40.2342 64.1815 39.3046 65.0579 39.0343C65.9343 38.7641 66.8641 39.2555 67.1342 40.132C67.7558 42.1475 68.0897 44.2869 68.0897 46.5014C68.0897 58.4249 58.4239 68.0907 46.5004 68.0907C34.577 68.0907 24.9111 58.4249 24.9111 46.5014C24.9111 34.578 34.577 24.9121 46.5004 24.9121C48.0303 24.9121 49.5249 25.0715 50.9677 25.3752C51.8652 25.5641 52.4396 26.4448 52.2507 27.3424C52.0618 28.2399 51.181 28.8143 50.2835 28.6254C49.0643 28.3688 47.7991 28.2335 46.5004 28.2335ZM68.2952 26.5551C68.9438 27.2037 68.9438 28.2552 68.2952 28.9037L59.438 37.7609C58.7895 38.4094 57.7381 38.4094 57.0896 37.7609L52.661 33.3323C52.0124 32.6838 52.0124 31.6323 52.661 30.9837C53.3096 30.3352 54.3609 30.3352 55.0095 30.9837L58.2638 34.238L65.9467 26.5551C66.5953 25.9066 67.6466 25.9066 68.2952 26.5551ZM46.5004 31.555C47.4176 31.555 48.1611 32.2985 48.1611 33.2157V36.033H48.2205C51.6272 36.033 54.3888 38.7946 54.3888 42.2013C54.3888 43.1186 53.6453 43.862 52.7281 43.862C51.8109 43.862 51.0674 43.1186 51.0674 42.2013C51.0674 40.629 49.7928 39.3544 48.2205 39.3544H48.1611V44.8704H48.3392C51.6803 44.8704 54.3888 47.5789 54.3888 50.92C54.3888 54.2614 51.6803 56.9699 48.3392 56.9699H48.1611V59.7871C48.1611 60.7043 47.4176 61.4478 46.5004 61.4478C45.5833 61.4478 44.8397 60.7043 44.8397 59.7871V56.9699H44.6617C41.3206 56.9699 38.612 54.2614 38.612 50.92C38.612 50.0029 39.3556 49.2593 40.2727 49.2593C41.1899 49.2593 41.9335 50.0029 41.9335 50.92C41.9335 52.4268 43.1549 53.6485 44.6617 53.6485H44.8397V48.1918H44.6913C41.3339 48.1918 38.612 45.47 38.612 42.1125C38.612 38.7548 41.3339 36.033 44.6913 36.033H44.8397V33.2157C44.8397 32.2985 45.5833 31.555 46.5004 31.555ZM44.8397 39.3544H44.6913C43.1681 39.3544 41.9335 40.5892 41.9335 42.1125C41.9335 43.6355 43.1681 44.8704 44.6913 44.8704H44.8397V39.3544ZM48.1611 48.1918V53.6485H48.3392C49.8458 53.6485 51.0674 52.4268 51.0674 50.92C51.0674 49.4132 49.846 48.1918 48.3392 48.1918H48.1611Z" fill="#3830C9"/>
<defs>
<linearGradient id="paint0_linear_1_6537" x1="46.5" y1="0" x2="46.5" y2="93" gradientUnits="userSpaceOnUse">
<stop stop-color="#0143BE"/>
<stop offset="1" stop-color="#00B182"/>
</linearGradient>
</defs>
</svg>
