<svg xmlns="http://www.w3.org/2000/svg" width="59" height="59" viewBox="0 0 59 59" fill="none" >
    <g clip-path="url(#clip0_1_6513)">
    <path d="M26.5523 5.0912C39.9901 3.50565 52.1689 13.1138 53.7544 26.5515C55.34 39.9893 45.7319 52.1681 32.2941 53.7536C18.8563 55.3392 6.67755 45.7311 5.09201 32.2933C3.50646 18.8555 13.1146 6.67674 26.5523 5.0912Z" fill="white" stroke="url(#paint0_linear_1_6513)" stroke-width="4"/>
    <path fill-rule="evenodd" clip-rule="evenodd" d="M23.6182 36.7807C27.2765 39.6668 29.1056 41.1098 31.1387 40.8699C33.1718 40.63 34.6148 38.8009 37.5009 35.1426C40.387 31.4843 41.83 29.6553 41.5901 27.6222C41.3502 25.5891 39.5211 24.146 35.8628 21.2599C32.2046 18.3739 30.3754 16.9308 28.3424 17.1707C26.3093 17.4106 24.8662 19.2397 21.9801 22.898C19.094 26.5563 17.651 28.3854 17.8909 30.4185C18.1308 32.4516 19.9599 33.8946 23.6182 36.7807ZM32.4243 32.9654C32.1058 33.3433 31.5412 33.3916 31.1632 33.0731C30.7853 32.7547 30.7371 32.1901 31.0556 31.8121L32.4077 30.2075L28.3353 30.688C27.6775 30.7656 26.6813 30.7025 25.7753 30.235C24.818 29.7411 24.0093 28.8141 23.8323 27.3146C23.7744 26.8237 24.1253 26.3789 24.6162 26.321C25.107 26.2631 25.5519 26.614 25.6098 27.1048C25.7125 27.9752 26.1317 28.405 26.5959 28.6445C27.1113 28.9104 27.7301 28.9572 28.1256 28.9105L32.198 28.43L30.5095 27.184C30.1118 26.8906 30.0273 26.3304 30.3207 25.9327C30.6142 25.5349 31.1745 25.4505 31.5722 25.7439L35.0816 28.3335C35.2806 28.4803 35.41 28.7031 35.439 28.9487C35.468 29.1944 35.394 29.441 35.2346 29.6302L32.4243 32.9654Z" fill="#D0514A"/>
    </g>
    <defs>
    <linearGradient id="paint0_linear_1_6513" x1="32.0597" y1="51.7674" x2="26.7867" y2="7.07742" gradientUnits="userSpaceOnUse">
    <stop stop-color="#83AFD2"/>
    <stop offset="1" stop-color="#9AC1E2"/>
    </linearGradient>
    <clipPath id="clip0_1_6513">
    <rect width="53" height="53" fill="white" transform="matrix(0.993111 -0.117179 -0.117179 -0.993111 6.21094 58.8452)"/>
    </clipPath>
    </defs>
</svg>