<svg width="68" height="68" viewBox="0 0 68 68" fill="none" xmlns="http://www.w3.org/2000/svg">
<g clip-path="url(#clip0_1_6516)">
<path d="M41.6203 10.4943C28.8221 6.1018 14.8863 12.9159 10.4938 25.7141C6.10129 38.5123 12.9154 52.4481 25.7136 56.8406C38.5118 61.2331 52.4476 54.419 56.8401 41.6208C61.2326 28.8226 54.4185 14.8868 41.6203 10.4943Z" fill="white" stroke="url(#paint0_linear_1_6516)" stroke-width="4"/>
<path fill-rule="evenodd" clip-rule="evenodd" d="M37.7843 42.0872C33.5982 44.134 31.5052 45.1574 29.5689 44.4928C27.6326 43.8283 26.6092 41.7353 24.5623 37.5492C22.5155 33.3631 21.4921 31.2702 22.1567 29.3338C22.8213 27.3975 24.9142 26.3741 29.1003 24.3273C33.2863 22.2805 35.3793 21.2571 37.3157 21.9216C39.252 22.5862 40.2754 24.6792 42.3222 28.8652C44.3691 33.0513 45.3925 35.1443 44.7279 37.0806C44.0633 39.0169 41.9703 40.0403 37.7843 42.0872ZM29.9846 36.4953C30.216 36.932 30.7575 37.0986 31.1944 36.8673C31.6311 36.6361 31.7977 36.0944 31.5663 35.6576L30.5843 33.8032L34.4628 35.1344C35.0894 35.3494 36.0763 35.4985 37.0607 35.2333C38.1009 34.9531 39.0874 34.2181 39.5776 32.79C39.738 32.3225 39.4892 31.8135 39.0217 31.6531C38.5542 31.4926 38.0452 31.7415 37.8847 32.209C37.6002 33.0379 37.0995 33.3693 36.5952 33.5052C36.0352 33.6561 35.4206 33.5708 35.0439 33.4415L31.1653 32.1104L33.0791 31.2498C33.5299 31.0472 33.7311 30.5175 33.5284 30.0667C33.3257 29.6159 32.796 29.4148 32.3452 29.6175L28.3673 31.406C28.1418 31.5074 27.9682 31.6978 27.8879 31.9317C27.8076 32.1657 27.8278 32.4224 27.9435 32.641L29.9846 36.4953Z" fill="#D0514A"/>
</g>
<defs>
<linearGradient id="paint0_linear_1_6516" x1="26.3628" y1="54.9489" x2="40.971" y2="12.386" gradientUnits="userSpaceOnUse">
<stop stop-color="#83AFD2"/>
<stop offset="1" stop-color="#9AC1E2"/>
</linearGradient>
<clipPath id="clip0_1_6516">
<rect width="53" height="53" fill="white" transform="translate(50.1289 67.335) rotate(-161.057)"/>
</clipPath>
</defs>
</svg>
