<svg width="59" height="59" viewBox="0 0 59 59" fill="none" xmlns="http://www.w3.org/2000/svg">
<g clip-path="url(#clip0_1_6519)">
<path d="M53.4567 31.6085C54.8494 18.1494 45.0677 6.10965 31.6085 4.71697C18.1494 3.32429 6.10967 13.1061 4.71699 26.5652C3.3243 40.0243 13.1061 52.0641 26.5652 53.4567C40.0243 54.8494 52.0641 45.0676 53.4567 31.6085Z" fill="white" stroke="url(#paint0_linear_1_6519)" stroke-width="4"/>
<path fill-rule="evenodd" clip-rule="evenodd" d="M27.9159 19.2138C26.3802 19.1596 25.0913 20.3605 25.0371 21.8961L25.0043 22.8233C24.4433 22.8052 23.9483 22.7971 23.5308 22.8349C22.9823 22.8846 22.452 23.0207 21.9856 23.3971C21.5193 23.7735 21.2744 24.2632 21.1102 24.7889C20.9576 25.277 20.8475 25.8922 20.7207 26.6003L20.7109 26.6551L19.7082 32.2533C19.5427 33.177 19.4015 33.9656 19.3778 34.6034C19.3525 35.2824 19.4509 35.9545 19.9166 36.5314C20.3823 37.1082 21.0185 37.3462 21.6875 37.4648C22.316 37.5762 23.1166 37.6045 24.0544 37.6375L32.3208 37.9297C33.2587 37.9629 34.0593 37.9912 34.694 37.9245C35.3697 37.8534 36.0212 37.661 36.5264 37.1184C37.0317 36.5758 37.1773 35.9123 37.2 35.2333C37.2214 34.5954 37.1362 33.7988 37.0363 32.8656L36.4254 27.1553C36.349 26.44 36.2825 25.8186 36.1648 25.3209C36.0381 24.785 35.8284 24.2792 35.3898 23.8708C34.9512 23.4624 34.4318 23.2893 33.8882 23.201C33.4743 23.1338 32.98 23.1069 32.4191 23.0854L32.4519 22.1582C32.5061 20.6225 31.3053 19.3336 29.7696 19.2793L27.9159 19.2138ZM30.5654 23.0195L30.5982 22.0926C30.6163 21.5808 30.216 21.1511 29.7041 21.133L27.8504 21.0675C27.3385 21.0494 26.9089 21.4497 26.8908 21.9616L26.858 22.8885L30.5654 23.0195ZM25.8656 24.7094C26.3775 24.7275 26.7778 25.1571 26.7597 25.669L26.6942 27.5227C26.6761 28.0346 26.2465 28.4349 25.7346 28.4168C25.2227 28.3987 24.8224 27.9691 24.8405 27.4572L24.906 25.6035C24.9241 25.0916 25.3538 24.6913 25.8656 24.7094ZM32.3208 25.8656C32.3389 25.3537 31.9387 24.9241 31.4268 24.906C30.9149 24.8879 30.4852 25.2882 30.4671 25.8001L30.4016 27.6538C30.3835 28.1657 30.7838 28.5953 31.2957 28.6134C31.8076 28.6315 32.2372 28.2312 32.2553 27.7193L32.3208 25.8656Z" fill="#737955"/>
</g>
<defs>
<linearGradient id="paint0_linear_1_6519" x1="6.70636" y1="26.771" x2="51.4674" y2="31.4027" gradientUnits="userSpaceOnUse">
<stop stop-color="#83AFD2"/>
<stop offset="1" stop-color="#9AC1E2"/>
</linearGradient>
<clipPath id="clip0_1_6519">
<rect width="53" height="53" fill="white" transform="translate(0 52.7188) rotate(-84.0923)"/>
</clipPath>
</defs>
</svg>
