<svg width="184" height="124" viewBox="0 0 184 124" fill="none" xmlns="http://www.w3.org/2000/svg">
<g clip-path="url(#clip0_1_7439)">
<path d="M51.9186 21.3319C51.9234 18.5863 54.2245 16.3585 56.9503 16.4011C59.7001 16.3529 61.9878 18.6383 61.983 21.3537C61.9906 22.0106 61.8657 22.6624 61.6156 23.2713C61.3654 23.8803 60.9949 24.4342 60.5257 24.9008C60.0565 25.3675 59.4978 25.7376 58.8822 25.9898C58.2666 26.2419 57.6063 26.371 56.9396 26.3696C56.2729 26.3681 55.6132 26.2362 54.9987 25.9814C54.3842 25.7266 53.8272 25.354 53.3601 24.8853C52.8929 24.4166 52.5249 23.8611 52.2775 23.2511C52.03 22.6411 51.908 21.9887 51.9186 21.3319Z" fill="#FEFEFE"/>
<path d="M76.5607 21.379C76.5424 18.7111 78.734 16.3849 81.5933 16.3877C82.5865 16.3883 83.5573 16.6786 84.3832 17.222C85.2092 17.7654 85.8534 18.5376 86.2347 19.4413C86.616 20.3449 86.7172 21.3396 86.5257 22.2999C86.3342 23.2601 85.8584 24.143 85.1584 24.8373C84.4584 25.5315 83.5655 26.006 82.5923 26.201C81.619 26.3959 80.609 26.3026 79.6895 25.9328C78.77 25.5629 77.9822 24.9331 77.4254 24.1227C76.8686 23.3123 76.5677 22.3577 76.5607 21.379Z" fill="#FEFEFE"/>
<path d="M69.2551 36.6517C69.2288 36.6152 69.2128 36.5725 69.2089 36.5278C69.2051 36.4832 69.2134 36.4384 69.233 36.398C70.0795 34.5121 71.1133 32.7426 72.567 31.2372C73.792 29.9695 75.214 28.9867 76.8973 28.3969C78.9698 27.6736 81.0518 27.6972 83.1329 28.3657C84.6769 28.8627 86.0461 29.6731 87.3114 30.6635C87.6304 30.9134 87.9436 31.1681 88.2597 31.4625C87.2576 32.6204 86.2661 33.7812 85.2947 34.9589C84.3233 36.1367 83.3664 37.3258 82.4402 38.5756C82.1652 38.3069 81.8766 38.0522 81.5754 37.8125C81.2127 37.5199 80.8096 37.2795 80.3783 37.0986C80.264 37.0456 80.1364 37.0268 80.0113 37.0447C79.8863 37.0625 79.7693 37.1162 79.675 37.199C79.2518 37.5393 78.8894 37.947 78.6027 38.4052C78.1649 39.0992 77.7964 39.8336 77.5026 40.5979C76.9002 42.0966 76.4457 43.6436 76.0287 45.2001C75.8318 45.9272 75.6444 46.6581 75.4523 47.3918C75.3639 47.3691 75.3562 47.2972 75.3216 47.2385C73.473 44.0119 71.6251 40.7853 69.7778 37.5587C69.6029 37.2567 69.4319 36.9528 69.2551 36.6517Z" fill="#FEFEFE"/>
<path d="M98.4721 20.9646C98.3291 20.3318 98.3186 19.6769 98.4412 19.0399C98.5638 18.4029 98.8168 17.7973 99.185 17.2599C99.994 16.0509 101.139 15.3266 102.595 15.0824C102.775 15.0521 102.964 15.0871 103.134 15.0038C103.119 15.1288 103.014 15.0985 102.942 15.106C101.85 15.1981 100.82 15.6466 100.016 16.3804C99.2121 17.1142 98.6796 18.0915 98.5028 19.1572C98.2511 20.7573 98.671 22.1869 99.8038 23.3628C100.675 24.254 101.856 24.7886 103.11 24.8598C104.364 24.9311 105.599 24.5338 106.569 23.7472C107.061 23.3561 107.469 22.8732 107.772 22.3262C108.074 21.7792 108.264 21.1788 108.33 20.5594C108.42 19.9046 108.369 19.2386 108.182 18.6041C107.995 17.9697 107.675 17.3809 107.243 16.8755C106.397 15.8521 105.296 15.2708 103.97 15.1051C103.882 15.0937 103.761 15.142 103.73 15C103.875 15.0862 104.042 15.0511 104.198 15.0767C105.354 15.2562 106.408 15.8318 107.176 16.7023C107.778 17.3659 108.181 18.1815 108.339 19.0578C108.586 20.2884 108.337 21.5654 107.646 22.6186C107.301 23.1714 106.846 23.6498 106.309 24.0254C105.771 24.401 105.163 24.6661 104.519 24.8047C103.405 25.0763 102.229 24.9463 101.203 24.4383C99.7355 23.7216 98.8007 22.559 98.4721 20.9646Z" fill="#FEFEFE"/>
<path d="M110.556 57.105C111.083 57.9914 111.696 58.8245 112.389 59.5922C112.39 59.609 112.386 59.6257 112.378 59.6405C112.37 59.6553 112.358 59.6674 112.343 59.6755C111.101 60.6507 109.782 61.5018 108.318 62.12C107.1 62.6519 105.791 62.9507 104.46 63.0005C102.27 63.0611 100.281 62.4495 98.4946 61.2017C97.3051 60.3704 96.3184 59.3385 95.4325 58.2061C94.5908 57.1325 93.8568 55.9879 93.1477 54.8281C92.6173 53.9599 92.0399 53.1239 91.499 52.2586C91.3452 52.0124 91.3433 51.8477 91.5057 51.5958C93.2851 48.8931 95.0562 46.1847 96.8189 43.4707C96.8591 43.3894 96.9134 43.3157 96.9794 43.2529C97.0391 43.3127 97.0879 43.3822 97.1235 43.4584C98.8651 46.3264 100.607 49.1948 102.348 52.0635C102.766 52.7547 103.399 53.1211 104.174 53.2801C104.491 53.342 104.817 53.342 105.135 53.2801C105.446 53.231 105.742 53.1121 105.999 52.9326C106.534 52.5501 107.039 52.1293 107.511 51.6734C107.624 51.5627 107.734 51.4481 107.847 51.3326C107.906 51.4119 107.948 51.502 107.97 51.5977C108.674 53.5064 109.499 55.3592 110.556 57.105Z" fill="#FEFEFE"/>
<path d="M49.7998 42.4712C49.8796 42.3349 49.8728 42.1777 49.8815 42.0338C49.9319 41.2582 50.0405 40.4873 50.2062 39.7275C50.4163 38.7291 50.7196 37.752 51.1123 36.8086C51.5934 35.6455 52.1928 34.5334 52.9013 33.4893C53.368 32.7943 53.9212 32.1598 54.5481 31.6005C55.5156 30.7408 56.6273 30.1576 57.9224 29.9522C58.4771 29.8712 59.0402 29.8626 59.5971 29.9266C60.3149 30.0006 61.0146 30.1953 61.6657 30.5022C62.2398 30.7761 62.7729 31.1266 63.2501 31.5437C64.2109 32.3664 64.9632 33.3548 65.6434 34.4029C66.5427 35.789 67.2768 37.2602 67.9955 38.7429C68.5979 39.9916 69.158 41.2603 69.7451 42.5167C70.188 43.4634 70.7337 44.3619 71.2228 45.2878C71.4957 45.8038 71.782 46.3132 72.0616 46.8263C72.688 47.971 73.3039 49.1213 73.9428 50.2593C74.208 50.7327 74.5875 51.1218 74.9747 51.5015C75.1367 51.6627 75.3129 51.8094 75.5012 51.9398C75.568 51.99 75.6484 52.0195 75.7323 52.0245C75.8161 52.0296 75.8995 52.01 75.972 51.9682C76.2073 51.8561 76.424 51.7096 76.6148 51.5336C77.1823 51.0127 77.7129 50.454 78.203 49.8617C79.6337 48.1499 80.9355 46.3444 82.2048 44.5143C82.9881 43.3852 83.7651 42.2506 84.5357 41.1107C85.2985 39.985 86.1123 38.8953 86.9204 37.797C87.5795 36.9052 88.2386 36.0127 88.8977 35.1196C89.233 34.668 89.6 34.241 89.9632 33.8121C90.7088 32.9274 91.5033 32.0838 92.3431 31.2852C93.5336 30.1633 94.8037 29.1417 96.2305 28.3218C97.493 27.5957 98.8314 27.0607 100.276 26.8136C100.985 26.6863 101.708 26.639 102.429 26.6726C103.755 26.7426 105.057 27.0487 106.272 27.5758C107.692 28.1947 109.016 29.0081 110.205 29.9919C111.151 30.7768 112.009 31.6595 112.763 32.6249C113.663 33.7757 114.438 35.0165 115.075 36.3267C115.712 37.6351 116.248 38.9894 116.676 40.3779C117.02 41.4743 117.314 42.5839 117.623 43.6916C118.007 45.0802 118.391 46.4707 118.776 47.863C118.987 48.6271 119.191 49.393 119.416 50.1542C119.499 50.4142 119.603 50.6674 119.726 50.9116C119.976 51.4725 120.269 52.0141 120.602 52.5315C120.806 52.8343 121.056 53.1052 121.341 53.3353C123.111 52.9756 124.416 51.9862 125.32 50.4666C125.902 49.4915 126.258 48.432 126.493 47.3319C126.856 45.6277 126.946 43.9018 126.891 42.1645C126.859 41.1969 126.788 40.2318 126.678 39.2693C126.563 38.2594 126.406 37.2586 126.209 36.2671C126.199 36.2345 126.186 36.2028 126.17 36.1724C126.266 36.1932 126.266 36.3078 126.29 36.3939C126.469 37.2309 126.598 38.0763 126.699 38.9256C126.822 39.967 126.891 41.0151 126.941 42.066C127.034 43.8264 126.905 45.5914 126.556 47.3205C126.285 48.6261 125.844 49.8702 125.061 50.9788C124.249 52.1658 123.015 53.0102 121.602 53.3457C121.544 53.3632 121.484 53.3736 121.423 53.377C121.406 53.3789 121.39 53.3789 121.374 53.377H121.354C121.259 53.345 121.174 53.2876 121.11 53.2113C120.715 52.844 120.429 52.398 120.169 51.9322C119.659 50.9906 119.269 49.9905 119.007 48.9547C118.378 46.5982 117.718 44.2511 117.065 41.9013C116.686 40.4971 116.219 39.1175 115.666 37.7705C114.807 35.7227 113.712 33.8131 112.262 32.1108C110.952 30.571 109.368 29.2788 107.588 28.2972C106.475 27.6639 105.269 27.2067 104.012 26.9424C101.874 26.5116 99.8124 26.7748 97.8168 27.6118C96.2546 28.2669 94.8691 29.1966 93.5816 30.2778C92.9686 30.7938 92.3691 31.325 91.8089 31.8959C90.9458 32.7684 90.1296 33.6848 89.3637 34.6415C88.327 35.9461 87.3787 37.3151 86.3756 38.6453C84.9911 40.4802 83.7555 42.4163 82.4363 44.2975C81.169 46.1106 79.8854 47.9132 78.4807 49.6278C77.9231 50.3127 77.3196 50.9602 76.6744 51.5658C76.473 51.7532 76.2431 51.9084 75.9932 52.026C75.9099 52.0733 75.814 52.0949 75.7181 52.088C75.6222 52.0811 75.5306 52.0459 75.4551 51.9871C74.969 51.6444 74.5856 51.2032 74.2061 50.7564C73.8919 50.3862 73.6853 49.9535 73.4586 49.5331C72.395 47.5639 71.3189 45.6003 70.2466 43.6348C69.7182 42.6663 69.2858 41.6561 68.8227 40.6601C67.7658 38.3878 66.7138 36.1156 65.3139 34.0242C64.8538 33.3253 64.3244 32.6732 63.7333 32.0776C62.6659 31.0173 61.4197 30.258 59.8901 30.0307C58.0031 29.7467 56.3352 30.2324 54.8623 31.4206C53.7583 32.3124 52.9407 33.4344 52.246 34.6472C51.4236 36.0564 50.8022 37.5707 50.3993 39.1471C50.1544 40.0769 50.0035 41.0283 49.9487 41.9874C49.943 42.1162 49.9093 42.2412 49.894 42.3661C49.8882 42.4201 49.8796 42.4816 49.7998 42.4712Z" fill="#FEFEFE"/>
<path d="M121.867 21.3304C121.87 20.348 122.168 19.3884 122.725 18.5734C123.282 17.7585 124.072 17.1249 124.995 16.7529C125.917 16.381 126.931 16.2875 127.908 16.4844C128.885 16.6812 129.78 17.1595 130.481 17.8585C131.181 18.5576 131.655 19.4459 131.843 20.4109C132.03 21.3758 131.923 22.3738 131.533 23.2783C131.144 24.1828 130.491 24.9531 129.657 25.4914C128.823 26.0297 127.846 26.3118 126.849 26.3018C124.101 26.2952 121.86 24.0618 121.867 21.3304Z" fill="#FEFEFE"/>
<path d="M133.774 43.4502C133.678 46.0538 133.261 48.61 132.352 51.0716C131.736 52.7389 130.891 54.283 129.739 55.654C129.663 55.7587 129.562 55.8425 129.444 55.8973C129.371 56.0355 129.231 56.1075 129.117 56.2021C128.295 56.873 127.415 57.4724 126.488 57.9934C125.181 58.7607 123.761 59.3241 122.279 59.6635C121.325 59.8723 120.345 59.9343 119.372 59.8472C117.663 59.7023 116.04 59.0429 114.723 57.9584C114.301 57.6189 113.915 57.2383 113.57 56.8223C113.368 56.5555 113.189 56.2727 113.035 55.9768C112.334 54.7343 111.703 53.4545 111.145 52.1434C110.715 51.1663 110.314 50.1902 109.946 49.198C109.833 48.895 109.771 48.5741 109.684 48.2616C109.348 47.0772 109.011 45.8947 108.677 44.7084C108.451 43.8999 108.217 43.0989 107.937 42.3027C107.494 41.0501 106.967 39.8411 106.23 38.7201C105.461 37.5275 104.409 36.5368 103.166 35.8335C102.456 35.4339 101.757 35.4349 101.032 35.7615C100.482 36.0166 99.9686 36.3402 99.503 36.7244C98.5317 37.5017 97.6852 38.3963 96.8791 39.3317C96.196 40.1213 95.557 40.9412 94.9325 41.7753C94.5482 42.2923 94.1898 42.8319 93.8209 43.3621C92.6842 44.9962 91.5361 46.6228 90.4148 48.2673C89.1216 50.1608 87.8206 52.0544 86.4035 53.8608C85.8289 54.5892 85.2294 55.2973 84.6048 55.9853C84.0812 56.561 83.5336 57.1129 82.9561 57.6336C82.0309 58.4687 81.0489 59.2308 79.9075 59.7677C79.1754 60.1182 78.3916 60.3521 77.5852 60.4607C77.1606 60.5245 76.7309 60.5492 76.3016 60.5345C75.3757 60.4815 74.4658 60.2728 73.6114 59.9172C72.6308 59.4988 71.7156 58.9451 70.8932 58.2727C70.4088 57.8903 69.9484 57.4793 69.5145 57.0419C68.6154 56.1199 67.7931 55.1279 67.0558 54.0757C66.0489 52.6508 65.2101 51.1322 64.4261 49.5795C62.5102 45.788 60.587 42.001 58.6565 38.2184C58.6258 38.1346 58.578 38.0579 58.5162 37.993C58.3981 38.1889 58.2953 38.3933 58.2087 38.6046C57.8092 39.5454 57.5154 40.5264 57.3325 41.5301C57.2566 41.9458 57.2037 42.3652 57.1701 42.7874C57.1471 43.0895 57.1355 43.3905 57.1317 43.6925C57.1131 45.0393 57.3386 46.3785 57.7975 47.6472C58.2349 48.8367 58.8626 49.9496 59.6567 50.9438C60.1843 51.6008 60.7663 52.2135 61.3967 52.7758C61.8095 53.1479 62.2442 53.4956 62.6986 53.8172C62.7639 53.8655 62.8254 53.9327 62.9215 53.9195C63.1746 53.7379 63.4075 53.5304 63.6161 53.3003L68.7084 60.4219C68.6166 60.5021 68.5145 60.5703 68.4048 60.6245C67.5284 61.129 66.5614 61.462 65.557 61.6053C64.5956 61.7286 63.6198 61.6831 62.6745 61.4709C61.1229 61.1367 59.7239 60.4626 58.4038 59.6152C57.7107 59.1825 57.0508 58.7003 56.4293 58.1724C55.7798 57.6043 55.2351 56.9463 54.6999 56.2788C53.9509 55.3482 53.2821 54.3576 52.7005 53.3173C52.4631 52.9301 52.2547 52.5268 52.0538 52.1206C51.5171 51.0415 51.0674 49.9224 50.7087 48.7738C50.4275 47.8809 50.2127 46.9689 50.0659 46.0452C49.9731 45.4947 49.909 44.9398 49.8738 44.3827C49.8824 44.2262 49.8572 44.0697 49.7998 43.9236C49.9257 43.9368 49.9007 44.0419 49.9093 44.1129C49.9766 44.6526 50.0054 45.1951 50.0823 45.7338C50.3455 47.4702 50.8264 49.1678 51.5139 50.7876C51.8763 51.6378 52.2832 52.469 52.7331 53.2776C52.7399 53.2899 52.7475 53.3022 52.7552 53.3145C52.7629 53.3268 52.7735 53.3467 52.7831 53.3628C53.5644 54.6969 54.4675 55.9582 55.481 57.1309C56.1276 57.8817 56.8867 58.5009 57.6909 59.0699C58.4505 59.6123 59.2539 60.0926 60.0929 60.5061C61.1837 61.0518 62.3614 61.4092 63.5748 61.5627C65.3119 61.7701 66.929 61.4122 68.4394 60.5393C68.6075 60.4446 68.5931 60.3565 68.4932 60.2174L66.3602 57.2303C65.5019 56.0311 64.6445 54.8319 63.7881 53.6326C63.6219 53.4007 63.6181 53.4016 63.4144 53.5938C63.2775 53.7372 63.1183 53.858 62.9426 53.9517H62.9234C62.9077 53.9531 62.892 53.9531 62.8763 53.9517C62.7915 53.9378 62.7125 53.9004 62.6486 53.8437C60.727 52.4236 59.1301 50.7317 58.1155 48.5617C57.55 47.3502 57.209 46.0487 57.1086 44.7188C56.9386 42.5839 57.3363 40.5531 58.1492 38.5791C58.2217 38.4038 58.3074 38.2342 58.4057 38.0716C58.4797 37.9476 58.5642 37.9381 58.644 38.0716C58.6911 38.1502 58.7295 38.2326 58.7708 38.314C60.8461 42.4008 62.9224 46.4883 64.9997 50.5765C65.9836 52.5144 67.1976 54.3304 68.6161 55.9863C69.5307 57.0694 70.5853 58.0297 71.7532 58.8427C72.9494 59.6616 74.2512 60.2306 75.7088 60.4228C76.9223 60.5828 78.0954 60.4029 79.2368 59.9873C80.3619 59.5774 81.3372 58.9212 82.2461 58.1667C83.9755 56.7295 85.4273 55.0424 86.7859 53.2662C88.2069 51.4106 89.5049 49.4716 90.827 47.5478C92.0491 45.7678 93.2953 44.004 94.5347 42.2364C95.3488 41.0703 96.2327 39.953 97.1817 38.8906C98.1291 37.8359 99.1149 36.8134 100.344 36.0635C100.88 35.7369 101.438 35.4547 102.103 35.4614C102.522 35.4614 102.881 35.6185 103.231 35.8117C104.751 36.6515 105.853 37.886 106.69 39.3696C107.591 40.9611 108.164 42.6767 108.653 44.4234C109.023 45.7432 109.421 47.0573 109.772 48.3809C110.171 49.8664 110.829 51.2506 111.433 52.6575C111.737 53.3682 112.068 54.0672 112.428 54.7545C112.785 55.44 113.115 56.1501 113.601 56.756C114.466 57.8203 115.589 58.652 116.868 59.174C118.176 59.7279 119.547 59.8926 120.95 59.7942C122.264 59.6995 123.513 59.3284 124.72 58.8143C125.985 58.2607 127.184 57.5731 128.297 56.7636C128.657 56.5074 129.002 56.2331 129.333 55.9418L129.397 55.885L129.422 55.8622C130.012 55.3283 130.437 54.6693 130.854 54.0075C131.944 52.2787 132.621 50.3871 133.073 48.4112C133.332 47.2514 133.516 46.0766 133.624 44.894C133.734 43.7787 133.72 42.6596 133.728 41.5405C133.726 40.073 133.621 38.6074 133.414 37.1542C133.243 35.8021 132.879 34.4806 132.333 33.2289C131.781 31.9915 131.031 30.8951 129.952 30.044C128.926 29.2157 127.639 28.7664 126.312 28.7734C124.539 28.7734 123.023 29.4087 121.7 30.5477C120.617 31.4812 119.82 32.6362 119.064 33.8244C118.684 34.4209 118.354 35.0448 117.996 35.6536C117.934 35.7522 117.898 35.8638 117.89 35.9792C117.881 36.0945 117.901 36.2101 117.948 36.3163C118.312 37.2962 118.656 38.2846 119.004 39.2702C119.701 41.2423 120.408 43.2097 121.1 45.1837C121.109 45.2266 121.13 45.2663 121.16 45.2983C121.241 45.2812 121.257 45.2159 121.282 45.1648C121.79 44.1725 122.327 43.1945 122.852 42.2109C123.733 40.5654 124.602 38.9133 125.493 37.2725C125.66 36.9658 125.802 36.6467 125.988 36.3494C126.031 36.2794 126.053 36.1601 126.148 36.1658C124.484 39.2854 122.833 42.3756 121.184 45.4649C121.097 45.4355 121.103 45.3636 121.084 45.3106C120 42.2607 118.916 39.209 117.831 36.1554C117.806 36.1093 117.792 36.058 117.791 36.0057C117.79 35.9534 117.801 35.9015 117.824 35.8543C118.572 34.489 119.348 33.1418 120.322 31.9157C120.878 31.1894 121.538 30.5467 122.282 30.008C123.316 29.2837 124.46 28.8227 125.728 28.7251C127.578 28.5822 129.174 29.1692 130.506 30.4378C131.336 31.2274 131.931 32.177 132.392 33.21C132.945 34.4502 133.271 35.7511 133.471 37.0917C133.785 39.2011 133.847 41.3247 133.774 43.4502Z" fill="#FEFEFE"/>
<path d="M129.443 55.9001C129.37 56.0384 129.229 56.1103 129.115 56.205C128.293 56.8759 127.413 57.4752 126.486 57.9963C125.179 58.7636 123.759 59.327 122.277 59.6664C121.324 59.8752 120.343 59.9372 119.37 59.85C117.661 59.7051 116.038 59.0457 114.721 57.9612C114.299 57.6217 113.913 57.2411 113.568 56.8251C113.366 56.5583 113.187 56.2755 113.033 55.9797C112.332 54.7371 111.701 53.4574 111.143 52.1462C110.715 51.1663 110.314 50.1902 109.946 49.198C109.833 48.895 109.771 48.5741 109.684 48.2616C109.348 47.0772 109.011 45.8947 108.677 44.7084C108.451 43.8999 108.217 43.0989 107.937 42.3027C107.494 41.0501 106.967 39.8411 106.23 38.7201C105.461 37.5275 104.409 36.5368 103.166 35.8335C102.456 35.4339 101.757 35.4349 101.032 35.7615C100.482 36.0166 99.9686 36.3402 99.503 36.7244C98.5317 37.5017 97.6852 38.3963 96.8791 39.3317C96.1959 40.1213 95.557 40.9412 94.9325 41.7753C94.5482 42.2923 94.1898 42.8319 93.8208 43.3621C92.6842 44.9962 91.5361 46.6228 90.4148 48.2673C89.1216 50.1608 87.8206 52.0544 86.4035 53.8608C85.8289 54.5892 85.2294 55.2973 84.6048 55.9853C84.0812 56.561 83.5335 57.1129 82.9561 57.6336C82.0308 58.4687 81.0489 59.2308 79.9075 59.7677C79.1754 60.1182 78.3916 60.3521 77.5852 60.4607C77.1606 60.5245 76.7309 60.5492 76.3016 60.5345C75.3757 60.4815 74.4658 60.2728 73.6113 59.9172C72.6308 59.4988 71.7156 58.9451 70.8932 58.2727C70.4088 57.8903 69.9484 57.4793 69.5145 57.0419C68.6154 56.1199 67.7931 55.1279 67.0558 54.0757C66.0489 52.6508 65.2101 51.1322 64.4261 49.5795C62.5102 45.788 60.587 42.001 58.6565 38.2184C58.6258 38.1346 58.578 38.0579 58.5162 37.993C58.3981 38.1889 58.2953 38.3933 58.2087 38.6046C57.8092 39.5454 57.5154 40.5264 57.3325 41.5301C57.2566 41.9458 57.2037 42.3652 57.1701 42.7874C57.1471 43.0895 57.1355 43.3905 57.1317 43.6925C57.1131 45.0393 57.3386 46.3785 57.7975 47.6472C58.2349 48.8367 58.8626 49.9496 59.6567 50.9438C60.1843 51.6008 60.7663 52.2135 61.3967 52.7758C61.8095 53.1479 62.2442 53.4956 62.6986 53.8172C62.7639 53.8655 62.8254 53.9327 62.9215 53.9195C62.923 53.9314 62.923 53.9435 62.9215 53.9555C62.9061 54.071 62.787 54.0984 62.7063 54.1515C62.0279 54.5993 61.265 54.8066 60.4666 54.924C58.7372 55.1777 57.0596 54.907 55.3946 54.4762C54.4674 54.2367 53.619 53.8135 52.785 53.3628L52.7053 53.3192C52.468 52.932 52.2595 52.5287 52.0586 52.1225C51.5219 51.0434 51.0722 49.9243 50.7135 48.7757C50.4323 47.8828 50.2175 46.9708 50.0708 46.0471C49.9779 45.4966 49.9138 44.9417 49.8786 44.3846C49.8859 44.2272 49.8591 44.07 49.7998 43.9236V42.4712C49.8796 42.3349 49.8728 42.1777 49.8815 42.0338C49.9319 41.2582 50.0405 40.4873 50.2062 39.7275C50.4163 38.7291 50.7196 37.752 51.1123 36.8086C51.5934 35.6455 52.1928 34.5334 52.9013 33.4893C53.368 32.7944 53.9212 32.1598 54.5481 31.6005C55.5156 30.7408 56.6273 30.1576 57.9224 29.9522C58.4771 29.8712 59.0402 29.8626 59.5971 29.9266C60.3149 30.0006 61.0146 30.1953 61.6657 30.5022C62.2398 30.7761 62.7729 31.1266 63.2501 31.5437C64.2109 32.3664 64.9632 33.3548 65.6434 34.4029C66.5427 35.789 67.2768 37.2602 67.9955 38.7429C68.5979 39.9916 69.158 41.2603 69.7451 42.5167C70.188 43.4634 70.7337 44.3619 71.2228 45.2878C71.4957 45.8038 71.782 46.3132 72.0616 46.8263C72.688 47.971 73.3039 49.1213 73.9428 50.2593C74.208 50.7327 74.5875 51.1218 74.9747 51.5015C75.1367 51.6627 75.3129 51.8094 75.5012 51.9398C75.568 51.99 75.6484 52.0195 75.7323 52.0245C75.8161 52.0296 75.8995 52.01 75.972 51.9682C76.2073 51.8561 76.424 51.7096 76.6148 51.5336C77.1823 51.0127 77.7129 50.454 78.203 49.8617C79.6336 48.1499 80.9355 46.3444 82.2048 44.5143C82.9881 43.3852 83.7651 42.2506 84.5357 41.1107C85.2985 39.985 86.1123 38.8953 86.9204 37.797C87.5795 36.9052 88.2386 36.0127 88.8977 35.1196C89.233 34.668 89.6 34.241 89.9632 33.8121C90.7088 32.9274 91.5033 32.0838 92.3431 31.2852C93.5336 30.1633 94.8037 29.1417 96.2305 28.3218C97.493 27.5957 98.8314 27.0607 100.276 26.8136C100.985 26.6863 101.708 26.639 102.429 26.6726C103.755 26.7426 105.057 27.0487 106.272 27.5758C107.692 28.1947 109.016 29.0081 110.205 29.9919C111.151 30.7768 112.009 31.6595 112.763 32.6249C113.663 33.7757 114.438 35.0165 115.075 36.3267C115.712 37.6351 116.248 38.9894 116.676 40.3779C117.02 41.4743 117.314 42.5839 117.623 43.6916C118.007 45.0802 118.391 46.4707 118.776 47.863C118.987 48.6271 119.191 49.393 119.416 50.1542C119.499 50.4142 119.603 50.6674 119.726 50.9116C119.976 51.4726 120.269 52.0141 120.602 52.5315C120.806 52.8343 121.055 53.1052 121.341 53.3353C121.369 53.3453 121.396 53.3577 121.422 53.3723C121.548 53.4599 121.662 53.5637 121.76 53.6809C122.603 54.5206 123.584 55.2142 124.662 55.7325C125.326 56.0477 126.042 56.2448 126.775 56.3148C127.58 56.3829 128.389 56.2591 129.134 55.9541C129.213 55.9084 129.302 55.8842 129.394 55.884C129.41 55.8876 129.427 55.893 129.443 55.9001Z" fill="#22E393"/>
<path d="M107.647 22.6187C107.302 23.1715 106.847 23.6499 106.31 24.0256C105.772 24.4012 105.164 24.6662 104.52 24.8048C103.406 25.0767 102.229 24.9467 101.203 24.4384C99.7355 23.7217 98.8007 22.5591 98.4721 20.9647C98.3291 20.3319 98.3186 19.677 98.4412 19.04C98.5638 18.403 98.8168 17.7974 99.185 17.26C99.994 16.051 101.139 15.3268 102.595 15.0825C102.775 15.0522 102.964 15.0872 103.134 15.0039H103.732C103.878 15.0901 104.045 15.055 104.2 15.0806C105.356 15.2601 106.411 15.8357 107.179 16.7062C107.781 17.3698 108.183 18.1854 108.341 19.0617C108.587 20.2913 108.338 21.5668 107.647 22.6187Z" fill="#22E393"/>
<path d="M133.774 43.4502C133.678 46.0538 133.261 48.61 132.352 51.0716C131.736 52.7389 130.892 54.2831 129.739 55.654C129.664 55.7587 129.562 55.8425 129.445 55.8973L129.333 55.9418C128.919 56.1158 128.487 56.2447 128.045 56.3262C127.24 56.4569 126.415 56.4011 125.636 56.1633C124.507 55.8339 123.527 55.2364 122.618 54.5141C122.242 54.2143 121.883 53.8944 121.543 53.5559C121.484 53.4982 121.432 53.4347 121.377 53.3723L121.345 53.3363C123.115 52.9765 124.42 51.9871 125.324 50.4676C125.906 49.4924 126.262 48.433 126.497 47.3329C126.86 45.6287 126.95 43.9027 126.895 42.1654C126.863 41.1978 126.792 40.2328 126.682 39.2702C126.567 38.2603 126.41 37.2596 126.213 36.268C126.203 36.2354 126.19 36.2037 126.174 36.1733L126.164 36.1478C126.164 36.1554 126.156 36.1629 126.151 36.1705C124.487 39.2901 122.836 42.3803 121.188 45.4696C121.1 45.4403 121.106 45.3683 121.087 45.3153C120.001 42.2623 118.916 39.209 117.831 36.1554C117.806 36.1093 117.792 36.058 117.791 36.0057C117.79 35.9534 117.801 35.9015 117.824 35.8543C118.572 34.489 119.349 33.1418 120.322 31.9157C120.878 31.1894 121.538 30.5467 122.282 30.008C123.316 29.2837 124.46 28.8227 125.728 28.7251C127.578 28.5822 129.174 29.1692 130.506 30.4378C131.336 31.2274 131.931 32.177 132.392 33.21C132.945 34.4502 133.272 35.7511 133.471 37.0917C133.786 39.2011 133.847 41.3247 133.774 43.4502Z" fill="white"/>
<path d="M112.389 59.5922C112.39 59.609 112.386 59.6257 112.378 59.6405C112.37 59.6553 112.358 59.6674 112.343 59.6755C111.101 60.6507 109.782 61.5018 108.318 62.12C107.1 62.6519 105.791 62.9507 104.46 63.0005C102.27 63.0611 100.281 62.4495 98.4946 61.2017C97.3051 60.3704 96.3184 59.3385 95.4325 58.2061C94.5908 57.1325 93.8568 55.9879 93.1477 54.8281C92.6173 53.9599 92.0399 53.1239 91.499 52.2586C91.3452 52.0124 91.3433 51.8477 91.5057 51.5958C93.2851 48.8931 95.0562 46.1847 96.8189 43.4707C96.8591 43.3894 96.9134 43.3157 96.9794 43.2529C97.0391 43.3127 97.0879 43.3822 97.1235 43.4584C98.8651 46.3264 100.607 49.1948 102.348 52.0635C102.766 52.7547 103.399 53.1211 104.174 53.2801C104.491 53.342 104.817 53.342 105.135 53.2801C105.446 53.231 105.742 53.1121 105.999 52.9326C106.534 52.5501 107.039 52.1293 107.511 51.6734C107.624 51.5627 107.734 51.4481 107.847 51.3326C107.906 51.4119 107.948 51.502 107.97 51.5977C108.67 53.5073 109.495 55.3601 110.553 57.106C111.08 57.9922 111.695 58.825 112.389 59.5922Z" fill="white"/>
<path d="M88.2598 31.4635C87.2576 32.6214 86.2661 33.7821 85.2947 34.9599C84.3234 36.1376 83.3664 37.3268 82.4402 38.5765C82.1652 38.3079 81.8766 38.0532 81.5755 37.8134C81.2127 37.5208 80.8096 37.2805 80.3783 37.0996C80.264 37.0465 80.1364 37.0278 80.0114 37.0456C79.8863 37.0635 79.7694 37.1171 79.675 37.1999C79.2519 37.5403 78.8894 37.948 78.6027 38.4061C78.1649 39.1002 77.7964 39.8345 77.5026 40.5988C76.9002 42.0975 76.4457 43.6445 76.0288 45.201C75.8318 45.9281 75.6444 46.659 75.4523 47.3928C75.3639 47.3701 75.3562 47.2981 75.3216 47.2394C73.473 44.0128 71.6251 40.7863 69.7778 37.5597C69.6039 37.2567 69.4329 36.9528 69.2561 36.6517C69.2297 36.6152 69.2138 36.5725 69.2099 36.5278C69.206 36.4832 69.2143 36.4384 69.234 36.398C70.0804 34.5121 71.1143 32.7426 72.5679 31.2372C73.793 29.9695 75.215 28.9867 76.8983 28.3969C78.9707 27.6736 81.0528 27.6972 83.1339 28.3657C84.6779 28.8627 86.047 29.6731 87.3124 30.6635C87.6304 30.9144 87.9437 31.169 88.2598 31.4635Z" fill="white"/>
<path d="M61.983 21.3537C61.9906 22.0106 61.8657 22.6624 61.6156 23.2713C61.3654 23.8803 60.9949 24.4342 60.5257 24.9008C60.0565 25.3675 59.4978 25.7376 58.8822 25.9898C58.2666 26.2419 57.6063 26.371 56.9396 26.3696C56.2729 26.3681 55.6132 26.2362 54.9987 25.9814C54.3842 25.7266 53.8272 25.354 53.3601 24.8853C52.8929 24.4166 52.5249 23.8611 52.2775 23.2511C52.03 22.6411 51.908 21.9887 51.9186 21.3319C51.9234 18.5863 54.2245 16.3585 56.9503 16.4011C59.6963 16.3529 61.9878 18.6383 61.983 21.3537Z" fill="#22E393"/>
<path d="M131.933 21.3581C131.93 22.0122 131.797 22.6594 131.54 23.2625C131.283 23.8655 130.907 24.4125 130.434 24.8719C129.962 25.3314 129.402 25.6942 128.787 25.9395C128.171 26.1848 127.513 26.3077 126.849 26.3012C124.101 26.2946 121.862 24.0612 121.867 21.3297C121.871 20.0145 122.405 18.7546 123.351 17.8272C124.298 16.8999 125.58 16.381 126.914 16.3848C128.249 16.3886 129.528 16.9146 130.469 17.8473C131.41 18.78 131.936 20.0429 131.933 21.3581Z" fill="white"/>
<path d="M86.6279 21.3326C86.6342 22.6481 86.1098 23.9122 85.1703 24.8468C84.705 25.3095 84.1519 25.6774 83.5423 25.9295C82.9328 26.1816 82.2789 26.3129 81.6178 26.3159C80.2828 26.3221 79 25.8054 78.0516 24.8796C77.1032 23.9537 76.5669 22.6945 76.5607 21.379C76.5424 18.7111 78.734 16.3849 81.5933 16.3877C82.9262 16.3862 84.2052 16.9062 85.1493 17.8334C86.0933 18.7606 86.6251 20.0192 86.6279 21.3326Z" fill="white"/>
<path d="M68.7052 60.4216C68.6134 60.5019 68.5113 60.57 68.4016 60.6242C67.5261 61.1284 66.5602 61.4614 65.5567 61.605C64.5954 61.7283 63.6195 61.6828 62.6743 61.4706C61.1226 61.1364 59.7237 60.4623 58.4035 59.6149C57.7104 59.1822 57.0505 58.7 56.4291 58.1721C55.7796 57.604 55.2348 56.946 54.6996 56.2785C53.9507 55.3479 53.2819 54.3573 52.7002 53.3171C52.7169 53.3118 52.7346 53.3102 52.7521 53.3123C52.8087 53.3267 52.8624 53.3508 52.9106 53.3833C53.2306 53.5301 53.5543 53.6674 53.8647 53.8349C54.4347 54.1203 55.0377 54.3368 55.6604 54.4797C56.9296 54.7997 58.2152 54.9966 59.5296 54.9531C60.3596 54.9344 61.1801 54.7743 61.9546 54.4797C62.284 54.3497 62.5937 54.1757 62.8751 53.9628L62.9241 53.9258C63.1772 53.7443 63.4101 53.5367 63.6187 53.3066L68.7052 60.4216Z" fill="white"/>
</g>
<path d="M168.533 93.3256C168.52 93.0487 168.507 92.7732 168.468 92.4963C168.265 91.0506 167.837 89.6457 167.2 88.3325C166.366 86.6067 165.195 85.0648 163.758 83.7972C162.32 82.5295 160.644 81.5616 158.828 80.9501C157.071 80.3547 155.214 80.1151 153.364 80.2455C152.372 80.3121 151.389 80.4768 150.43 80.7369C147.511 81.535 144.926 83.2492 143.054 85.6271C141.17 87.9686 140.164 90.6681 139.954 93.6605C139.884 94.6901 139.933 95.7243 140.099 96.7428C140.678 100.436 142.672 103.759 145.659 106.007C147.109 107.11 148.759 107.921 150.517 108.396C151.374 108.639 152.254 108.789 153.142 108.844C153.73 108.885 154.32 108.895 154.909 108.873C155.498 108.848 156.085 108.789 156.667 108.696C158.291 108.423 159.855 107.867 161.288 107.055C161.702 106.817 161.627 106.846 161.841 107.18C162.287 107.895 162.969 108.433 163.768 108.7C164.568 108.967 165.435 108.947 166.221 108.643C167.526 108.148 168.355 107.209 168.541 105.774C168.553 105.73 168.573 105.69 168.599 105.653V93.6199C168.503 93.5314 168.538 93.4256 168.533 93.3256ZM154.26 101.559C152.403 101.554 150.624 100.814 149.312 99.4991C148.001 98.1845 147.264 96.4035 147.263 94.5463C147.263 90.4869 150.648 87.4814 154.275 87.5597C158.051 87.4916 161.308 90.6594 161.289 94.5768C161.273 96.4323 160.526 98.2066 159.21 99.514C157.894 100.821 156.115 101.556 154.26 101.559Z" fill="white"/>
<path d="M135.065 105.097C135.065 106.576 134.427 107.707 133.139 108.442C132.433 108.814 131.626 108.949 130.838 108.828C130.05 108.707 129.321 108.336 128.759 107.769C128.202 107.203 127.848 106.469 127.753 105.68C127.728 105.3 127.728 104.919 127.753 104.539C127.761 101.293 127.761 98.0478 127.753 94.8022C127.753 93.3742 127.435 92.0229 126.646 90.8124C125.579 89.1726 124.105 88.1056 122.183 87.7025C121.282 87.4964 120.349 87.4766 119.441 87.6441C118.532 87.8116 117.668 88.1631 116.9 88.6768C115.205 89.7859 114.191 91.3676 113.805 93.3495C113.734 93.7606 113.702 94.1777 113.711 94.5949C113.711 98.0947 113.711 101.596 113.711 105.097C113.711 106.576 113.079 107.707 111.788 108.441C111.322 108.703 110.801 108.85 110.267 108.868C109.78 108.904 109.292 108.839 108.831 108.679C108.37 108.519 107.946 108.267 107.586 107.937C107.239 107.636 106.957 107.269 106.754 106.857C106.552 106.445 106.434 105.996 106.407 105.538C106.394 105.342 106.407 105.144 106.407 104.946C106.407 101.586 106.407 98.2237 106.407 94.8617C106.425 94.2248 106.359 93.5883 106.213 92.9682C105.436 90.0976 103.604 88.2723 100.695 87.6721C98.5719 87.2371 96.6065 87.7576 94.9092 89.1581C93.5757 90.2585 92.7887 91.6779 92.4626 93.3626C92.3891 93.7968 92.3575 94.2372 92.3684 94.6775C92.3684 98.1658 92.3684 101.655 92.3684 105.145C92.3684 106.74 91.4263 108.164 89.9261 108.671C88.6854 109.091 87.5027 108.917 86.4475 108.111C85.9877 107.772 85.6198 107.323 85.3771 106.806C85.1344 106.288 85.0245 105.719 85.0575 105.148C85.0575 103.269 85.0575 101.391 85.0575 99.5141C85.0575 97.7047 85.0401 95.8968 85.0575 94.0889C85.088 91.5257 85.8504 89.1726 87.1838 86.9965C87.8366 85.9259 88.6335 84.9502 89.5522 84.0969C91.4486 82.3052 93.8022 81.0711 96.3543 80.5304C97.4484 80.2881 98.5676 80.1781 99.6879 80.2027C101.586 80.2472 103.456 80.6685 105.19 81.442C106.924 82.2156 108.487 83.3259 109.789 84.7087C109.823 84.7407 109.855 84.7746 109.885 84.8102C109.989 84.9407 110.077 84.9334 110.195 84.8102C110.557 84.4361 110.919 84.0664 111.321 83.7257C113.143 82.1336 115.342 81.0332 117.708 80.5289C118.803 80.2872 119.922 80.1777 121.042 80.2027C122.981 80.2495 124.889 80.6886 126.654 81.4934C128.418 82.2982 130.001 83.4522 131.307 84.8856C132.821 86.5272 133.922 88.5063 134.519 90.6587C134.771 91.572 134.937 92.5068 135.014 93.451C135.056 93.9265 135.059 94.3992 135.061 94.8718C135.067 98.2817 135.068 101.69 135.065 105.097Z" fill="white"/>
<path d="M43.6812 93.2496C43.6812 86.1794 43.6812 79.1087 43.6812 72.0375C43.6812 71.8287 43.6812 71.62 43.6812 71.4112C43.6807 71.2028 43.6539 70.9953 43.6015 70.7936C43.3873 69.9208 42.8603 69.1571 42.1204 68.6473C41.3806 68.1375 40.4793 67.9172 39.5878 68.028C38.6963 68.1389 37.8764 68.5733 37.2839 69.2488C36.6913 69.9243 36.3673 70.7938 36.3733 71.6925C36.3733 74.9729 36.3733 78.2533 36.3733 81.5337V82.015C35.9558 81.8135 35.5964 81.6337 35.2326 81.4656C33.5216 80.6898 31.6736 80.2616 29.7958 80.2057C28.7429 80.171 27.6894 80.2581 26.6564 80.4652C24.785 80.8169 23.0047 81.5459 21.424 82.608C19.7407 83.7302 18.3125 85.1943 17.2323 86.9052C15.8482 89.0872 15.1524 91.4794 15.0118 94.0455C14.968 95.066 15.0459 96.088 15.2437 97.0901C15.6965 99.6354 16.8368 102.008 18.5412 103.952C19.7236 105.31 21.1491 106.436 22.7445 107.271C24.3824 108.141 26.1795 108.671 28.0276 108.828C29.1821 108.933 30.345 108.9 31.4917 108.729C34.7618 108.241 37.7616 106.634 39.9794 104.181C40.7582 103.323 41.4325 102.376 41.9883 101.36C43.2116 99.114 43.7276 96.6957 43.7276 94.1528C43.729 93.8498 43.6812 93.5526 43.6812 93.2496ZM29.332 101.56C25.4505 101.545 22.3488 98.2659 22.3589 94.5225C22.3691 90.7791 25.5476 87.462 29.39 87.5634C33.1875 87.5054 36.3863 90.7023 36.3791 94.566C36.3642 96.4268 35.6144 98.2063 34.2932 99.5164C32.972 100.827 31.1866 101.561 29.3262 101.56H29.332Z" fill="white"/>
<path d="M80.7899 91.9881C80.7094 92.2786 80.6012 92.5607 80.4667 92.8305C79.3391 95.0632 78.2709 97.3249 77.0606 99.517C76.3591 100.784 75.646 102.047 74.7575 103.197C72.3698 106.289 69.2516 108.169 65.403 108.835C64.8894 108.926 64.3703 108.982 63.8492 109.003H62.1679C58.6377 108.802 55.2982 107.335 52.7618 104.871C50.2254 102.407 48.6622 99.1106 48.3589 95.5868C48.0556 92.063 49.0325 88.5479 51.1104 85.6863C53.1884 82.8247 56.2281 80.8083 59.672 80.007C62.5827 79.3214 65.6344 79.558 68.4047 80.684C69.3287 81.0357 70.165 81.5844 70.8557 82.2919C71.6326 83.0994 71.9485 84.0737 71.9094 85.177C71.8856 85.4431 71.8251 85.7046 71.7297 85.9541C71.4695 86.7346 71.1417 87.4909 70.7499 88.2143C69.815 89.999 68.8656 91.7779 67.9308 93.5626C67.5322 94.3209 67.1698 95.098 66.7335 95.8374C66.4067 96.3958 65.9249 96.8474 65.3465 97.1374C64.7682 97.4275 64.1182 97.5434 63.4753 97.4713C62.0635 97.2814 60.9924 96.3622 60.6272 95.0182C60.5071 94.6046 60.472 94.1709 60.5241 93.7433C60.5762 93.3157 60.7143 92.9031 60.9301 92.5304C61.678 91.2096 62.3607 89.8555 63.0825 88.5217C63.3318 88.0635 63.5738 87.6025 63.8246 87.1444C63.8836 87.051 63.9191 86.9447 63.9279 86.8346C63.9368 86.7244 63.9187 86.6138 63.8753 86.5122C63.7521 86.2339 63.5231 86.1425 63.2289 86.1382C61.8187 86.0942 60.4227 86.4313 59.1879 87.1139C56.8254 88.439 55.3948 90.4485 55.0034 93.132C54.3266 97.7714 57.6486 101.639 61.6881 102.334C64.5565 102.827 68.0887 101.834 69.9875 98.4195C71.147 96.3231 72.2428 94.1875 73.3661 92.0693C73.8168 91.2198 74.2589 90.3658 74.714 89.5191C75.3952 88.2549 76.7765 87.6054 78.2375 87.8519C79.5637 88.0766 80.6595 89.2002 80.9001 90.5514C80.9753 91.0324 80.9376 91.5243 80.7899 91.9881Z" fill="#22E393"/>
<defs>
<clipPath id="clip0_1_7439">
<rect width="84" height="48" fill="white" transform="translate(49.7998 15)"/>
</clipPath>
</defs>
</svg>
