<svg width="51" height="50" viewBox="0 0 51 50" fill="none" xmlns="http://www.w3.org/2000/svg">
<path opacity="0.2" d="M49.5912 25C49.5912 38.2541 38.8379 49 25.5715 49C12.305 49 1.55176 38.2541 1.55176 25C1.55176 11.7459 12.305 1 25.5715 1C38.8379 1 49.5912 11.7459 49.5912 25Z" stroke="#D6D6D6" stroke-width="2"/>
<g clip-path="url(#clip0_1_7430)">
<path d="M19.5071 18C19.5068 18.5305 19.2957 19.0391 18.9201 19.4139C18.5445 19.7888 18.0353 19.9993 17.5045 19.999C16.9736 19.9988 16.4646 19.7878 16.0894 19.4125C15.7143 19.0373 15.5036 18.5285 15.5039 17.998C15.5042 17.4676 15.7153 16.959 16.0909 16.5841C16.4664 16.2092 16.9756 15.9988 17.5065 15.999C18.0373 15.9993 18.5463 16.2103 18.9215 16.5855C19.2967 16.9608 19.5073 17.4696 19.5071 18ZM19.5671 21.48H15.564V34H19.5671V21.48ZM25.8921 21.48H21.909V34H25.8521V27.43C25.8521 23.77 30.6258 23.43 30.6258 27.43V34H34.5789V26.07C34.5789 19.9 27.5134 20.13 25.8521 23.16L25.8921 21.48Z" fill="white"/>
</g>
<defs>
<clipPath id="clip0_1_7430">
<rect width="24.0189" height="24" fill="white" transform="translate(12.5615 13)"/>
</clipPath>
</defs>
</svg>
