<svg width="51" height="50" viewBox="0 0 51 50" fill="none" xmlns="http://www.w3.org/2000/svg">
<path opacity="0.2" d="M49.0394 25C49.0394 38.2541 38.2862 49 25.0197 49C11.7532 49 1 38.2541 1 25C1 11.7459 11.7532 1 25.0197 1C38.2862 1 49.0394 11.7459 49.0394 25Z" stroke="#D6D6D6" stroke-width="2"/>
<g clip-path="url(#clip0_1_7426)">
<path d="M34.1935 17.4996C33.3948 18.0625 32.5106 18.493 31.5748 18.7746C31.0725 18.1975 30.4049 17.7885 29.6624 17.6029C28.9199 17.4172 28.1383 17.4639 27.4232 17.7366C26.7081 18.0093 26.0941 18.4949 25.6643 19.1277C25.2344 19.7605 25.0093 20.5099 25.0196 21.2746V22.1079C23.554 22.1459 22.1017 21.8211 20.7921 21.1625C19.4825 20.5038 18.3563 19.5318 17.5137 18.3329C17.5137 18.3329 14.1777 25.8329 21.6836 29.1663C19.9661 30.3312 17.92 30.9154 15.8457 30.8329C23.3516 34.9996 32.5255 30.8329 32.5255 21.2496C32.5247 21.0175 32.5024 20.7859 32.4588 20.5579C33.31 19.7192 33.9106 18.6602 34.1935 17.4996Z" fill="white"/>
</g>
<defs>
<clipPath id="clip0_1_7426">
<rect width="20.0158" height="20" fill="white" transform="translate(15.0117 15)"/>
</clipPath>
</defs>
</svg>
