<svg width="201" height="136" viewBox="0 0 201 136" fill="none" xmlns="http://www.w3.org/2000/svg">
<g clip-path="url(#clip0_1_5913)">
<path d="M35.9859 109.452C36.1971 109.041 36.4055 108.626 36.7169 108.017C36.7426 107.998 37.203 107.811 37.274 107.568C37.7737 105.898 39.4801 104.518 39.2095 102.662C39.1853 102.503 39.4544 102.293 39.4649 102.112C39.499 101.494 39.7277 100.479 39.4272 100.347C38.6462 99.9938 37.6866 100.202 36.9185 100.962C36.111 101.767 35.2076 102.5 34.426 103.322C34.1631 103.599 34.1334 104.058 33.9135 104.666C33.0791 105.363 31.9773 106.285 30.8314 107.245C31.127 107.39 31.3201 107.482 31.1667 107.409C27.5492 113.002 23.6293 118.358 23.2075 124.887C23.6304 124.482 24.0575 124.085 24.4784 123.676C24.6073 123.554 24.7678 123.416 24.8055 123.275C24.9075 122.89 24.948 122.496 25.1414 122.109C25.5474 122.746 26.6382 123.317 27.4085 123.448C27.9058 123.534 28.287 123.968 28.7817 124.105C29.1955 124.219 29.6907 124.145 30.1542 124.133C30.5557 124.122 30.9735 124.032 31.3651 124.072C31.7771 124.116 32.1644 124.269 32.5755 124.379C32.801 123.94 32.9818 123.595 33.173 123.224C33.5753 124.08 33.5629 124.056 34.4462 123.665C34.631 123.585 34.9878 123.668 35.136 123.798C35.7284 124.314 35.7124 124.327 36.1376 123.412C36.4534 123.763 36.7114 124.048 36.9694 124.333C37.0011 124.216 37.038 124.096 37.0703 123.979C37.3726 124.024 37.6661 124.11 37.9744 124.112C38.4018 124.118 38.8472 124.115 39.2675 124.019C39.8079 123.896 40.3914 123.196 40.8124 124.043C40.8371 124.09 41.4419 123.98 41.4849 123.872C41.9265 122.752 43.8301 123.402 43.994 121.992C44.2209 122.026 44.4537 122.062 44.8452 122.122C44.7516 121.358 44.7534 120.622 44.5434 119.959C44.4512 119.669 43.9479 119.525 43.6234 119.325C43.512 119.256 43.2882 119.216 43.2865 119.146C43.3178 117.996 42.3218 118.112 41.5174 117.892C40.761 117.688 40.1266 117.214 39.4139 116.902C39.1742 116.798 38.857 116.836 38.5846 116.78C38.2831 116.714 37.9899 116.619 37.6985 116.537C37.8619 116.226 37.9617 115.857 38.2117 115.612C38.8651 114.967 39.5827 114.38 40.2721 113.762C41.5472 112.614 42.8055 111.445 44.1021 110.317C44.7983 109.711 45.9298 109.273 46.2183 108.584C46.7415 107.331 48.2805 107.197 48.876 105.881C49.3873 104.75 51.0491 103.968 52.1819 103.005C53.0327 102.283 53.8693 101.544 54.6773 100.784C55.8828 99.6473 57.0429 98.4687 58.2457 97.3284C59.3956 96.2407 60.5856 95.1877 61.7348 94.1002C63.7397 92.198 65.5068 90.0608 67.9657 88.5996C68.096 86.9445 70.0708 86.5548 70.9172 85.2408C71.6266 84.1436 73.0204 82.935 74.5265 82.0867C75.7221 81.4139 76.5503 80.0538 77.4526 78.9377C78.2035 78.0106 78.9843 77.2092 80.0846 76.5655C80.9395 76.0635 81.5213 75.1129 82.2323 74.3677C83.5114 73.0369 84.8071 71.7176 86.0799 70.3748C87.5055 68.8675 88.8789 67.3166 90.3417 65.8354C91.3655 64.7977 92.53 63.8738 93.5696 62.843C94.2719 62.1477 94.8405 61.3399 95.5085 60.612C96.3034 59.7479 97.1326 58.9165 97.9597 58.0811C98.7655 57.2718 99.5673 56.4546 100.407 55.678C101.903 54.2957 103.47 52.9826 104.925 51.566C106.275 50.249 107.508 48.8308 108.824 47.4811C109.044 47.2565 109.443 47.1865 109.688 46.9746C110.593 46.1895 111.503 45.4021 112.344 44.5596C112.852 44.0501 113.404 42.9287 113.659 42.9733C114.63 43.1324 114.965 42.4454 115.469 42.0288C116.595 41.0992 117.663 40.0996 118.76 39.1349C119.074 38.8566 119.41 38.5974 119.744 38.3343C120.087 38.0664 120.436 37.8104 120.779 37.5425C121.461 37.0091 122.151 36.4916 122.809 35.9351C123.386 35.4457 124.258 35.3028 124.52 34.386C124.61 34.0775 125.551 33.8086 126.127 33.6773C126.563 33.578 126.706 33.3031 126.978 33.1119C127.849 32.5062 128.87 32.0899 129.842 31.6131C129.915 31.5752 130.039 31.6471 130.139 31.6713C130.17 30.1836 131.575 31.1819 132.206 30.5737C132.629 30.1687 133.478 30.1385 134.302 29.8898C134.001 31.1487 133.656 32.4312 133.412 33.7213C133.353 34.0338 133.62 34.3699 133.772 34.7856C133.626 34.8407 133.366 34.9445 133.02 35.083C133.305 35.2738 133.55 35.4446 133.609 35.4797C133.309 35.8867 132.964 36.1959 132.84 36.5519C132.557 37.3734 132.009 38.1304 131.776 38.9259C131.202 40.911 130.992 42.9602 130.294 44.9083C129.939 45.8931 129.641 46.4954 131.047 46.8229C130.475 47.2543 130.066 47.5616 129.543 47.9527C129.802 48.0505 130.005 48.1275 130.205 48.2004C129.629 49.2186 129.7 49.3784 131.013 49.8294C130.809 49.9953 130.619 50.1439 130.408 50.3186C130.836 50.44 131.287 50.4694 131.57 50.6809C131.761 50.8245 131.712 51.2229 131.785 51.578C132.154 51.2919 132.502 51.0217 132.754 50.8257C133.522 51.0293 133.826 51.9658 134.956 51.2212C135.445 50.8983 136.307 51.1737 136.979 51.0134C137.594 50.8672 138.168 50.485 138.766 50.2267C139.651 49.8505 140.541 49.4964 141.512 49.0959C141.504 49.08 141.628 49.263 141.823 49.5504C142.017 49.208 142.102 48.867 142.316 48.7312C143.214 48.1771 144.178 47.7194 145.073 47.1613C145.87 46.6696 146.6 46.0855 147.373 45.5604C147.546 45.4459 147.781 45.3499 147.978 45.349C148.773 45.3368 149.152 44.8134 149.675 44.3318C150.421 43.6438 151.37 43.1439 152.23 42.5635C153.017 42.0312 153.815 41.5086 154.595 40.9644C155.269 40.4953 155.957 40.0293 156.591 39.5156C156.839 39.3117 156.962 38.966 157.044 38.8328C157.575 38.6697 158.022 38.5347 158.467 38.3958C158.385 38.2717 158.308 38.1451 158.36 38.224C159.978 37.0556 161.62 35.8754 163.259 34.6913C163.329 34.7709 163.393 34.849 163.463 34.9287C163.537 34.578 163.617 34.229 163.645 34.1036C165.246 32.99 166.727 31.9831 168.168 30.9316C168.559 30.6441 168.829 30.2123 169.18 29.8246C169.18 29.8246 169.287 29.9655 169.393 30.1024C169.431 30.1081 169.473 30.1115 169.511 30.1172C169.438 29.1015 170.969 29.2436 171.006 28.6443C171.108 27.0798 172.998 27.1423 173.695 25.9206C174.175 25.0776 175.269 24.286 175.735 23.1786C176.052 22.4248 176.786 21.7891 177.164 21.0395C177.714 19.949 178.107 18.8032 178.569 17.6775C178.453 17.6318 178.332 17.5885 178.215 17.5428C178.076 17.7106 177.934 17.8745 177.766 18.0771C177.585 17.8732 177.408 17.6773 177.238 17.4829C175.809 19.9698 174.391 22.4457 172.822 25.1767L170.385 26.435C170.857 26.6296 171.094 26.7289 171.176 26.7625C170.723 27.0872 170.232 27.4062 169.775 27.7681C168.351 28.8967 166.963 30.0619 165.522 31.1689C164.945 31.613 164.238 31.9074 163.65 32.3419C162.836 32.9439 162.077 33.608 161.299 34.2467C161.171 34.3479 161.044 34.449 160.912 34.5423C159.483 35.5271 158.014 36.457 156.643 37.5079C155.533 38.3581 154.574 39.3773 153.501 40.2641C153.104 40.5953 152.549 40.7457 152.094 41.0212C150.909 41.7386 149.569 42.3347 148.596 43.2458C147.001 44.7397 144.95 45.4658 143.177 46.6487C141.715 47.6254 139.853 48.0879 138.145 48.6922C136.982 49.1016 135.785 49.4371 134.587 49.6574C132.929 49.9641 131.478 48.3948 131.779 46.8129C132.183 44.6993 132.304 42.5449 133.013 40.4952C133.288 39.6928 133.304 38.5805 134.273 37.8838C134.421 37.7772 134.203 37.3 134.342 37.0869C135.135 35.8608 135.237 34.4877 135.652 33.2046C136.101 31.8185 135.769 30.2913 135.772 28.8281C134.636 28.8097 133.445 28.5378 132.38 28.8356C131.066 29.2016 129.848 30.0221 128.608 30.6876C126.994 31.5511 125.384 32.4329 123.797 33.3481C123.145 33.7252 122.549 34.1891 121.939 34.6354C121.626 34.8621 121.359 35.1414 121.051 35.3761C120.521 35.7759 119.935 36.1239 119.441 36.5603C119.026 36.9256 118.708 37.3873 118.538 37.586C117.571 38.1509 116.679 38.5256 115.985 39.101C114.467 40.3634 113.033 41.719 111.59 43.0587C109.952 44.5802 108.349 46.1385 106.719 47.6656C106.238 48.1156 105.71 48.5194 105.234 49.0123C104.668 49.5112 104.102 50.0101 103.541 50.5066C102.767 51.1882 101.643 51.774 101.296 52.573C100.722 53.8976 99.3564 54.265 98.5181 55.202C97.6726 56.1476 96.8783 57.1475 95.9381 58.011C95.0445 58.8303 94.2675 59.796 93.1274 60.3747C93.013 60.4338 92.8313 60.5427 92.8302 60.6188C92.773 61.6968 91.8566 62.0793 91.0187 62.5573C90.924 62.6112 91.0509 63.0346 91.0661 63.1982C88.9118 65.238 86.72 67.3174 84.546 69.4077C84.5224 69.43 84.715 69.633 84.7171 69.637C83.7319 70.5489 82.7794 71.4338 81.8224 72.3212C81.7628 72.2613 81.7025 72.2016 81.6429 72.1417C81.2809 72.5303 80.9189 72.9188 80.5569 73.3073C79.2652 74.68 78.0586 76.1397 76.6511 77.4008C75.5559 78.3796 74.9867 79.8027 73.4939 80.4525C73.2044 80.5768 73.0473 81.0359 72.8328 81.3382C72.7015 81.5219 72.604 81.7487 72.4359 81.896C71.5798 82.6405 70.7062 83.3638 69.8429 84.1069C69.7496 84.1854 67.2085 86.7223 67.1199 86.8084C65.8376 88.0099 64.5514 89.2133 63.2819 90.4283C62.6344 91.05 62.0318 91.714 61.3756 92.33C60.2549 93.3826 59.0738 94.3754 57.9938 95.4624C57.4126 96.0448 56.9956 96.7642 56.5012 97.4227C56.4013 97.5549 56.2245 97.7974 56.1633 97.7786C54.8981 97.4994 54.6181 98.6067 53.9698 99.1936C52.09 100.9 50.1909 102.591 48.318 104.31C48.0306 104.574 47.8577 104.945 47.5278 105.418C47.4288 105.429 47.0847 105.461 46.7412 105.492C46.8046 105.57 46.8686 105.648 46.9319 105.726C46.2318 106.279 45.1364 106.754 44.9128 107.399C44.4046 108.861 42.8178 109.171 41.9894 110.239C41.5812 110.762 40.825 111.062 40.2807 111.524C40.099 111.679 40.091 112.01 40.0738 112.055C38.927 112.979 37.7077 113.775 36.7609 114.783C36.0871 115.499 34.4964 116.149 33.5278 115.636C33.4486 115.864 33.3792 116.066 33.2575 116.426C33.0925 116.174 33.0377 115.945 32.8778 115.871C31.6261 115.293 31.7611 114.87 33.0148 113.804C33.9124 113.048 34.5255 111.991 35.2104 111.037C35.5422 110.569 35.7436 110.026 36.0012 109.515L35.9402 109.476L36.0058 109.412L35.9859 109.452ZM42.4248 120.06C42.1909 121.884 42.1906 121.95 40.3015 122.058C39.1913 122.123 38.1041 121.827 36.9925 121.867C35.2397 121.935 33.4732 122.167 31.7162 122.283C31.469 122.299 31.1012 122.116 31.0318 121.925C30.9695 121.761 31.1922 121.394 31.392 121.23C32.3048 120.482 33.1973 119.683 34.2085 119.08C34.822 118.718 35.6423 118.632 36.3744 118.521C36.9718 118.43 37.5714 118.478 38.1688 118.467C38.8821 118.88 39.6975 119.356 40.4063 119.771C40.8144 119.505 41.1552 119.289 41.4662 119.083C41.5038 119.593 41.5312 119.982 41.5565 120.367C41.811 120.276 42.0726 120.186 42.4203 120.062L42.4248 120.06ZM35.9937 106.686C35.5366 107.24 34.8672 108.054 34.1717 108.897C34.4422 109.005 34.6163 109.071 34.5721 109.053C34.2116 109.658 33.9481 110.248 33.541 110.74C32.7582 111.694 31.7187 112.523 31.1006 113.538C29.9486 115.428 29.7849 115.593 27.5643 115.273C28.0666 114.696 29.0684 114.007 29.0361 113.475C28.9802 112.47 29.5248 112.355 30.0159 112.273C30.2542 110.804 31.7271 109.938 32.0582 108.94C32.5677 107.402 33.8747 106.742 34.7595 105.66C35.6019 104.63 36.5126 103.641 37.3916 102.638L37.6595 102.852C37.3635 103.524 37.0647 104.193 36.7732 104.862C36.5483 105.382 36.3287 105.898 35.9917 106.682L35.9937 106.686ZM33.1187 118.03C31.2625 119.321 29.4268 120.597 27.589 121.868C27.4773 121.765 27.3656 121.661 27.254 121.557C28.0136 119.673 29.2549 118.09 30.9559 117.07C31.7149 117.404 32.3049 117.669 33.1232 118.028L33.1187 118.03ZM25.2749 121.828C24.5822 119.918 26.3682 118.95 27.2495 117.648C27.215 118.175 27.1152 118.756 26.7511 119.085C26.3174 119.48 25.7495 119.572 26.2159 120.304C26.3621 120.531 25.6139 121.305 25.2749 121.828Z" fill="white"/>
<path d="M35.0225 109.112L34.9436 109.192L35.0208 109.232L35.0225 109.112Z" fill="white"/>
</g>
<defs>
<clipPath id="clip0_1_5913">
<rect width="200.117" height="48.9892" fill="white" transform="matrix(-0.888538 0.458804 0.459812 0.888016 178.482 0.109863)"/>
</clipPath>
</defs>
</svg>
