<svg width="154" height="91" viewBox="0 0 154 91" fill="none" xmlns="http://www.w3.org/2000/svg">
<path d="M153.319 25.9949C153.319 28.5983 151.244 30.7271 148.641 30.7933L11.8415 34.2746C9.14354 34.3433 6.91934 32.175 6.91934 29.4762V4.7999C6.91934 2.14893 9.06837 -9.91821e-05 11.7193 -9.91821e-05H148.519C151.17 -9.91821e-05 153.319 2.14893 153.319 4.7999V25.9949Z" fill="#22E393"/>
<path d="M29.4873 21.7998H27.6436L23.1686 14.5061H23.1123C23.129 14.7519 23.1436 15.0123 23.1561 15.2873C23.1727 15.5623 23.1852 15.8456 23.1936 16.1373C23.2061 16.429 23.2165 16.7248 23.2248 17.0248V21.7998H21.8623V12.6623H23.6936L28.1623 19.9061H28.2061C28.1977 19.6936 28.1873 19.4498 28.1748 19.1748C28.1623 18.8998 28.1498 18.6165 28.1373 18.3248C28.129 18.029 28.1227 17.7436 28.1186 17.4686V12.6623H29.4873V21.7998ZM37.8623 18.3248C37.8623 18.8998 37.7873 19.4102 37.6373 19.8561C37.4873 20.3019 37.2686 20.679 36.9811 20.9873C36.6936 21.2915 36.3477 21.5248 35.9436 21.6873C35.5394 21.8456 35.0831 21.9248 34.5748 21.9248C34.0998 21.9248 33.6644 21.8456 33.2686 21.6873C32.8727 21.5248 32.529 21.2915 32.2373 20.9873C31.9498 20.679 31.7269 20.3019 31.5686 19.8561C31.4102 19.4102 31.3311 18.8998 31.3311 18.3248C31.3311 17.5623 31.4623 16.9165 31.7248 16.3873C31.9915 15.854 32.3706 15.4477 32.8623 15.1686C33.354 14.8894 33.9394 14.7498 34.6186 14.7498C35.2561 14.7498 35.8186 14.8894 36.3061 15.1686C36.7936 15.4477 37.1748 15.854 37.4498 16.3873C37.7248 16.9206 37.8623 17.5665 37.8623 18.3248ZM32.8436 18.3248C32.8436 18.829 32.904 19.2602 33.0248 19.6186C33.1498 19.9769 33.3415 20.2519 33.5998 20.4436C33.8581 20.6311 34.1915 20.7248 34.5998 20.7248C35.0081 20.7248 35.3415 20.6311 35.5998 20.4436C35.8581 20.2519 36.0477 19.9769 36.1686 19.6186C36.2894 19.2602 36.3498 18.829 36.3498 18.3248C36.3498 17.8206 36.2894 17.3936 36.1686 17.0436C36.0477 16.6894 35.8581 16.4206 35.5998 16.2373C35.3415 16.0498 35.0061 15.9561 34.5936 15.9561C33.9852 15.9561 33.5415 16.1602 33.2623 16.5686C32.9831 16.9769 32.8436 17.5623 32.8436 18.3248ZM47.5248 19.8248C47.5248 20.279 47.4144 20.6623 47.1936 20.9748C46.9727 21.2873 46.6498 21.5248 46.2248 21.6873C45.804 21.8456 45.2873 21.9248 44.6748 21.9248C44.1915 21.9248 43.7748 21.8894 43.4248 21.8186C43.079 21.7519 42.7519 21.6477 42.4436 21.5061V20.2373C42.7727 20.3915 43.1415 20.5248 43.5498 20.6373C43.9623 20.7498 44.3519 20.8061 44.7186 20.8061C45.2019 20.8061 45.5498 20.7311 45.7623 20.5811C45.9748 20.4269 46.0811 20.2227 46.0811 19.9686C46.0811 19.8186 46.0373 19.6852 45.9498 19.5686C45.8665 19.4477 45.7081 19.3248 45.4748 19.1998C45.2456 19.0706 44.9081 18.9165 44.4623 18.7373C44.0248 18.5623 43.6561 18.3873 43.3561 18.2123C43.0561 18.0373 42.829 17.8269 42.6748 17.5811C42.5206 17.3311 42.4436 17.0123 42.4436 16.6248C42.4436 16.0123 42.6852 15.5477 43.1686 15.2311C43.6561 14.9102 44.2998 14.7498 45.0998 14.7498C45.5248 14.7498 45.9248 14.7936 46.2998 14.8811C46.679 14.9644 47.0498 15.0873 47.4123 15.2498L46.9498 16.3561C46.6373 16.2186 46.3227 16.1061 46.0061 16.0186C45.6936 15.9269 45.3748 15.8811 45.0498 15.8811C44.6706 15.8811 44.3811 15.9394 44.1811 16.0561C43.9852 16.1727 43.8873 16.3394 43.8873 16.5561C43.8873 16.7186 43.9352 16.8561 44.0311 16.9686C44.1269 17.0811 44.2915 17.1936 44.5248 17.3061C44.7623 17.4186 45.0915 17.5581 45.5123 17.7248C45.9248 17.8831 46.2811 18.0498 46.5811 18.2248C46.8852 18.3956 47.1186 18.6061 47.2811 18.8561C47.4436 19.1061 47.5248 19.429 47.5248 19.8248ZM50.5811 14.8811V21.7998H49.1123V14.8811H50.5811ZM49.8561 12.2311C50.0811 12.2311 50.2748 12.2915 50.4373 12.4123C50.604 12.5331 50.6873 12.7415 50.6873 13.0373C50.6873 13.329 50.604 13.5373 50.4373 13.6623C50.2748 13.7831 50.0811 13.8436 49.8561 13.8436C49.6227 13.8436 49.4248 13.7831 49.2623 13.6623C49.104 13.5373 49.0248 13.329 49.0248 13.0373C49.0248 12.7415 49.104 12.5331 49.2623 12.4123C49.4248 12.2915 49.6227 12.2311 49.8561 12.2311ZM54.6623 24.8748C53.7248 24.8748 53.0061 24.7061 52.5061 24.3686C52.0061 24.0311 51.7561 23.5581 51.7561 22.9498C51.7561 22.5248 51.8894 22.1644 52.1561 21.8686C52.4227 21.5769 52.804 21.3748 53.2998 21.2623C53.1123 21.179 52.9498 21.0498 52.8123 20.8748C52.679 20.6956 52.6123 20.4977 52.6123 20.2811C52.6123 20.0227 52.6852 19.8019 52.8311 19.6186C52.9769 19.4352 53.1956 19.2581 53.4873 19.0873C53.1248 18.9331 52.8331 18.6831 52.6123 18.3373C52.3956 17.9873 52.2873 17.5769 52.2873 17.1061C52.2873 16.6061 52.3936 16.1811 52.6061 15.8311C52.8186 15.4769 53.129 15.2081 53.5373 15.0248C53.9456 14.8373 54.4394 14.7436 55.0186 14.7436C55.1436 14.7436 55.279 14.7519 55.4248 14.7686C55.5748 14.7811 55.7123 14.7977 55.8373 14.8186C55.9665 14.8352 56.0644 14.854 56.1311 14.8748H58.5248V15.6936L57.3498 15.9123C57.4623 16.0706 57.5519 16.2519 57.6186 16.4561C57.6852 16.6561 57.7186 16.8748 57.7186 17.1123C57.7186 17.829 57.4706 18.3936 56.9748 18.8061C56.4831 19.2144 55.804 19.4186 54.9373 19.4186C54.729 19.4102 54.5269 19.3936 54.3311 19.3686C54.1811 19.4602 54.0665 19.5623 53.9873 19.6748C53.9081 19.7831 53.8686 19.9061 53.8686 20.0436C53.8686 20.1561 53.9081 20.2477 53.9873 20.3186C54.0665 20.3852 54.1831 20.4352 54.3373 20.4686C54.4956 20.5019 54.6873 20.5186 54.9123 20.5186H56.1061C56.8644 20.5186 57.4436 20.679 57.8436 20.9998C58.2436 21.3206 58.4436 21.7915 58.4436 22.4123C58.4436 23.1998 58.1186 23.8061 57.4686 24.2311C56.8186 24.6602 55.8831 24.8748 54.6623 24.8748ZM54.7186 23.8436C55.2311 23.8436 55.6623 23.7936 56.0123 23.6936C56.3623 23.5936 56.6269 23.4498 56.8061 23.2623C56.9852 23.079 57.0748 22.8602 57.0748 22.6061C57.0748 22.3811 57.0186 22.2081 56.9061 22.0873C56.7936 21.9665 56.6248 21.8831 56.3998 21.8373C56.1748 21.7915 55.8956 21.7686 55.5623 21.7686H54.4748C54.204 21.7686 53.9644 21.8102 53.7561 21.8936C53.5477 21.9811 53.3852 22.1061 53.2686 22.2686C53.1561 22.4311 53.0998 22.6269 53.0998 22.8561C53.0998 23.1727 53.2394 23.4165 53.5186 23.5873C53.8019 23.7581 54.2019 23.8436 54.7186 23.8436ZM55.0061 18.4561C55.4352 18.4561 55.754 18.3394 55.9623 18.1061C56.1706 17.8686 56.2748 17.5352 56.2748 17.1061C56.2748 16.6394 56.1665 16.2894 55.9498 16.0561C55.7373 15.8227 55.4206 15.7061 54.9998 15.7061C54.5873 15.7061 54.2727 15.8248 54.0561 16.0623C53.8436 16.2998 53.7373 16.6519 53.7373 17.1186C53.7373 17.5394 53.8436 17.8686 54.0561 18.1061C54.2727 18.3394 54.5894 18.4561 55.0061 18.4561ZM63.3936 14.7498C64.1727 14.7498 64.779 14.9519 65.2123 15.3561C65.6498 15.7561 65.8686 16.3998 65.8686 17.2873V21.7998H64.3998V17.5623C64.3998 17.0248 64.2894 16.6227 64.0686 16.3561C63.8477 16.0852 63.5061 15.9498 63.0436 15.9498C62.3727 15.9498 61.9061 16.1561 61.6436 16.5686C61.3852 16.9811 61.2561 17.579 61.2561 18.3623V21.7998H59.7873V14.8811H60.9311L61.1373 15.8186H61.2186C61.3686 15.5769 61.554 15.379 61.7748 15.2248C61.9998 15.0665 62.2498 14.9477 62.5248 14.8686C62.804 14.7894 63.0936 14.7498 63.3936 14.7498ZM77.2811 14.8811V21.7998H76.1248L75.9248 20.8686H75.8436C75.6977 21.1061 75.5123 21.304 75.2873 21.4623C75.0623 21.6165 74.8123 21.7311 74.5373 21.8061C74.2623 21.8852 73.9727 21.9248 73.6686 21.9248C73.1477 21.9248 72.7019 21.8373 72.3311 21.6623C71.9644 21.4831 71.6831 21.2081 71.4873 20.8373C71.2915 20.4665 71.1936 19.9873 71.1936 19.3998V14.8811H72.6686V19.1248C72.6686 19.6623 72.7769 20.0644 72.9936 20.3311C73.2144 20.5977 73.5561 20.7311 74.0186 20.7311C74.4644 20.7311 74.8186 20.6394 75.0811 20.4561C75.3436 20.2727 75.529 20.0019 75.6373 19.6436C75.7498 19.2852 75.8061 18.8456 75.8061 18.3248V14.8811H77.2811ZM82.9373 14.7498C83.7581 14.7498 84.4165 15.0498 84.9123 15.6498C85.4123 16.2498 85.6623 17.1415 85.6623 18.3248C85.6623 19.1081 85.5456 19.7686 85.3123 20.3061C85.0831 20.8394 84.7602 21.2436 84.3436 21.5186C83.9311 21.7894 83.4498 21.9248 82.8998 21.9248C82.5498 21.9248 82.2456 21.879 81.9873 21.7873C81.729 21.6956 81.5081 21.5769 81.3248 21.4311C81.1415 21.2811 80.9873 21.1186 80.8623 20.9436H80.7748C80.7956 21.1102 80.8144 21.2956 80.8311 21.4998C80.8519 21.6998 80.8623 21.8831 80.8623 22.0498V24.8686H79.3873V14.8811H80.5873L80.7936 15.8373H80.8623C80.9915 15.6415 81.1477 15.4602 81.3311 15.2936C81.5186 15.1269 81.7436 14.9956 82.0061 14.8998C82.2727 14.7998 82.5831 14.7498 82.9373 14.7498ZM82.5436 15.9498C82.1394 15.9498 81.8144 16.0311 81.5686 16.1936C81.3269 16.3519 81.1498 16.5915 81.0373 16.9123C80.929 17.2331 80.8706 17.6352 80.8623 18.1186V18.3248C80.8623 18.8373 80.9144 19.2727 81.0186 19.6311C81.1269 19.9852 81.304 20.2561 81.5498 20.4436C81.7998 20.6269 82.1373 20.7186 82.5623 20.7186C82.9206 20.7186 83.2165 20.6206 83.4498 20.4248C83.6873 20.229 83.8644 19.9498 83.9811 19.5873C84.0977 19.2248 84.1561 18.7977 84.1561 18.3061C84.1561 17.5602 84.0227 16.9811 83.7561 16.5686C83.4936 16.1561 83.0894 15.9498 82.5436 15.9498ZM94.2935 14.7498C95.0727 14.7498 95.679 14.9519 96.1123 15.3561C96.5498 15.7561 96.7685 16.3998 96.7685 17.2873V21.7998H95.2998V17.5623C95.2998 17.0248 95.1894 16.6227 94.9685 16.3561C94.7477 16.0852 94.406 15.9498 93.9435 15.9498C93.2727 15.9498 92.806 16.1561 92.5435 16.5686C92.2852 16.9811 92.156 17.579 92.156 18.3623V21.7998H90.6873V14.8811H91.831L92.0373 15.8186H92.1185C92.2685 15.5769 92.454 15.379 92.6748 15.2248C92.8998 15.0665 93.1498 14.9477 93.4248 14.8686C93.704 14.7894 93.9935 14.7498 94.2935 14.7498ZM101.581 14.7498C102.198 14.7498 102.727 14.8769 103.169 15.1311C103.61 15.3852 103.95 15.7456 104.187 16.2123C104.425 16.679 104.544 17.2373 104.544 17.8873V18.6748H99.9248C99.9415 19.3456 100.121 19.8623 100.462 20.2248C100.808 20.5873 101.291 20.7686 101.912 20.7686C102.354 20.7686 102.75 20.7269 103.1 20.6436C103.454 20.5561 103.819 20.429 104.194 20.2623V21.4561C103.848 21.6186 103.496 21.7373 103.137 21.8123C102.779 21.8873 102.35 21.9248 101.85 21.9248C101.171 21.9248 100.573 21.7936 100.056 21.5311C99.5436 21.2644 99.1415 20.8686 98.8498 20.3436C98.5623 19.8186 98.4186 19.1665 98.4186 18.3873C98.4186 17.6123 98.5498 16.954 98.8123 16.4123C99.0748 15.8706 99.4436 15.4581 99.9186 15.1748C100.394 14.8915 100.948 14.7498 101.581 14.7498ZM101.581 15.8561C101.119 15.8561 100.744 16.0061 100.456 16.3061C100.173 16.6061 100.006 17.0456 99.9561 17.6248H103.106C103.102 17.279 103.044 16.9727 102.931 16.7061C102.823 16.4394 102.656 16.2311 102.431 16.0811C102.21 15.9311 101.927 15.8561 101.581 15.8561ZM108.956 14.7498C109.573 14.7498 110.102 14.8769 110.544 15.1311C110.985 15.3852 111.325 15.7456 111.562 16.2123C111.8 16.679 111.919 17.2373 111.919 17.8873V18.6748H107.3C107.316 19.3456 107.496 19.8623 107.837 20.2248C108.183 20.5873 108.666 20.7686 109.287 20.7686C109.729 20.7686 110.125 20.7269 110.475 20.6436C110.829 20.5561 111.194 20.429 111.569 20.2623V21.4561C111.223 21.6186 110.871 21.7373 110.512 21.8123C110.154 21.8873 109.725 21.9248 109.225 21.9248C108.546 21.9248 107.948 21.7936 107.431 21.5311C106.919 21.2644 106.516 20.8686 106.225 20.3436C105.937 19.8186 105.794 19.1665 105.794 18.3873C105.794 17.6123 105.925 16.954 106.187 16.4123C106.45 15.8706 106.819 15.4581 107.294 15.1748C107.769 14.8915 108.323 14.7498 108.956 14.7498ZM108.956 15.8561C108.494 15.8561 108.119 16.0061 107.831 16.3061C107.548 16.6061 107.381 17.0456 107.331 17.6248H110.481C110.477 17.279 110.419 16.9727 110.306 16.7061C110.198 16.4394 110.031 16.2311 109.806 16.0811C109.585 15.9311 109.302 15.8561 108.956 15.8561ZM115.9 21.9248C115.075 21.9248 114.412 21.6248 113.912 21.0248C113.416 20.4206 113.169 19.5311 113.169 18.3561C113.169 17.1686 113.421 16.2706 113.925 15.6623C114.433 15.054 115.102 14.7498 115.931 14.7498C116.281 14.7498 116.587 14.7977 116.85 14.8936C117.112 14.9852 117.337 15.1102 117.525 15.2686C117.716 15.4269 117.879 15.604 118.012 15.7998H118.081C118.06 15.6706 118.035 15.4852 118.006 15.2436C117.981 14.9977 117.969 14.7706 117.969 14.5623V12.0748H119.444V21.7998H118.294L118.031 20.8561H117.969C117.844 21.0561 117.685 21.2373 117.494 21.3998C117.306 21.5581 117.081 21.6852 116.819 21.7811C116.56 21.8769 116.254 21.9248 115.9 21.9248ZM116.312 20.7311C116.941 20.7311 117.385 20.5498 117.644 20.1873C117.902 19.8248 118.035 19.2811 118.044 18.5561V18.3623C118.044 17.5873 117.919 16.9936 117.669 16.5811C117.419 16.1644 116.962 15.9561 116.3 15.9561C115.771 15.9561 115.366 16.1706 115.087 16.5998C114.812 17.0248 114.675 17.6186 114.675 18.3811C114.675 19.1436 114.812 19.7269 115.087 20.1311C115.366 20.5311 115.775 20.7311 116.312 20.7311ZM124.306 14.7498C124.923 14.7498 125.452 14.8769 125.894 15.1311C126.335 15.3852 126.675 15.7456 126.912 16.2123C127.15 16.679 127.269 17.2373 127.269 17.8873V18.6748H122.65C122.666 19.3456 122.846 19.8623 123.187 20.2248C123.533 20.5873 124.016 20.7686 124.637 20.7686C125.079 20.7686 125.475 20.7269 125.825 20.6436C126.179 20.5561 126.544 20.429 126.919 20.2623V21.4561C126.573 21.6186 126.221 21.7373 125.862 21.8123C125.504 21.8873 125.075 21.9248 124.575 21.9248C123.896 21.9248 123.298 21.7936 122.781 21.5311C122.269 21.2644 121.866 20.8686 121.575 20.3436C121.287 19.8186 121.144 19.1665 121.144 18.3873C121.144 17.6123 121.275 16.954 121.537 16.4123C121.8 15.8706 122.169 15.4581 122.644 15.1748C123.119 14.8915 123.673 14.7498 124.306 14.7498ZM124.306 15.8561C123.844 15.8561 123.469 16.0061 123.181 16.3061C122.898 16.6061 122.731 17.0456 122.681 17.6248H125.831C125.827 17.279 125.769 16.9727 125.656 16.7061C125.548 16.4394 125.381 16.2311 125.156 16.0811C124.935 15.9311 124.652 15.8561 124.306 15.8561ZM131.25 21.9248C130.425 21.9248 129.762 21.6248 129.262 21.0248C128.766 20.4206 128.519 19.5311 128.519 18.3561C128.519 17.1686 128.771 16.2706 129.275 15.6623C129.783 15.054 130.452 14.7498 131.281 14.7498C131.631 14.7498 131.937 14.7977 132.2 14.8936C132.462 14.9852 132.687 15.1102 132.875 15.2686C133.066 15.4269 133.229 15.604 133.362 15.7998H133.431C133.41 15.6706 133.385 15.4852 133.356 15.2436C133.331 14.9977 133.319 14.7706 133.319 14.5623V12.0748H134.794V21.7998H133.644L133.381 20.8561H133.319C133.194 21.0561 133.035 21.2373 132.844 21.3998C132.656 21.5581 132.431 21.6852 132.169 21.7811C131.91 21.8769 131.604 21.9248 131.25 21.9248ZM131.662 20.7311C132.291 20.7311 132.735 20.5498 132.994 20.1873C133.252 19.8248 133.385 19.2811 133.394 18.5561V18.3623C133.394 17.5873 133.269 16.9936 133.019 16.5811C132.769 16.1644 132.312 15.9561 131.65 15.9561C131.121 15.9561 130.716 16.1706 130.437 16.5998C130.162 17.0248 130.025 17.6186 130.025 18.3811C130.025 19.1436 130.162 19.7269 130.437 20.1311C130.716 20.5311 131.125 20.7311 131.662 20.7311ZM138.169 19.0123H137.062L136.762 12.6623H138.469L138.169 19.0123ZM136.687 21.0248C136.687 20.6831 136.775 20.4436 136.95 20.3061C137.129 20.1644 137.348 20.0936 137.606 20.0936C137.86 20.0936 138.077 20.1644 138.256 20.3061C138.435 20.4436 138.525 20.6831 138.525 21.0248C138.525 21.3581 138.435 21.5998 138.256 21.7498C138.077 21.8956 137.86 21.9686 137.606 21.9686C137.348 21.9686 137.129 21.8956 136.95 21.7498C136.775 21.5998 136.687 21.3581 136.687 21.0248Z" fill="#0D0D0D"/>
<path d="M4.77566 66.8863C3.80419 65.9054 2.22167 65.8982 1.241 66.8703C0.260335 67.8424 0.252875 69.4257 1.22434 70.4067L4.77566 66.8863ZM44.6257 43.347L45.6353 45.6343L44.6257 43.347ZM1.22434 70.4067C9.01552 78.2739 18.4686 79.2538 27.2779 76.727C35.9621 74.236 44.1507 68.3362 50.1281 62.172C53.131 59.0753 55.6415 55.8451 57.413 52.8385C59.1343 49.9173 60.3446 46.8958 60.3177 44.2953C60.3036 42.9353 59.9457 41.5105 58.9478 40.3501C57.9406 39.1789 56.5415 38.5793 55.0376 38.3792C52.1901 38.0003 48.3619 38.9621 43.6161 41.0596L45.6353 45.6343C50.2239 43.6062 52.9723 43.1497 54.3777 43.3367C55.0003 43.4196 55.1467 43.5989 55.1583 43.6124C55.1792 43.6367 55.3135 43.8022 55.3192 44.348C55.3317 45.5588 54.6917 47.6098 53.1069 50.2994C51.5724 52.9036 49.3212 55.8225 46.5406 58.69C40.951 64.4543 33.4857 69.7439 25.9011 71.9195C18.4416 74.0591 11.011 73.1825 4.77566 66.8863L1.22434 70.4067ZM43.6161 41.0596C39.8417 42.7278 37.1366 44.8381 35.6187 47.3239C34.0486 49.8952 33.8723 52.6821 34.8602 55.2247C36.7427 60.0694 42.5039 63.435 49.045 64.2168C55.7804 65.0218 63.892 63.2199 71.3391 57.1327C78.7766 51.0534 85.4202 40.8159 89.5333 24.9354L84.6943 23.6818C80.7734 38.8204 74.5882 48.0195 68.1769 53.26C61.7752 58.4926 55.0179 59.8938 49.6389 59.2509C44.0658 58.5848 40.4673 55.8514 39.5194 53.4119C39.0922 52.3123 39.1331 51.1608 39.8843 49.9306C40.6877 48.6149 42.4082 47.0606 45.6353 45.6343L43.6161 41.0596Z" fill="#22E393"/>
</svg>
