<svg width="59" height="59" viewBox="0 0 59 59" fill="none" xmlns="http://www.w3.org/2000/svg">
<rect width="45.0302" height="44.9861" rx="12" transform="matrix(0.92325 -0.384199 0.385111 0.92287 0 17.3018)" fill="white"/>
<g clip-path="url(#clip0_1_5921)">
<path d="M23.6666 16.7948C18.6864 19.2286 17.2112 23.2491 19.1749 28.5743L24.3277 26.43C23.6193 24.6086 24.1073 22.8054 25.8652 21.8157C27.6415 20.8701 29.5867 20.5768 30.629 21.5883C31.7705 22.7134 31.154 24.8281 30.8127 25.7444C30.1815 27.4523 28.7172 29.1456 28.2989 30.8682C27.9246 32.5724 28.4642 34.3609 29.257 36.5086L33.7932 34.6209C33.2683 33.2392 32.8242 31.9272 33.0921 30.835C33.5361 29.0501 34.7765 27.8113 35.5508 26.1987C36.3178 24.6923 37.0811 22.9294 36.4498 20.921C34.831 14.9362 29.0249 14.1521 23.6666 16.7948Z" fill="#3830C9"/>
<path d="M34.7918 43.0831C36.3728 42.4252 37.1286 40.6317 36.4799 39.0772C35.8312 37.5227 34.0237 36.7959 32.4427 37.4538C30.8617 38.1117 30.1059 39.9052 30.7546 41.4597C31.4033 43.0142 33.2108 43.741 34.7918 43.0831Z" fill="#3830C9"/>
</g>
<defs>
<clipPath id="clip0_1_5921">
<rect width="30.529" height="30.4991" fill="white" transform="matrix(0.92325 -0.384199 0.385111 0.92287 9.98145 21.4058)"/>
</clipPath>
</defs>
</svg>
