<svg width="68" height="57" viewBox="0 0 68 57" fill="none" xmlns="http://www.w3.org/2000/svg">
<path d="M1.98295 3.18942C4.40621 0.394076 18.1253 3.85143 30.2712 3.70229C47.3918 3.49208 63.7942 -1.32175 65.3091 0.354068C68.336 3.70257 69.1181 25.5671 65.3091 26.5339C61.5001 27.5006 4.87183 30.7691 1.98295 26.5339C-0.872833 22.3471 -0.440306 5.98476 1.98295 3.18942Z" fill="#22E393"/>
<path d="M16.5846 16.3703C16.5846 17.087 16.3346 17.6328 15.8346 18.0078C15.3387 18.3828 14.595 18.5703 13.6033 18.5703C13.095 18.5703 12.6617 18.5349 12.3033 18.4641C11.945 18.3974 11.6096 18.2974 11.2971 18.1641V16.5891C11.6512 16.7557 12.0492 16.8953 12.4908 17.0078C12.9367 17.1203 13.3283 17.1766 13.6658 17.1766C14.3575 17.1766 14.7033 16.9766 14.7033 16.5766C14.7033 16.4266 14.6575 16.3057 14.5658 16.2141C14.4742 16.1182 14.3158 16.012 14.0908 15.8953C13.8658 15.7745 13.5658 15.6349 13.1908 15.4766C12.6533 15.2516 12.2575 15.0432 12.0033 14.8516C11.7533 14.6599 11.57 14.4411 11.4533 14.1953C11.3408 13.9453 11.2846 13.6391 11.2846 13.2766C11.2846 12.6557 11.5242 12.1766 12.0033 11.8391C12.4867 11.4974 13.17 11.3266 14.0533 11.3266C14.895 11.3266 15.7137 11.5099 16.5096 11.8766L15.9346 13.2516C15.5846 13.1016 15.2575 12.9786 14.9533 12.8828C14.6492 12.787 14.3387 12.7391 14.0221 12.7391C13.4596 12.7391 13.1783 12.8911 13.1783 13.1953C13.1783 13.3661 13.2679 13.5141 13.4471 13.6391C13.6304 13.7641 14.0283 13.9495 14.6408 14.1953C15.1867 14.4161 15.5867 14.6224 15.8408 14.8141C16.095 15.0057 16.2825 15.2266 16.4033 15.4766C16.5242 15.7266 16.5846 16.0245 16.5846 16.3703ZM17.9908 9.65156C17.9908 9.03073 18.3367 8.72031 19.0283 8.72031C19.72 8.72031 20.0658 9.03073 20.0658 9.65156C20.0658 9.9474 19.9783 10.1786 19.8033 10.3453C19.6325 10.5078 19.3742 10.5891 19.0283 10.5891C18.3367 10.5891 17.9908 10.2766 17.9908 9.65156ZM19.9783 18.4453H18.0721V11.4578H19.9783V18.4453ZM28.0658 11.4578V12.4266L26.9721 12.7078C27.1721 13.0203 27.2721 13.3703 27.2721 13.7578C27.2721 14.5078 27.0096 15.0932 26.4846 15.5141C25.9637 15.9307 25.2387 16.1391 24.3096 16.1391L23.9658 16.1203L23.6846 16.0891C23.4887 16.2391 23.3908 16.4057 23.3908 16.5891C23.3908 16.8641 23.7408 17.0016 24.4408 17.0016H25.6283C26.395 17.0016 26.9783 17.1661 27.3783 17.4953C27.7825 17.8245 27.9846 18.3078 27.9846 18.9453C27.9846 19.762 27.6429 20.3953 26.9596 20.8453C26.2804 21.2953 25.3033 21.5203 24.0283 21.5203C23.0533 21.5203 22.3075 21.3495 21.7908 21.0078C21.2783 20.6703 21.0221 20.1953 21.0221 19.5828C21.0221 19.162 21.1533 18.8099 21.4158 18.5266C21.6783 18.2432 22.0637 18.0411 22.5721 17.9203C22.3762 17.837 22.2054 17.7016 22.0596 17.5141C21.9137 17.3224 21.8408 17.1203 21.8408 16.9078C21.8408 16.6411 21.9179 16.4203 22.0721 16.2453C22.2262 16.0661 22.4492 15.8911 22.7408 15.7203C22.3742 15.562 22.0825 15.3078 21.8658 14.9578C21.6533 14.6078 21.5471 14.1953 21.5471 13.7203C21.5471 12.9578 21.795 12.3682 22.2908 11.9516C22.7867 11.5349 23.495 11.3266 24.4158 11.3266C24.6117 11.3266 24.8429 11.3453 25.1096 11.3828C25.3804 11.4161 25.5533 11.4411 25.6283 11.4578H28.0658ZM22.6721 19.4328C22.6721 19.6953 22.7971 19.9016 23.0471 20.0516C23.3012 20.2016 23.6554 20.2766 24.1096 20.2766C24.7929 20.2766 25.3283 20.1828 25.7158 19.9953C26.1033 19.8078 26.2971 19.5516 26.2971 19.2266C26.2971 18.9641 26.1825 18.7828 25.9533 18.6828C25.7242 18.5828 25.37 18.5328 24.8908 18.5328H23.9033C23.5533 18.5328 23.2596 18.6141 23.0221 18.7766C22.7887 18.9432 22.6721 19.162 22.6721 19.4328ZM23.3658 13.7453C23.3658 14.1245 23.4512 14.4245 23.6221 14.6453C23.7971 14.8661 24.0617 14.9766 24.4158 14.9766C24.7742 14.9766 25.0367 14.8661 25.2033 14.6453C25.37 14.4245 25.4533 14.1245 25.4533 13.7453C25.4533 12.9036 25.1075 12.4828 24.4158 12.4828C23.7158 12.4828 23.3658 12.9036 23.3658 13.7453ZM35.6721 18.4453H33.7658V14.3641C33.7658 13.8599 33.6762 13.4828 33.4971 13.2328C33.3179 12.9786 33.0325 12.8516 32.6408 12.8516C32.1075 12.8516 31.7221 13.0307 31.4846 13.3891C31.2471 13.7432 31.1283 14.3328 31.1283 15.1578V18.4453H29.2221V11.4578H30.6783L30.9346 12.3516H31.0408C31.2533 12.0141 31.545 11.7599 31.9158 11.5891C32.2908 11.4141 32.7158 11.3266 33.1908 11.3266C34.0033 11.3266 34.62 11.5474 35.0408 11.9891C35.4617 12.4266 35.6721 13.0599 35.6721 13.8891V18.4453ZM45.9096 18.4453L45.6533 17.5516H45.5533C45.3492 17.8766 45.0596 18.1286 44.6846 18.3078C44.3096 18.4828 43.8825 18.5703 43.4033 18.5703C42.5825 18.5703 41.9637 18.3516 41.5471 17.9141C41.1304 17.4724 40.9221 16.8391 40.9221 16.0141V11.4578H42.8283V15.5391C42.8283 16.0432 42.9179 16.4224 43.0971 16.6766C43.2762 16.9266 43.5617 17.0516 43.9533 17.0516C44.4867 17.0516 44.8721 16.8745 45.1096 16.5203C45.3471 16.162 45.4658 15.5703 45.4658 14.7453V11.4578H47.3721V18.4453H45.9096ZM53.2096 18.5703C52.3887 18.5703 51.745 18.2724 51.2783 17.6766H51.1783C51.245 18.2599 51.2783 18.5974 51.2783 18.6891V21.5203H49.3721V11.4578H50.9221L51.1908 12.3641H51.2783C51.7242 11.6724 52.3846 11.3266 53.2596 11.3266C54.0846 11.3266 54.7304 11.6453 55.1971 12.2828C55.6637 12.9203 55.8971 13.8057 55.8971 14.9391C55.8971 15.6849 55.7867 16.3328 55.5658 16.8828C55.3492 17.4328 55.0387 17.8516 54.6346 18.1391C54.2304 18.4266 53.7554 18.5703 53.2096 18.5703ZM52.6471 12.8516C52.1762 12.8516 51.8325 12.9974 51.6158 13.2891C51.3992 13.5766 51.2867 14.0536 51.2783 14.7203V14.9266C51.2783 15.6766 51.3887 16.2141 51.6096 16.5391C51.8346 16.8641 52.1887 17.0266 52.6721 17.0266C53.5262 17.0266 53.9533 16.3224 53.9533 14.9141C53.9533 14.2266 53.8471 13.712 53.6346 13.3703C53.4262 13.0245 53.0971 12.8516 52.6471 12.8516Z" fill="#3830C9"/>
<path d="M39.0422 23.2241C40.1332 23.052 40.8776 22.0279 40.7049 20.9368C40.5322 19.8457 39.5077 19.1008 38.4168 19.2729L39.0422 23.2241ZM37.2807 38.5799L35.324 38.1651L37.2807 38.5799ZM38.4168 19.2729C34.1291 19.9495 31.6696 22.8553 30.4878 26.1913C29.3356 29.4442 29.3187 33.242 29.8292 36.3765C30.087 37.9593 30.4906 39.4457 31.0004 40.6807C31.4782 41.8382 32.1626 43.0574 33.1408 43.7853C33.67 44.1791 34.4135 44.5202 35.3046 44.4456C36.2047 44.3702 36.9043 43.9006 37.3954 43.3668C38.2918 42.3926 38.8484 40.8344 39.2374 38.9946L35.324 38.1651C34.96 39.8862 34.5744 40.5237 34.4514 40.6575C34.4328 40.6777 34.6034 40.49 34.969 40.4594C35.1368 40.4454 35.2801 40.4722 35.3828 40.5074C35.4797 40.5406 35.5274 40.5765 35.5277 40.5767C35.5279 40.5768 35.4972 40.5535 35.4406 40.4892C35.3848 40.4259 35.3142 40.3346 35.2323 40.2091C35.0666 39.9551 34.8829 39.6049 34.6975 39.1559C34.3263 38.2567 33.9954 37.0759 33.7771 35.7354C33.3354 33.0234 33.4001 29.9512 34.2582 27.5287C35.0869 25.1895 36.5665 23.6148 39.0422 23.2241L38.4168 19.2729ZM39.2374 38.9946C39.5671 37.4353 39.5598 35.979 39.0751 34.7519C38.5611 33.4504 37.5577 32.5502 36.2871 32.1989C33.9505 31.5529 31.4267 32.8645 29.7485 34.7375C26.0607 38.8536 24.9896 46.7077 32.3529 56.0782L35.4975 53.6076C28.9628 45.2918 30.699 39.6725 32.7282 37.4077C33.9086 36.0902 34.9707 35.9845 35.223 36.0543C35.2469 36.0609 35.2887 36.0518 35.355 36.2198C35.4507 36.4621 35.559 37.0535 35.324 38.1651L39.2374 38.9946Z" fill="#22E393"/>
</svg>
