<svg width="64" height="64" viewBox="0 0 64 64" fill="none" xmlns="http://www.w3.org/2000/svg">
<g clip-path="url(#clip0_1_13099)">
<path d="M62.5479 21.6904H1.55169C0.728067 21.6904 0.0498047 22.3687 0.0498047 23.1923V54.1991C0.0498047 55.0227 0.728067 55.701 1.55169 55.701H62.5479C63.3715 55.701 64.0498 55.0227 64.0498 54.1991V23.1923C64.0014 22.3687 63.3715 21.6904 62.5479 21.6904Z" fill="#0143BE"/>
<path d="M53.0518 26.4385H10.9988C8.67328 28.764 7.36517 30.0721 4.99121 32.4461V44.8972C7.31672 47.2227 8.62483 48.5308 10.9988 50.9048H53.0518C55.3773 48.5793 56.6854 47.2712 59.0593 44.8972V32.4461C56.6854 30.1205 55.3773 28.8124 53.0518 26.4385Z" fill="#8585FF"/>
<path d="M50.4843 35.207H47.4805C46.3662 35.207 45.4941 36.1276 45.4941 37.1934V40.1972C45.4941 41.3115 46.4146 42.1836 47.4805 42.1836H50.4843C51.5986 42.1836 52.4707 41.2631 52.4707 40.1972V37.1934C52.4707 36.0791 51.5502 35.207 50.4843 35.207Z" fill="#D1D1FF"/>
<path d="M50.4841 34.1904H47.4803C45.8331 34.1904 44.4766 35.547 44.4766 37.1942V40.198C44.4766 41.8453 45.8331 43.2018 47.4803 43.2018H50.4841C52.1314 43.2018 53.4879 41.8453 53.4879 40.198V37.1942C53.4395 35.547 52.1314 34.1904 50.4841 34.1904ZM51.4531 40.198C51.4531 40.7309 51.0171 41.2154 50.4357 41.2154H47.4319C46.899 41.2154 46.4145 40.7794 46.4145 40.198V37.1942C46.4145 36.6613 46.8505 36.1768 47.4319 36.1768H50.4357C50.9686 36.1768 51.4531 36.6128 51.4531 37.1942V40.198Z" fill="#4747FF"/>
<path d="M40.0191 38.6961C40.0191 44.2192 36.434 48.6765 32.0252 48.6765C27.6164 48.6765 24.0312 44.2192 24.0312 38.6961C24.0312 33.173 27.6164 28.7158 32.0252 28.7158C36.434 28.7158 40.0191 33.173 40.0191 38.6961Z" fill="#C9C9FF"/>
<path d="M36.2892 41.6027C36.2892 39.2287 34.642 37.6784 32.0258 37.6784C30.5239 37.6784 29.7971 37.0486 29.7971 35.7405C29.7971 34.6746 30.8146 33.8026 32.0258 33.8026C32.9463 33.8026 33.8183 34.3355 34.109 35.0622C34.3028 35.5951 34.9327 35.7889 35.4171 35.5951C35.9501 35.4014 36.1438 34.7715 35.9501 34.287C35.4171 33.0758 34.3513 32.2038 32.9947 31.9131V31.1863C32.9947 30.6534 32.5586 30.1689 31.9773 30.1689C31.4443 30.1689 30.9599 30.605 30.9599 31.1863V31.9131C29.1188 32.3491 27.7139 33.8995 27.7139 35.7405C27.7139 37.63 28.8282 39.6648 31.9288 39.6648C33.4307 39.6648 34.1574 40.2946 34.1574 41.6027C34.1574 42.6686 33.14 43.5406 31.9288 43.5406C31.0083 43.5406 30.1363 43.0077 29.8456 42.281C29.6518 41.7481 29.0219 41.5542 28.5375 41.748C28.0045 41.9418 27.8108 42.5717 28.0045 43.0561C28.5375 44.2673 29.6033 45.1394 30.9599 45.4301V46.1568C30.9599 46.6898 31.3959 47.1742 31.9773 47.1742C32.5102 47.1742 32.9947 46.7382 32.9947 46.1568V45.4301C34.8842 45.0425 36.2892 43.4922 36.2892 41.6027Z" fill="#0143BE"/>
<path d="M37.5487 13.6965C30.2815 6.42929 18.5087 6.42929 11.2414 13.6965C3.97421 20.9637 3.97421 32.7366 11.2414 40.0039L8.43142 42.8138L21.2702 45.1878L20.0105 38.3566L18.8962 32.3975L16.0862 35.2075C11.8228 30.072 12.065 22.4656 16.8614 17.6693C21.9485 12.5822 30.1847 12.5822 35.2717 17.6693C36.4829 18.8805 37.4034 20.237 38.0332 21.7389H42.2967C41.4246 18.7836 39.8743 15.9736 37.5487 13.6965Z" fill="#D1D1FF"/>
</g>
<defs>
<clipPath id="clip0_1_13099">
<rect width="64" height="64" fill="white"/>
</clipPath>
</defs>
</svg>
