<svg width="131" height="126" viewBox="0 0 131 126" fill="none" xmlns="http://www.w3.org/2000/svg">
<path d="M67.6575 74.191C65.5801 75.7093 64.9831 75.5268 64.4547 73.2339C64.3445 72.7504 64.1473 72.2251 63.8342 71.8556C62.8196 70.6477 61.845 67.9041 61.9034 66.396C61.9147 65.9913 61.8213 65.3976 61.5511 65.1984C59.7049 63.8138 59.7967 61.6482 59.2547 59.7415C58.5954 57.4157 58.0259 55.0604 57.2168 52.7936C56.6161 51.1142 56.43 49.3404 55.8912 47.7096C55.1554 45.4937 53.7908 43.4839 52.6912 41.3788C52.5614 41.1367 52.4638 40.8832 52.3686 40.6183C51.6684 38.6372 50.8946 36.6649 50.3026 34.6521C49.6925 32.5818 49.5904 30.5439 51.8113 28.8516C52.0505 30.1635 52.265 31.3627 52.5019 32.686C52.9501 32.7183 53.658 32.7679 55.0395 32.8602C54.0928 33.6233 53.5893 34.0346 53.0443 34.4732C53.7806 34.8219 54.478 35.1567 55.5308 35.6542C55.3345 36.2603 55.0401 37.1693 54.7689 38.0233C56.2735 37.8655 56.5818 38.6949 55.8736 41.3562C57.1211 41.1098 58.0277 41.0087 57.3076 42.8537C57.0746 43.4343 56.344 45.0676 58.324 45.0435C58.5585 45.0378 58.7931 45.4989 59.031 45.7392C58.6683 46.0478 58.3126 46.3518 58.1025 46.53C59.3288 49.475 60.6119 52.5514 61.9995 55.8767C60.9092 56.8437 61.8056 57.8118 63.0381 58.6874C62.4811 59.2432 62.0674 59.655 62.1136 59.6046C63.372 61.2575 64.475 62.705 65.658 64.2586C64.8868 64.8663 64.3859 65.2661 63.7994 65.7321C64.215 65.8354 64.5343 65.913 65.0349 66.0397C64.7105 66.5117 64.4347 66.9219 63.9713 67.6047C66.5472 67.5054 66.9234 68.5283 66.464 70.6483C66.2379 71.691 67.2153 72.993 67.6529 74.1841L67.6575 74.191Z" fill="#323232"/>
<path d="M32.4974 54.0527C34.5367 54.5554 36.2646 57.0109 35.9794 58.7777C39.374 58.6551 36.8252 61.5069 38.1068 62.6678C39.5786 62.2041 40.3377 63.0244 40.8699 64.5999C41.1869 65.5328 42.1836 66.2163 42.7932 67.0657C43.2178 67.6496 43.527 68.3296 43.8547 68.9774C44.3032 69.8535 44.0779 71.1538 45.5623 71.357C45.8587 71.3999 46.36 72.2809 46.2859 72.3794C44.4348 74.6025 46.5374 73.9811 47.5627 74.467C48.0696 74.7088 48.0975 75.9713 48.4049 77.0099C49.7402 77.1226 51.6319 77.2658 49.3144 79.8659C50.5742 79.9093 51.4823 79.9462 52.2433 79.9708C52.5501 80.6622 52.8273 81.2937 53.041 81.7685C52.2304 82.4518 51.4436 83.3974 50.4319 83.8359C49.9987 84.0222 48.5748 83.233 48.5197 82.7728C48.3164 81.199 47.32 80.4557 46.3321 79.4089C45.0104 78.0063 44.3355 76.0184 43.2218 74.3892C42.2223 72.9331 41.0382 71.5887 39.8608 70.2696C39.3511 69.6921 37.9216 69.5421 39.1878 68.3599C38.5384 67.6759 37.7736 67.058 37.2556 66.2873C35.5968 63.816 34.0373 61.2693 32.4016 58.7729C32.0137 58.1845 31.3375 57.7763 31.0142 57.1653C30.1284 55.5051 29.3232 53.8016 28.5711 52.0732C28.2099 51.2389 28.0261 50.3274 27.7412 49.3831C28.8069 49.1771 29.7369 48.9911 30.4159 48.8613L33.2494 53.1598C33.18 53.2353 32.8723 53.597 32.4814 54.0434L32.4974 54.0527Z" fill="#323232"/>
<path d="M11.9877 68.2188C14.5034 69.9563 17.0145 71.687 19.6196 73.4849C19.5545 73.6271 19.3476 74.0514 19.4197 73.9047C21.1217 75.146 22.6751 76.2072 24.1199 77.3897C24.31 77.5425 23.9678 78.334 23.871 78.8347C27.0274 79.4053 30.6888 82.3539 29.786 83.9519C31.0506 83.9723 33.1932 82.7187 32.6197 85.5693C33.758 85.5339 33.5896 85.6548 34.4046 86.7858C34.7493 87.2636 35.9687 87.1249 36.9635 87.2934C36.7253 87.9866 36.5408 88.5353 36.2536 89.3799C37.6176 88.8582 38.5895 88.1182 39.4459 90.1255C39.9774 91.3836 42.1074 92.1144 43.6678 92.7342C45.2718 93.3748 45.4065 93.5642 44.1782 94.9696C43.8266 95.3702 43.7085 95.9742 43.385 96.7038C41.0553 95.0224 38.5186 94.2319 36.7723 91.7785C35.5328 90.0337 32.9567 89.2891 31.1383 87.8862C28.8732 86.1522 26.8142 84.1434 24.5769 82.3612C23.677 81.6437 22.1006 81.4515 21.6429 80.5914C20.8209 79.0281 19.435 78.4623 18.1681 77.5796C16.0831 76.1339 13.9176 74.7015 12.1703 72.8943C11.3309 72.0277 11.3789 70.3079 11.0225 68.9839C11.3434 68.7327 11.6644 68.4814 11.9853 68.2301L11.9877 68.2188Z" fill="#323232"/>
<path d="M88.2881 52.2201C88.3421 52.8596 88.4221 53.8097 88.4841 54.762C88.5011 55.0587 88.2991 55.46 88.4331 55.6493C89.9751 57.7613 89.2811 59.7374 88.0391 61.6786C91.1971 61.9203 87.6281 63.647 88.7471 64.2599C87.8751 63.9311 86.9921 63.6 86.3581 63.3622C85.9931 62.4313 85.5531 61.6587 85.4221 60.8418C85.3081 60.1422 85.6571 59.376 85.6081 58.6537C85.3881 55.3529 85.0881 52.0655 84.8321 48.7691C84.6501 46.5056 84.4461 44.2373 84.3501 41.9673C84.3231 41.3693 84.6571 40.7617 84.8211 40.167C84.6161 39.8555 84.0021 39.3165 84.1051 39.0204C84.6801 37.3311 84.5541 35.7553 84.0531 34.0604C83.6821 32.8052 83.8071 31.4125 83.6661 30.085C83.5441 28.9047 83.0238 27.6489 83.3167 26.6019C83.5321 25.8143 84.7511 25.2986 85.5271 24.668C85.8951 25.5575 86.2881 26.4403 86.6221 27.3526C86.8481 27.9677 87.0221 28.6078 87.1521 29.2569C87.2891 29.9015 87.4211 30.569 87.4291 31.229C87.4551 33.3767 87.4181 35.5357 87.4081 37.8557C88.6821 38.3567 88.9211 41.0092 88.0011 43.244C88.0261 44.7273 88.0391 46.2082 88.0891 47.6846C88.1281 49.0093 88.2041 50.3296 88.2931 52.227L88.2881 52.2201Z" fill="#323232"/>
<path d="M105.686 47.6434C106.332 48.1411 106.755 48.4676 107.294 48.8773L105.695 49.9314C105.132 53.3706 105.312 56.8069 102.835 59.5418C102.509 59.9057 102.969 61.0417 102.635 61.332C102.059 61.8303 100.893 62.3807 100.439 62.1139C99.8164 61.7404 99.1624 60.5229 99.3264 59.8685C100.176 56.5479 101.232 53.2699 102.365 50.0313C102.582 49.4116 103.473 49.0322 104.111 48.4929C102.312 46.4118 104.295 44.4791 104.742 42.4763C105.1 40.8801 106.062 39.4319 106.564 37.8594C106.831 37.0284 106.595 36.0522 106.751 35.1747C107.17 32.813 107.624 30.4585 108.165 28.1159C108.678 25.8813 110.646 25.9743 112.311 25.3828C111.931 27.6687 111.955 29.828 111.168 31.6473C110.342 33.5722 110.111 35.5416 109.547 37.3828C109.126 38.7626 109.125 40.2825 108.568 41.6523C107.814 43.5201 107.302 45.4858 106.622 47.6322C106.801 47.6331 106.383 47.6309 105.691 47.6204L105.686 47.6434Z" fill="#323232"/>
<path d="M38.1207 111.028C37.9651 111.32 37.9024 111.45 37.8327 111.586C36.5805 114.039 35.8927 114.096 33.1567 113.168C30.1956 112.171 27.0619 111.665 24.0612 110.773C20.1077 109.596 16.2081 108.245 12.278 106.983C11.649 106.782 10.9768 106.5 10.3374 106.524C6.9841 106.679 4.5749 104.802 1.9668 102.261C3.1503 101.948 4.4559 101.157 5.4915 101.417C7.5675 101.945 9.4301 103.25 11.4895 103.858C13.3928 104.411 15.439 104.472 17.7827 104.804C17.4235 105.328 17.1756 105.69 16.7169 106.35C17.6533 106.249 17.9802 106.173 18.3021 106.179C19.7115 106.193 20.7482 104.934 22.6386 106.657C24.4488 108.304 28.0167 108.007 30.8123 108.557C31.0305 108.602 31.2676 108.555 31.4741 108.628C33.6591 109.412 35.8417 110.207 38.1253 111.035L38.1207 111.028Z" fill="#323232"/>
</svg>
