<svg width="53" height="150" viewBox="0 0 53 150" fill="none" xmlns="http://www.w3.org/2000/svg">
<path d="M52.2807 146.945C52.2168 147.71 52.1555 148.461 52.086 149.357C52.0919 149.356 51.867 149.499 51.7087 149.443C49.4815 148.716 47.2526 148.003 45.0472 147.206C44.3875 146.964 43.7934 146.515 43.2081 146.103C40.1273 143.926 36.9739 141.846 34.038 139.494C32.5088 138.271 31.3785 136.565 30.0518 135.086C29.7566 134.756 29.4669 134.346 29.0811 134.197C27.6931 133.646 27.1486 132.43 26.5798 131.22C26.4607 130.962 26.5184 130.528 26.3435 130.409C23.7042 128.721 23.014 125.397 20.5561 123.524C19.8204 122.961 19.4888 121.808 19.0884 120.869C18.2733 118.963 16.1648 117.805 16.0527 115.499C16.0403 115.298 15.869 115.068 15.7075 114.926C13.2322 112.782 12.5317 109.547 10.8367 106.924C10.4219 106.285 9.40974 105.589 10.1778 104.38C10.3129 104.168 8.95439 103.097 8.40921 102.334C8.1633 101.991 8.2153 101.434 8.13598 100.975C8.29253 100.921 8.45049 100.874 8.61314 100.818C7.63623 99.2227 6.65323 97.628 5.68078 96.025C5.59203 95.8836 5.50098 95.6847 5.52744 95.5331C5.94013 93.2547 4.41244 91.5076 3.91521 89.4849C3.82119 89.1227 3.887 88.7183 3.90061 88.3411C3.91865 87.9296 4.16453 87.3606 3.97488 87.1343C2.85246 85.7861 2.53793 84.2941 2.7848 82.59C2.85175 82.1397 2.57816 81.6402 2.49402 81.1635C2.25286 79.7766 2.22339 78.3216 1.75516 77.0199C1.14355 75.3162 2.38382 73.5506 1.28301 71.8559C0.902528 71.2726 1.31809 70.2201 1.24013 69.3876C1.17066 68.6383 0.870474 67.9095 0.788686 67.1634C0.753661 66.8511 1.03068 66.5035 1.16627 66.1666C1.1576 65.8802 1.10812 65.4864 1.13861 65.098C1.16502 64.7698 1.3913 64.4289 1.33943 64.1276C1.01057 62.1993 0.583535 60.3228 1.85549 58.477C2.10767 58.1098 1.47776 57.1453 1.31499 56.6432C2.0711 52.2487 2.38085 47.8522 3.65957 43.7548C4.85128 39.9292 5.69127 35.9851 7.48642 32.3635C7.7732 31.7248 8.00754 31.0604 8.36391 30.4627C9.03585 29.337 8.38303 27.3224 10.4213 27.2714C9.73311 26.1581 10.6841 25.4517 11.0278 24.6277C11.7877 22.8297 14.0168 21.7189 13.5255 19.341C13.4805 19.1165 13.2374 18.9371 13.0106 19.2256C12.3392 19.3411 11.6681 19.4828 10.9904 19.5737C10.4771 19.6415 9.81689 19.4459 9.4559 19.6972C8.07327 20.66 6.84298 19.832 5.69584 19.3758C4.3063 18.8188 3.75662 16.0887 4.66393 14.6066C5.33147 13.5148 6.19234 12.5367 7.01003 11.5436C7.54299 10.8934 8.13638 10.2996 8.76596 9.61775C10.1086 10.0952 11.2736 9.40541 11.4165 8.31215C12.473 7.53249 13.1643 6.88698 13.9699 6.45458C15.2518 5.7606 16.5961 5.18149 17.9282 4.60565C20.0436 3.68842 22.113 2.44204 24.33 2.06904C25.5868 1.86038 26.918 1.17981 27.91 1.31546C29.5259 1.53165 31.1416 0.12772 32.7253 1.43455C33.2429 1.86409 34.6035 3.70119 34.3603 4.40721C33.6337 6.5114 32.8624 8.59444 32.0872 10.7637C31.774 10.668 31.4038 10.5545 30.799 10.3706C31.0193 10.943 31.1688 11.3173 31.3246 11.7163C30.9738 11.7288 30.6678 11.7362 30.5001 11.747C30.5803 12.487 30.6585 13.1686 30.7508 14.0563C30.1254 13.7925 29.7301 13.6328 29.1263 13.3766C29.2527 14.6491 29.5055 15.7771 27.9676 16.2163C27.7281 16.2786 27.9058 17.8 27.9013 18.3391C27.1077 18.7421 26.3893 19.106 25.8316 19.3822C26.0788 19.8557 26.3182 20.3248 26.6203 20.9088C24.3671 20.8386 23.6622 22.419 22.9147 23.8858C22.5199 24.6641 22.3375 25.4527 21.2329 24.5788C21.0175 24.4053 20.2879 24.9032 19.7923 25.0648C19.3996 25.1932 18.694 25.4553 18.6331 25.3465C17.8263 24.028 16.2691 24.3672 15.1422 23.7614C14.3585 23.3421 12.9644 26.0068 13.3314 26.8165C12.2729 28.069 11.2844 29.2378 10.2609 30.4484C10.5802 30.8967 10.9042 31.3635 11.493 32.1943C10.6017 31.9668 10.1653 31.8507 9.72268 31.7362C9.15819 35.1407 8.34484 37.2981 7.28287 38.2082C7.48547 38.6869 9.10563 39.2233 7.23026 39.7765C6.86494 39.8845 6.89263 41.3073 6.70403 42.2746C6.62875 42.2876 6.20937 42.3639 5.64393 42.4583C6.08966 42.7622 6.42398 42.9902 6.36823 42.9522C6.31178 44.0754 6.32626 44.8653 6.21916 45.6409C6.14949 46.1313 5.90265 46.5956 5.49878 47.0351C5.50417 47.8405 6.20614 48.7796 4.69278 49.2123C4.5393 49.2523 4.44869 50.1679 4.49966 50.1875C5.86717 50.6847 5.14117 51.6015 4.87019 52.3016C4.53449 53.1563 3.98498 53.8436 4.60011 54.8774C5.08265 55.7032 4.91882 55.8047 3.66457 56.4785C3.79052 56.6359 4.25511 56.9874 4.36196 57.4253C4.76537 59.0586 4.26219 60.6588 3.45246 61.3284C3.74052 62.4407 4.06435 63.4126 4.21141 64.4107C4.26369 64.7645 3.82402 65.1674 3.70602 65.5719C3.61315 65.8715 3.53423 66.3512 3.6957 66.5191C4.57442 67.432 4.5459 67.8789 3.30186 68.8451C3.58137 68.9627 3.80647 69.0222 3.99369 69.1376C4.2211 69.2818 4.4089 69.4757 4.79167 69.7894C3.41071 70.2271 3.29192 70.7303 4.02051 71.8986C4.40277 72.5142 4.83553 73.4512 4.90841 74.2389C4.96071 74.7698 4.18282 75.3853 3.71768 76.0441C3.99839 76.1154 4.30218 76.2004 4.70311 76.3061C4.30325 77.0397 3.11768 78.0039 5.60643 77.7439C4.93904 78.3306 4.61385 78.6184 4.1419 79.0232C6.31081 79.3252 5.08382 80.8379 5.34756 81.8057C5.50802 82.4003 5.69763 82.9807 5.84587 83.5784C5.92389 83.8795 6.05624 84.2387 5.96158 84.506C5.55179 85.6814 5.74737 86.615 6.91674 87.3074C6.56196 87.5839 6.22434 87.8482 5.87754 88.1286C6.1722 88.4064 6.60952 88.6272 6.61448 88.8489C6.64461 90.5597 7.49896 91.8594 8.53881 93.0912C9.29435 93.9836 9.09048 94.4368 7.39491 95.1531C9.02979 95.2392 9.83703 95.7253 9.69455 97.4021C9.62877 98.1602 10.4759 98.9763 10.8462 99.7981C11.2744 100.743 11.632 101.719 12.0345 102.716C12.5344 103.61 13.0704 104.566 13.6892 105.664C13.4379 105.959 13.0403 106.423 12.5835 106.962C12.8161 107 13.0482 106.985 13.0735 107.058C13.6434 108.549 16.5707 108.49 15.6504 110.959C16.794 111.201 15.8863 113.161 17.619 113.196C18.0808 113.207 18.4991 114.974 18.957 115.984C20.4966 115.373 19.0786 116.884 19.3115 117.302C20.2302 117.863 22.114 117.925 20.6224 119.808C20.5387 119.915 20.7978 120.51 21.0125 120.605C24.4841 122.09 25.7069 125.622 27.9219 128.227C28.4598 128.862 29.4064 129.81 27.9688 130.813C28.6162 130.783 29.2653 130.758 30.0482 130.718C29.8709 131.224 29.707 131.68 29.6727 131.773C30.6235 132.511 31.3717 133.097 32.1246 133.675C33.7491 134.912 34.9888 136.459 35.8847 138.299C35.9943 138.52 36.417 138.836 36.5196 138.777C37.7066 138.147 38.4099 139.216 38.7745 139.765C39.8034 141.308 41.5652 141.683 42.8143 142.735C45.5733 145.061 48.9531 145.711 52.3037 146.933L52.2807 146.945ZM6.03516 16.4344C7.10148 17.8691 8.56177 18.421 10.2548 17.9481C11.2754 17.663 12.2126 16.7766 13.2016 16.749C14.6276 16.7129 14.3661 15.8297 14.4826 15.0648C14.5204 14.8057 14.2773 14.4491 14.3787 14.2588C15.2601 12.626 16.194 11.0188 17.12 9.38102C17.7236 9.96527 18.1875 10.4154 18.6965 10.9128C17.5003 11.1362 17.3612 12.1934 18.2791 14.0844C19.2337 13.2656 20.1599 11.831 21.106 11.8146C22.4044 11.7919 21.8478 9.51626 23.5855 10.3042C24.0303 10.5034 25.2722 8.92122 26.1442 8.16326C26.5551 8.88941 26.9269 9.54058 27.2519 10.112C26.7808 10.6215 26.3887 11.1825 25.8675 11.5738C25.4057 11.9169 24.7962 12.0688 23.9838 12.4243C23.9858 12.4828 23.9913 12.934 24.0024 13.5083C23.5791 13.1395 23.2582 12.8621 22.6722 12.3455C23.431 15.2245 21.3815 13.4353 20.6787 14.0116L21.1164 15.7016C20.6349 15.8924 20.2087 16.0688 19.8039 16.2264C19.455 15.7399 19.1358 15.2916 18.759 14.773C18.0552 15.953 17.4122 17.0385 16.7783 18.1084C17.6443 18.0866 18.1781 18.0725 18.7119 18.0583C18.7455 18.2136 18.7807 18.3749 18.8144 18.5302C17.9838 19.2709 17.1531 20.0116 16.3715 20.7133C16.935 21.472 17.5001 22.2367 18.1834 23.1545C19.0063 22.9406 20.0235 22.7942 20.9233 22.3963C21.3816 22.1919 21.6079 21.4969 21.9998 21.0867C22.9026 20.1436 23.8378 19.2249 24.7839 18.323C25.8309 17.3293 26.1216 15.8959 26.8716 14.7171C28.13 12.7436 29.0204 10.5378 30.0594 8.45074C30.1678 8.54057 30.3522 8.69595 30.5988 8.91398C30.6016 7.98839 30.6044 7.2399 30.6078 6.56996C32.629 5.97237 31.0196 4.36393 31.7316 3.41799C30.5055 3.26445 29.4457 2.94306 28.4312 3.04939C27.3336 3.16417 26.2826 3.68664 24.9323 4.11637C24.5904 5.32689 23.7958 5.59907 22.4979 4.96569C21.3802 5.25622 20.6996 5.53814 20.0106 5.58605C18.9358 5.66213 18.1317 5.89738 18.3267 7.2832C17.4463 7.0726 16.6693 6.8811 15.8305 6.67932C15.8857 7.37336 15.9405 8.015 15.98 8.49666C15.3266 8.37796 14.7471 8.2662 14.1631 8.16228C14.3607 9.12756 13.5874 9.38106 12.989 9.75303C12.2346 10.2313 11.4693 10.6926 10.6505 11.2006C10.6458 11.1821 10.7253 11.4894 10.7762 11.6861C9.97777 11.6903 9.28383 11.6936 8.91765 11.697C9.00038 12.5479 9.05131 13.0988 9.06995 13.2972C8.13043 13.5414 7.46614 13.583 6.9919 13.903C6.79611 14.0327 7.00545 14.7653 7.02749 15.1794C6.6325 15.2231 6.20677 15.2747 5.53807 15.3501C6.08755 15.5484 6.37776 15.6566 6.8053 15.8144C6.42793 16.1289 6.18508 16.3298 6.03832 16.4466L6.03516 16.4344Z" fill="#323232"/>
</svg>
