<svg width="57" height="56" viewBox="0 0 57 56" fill="none" xmlns="http://www.w3.org/2000/svg">
<path d="M45.1538 55.0243C48.7779 55.0243 51.7158 52.0864 51.7158 48.4624C51.7158 44.8383 48.7779 41.9004 45.1538 41.9004C41.5297 41.9004 38.5918 44.8383 38.5918 48.4624C38.5918 52.0864 41.5297 55.0243 45.1538 55.0243Z" fill="#0D0D0D"/>
<path d="M22.187 55.0243C25.8111 55.0243 28.749 52.0864 28.749 48.4624C28.749 44.8383 25.8111 41.9004 22.187 41.9004C18.5629 41.9004 15.625 44.8383 15.625 48.4624C15.625 52.0864 18.5629 55.0243 22.187 55.0243Z" fill="#0D0D0D"/>
<path d="M22.1874 50.1033C23.0934 50.1033 23.8279 49.3688 23.8279 48.4628C23.8279 47.5567 23.0934 46.8223 22.1874 46.8223C21.2813 46.8223 20.5469 47.5567 20.5469 48.4628C20.5469 49.3688 21.2813 50.1033 22.1874 50.1033Z" fill="#FF9900"/>
<path d="M45.1542 50.1033C46.0602 50.1033 46.7947 49.3688 46.7947 48.4628C46.7947 47.5567 46.0602 46.8223 45.1542 46.8223C44.2481 46.8223 43.5137 47.5567 43.5137 48.4628C43.5137 49.3688 44.2481 50.1033 45.1542 50.1033Z" fill="#FF9900"/>
<path d="M56.3256 8.57282C56.0954 8.31209 55.7642 8.16286 55.4164 8.16309H11.7722C11.1026 8.16297 10.5597 8.70557 10.5596 9.37512C10.5596 9.45661 10.5678 9.53799 10.5841 9.61789L15.4335 33.8646C15.5488 34.4292 16.0454 34.8346 16.6216 34.8345C16.6749 34.838 16.7283 34.838 16.7816 34.8345L53.1518 29.9851C53.6981 29.9121 54.1265 29.4798 54.1943 28.9327L56.619 9.53526C56.6654 9.18725 56.5583 8.83605 56.3256 8.57282Z" fill="#FF9900"/>
<path d="M21.4709 29.9905C20.8783 29.9903 20.3728 29.5615 20.2756 28.977L17.851 14.4289C17.7611 13.7654 18.226 13.1547 18.8896 13.0648C19.5249 12.9787 20.1175 13.4023 20.2417 14.0314L22.6664 28.5794C22.7758 29.2395 22.3298 29.8635 21.6698 29.9737C21.6041 29.9849 21.5377 29.9906 21.4709 29.9905Z" fill="#FF9900"/>
<path d="M27.5327 28.7752C26.9035 28.7777 26.3769 28.2987 26.3203 27.672L25.108 14.3363C25.0452 13.6697 25.5347 13.0784 26.2014 13.0157C26.2047 13.0153 26.2079 13.0151 26.2112 13.0148C26.878 12.9544 27.4675 13.4462 27.5278 14.113L28.7402 27.4488C28.8004 28.1157 28.3088 28.7051 27.6419 28.7655H27.6418L27.5327 28.7752Z" fill="#FF9900"/>
<path d="M33.5952 27.5658C32.9256 27.5658 32.3828 27.0229 32.3828 26.3534V14.23C32.3828 13.5604 32.9256 13.0176 33.5952 13.0176C34.2647 13.0176 34.8076 13.5604 34.8076 14.23V26.3534C34.8076 27.0229 34.2647 27.5658 33.5952 27.5658Z" fill="#FF9900"/>
<path d="M39.6561 26.3519H39.5203C38.8545 26.2814 38.3719 25.6845 38.4424 25.0186C38.4428 25.0145 38.4433 25.0103 38.4437 25.0062L39.6561 14.0952C39.7348 13.4283 40.3339 12.948 41.0018 13.0162C41.6673 13.0899 42.1471 13.6889 42.0736 14.3545V14.3546L40.8612 25.2657C40.7967 25.8827 40.2767 26.3516 39.6561 26.3519Z" fill="#FF9900"/>
<path d="M45.7179 25.1392C45.0483 25.1389 44.5057 24.596 44.5059 23.9264C44.5059 23.8277 44.518 23.7292 44.5419 23.6334L46.9665 13.9347C47.1135 13.2816 47.7622 12.8711 48.4154 13.0181C49.0686 13.1651 49.479 13.8138 49.3321 14.467C49.328 14.4853 49.3234 14.5035 49.3184 14.5216L46.8938 24.2202C46.7592 24.7601 46.2742 25.139 45.7179 25.1392Z" fill="#FF9900"/>
<path d="M50.5672 39.6835H22.584C18.5426 39.6742 15.065 36.8239 14.2625 32.8628L8.35358 3.31331H2.07371C1.40415 3.31331 0.861328 2.7706 0.861328 2.10105C0.861328 1.4315 1.40415 0.888672 2.07371 0.888672H9.34774C9.92398 0.888558 10.4205 1.29397 10.5358 1.85851L16.6411 32.3852C17.2134 35.2148 19.6971 37.2517 22.584 37.2589H50.5672C51.2368 37.2589 51.7796 37.8017 51.7796 38.4712C51.7796 39.1408 51.2368 39.6835 50.5672 39.6835Z" fill="#FF9900"/>
<path d="M50.5672 39.6835H22.584C18.5426 39.6742 15.065 36.8239 14.2625 32.8628L8.35358 3.31331H2.07371C1.40415 3.31331 0.861328 2.7706 0.861328 2.10105C0.861328 1.4315 1.40415 0.888672 2.07371 0.888672H9.34774C9.92398 0.888558 10.4205 1.29397 10.5358 1.85851L16.6411 32.3852C17.2134 35.2148 19.6971 37.2517 22.584 37.2589H50.5672C51.2368 37.2589 51.7796 37.8017 51.7796 38.4712C51.7796 39.1408 51.2368 39.6835 50.5672 39.6835Z" fill="#0D0D0D"/>
<path d="M16.6213 34.8346C15.9518 34.8782 15.3737 34.3707 15.3302 33.7011C15.2867 33.0316 15.7941 32.4535 16.4637 32.41L51.9077 27.6842L54.0439 10.5879H11.7719C11.1024 10.5879 10.5596 10.0451 10.5596 9.3755C10.5596 8.70595 11.1024 8.16312 11.7719 8.16312H55.4162C56.0857 8.15801 56.6326 8.69651 56.6379 9.36607C56.6383 9.41948 56.6351 9.47279 56.6285 9.52575L54.2039 28.9232C54.1359 29.4702 53.7077 29.9026 53.1613 29.9756L16.7911 34.825C16.7348 34.832 16.6781 34.8352 16.6213 34.8346Z" fill="#0D0D0D"/>
<path d="M21.4709 29.9856C20.8783 29.9854 20.3728 29.5567 20.2756 28.9721L17.851 14.424C17.7611 13.7605 18.226 13.1498 18.8896 13.0599C19.5249 12.9738 20.1175 13.3974 20.2417 14.0265L22.6664 28.5745C22.7758 29.2347 22.3298 29.8586 21.6698 29.9688C21.6041 29.98 21.5377 29.9857 21.4709 29.9856Z" fill="#0D0D0D"/>
<path d="M27.5327 28.7742C26.9035 28.7767 26.3769 28.2977 26.3203 27.671L25.108 14.3353C25.0452 13.6687 25.5347 13.0774 26.2014 13.0147C26.2047 13.0144 26.2079 13.0141 26.2112 13.0138C26.878 12.9534 27.4675 13.4452 27.5278 14.1121L28.7402 27.4479C28.8004 28.1147 28.3088 28.7041 27.6419 28.7645H27.6418L27.5327 28.7742Z" fill="#0D0D0D"/>
<path d="M33.5942 27.5599C32.9247 27.5599 32.3818 27.0171 32.3818 26.3475V14.2241C32.3818 13.5545 32.9247 13.0117 33.5942 13.0117C34.2638 13.0117 34.8066 13.5545 34.8066 14.2241V26.3475C34.8066 27.0171 34.2638 27.5599 33.5942 27.5599Z" fill="#0D0D0D"/>
<path d="M39.6561 26.3503H39.5203C38.8545 26.2798 38.3719 25.6829 38.4424 25.0169C38.4428 25.0129 38.4433 25.0087 38.4437 25.0046L39.6561 14.0935C39.7384 13.4287 40.3351 12.9503 41.0018 13.0146C41.6673 13.0882 42.1471 13.6873 42.0736 14.3529V14.353L40.8612 25.264C40.7967 25.8811 40.2767 26.3499 39.6561 26.3503Z" fill="#0D0D0D"/>
<path d="M45.7179 25.1372C45.0483 25.137 44.5057 24.594 44.5059 23.9245C44.5059 23.8257 44.518 23.7273 44.5419 23.6315L46.9665 13.9328C47.1135 13.2796 47.7622 12.8692 48.4154 13.0162C49.0686 13.1631 49.479 13.8119 49.3321 14.4651C49.328 14.4833 49.3234 14.5015 49.3184 14.5196L46.8938 24.2183C46.7592 24.7582 46.2742 25.1371 45.7179 25.1372Z" fill="#0D0D0D"/>
</svg>
