<svg width="64" height="64" viewBox="0 0 64 64" fill="none" xmlns="http://www.w3.org/2000/svg">
<g clip-path="url(#clip0_1_13148)">
<path d="M51.9799 24.6624C51.9799 38.2279 40.9822 49.2256 27.4168 49.2256C13.8513 49.2256 2.85352 38.2279 2.85352 24.6624C2.85352 11.0969 13.8513 0.0507812 27.4168 0.0507812C40.9822 0.0992294 51.9799 11.0969 51.9799 24.6624Z" fill="#0143BE"/>
<path d="M24.9943 35.8555H21.0215V37.8418H24.9943V35.8555Z" fill="white"/>
<path d="M30.2259 33.4326C28.3365 33.4326 26.7861 34.9829 26.7861 36.8724C26.7861 38.7619 28.3365 40.3123 30.2259 40.3123C32.1154 40.3123 33.6658 38.7619 33.6658 36.8724C33.6658 34.9829 32.1154 33.4326 30.2259 33.4326ZM30.2259 38.3259C29.4508 38.3259 28.7725 37.696 28.7725 36.8724C28.7725 36.0973 29.4023 35.419 30.2259 35.419C31.0011 35.419 31.6794 36.0488 31.6794 36.8724C31.6794 37.6476 31.0011 38.3259 30.2259 38.3259Z" fill="white"/>
<path d="M15.7884 33.4326C13.899 33.4326 12.3486 34.9829 12.3486 36.8724C12.3486 38.7619 13.899 40.3123 15.7884 40.3123C17.6779 40.3123 19.2282 38.7619 19.2282 36.8724C19.2282 34.9829 17.6779 33.4326 15.7884 33.4326ZM15.7884 38.3259C15.0133 38.3259 14.335 37.696 14.335 36.8724C14.335 36.0973 14.9648 35.419 15.7884 35.419C16.5636 35.419 17.2419 36.0488 17.2419 36.8724C17.2419 37.6476 16.5636 38.3259 15.7884 38.3259Z" fill="white"/>
<path d="M35.0227 11.4854L33.9568 17.0084H10.0234V18.9948H33.5692L32.7941 22.9675H11.4769V24.9539H32.4065L31.5829 28.9267H12.9788V30.9615H33.2301L36.6699 13.4717H41.9023V11.4854H35.0227Z" fill="white"/>
<path d="M60.7979 37.6469C60.6526 35.9512 59.1991 34.6431 57.5034 34.6431C56.922 34.6431 56.3891 34.7884 55.9046 35.0791C55.5655 33.5772 54.2574 32.4629 52.6586 32.4629C51.7865 32.4629 50.9629 32.802 50.3816 33.3834C49.8002 32.5598 48.8312 32.0269 47.7169 32.0269C46.651 32.0269 45.6821 32.5598 45.0523 33.3834V20.4962C45.0523 19.1397 43.6957 18.0254 42.0969 18.0254C40.4496 18.0254 39.0931 19.1397 39.0931 20.4962V45.1563C38.1242 44.8657 35.7502 44.3327 32.8917 44.575C29.1612 44.9141 26.5935 46.6582 26.545 48.79C26.4481 50.8732 26.9326 51.6484 26.9326 51.6484C26.9326 51.6484 31.8743 50.631 33.5216 51.1639C38.2211 52.6658 42.436 58.2373 44.8585 58.2373C48.3952 58.2373 55.9046 58.2373 57.8425 58.2373H58.327H59.3929C60.1681 58.2373 60.8463 57.6075 60.8463 56.7839V37.8407C60.8463 37.7438 60.8464 37.6953 60.7979 37.6469Z" fill="#A1A1FF"/>
<path d="M59.3436 58.1885H44.7607C43.9371 58.1885 43.2588 58.8668 43.2588 59.6904V62.5488C43.2588 63.3724 43.9371 64.0507 44.7607 64.0507H59.3436C60.1672 64.0507 60.8455 63.3724 60.8455 62.5488V59.6904C60.8455 58.8668 60.1672 58.1885 59.3436 58.1885Z" fill="#0143BE"/>
<path d="M57.8416 62.112C58.4035 62.112 58.8591 61.6564 58.8591 61.0945C58.8591 60.5326 58.4035 60.0771 57.8416 60.0771C57.2797 60.0771 56.8242 60.5326 56.8242 61.0945C56.8242 61.6564 57.2797 62.112 57.8416 62.112Z" fill="white"/>
</g>
<defs>
<clipPath id="clip0_1_13148">
<rect width="64" height="64" fill="white"/>
</clipPath>
</defs>
</svg>
