<svg width="59" height="64" viewBox="0 0 59 64" fill="none" xmlns="http://www.w3.org/2000/svg">
<path d="M49.312 24.6624C49.312 38.2279 38.3143 49.2256 24.7488 49.2256C11.1833 49.2256 0.185547 38.2279 0.185547 24.6624C0.185547 11.0969 11.1833 0.0507812 24.7488 0.0507812C38.3143 0.0992294 49.312 11.0969 49.312 24.6624Z" fill="#D7D7D7"/>
<path d="M22.3263 35.8555H18.3535V37.8418H22.3263V35.8555Z" fill="#0D0D0D"/>
<path d="M27.558 33.4326C25.6685 33.4326 24.1182 34.9829 24.1182 36.8724C24.1182 38.7619 25.6685 40.3123 27.558 40.3123C29.4474 40.3123 30.9978 38.7619 30.9978 36.8724C30.9978 34.9829 29.4474 33.4326 27.558 33.4326ZM27.558 38.3259C26.7828 38.3259 26.1045 37.696 26.1045 36.8724C26.1045 36.0973 26.7344 35.419 27.558 35.419C28.3331 35.419 29.0114 36.0488 29.0114 36.8724C29.0114 37.6476 28.3331 38.3259 27.558 38.3259Z" fill="#0D0D0D"/>
<path d="M13.1205 33.4326C11.231 33.4326 9.68066 34.9829 9.68066 36.8724C9.68066 38.7619 11.231 40.3123 13.1205 40.3123C15.0099 40.3123 16.5603 38.7619 16.5603 36.8724C16.5603 34.9829 15.0099 33.4326 13.1205 33.4326ZM13.1205 38.3259C12.3453 38.3259 11.667 37.696 11.667 36.8724C11.667 36.0973 12.2969 35.419 13.1205 35.419C13.8956 35.419 14.5739 36.0488 14.5739 36.8724C14.5739 37.6476 13.8956 38.3259 13.1205 38.3259Z" fill="#0D0D0D"/>
<path d="M32.3547 11.4854L31.2889 17.0084H7.35547V18.9948H30.9012L30.1261 22.9675H8.80891V24.9539H29.7385L28.9149 28.9267H10.3108V30.9615H30.5621L34.0019 13.4717H39.2344V11.4854H32.3547Z" fill="#0D0D0D"/>
<path d="M58.1299 37.6469C57.9846 35.9512 56.5311 34.6431 54.8354 34.6431C54.2541 34.6431 53.7211 34.7884 53.2366 35.0791C52.8975 33.5772 51.5894 32.4629 49.9906 32.4629C49.1186 32.4629 48.295 32.802 47.7136 33.3834C47.1322 32.5598 46.1632 32.0269 45.0489 32.0269C43.9831 32.0269 43.0141 32.5598 42.3843 33.3834V20.4962C42.3843 19.1397 41.0277 18.0254 39.4289 18.0254C37.7817 18.0254 36.4251 19.1397 36.4251 20.4962V45.1563C35.4562 44.8657 33.0822 44.3327 30.2238 44.575C26.4933 44.9141 23.9255 46.6582 23.8771 48.79C23.7802 50.8732 24.2647 51.6484 24.2647 51.6484C24.2647 51.6484 29.2064 50.631 30.8536 51.1639C35.5531 52.6658 39.7681 58.2373 42.1905 58.2373C45.7272 58.2373 53.2366 58.2373 55.1746 58.2373H55.659H56.7249C57.5001 58.2373 58.1784 57.6075 58.1784 56.7839V37.8407C58.1784 37.7438 58.1784 37.6953 58.1299 37.6469Z" fill="#A9A9A9"/>
<path d="M56.6756 58.1885H42.0927C41.2691 58.1885 40.5908 58.8668 40.5908 59.6904V62.5488C40.5908 63.3724 41.2691 64.0507 42.0927 64.0507H56.6756C57.4993 64.0507 58.1775 63.3724 58.1775 62.5488V59.6904C58.1775 58.8668 57.4993 58.1885 56.6756 58.1885Z" fill="#0D0D0D"/>
<path d="M55.1736 62.112C55.7355 62.112 56.1911 61.6564 56.1911 61.0945C56.1911 60.5326 55.7355 60.0771 55.1736 60.0771C54.6117 60.0771 54.1562 60.5326 54.1562 61.0945C54.1562 61.6564 54.6117 62.112 55.1736 62.112Z" fill="white"/>
</svg>
