<svg width="21" height="21" viewBox="0 0 21 21" fill="none" xmlns="http://www.w3.org/2000/svg">
<path d="M13.6888 2.08247V0.650391L9.81462 3.30352L11.8799 4.72052L13.6888 5.95663V4.53962C16.0706 4.75067 17.9549 6.75559 17.9549 9.19766C17.9549 11.7905 15.8596 13.8858 13.2667 13.8858C10.6739 13.8858 8.57851 11.7905 8.57851 9.19766C8.57851 8.7605 8.2318 8.41378 7.79463 8.41378C7.35747 8.41378 7.01074 8.7605 7.01074 9.19766C7.23686 12.695 10.1312 15.4687 13.6888 15.4687C17.3821 15.4687 20.382 12.4688 20.382 8.77558C20.3669 5.08231 17.3821 2.08247 13.6888 2.08247Z" fill="#CCCCCC"/>
<path d="M0.694458 17.2624L8.09612 20.5637V12.6646L0.694458 9.36328V17.2624Z" fill="#A9A9A9"/>
<path d="M8.09612 6.04688L0.694458 9.36328L8.09612 12.6646L15.4978 9.36328L8.09612 6.04688Z" fill="#0D0D0D"/>
<path d="M10.7494 7.23828L3.34778 10.5396V13.7806L5.0512 14.5344V11.3084L12.4679 8.00708L10.7494 7.23828Z" fill="#A9A9A9"/>
<path d="M3.34766 10.5391V13.7801L5.05108 14.5338V11.3079L3.34766 10.5391Z" fill="#D7D7D7"/>
<path d="M15.4978 17.2624L8.09619 20.5637V12.6646L15.4978 9.36328V17.2624Z" fill="#D7D7D7"/>
</svg>
