<svg width="33" height="64" viewBox="0 0 33 64" fill="none" xmlns="http://www.w3.org/2000/svg">
<g clip-path="url(#clip0_1_7709)">
<path d="M42.5416 4.339V-0.316406L29.9474 8.30836L36.661 12.9147L42.5416 16.9331V12.3267C50.2843 13.0127 56.4098 19.5303 56.4098 27.469C56.4098 35.8978 49.5982 42.7093 41.1694 42.7093C32.7406 42.7093 25.929 35.8978 25.929 27.469C25.929 26.0479 24.8019 24.9208 23.3808 24.9208C21.9597 24.9208 20.8325 26.0479 20.8325 27.469C21.5676 38.838 30.9765 47.8548 42.5416 47.8548C54.5477 47.8548 64.2996 38.1029 64.2996 26.0969C64.2506 14.0909 54.5477 4.339 42.5416 4.339Z" fill="#CCCCCC"/>
<path d="M0.299805 53.687L24.3611 64.419V38.7407L0.299805 28.0088V53.687Z" fill="#A9A9A9"/>
<path d="M24.3611 17.2275L0.299805 28.0085L24.3611 38.7404L48.4223 28.0085L24.3611 17.2275Z" fill="#0D0D0D"/>
<path d="M32.986 21.0977L8.9248 31.8296V42.3655L14.4623 44.8157V34.3288L38.5726 23.5969L32.986 21.0977Z" fill="#A9A9A9"/>
<path d="M8.9248 31.8311V42.367L14.4623 44.8172V34.3303L8.9248 31.8311Z" fill="#D7D7D7"/>
<path d="M48.4226 53.687L24.3613 64.419V38.7407L48.4226 28.0088V53.687Z" fill="#D7D7D7"/>
</g>
<defs>
<clipPath id="clip0_1_7709">
<rect width="64" height="64" fill="white"/>
</clipPath>
</defs>
</svg>
