<svg width="64" height="64" viewBox="0 0 64 64" fill="none" xmlns="http://www.w3.org/2000/svg">
<path d="M32 0L37.2364 5.57576L44.2667 2.42424L46.9818 9.60001L54.6424 9.35758L54.4 17.0182L61.5758 19.7333L58.4242 26.7636L64 32L58.4242 37.2849L61.5758 44.2667L54.4 46.9818L54.6424 54.6424L46.9818 54.4L44.2667 61.5758L37.2364 58.4242L32 64L26.7636 58.4242L19.7333 61.5758L17.0182 54.4L9.35758 54.6424L9.6 46.9818L2.42424 44.2667L5.57576 37.2849L0 32L5.57576 26.7636L2.42424 19.7333L9.6 17.0182L9.35758 9.35758L17.0182 9.60001L19.7333 2.42424L26.7636 5.57576L32 0Z" fill="#A8A8FF"/>
<path d="M52.1143 36.5837C54.7172 25.5604 47.8911 14.5142 36.8678 11.9113C25.8445 9.30837 14.7983 16.1344 12.1954 27.1577C9.5925 38.181 16.4186 49.2273 27.4419 51.8302C38.4652 54.4331 49.5114 47.607 52.1143 36.5837Z" fill="#0143BE"/>
<path d="M42.376 35.9798C40.679 34.2828 37.9638 34.2828 36.2669 35.9798C34.5699 37.6767 34.5699 40.3919 36.2669 42.0889C37.9638 43.7858 40.679 43.7858 42.376 42.0889C44.0729 40.3919 44.0729 37.6767 42.376 35.9798Z" fill="#F5F4FF"/>
<path d="M21.9641 21.627C20.2672 23.324 20.2672 26.0391 21.9641 27.7361C23.6611 29.4331 26.3763 29.4331 28.0732 27.7361C29.7702 26.0391 29.7702 23.324 28.0732 21.627C26.3763 19.9785 23.6126 19.9785 21.9641 21.627Z" fill="#F5F4FF"/>
<path d="M42.6156 19.273L19.6113 42.2773L21.7369 44.4029L44.7412 21.3986L42.6156 19.273Z" fill="white"/>
<path d="M43.4427 34.9083C41.1639 32.6295 37.479 32.6295 35.2487 34.9083C34.1336 36.0235 33.5518 37.478 33.5518 39.0295C33.5518 40.581 34.1336 42.0356 35.2487 43.1507C36.3639 44.2659 37.8669 44.8477 39.3699 44.8477C40.873 44.8477 42.3275 44.2659 43.4912 43.1507C44.6063 42.0356 45.1881 40.581 45.1881 39.0295C45.1881 37.478 44.5093 36.0235 43.4427 34.9083ZM41.3093 41.0174C40.1942 42.1326 38.4487 42.1326 37.3336 41.0174C36.8002 40.4841 36.5093 39.7568 36.5093 39.0295C36.5093 38.3022 36.8002 37.575 37.3336 37.0417C37.8669 36.5083 38.5942 36.2174 39.3215 36.2174C40.0487 36.2174 40.776 36.5083 41.3093 37.0417C41.8427 37.575 42.1336 38.3022 42.1336 39.0295C42.1336 39.7568 41.8427 40.4841 41.3093 41.0174Z" fill="#0143BE"/>
<path d="M24.97 30.498C26.5215 30.498 27.976 29.9162 29.0912 28.8011C31.37 26.5223 31.37 22.8374 29.0912 20.6071C27.976 19.492 26.5215 18.9102 24.97 18.9102C23.4184 18.9102 21.9639 19.492 20.8487 20.6071C18.57 22.8859 18.57 26.5708 20.8487 28.8011C21.9639 29.9162 23.4184 30.498 24.97 30.498ZM22.9821 22.692C23.5154 22.1587 24.2427 21.8677 24.97 21.8677C25.6972 21.8677 26.4245 22.1587 26.9578 22.692C28.073 23.8071 28.073 25.5526 26.9578 26.6677C25.8912 27.7344 24.0487 27.7344 22.9821 26.6677C22.4487 26.1344 22.1578 25.4556 22.1578 24.6799C22.1578 23.9526 22.4487 23.2253 22.9821 22.692Z" fill="#0143BE"/>
</svg>
