<svg width="64" height="64" viewBox="0 0 64 64" fill="none" xmlns="http://www.w3.org/2000/svg">
<g clip-path="url(#clip0_1_13198)">
<path d="M1.32813 0.0507812C0.775841 0.0507812 0.328125 0.498496 0.328125 1.05078V56.7041C0.328125 57.2564 0.77584 57.7041 1.32812 57.7041H42.7861C43.3384 57.7041 43.7861 57.2564 43.7861 56.7041V11.172C43.7861 10.9068 43.6807 10.6525 43.4932 10.4649L33.372 0.343675C33.1844 0.156138 32.9301 0.0507812 32.6648 0.0507812H1.32813Z" fill="#D1D1FF"/>
<path d="M43.7861 10.7578L33.0791 0.0507812V10.7578H43.7861Z" fill="#A6A6FF"/>
<path d="M25.5212 9.74219H6.19043V11.7286H25.5212V9.74219Z" fill="#0143BE"/>
<path d="M37.3911 17.4932H12.0527V19.4795H37.3911V17.4932Z" fill="#0143BE"/>
<path d="M34.9202 25.1953H12.0527V27.1817H34.9202V25.1953Z" fill="#0143BE"/>
<path d="M27.4593 32.9004H12.0527V34.8868H27.4593V32.9004Z" fill="#0143BE"/>
<path d="M27.4593 40.6514H12.0527V42.6377H27.4593V40.6514Z" fill="#0143BE"/>
<path d="M21.2579 48.6455H12.0527V50.6319H21.2579V48.6455Z" fill="#0143BE"/>
<path d="M8.3706 17.4932H6.19043V19.4795H8.3706V17.4932Z" fill="#0143BE"/>
<path d="M8.3706 25.1953H6.19043V27.1817H8.3706V25.1953Z" fill="#0143BE"/>
<path d="M8.3706 32.9004H6.19043V34.8868H8.3706V32.9004Z" fill="#0143BE"/>
<path d="M8.3706 40.6514H6.19043V42.6377H8.3706V40.6514Z" fill="#0143BE"/>
<path d="M8.3706 48.6455H6.19043V50.6319H8.3706V48.6455Z" fill="#0143BE"/>
<path d="M62.4866 33.9639H33.3692C33.1017 33.9639 32.8848 34.1808 32.8848 34.4483V63.5657C32.8848 63.8333 33.1017 64.0502 33.3692 64.0502H62.4866C62.7542 64.0502 62.9711 63.8333 62.9711 63.5657V34.4483C62.9711 34.1808 62.7542 33.9639 62.4866 33.9639Z" fill="#A8A8FF"/>
<g clip-path="url(#clip1_1_13198)">
<path d="M42.7557 43.8349C42.7557 43.6552 42.809 43.4796 42.9088 43.3302C43.0086 43.1808 43.1505 43.0644 43.3165 42.9956C43.4825 42.9268 43.6651 42.9089 43.8413 42.9439C44.0175 42.979 44.1794 43.0655 44.3064 43.1925C44.4335 43.3196 44.52 43.4814 44.555 43.6576C44.5901 43.8338 44.5721 44.0165 44.5033 44.1825C44.4346 44.3485 44.3182 44.4903 44.1688 44.5902C44.0194 44.69 43.8438 44.7433 43.6641 44.7433C43.4233 44.743 43.1923 44.6472 43.022 44.4769C42.8517 44.3066 42.756 44.0757 42.7557 43.8349ZM40.9389 43.8349C40.9384 42.9537 41.2338 42.0979 41.7776 41.4046C42.3214 40.7113 43.0822 40.2206 43.9381 40.0112C44.794 39.8018 45.6955 39.8857 46.498 40.2496C47.3005 40.6135 47.9576 41.2362 48.364 42.0181H54.2621C54.3424 42.0181 54.4194 42.05 54.4762 42.1068L55.9902 43.6208C56.0183 43.6489 56.0406 43.6823 56.0559 43.719C56.0711 43.7557 56.0789 43.7951 56.0789 43.8349C56.0789 43.8746 56.0711 43.914 56.0559 43.9507C56.0406 43.9875 56.0183 44.0208 55.9902 44.049L54.4762 45.563C54.4481 45.5911 54.4147 45.6134 54.378 45.6286C54.3413 45.6438 54.3019 45.6517 54.2621 45.6517C54.2224 45.6517 54.183 45.6438 54.1462 45.6286C54.1095 45.6134 54.0761 45.5911 54.048 45.563L53.3537 44.8686L52.6594 45.563C52.6313 45.5911 52.5979 45.6134 52.5612 45.6286C52.5244 45.6438 52.4851 45.6517 52.4453 45.6517C52.4055 45.6517 52.3662 45.6438 52.3294 45.6286C52.2927 45.6134 52.2593 45.5911 52.2312 45.563L51.5369 44.8686L50.8426 45.563C50.7858 45.6197 50.7088 45.6516 50.6285 45.6517H48.364C47.9576 46.4335 47.3005 47.0562 46.498 47.4201C45.6955 47.784 44.794 47.868 43.9381 47.6585C43.0822 47.4491 42.3214 46.9584 41.7776 46.2651C41.2338 45.5718 40.9384 44.716 40.9389 43.8349ZM42.1501 43.8349C42.1501 44.1343 42.2389 44.427 42.4052 44.676C42.5716 44.925 42.8081 45.119 43.0847 45.2336C43.3614 45.3482 43.6658 45.3782 43.9595 45.3198C44.2531 45.2614 44.5229 45.1172 44.7347 44.9054C44.9464 44.6937 45.0906 44.4239 45.149 44.1302C45.2074 43.8365 45.1774 43.5321 45.0629 43.2555C44.9483 42.9788 44.7542 42.7424 44.5052 42.576C44.2563 42.4096 43.9635 42.3209 43.6641 42.3209C43.2627 42.3213 42.8779 42.481 42.5941 42.7648C42.3102 43.0486 42.1506 43.4335 42.1501 43.8349ZM41.1531 51.7444C40.9827 51.5741 40.7516 51.4784 40.5107 51.4784C40.2698 51.4784 40.0387 51.5741 39.8684 51.7444L38.908 52.7048C38.8512 52.7616 38.8193 52.8386 38.8193 52.9189C38.8193 52.9992 38.8512 53.0762 38.908 53.133L43.7528 57.9778C43.7809 58.0059 43.8143 58.0282 43.851 58.0434C43.8878 58.0587 43.9271 58.0665 43.9669 58.0665C44.0067 58.0665 44.046 58.0587 44.0828 58.0434C44.1195 58.0282 44.1529 58.0059 44.181 57.9778L45.1414 57.0174C45.3117 56.8471 45.4074 56.616 45.4074 56.3751C45.4074 56.1342 45.3117 55.9031 45.1414 55.7327L41.1531 51.7444ZM56.5634 47.8924C56.4285 47.7578 56.2685 47.651 56.0923 47.5783C55.9162 47.5056 55.7275 47.4682 55.5369 47.4685C55.3477 47.4674 55.1601 47.5038 54.985 47.5755C54.8098 47.6472 54.6506 47.7528 54.5165 47.8863L52.3605 49.8848C52.6133 50.2403 52.7488 50.6659 52.7481 51.1021C52.7475 51.664 52.524 52.2028 52.1266 52.6002C51.7292 52.9976 51.1905 53.2211 50.6285 53.2217H47.6005C47.5202 53.2217 47.4432 53.1898 47.3864 53.133C47.3296 53.0762 47.2977 52.9992 47.2977 52.9189C47.2977 52.8386 47.3296 52.7616 47.3864 52.7048C47.4432 52.648 47.5202 52.6161 47.6005 52.6161H50.6285C51.0301 52.6161 51.4151 52.4566 51.6991 52.1726C51.983 51.8887 52.1425 51.5036 52.1425 51.1021C52.1425 50.7005 51.983 50.3154 51.6991 50.0315C51.4151 49.7476 51.0301 49.5881 50.6285 49.5881H44.6149C44.1772 49.5866 43.7436 49.6721 43.3393 49.8394C42.9349 50.0068 42.5677 50.2528 42.2591 50.5631L41.5415 51.2807C41.5553 51.2921 41.5684 51.3042 41.5808 51.3171L45.5687 55.305C45.5816 55.3174 45.5937 55.3305 45.605 55.3443L45.6444 55.305C45.7287 55.2205 45.8287 55.1535 45.9389 55.1078C46.049 55.0621 46.1671 55.0385 46.2863 55.0385H51.2008C51.7273 55.038 52.2462 54.9129 52.7152 54.6734C53.1841 54.434 53.5897 54.087 53.8988 53.6607L56.7027 49.7849C56.9094 49.5048 57.009 49.16 56.9834 48.8129C56.9579 48.4657 56.8089 48.1392 56.5634 47.8924Z" fill="#0143BE"/>
</g>
</g>
<defs>
<clipPath id="clip0_1_13198">
<rect width="64" height="64" fill="white"/>
</clipPath>
<clipPath id="clip1_1_13198">
<rect width="19.3793" height="19.3793" fill="white" transform="translate(38.2139 39.293)"/>
</clipPath>
</defs>
</svg>
