<svg width="64" height="64" viewBox="0 0 64 64" fill="none" xmlns="http://www.w3.org/2000/svg">
<path d="M56.4324 19.3261L22.3016 8.12685C20.9926 7.69052 19.5867 8.41775 19.1504 9.72675L11.9267 31.6404C11.4903 32.9494 12.2176 34.3554 13.5266 34.7917L47.6573 45.991C48.9663 46.4273 50.3723 45.7001 50.8086 44.3911L58.0323 22.4774C58.4686 21.1684 57.7414 19.7624 56.4324 19.3261Z" fill="#7A7AFF"/>
<path d="M56.9328 25.8824L18.0605 13.1035L15.9106 19.6437L54.7828 32.4225L56.9328 25.8824Z" fill="#0143BE"/>
<path d="M19.7851 24.5884L18.998 26.9834L26.0448 29.2992L26.8318 26.9042L19.7851 24.5884Z" fill="#0143BE"/>
<path d="M32.4021 28.7674L31.6143 31.1621L47.9168 36.5254L48.7046 34.1307L32.4021 28.7674Z" fill="#0143BE"/>
<path d="M3.15128 51.5649H3.49068C5.18752 51.5649 6.64196 50.1589 6.64196 48.4136V36.1962C6.64196 34.4994 5.236 33.0449 3.49068 33.0449H3.15128C1.45444 33.0449 0 34.4509 0 36.1962V48.4621C0 50.1589 1.40595 51.5649 3.15128 51.5649Z" fill="#0143BE"/>
<path d="M48.5295 44.2937C47.4144 44.8755 46.2024 45.5057 44.9904 46.0875C42.0815 47.4935 38.9787 48.1722 35.5366 48.1722C32.8701 48.1722 30.0097 47.7359 26.8584 46.9117C26.2767 46.7662 25.8888 46.136 26.0827 45.5542C26.2282 44.9724 26.8584 44.5846 27.4402 44.7785C34.0821 46.5238 39.3666 46.3299 43.9723 44.0998C46.0085 43.0332 46.057 42.6453 46.154 41.9181C46.2994 40.6576 46.1054 39.6879 45.5722 39.1062C44.748 38.2335 43.342 38.282 43.2936 38.282C32.5307 38.4759 30.543 37.3123 28.2644 36.0033C26.2282 34.7913 23.9011 33.4338 11.2475 33.1914H11.199C10.5203 33.1914 9.84155 33.4338 9.35674 33.9671C8.87193 34.4519 8.58105 35.1307 8.58105 35.8579V49.5782C8.58105 50.6448 9.16281 51.5659 10.1324 52.0507C16.3865 55.1051 35.4881 64.4135 62.3466 43.7604C62.3951 43.7604 62.3951 43.7119 62.4436 43.7119C62.686 43.5665 64.6737 42.2575 63.7526 40.6576C62.0558 37.5063 56.8683 39.9788 48.5295 44.2937Z" fill="#A1A1FF"/>
<path d="M4.60628 48.1723C4.60628 48.8995 4.02453 49.4813 3.29731 49.4813C2.57009 49.4813 1.98828 48.8995 1.98828 48.1723C1.98828 47.4451 2.57009 46.8633 3.29731 46.8633C4.02453 46.8633 4.60628 47.4451 4.60628 48.1723Z" fill="white"/>
</svg>
