<svg width="65" height="64" viewBox="0 0 65 64" fill="none" xmlns="http://www.w3.org/2000/svg">
<g clip-path="url(#clip0_1_6918)">
<path d="M56.7644 19.3261L22.6337 8.12685C21.3247 7.69052 19.9187 8.41775 19.4824 9.72675L12.2587 31.6404C11.8224 32.9494 12.5496 34.3554 13.8586 34.7917L47.9893 45.991C49.2983 46.4273 50.7043 45.7001 51.1406 44.3911L58.3643 22.4774C58.8007 21.1684 58.0734 19.7624 56.7644 19.3261Z" fill="#A9A9A9"/>
<path d="M57.2648 25.8824L18.3926 13.1035L16.2426 19.6437L55.1148 32.4225L57.2648 25.8824Z" fill="#0D0D0D"/>
<path d="M20.1171 24.5884L19.3301 26.9834L26.3768 29.2992L27.1639 26.9042L20.1171 24.5884Z" fill="#0D0D0D"/>
<path d="M32.7341 28.7674L31.9463 31.1621L48.2488 36.5254L49.0366 34.1307L32.7341 28.7674Z" fill="#0D0D0D"/>
<path d="M3.48331 51.5649H3.82271C5.51955 51.5649 6.97399 50.1589 6.97399 48.4136V36.1962C6.97399 34.4994 5.56803 33.0449 3.82271 33.0449H3.48331C1.78647 33.0449 0.332031 34.4509 0.332031 36.1962V48.4621C0.332031 50.1589 1.73799 51.5649 3.48331 51.5649Z" fill="#0D0D0D"/>
<path d="M48.8615 44.2937C47.7465 44.8755 46.5345 45.5057 45.3224 46.0875C42.4136 47.4935 39.3108 48.1722 35.8686 48.1722C33.2021 48.1722 30.3417 47.7359 27.1905 46.9117C26.6087 46.7662 26.2209 46.136 26.4148 45.5542C26.5602 44.9724 27.1904 44.5846 27.7722 44.7785C34.4141 46.5238 39.6986 46.3299 44.3043 44.0998C46.3406 43.0332 46.389 42.6453 46.486 41.9181C46.6314 40.6576 46.4375 39.6879 45.9042 39.1062C45.08 38.2335 43.6741 38.282 43.6256 38.282C32.8628 38.4759 30.875 37.3123 28.5964 36.0033C26.5602 34.7913 24.2331 33.4338 11.5796 33.1914H11.531C10.8523 33.1914 10.1736 33.4338 9.68877 33.9671C9.20396 34.4519 8.91309 35.1307 8.91309 35.8579V49.5782C8.91309 50.6448 9.49484 51.5659 10.4645 52.0507C16.7185 55.1051 35.8201 64.4135 62.6787 43.7604C62.7271 43.7604 62.7272 43.7119 62.7757 43.7119C63.0181 43.5665 65.0058 42.2575 64.0846 40.6576C62.3878 37.5063 57.2003 39.9788 48.8615 44.2937Z" fill="#D7D7D7"/>
<path d="M4.93831 48.1723C4.93831 48.8995 4.35656 49.4813 3.62934 49.4813C2.90212 49.4813 2.32031 48.8995 2.32031 48.1723C2.32031 47.4451 2.90212 46.8633 3.62934 46.8633C4.35656 46.8633 4.93831 47.4451 4.93831 48.1723Z" fill="white"/>
</g>
<defs>
<clipPath id="clip0_1_6918">
<rect width="64" height="64" fill="white" transform="translate(0.332031)"/>
</clipPath>
</defs>
</svg>
