<svg width="190" height="152" viewBox="0 0 190 152" fill="none" xmlns="http://www.w3.org/2000/svg">
<path d="M1.09365 141.602C2.38773 140.416 4.08234 139.445 4.86803 137.982C5.70765 136.433 7.92606 136.071 8.09553 135.008C8.52688 132.266 11.5849 132.551 12.4939 130.379C13.0099 129.139 14.8047 128.461 15.9447 127.444C17.7703 125.811 19.5265 124.101 21.3059 122.422C21.46 122.276 21.5832 122.052 21.7604 121.998C24.3408 121.166 26.0123 119.271 27.8071 117.338C29.001 116.044 31.1809 115.713 32.7677 114.711C35.4406 113.024 37.9902 111.137 40.6169 109.366C41.0867 109.05 41.6336 108.803 42.1806 108.657C44.7995 107.964 47.4108 106.439 50.1299 108.018C51.008 108.526 51.5241 109.689 52.1634 110.583C52.5485 111.114 53.1032 111.676 53.1571 112.254C53.2803 113.648 53.2649 115.081 53.0877 116.475C52.9799 117.292 52.7257 117.931 53.8734 117.977C53.8195 119.11 53.7117 120.234 53.7348 121.367C53.7579 122.491 55.5527 123.323 54.3125 124.687C54.0891 124.933 53.8811 125.187 53.5653 125.557C54.2278 125.873 54.7439 126.112 55.3062 126.381C52.4715 127.822 56.2074 129.963 54.5359 131.403C55.1906 131.935 56.7543 132.166 54.9518 133.206C54.767 133.314 55.1059 135.186 55.6605 135.555C56.7851 136.318 56.6696 136.688 56.1073 137.82C55.5835 138.875 55.8608 140.323 55.7837 141.625C57.0085 141.841 58.3873 141.872 57.6093 143.689C57.5862 143.736 57.6093 143.836 57.6478 143.867C59.9356 145.769 59.4426 150.037 63.3248 150.545C63.8101 150.607 64.3416 150.291 65.0733 150.098C65.1966 150.429 65.3969 150.961 65.6125 151.531C66.9374 151.531 68.3702 151.824 69.6103 151.462C71.3589 150.946 73.0689 150.098 74.6094 149.112C76.3118 148.026 77.86 146.67 79.3929 145.33C80.4867 144.375 81.4264 143.235 82.4663 142.211C83.8374 140.855 85.3857 139.653 86.5873 138.174C89.3064 134.823 92.4954 131.85 94.5675 127.953C95.5688 126.065 97.2018 124.502 98.519 122.776C98.7501 122.468 98.8348 122.052 99.0197 121.706C100.098 119.741 101.115 117.739 102.293 115.836C103.302 114.203 105.166 112.793 105.467 111.083C105.89 108.626 107.423 106.885 108.348 104.806C110.358 100.268 112.838 95.9469 115.111 91.5255C116.012 89.7693 116.875 87.9899 117.745 86.2183C118.284 85.1245 118.793 84.023 119.324 82.9292C121.103 79.278 122.837 75.6038 124.693 71.9911C126.418 68.625 128.321 65.3513 130.062 61.9929C130.824 60.5293 131.156 58.8116 132.072 57.4713C133.104 55.9616 134.214 54.2515 134.838 52.788C136.455 48.9751 138.727 45.5935 140.699 42.0194C142.741 38.3221 145.159 34.8327 147.37 31.2278C149.026 28.5318 151.083 26.1362 152.955 23.602C155.027 20.8059 156.829 17.7093 159.325 15.3446C163.446 11.4315 166.974 6.80216 172.112 4.04455C172.99 3.57467 174.068 3.21264 175.039 3.24345C175.639 3.25886 176.209 4.11387 176.494 4.94578C177.111 5.20767 177.727 5.47727 178.335 5.73917C178.027 6.13201 177.588 6.47864 177.45 6.9177C177.326 7.32595 177.534 7.83434 177.604 8.33502C176.464 8.65854 174.985 15.1828 175.924 16.7696C173.745 18.4719 173.413 19.7814 175.27 21.3913C173.359 20.6056 173.221 21.4683 172.812 22.6776C171.965 25.2119 171.21 27.8462 169.369 29.9414C168.761 30.627 169.146 32.2446 169.993 32.83C167.451 32.984 167.582 35.4643 166.473 36.8585C166.08 37.3592 165.818 38.0063 165.649 38.6302C165.472 39.2695 165.472 39.9628 165.356 40.941C164.008 40.941 163.523 42.4893 162.922 43.8989C162.059 45.9094 161.243 47.9352 160.349 50.092C160.573 50.2306 161.073 50.5388 161.551 50.8315C161.15 51.8482 158.87 51.2782 159.779 53.1808C159.271 53.4119 158.763 53.6353 157.961 53.9896C158.855 54.2361 159.41 54.3902 159.956 54.5365C159.987 54.7137 160.018 54.8909 160.041 55.0603C157.422 54.9371 157.091 56.8936 156.413 58.5959C156.036 59.5357 155.35 60.3522 155.042 61.3073C154.803 62.0391 155.065 62.9172 154.873 63.6721C154.703 64.3345 154.226 64.9276 153.817 65.5901C153.424 66.2294 152.962 66.8302 152.662 67.5081C151.922 69.1873 151.229 70.8973 150.574 72.6151C149.565 75.2571 148.525 77.8915 147.67 80.5798C147.316 81.689 147.401 82.9368 147.262 84.4543C147.355 84.3927 146.923 84.6777 146.361 85.0551C146.638 85.2631 146.769 85.3709 146.9 85.4557C147.247 85.6791 147.601 85.8947 147.948 86.1104C147.647 86.4031 147.347 86.9423 147.047 86.9346C145.082 86.8961 146.392 88.5676 145.791 89.2147C147.193 89.6691 146.037 90.3085 145.945 90.9016C145.768 92.0339 144.99 93.2586 146.461 94.2138C146.723 94.3833 146.561 95.2074 146.577 95.7312C146.592 96.2396 146.708 96.7788 146.577 97.2487C145.806 100.137 149.665 100.4 149.743 102.872C149.758 103.334 150.705 104.197 151.144 104.143C152.893 103.951 153.124 105.114 153.263 105.822C154.449 106.469 155.265 107.016 156.151 107.378C157.384 107.871 158.67 108.233 159.933 108.642C160.442 108.803 160.942 109.004 161.466 109.073C162.283 109.173 162.991 110.96 163.923 109.242C164.301 109.473 164.671 109.905 165.048 109.905C167.806 109.92 170.64 110.259 173.298 109.712C176.502 109.058 179.791 108.21 182.364 105.83C183.866 104.444 185.522 103.234 187.078 101.917C187.302 101.724 187.371 101.347 187.494 101.054C188.041 99.7983 188.526 98.512 189.135 97.2949C189.528 96.5092 188.287 94.6991 187.147 94.5296C186.824 94.4834 186.5 94.468 186.554 94.468C186.023 95.7621 185.576 96.8636 185.129 97.9574C185.645 98.2347 186.115 98.4966 186.593 98.7585C186.123 98.9664 185.615 99.1051 185.199 99.3901C184.752 99.6982 184.367 100.107 184.005 100.515C183.042 101.617 181.994 102.572 180.662 103.257C180.307 103.442 180.33 104.359 180.261 104.628C171.765 108.018 163.192 107.964 154.772 103.627C153.64 102.487 152.223 101.07 150.582 99.4209C150.405 98.874 149.974 97.8726 149.766 96.825C149.134 93.69 149.303 90.5472 149.873 87.4122C150.798 82.3514 152.161 77.4293 154.202 72.6921C155.643 69.3491 157.068 65.9906 158.377 62.5937C159.479 59.7282 160.111 56.6548 161.512 53.9588C162.221 52.6031 163.076 51.363 163.577 49.8532C164 48.5668 164.956 47.473 165.595 46.2483C167.189 43.2134 168.923 40.2324 170.255 37.0819C172.859 30.9582 175.277 24.7497 177.673 18.5335C178.721 15.8144 180.038 13.0337 180.269 10.2068C180.431 8.16556 180.854 5.93944 179.614 3.61319C178.436 1.37937 177.165 -0.0533575 174.8 0.385703C172.466 0.817061 170.24 1.91086 168.014 2.8429C167.698 2.97385 167.69 3.83657 167.551 4.32185C164.863 3.02007 165.395 8.11934 162.475 6.84837C163.346 9.59828 161.258 8.92814 160.095 9.31328C160.249 9.45193 160.403 9.59058 160.557 9.72923C159.379 11.0772 158.223 12.4483 157.006 13.7655C156.567 14.243 155.866 14.4895 155.497 15.0056C154.38 16.577 153.709 19.0265 152.238 19.6427C150.359 20.4284 150.613 21.0523 151.152 22.3233C151.198 22.4312 151.121 22.5929 151.083 22.8933C149.034 22.6622 148.21 23.679 148.441 25.6894C148.472 25.9745 148.31 26.5368 148.21 26.5445C145.575 26.7139 145.452 29.8413 142.926 30.6424C143.526 30.9043 143.773 31.0198 144.004 31.1199C141.816 32.4448 137.172 40.8871 137.988 42.3815C137.51 42.2351 137.148 42.1273 136.948 42.0657C136.224 43.0978 135.546 44.0761 134.891 45.0235C135.392 45.4395 135.885 45.8477 136.601 46.4409C134.506 46.0788 132.242 47.8967 131.895 50.3231C131.641 52.1332 130.817 53.5968 130.046 55.1528C129.715 55.8229 129.476 56.5316 129.014 57.6947C127.412 57.7563 126.711 59.0042 127.605 61.2072C126.911 61.4999 126.303 61.7464 125.533 62.0699C125.871 62.4396 126.11 62.7015 125.933 62.509C125.355 63.7799 124.901 64.7967 124.693 65.2512C122.69 68.9408 120.926 72.1067 119.27 75.3265C119.008 75.8425 119.232 76.6051 119.232 77.3369C118.338 77.4833 115.996 80.4873 116.043 81.7275C116.05 82.0125 115.85 82.3052 115.758 82.5979C115.049 84.67 114.479 86.8114 113.578 88.7987C113.123 89.8001 112.06 90.5164 111.275 91.3637C111.228 91.41 111.182 91.4947 111.19 91.5486C111.552 93.5822 109.934 94.8685 109.333 96.54C109.272 96.7095 109.256 97.0253 109.179 97.0484C106.622 97.5722 108.201 98.8432 108.733 100.099C106.799 99.521 106.291 100.577 106.067 102.148C105.99 102.71 105.397 103.188 105.135 103.75C104.866 104.32 104.72 104.944 104.35 106.053C104.411 106.03 103.918 106.207 103.294 106.423C103.425 108.041 102.886 109.204 101.515 110.475C100.06 111.823 99.582 114.195 98.5344 116.044C98.0337 116.938 97.2095 117.646 96.5317 118.44C96.4008 118.594 96.1389 118.802 96.1697 118.886C97.1248 121.166 94.4442 121.536 93.9821 123.092C92.9961 126.435 89.4297 128.022 88.2358 131.134C87.1342 134.03 84.3227 135.186 82.682 137.481C81.8578 138.636 80.7486 139.592 79.9244 140.747C79.6933 141.07 79.9937 141.779 80.0476 142.303C78.4146 142.049 74.6403 144.66 74.2089 146.124C70.4268 147.549 66.8681 149.844 62.7317 147.133C62.6624 146.986 62.3928 146.355 62.0846 145.746C60.9831 143.535 59.5581 141.417 58.8495 139.091C58.2949 137.273 58.6877 135.186 58.5028 133.229C58.4104 132.228 57.5323 131.134 57.7711 130.31C58.2872 128.553 57.6093 127.128 57.3012 125.534C56.9854 123.87 57.1703 122.122 57.1163 120.411C57.0855 119.503 56.97 118.594 56.9623 117.685C56.9623 117.192 57.0932 116.691 57.1857 116.083C56.9931 115.952 56.3075 115.736 56.2613 115.412C55.8608 112.963 55.5835 110.498 55.2676 108.041C55.0597 107.995 54.8594 107.941 54.6514 107.894C54.4897 108.241 54.3202 108.58 54.0121 109.242C53.8272 106.539 52.0171 104.667 49.5444 104.451C47.2028 104.243 44.8919 104.613 42.7429 105.63C42.4193 105.784 42.2884 106.331 42.0573 106.7C40.3858 105.715 37.0582 107.448 36.8964 109.473C36.4959 109.319 35.949 108.911 35.664 109.042C34.6395 109.535 33.615 110.113 32.7754 110.86C32.0667 111.492 31.6277 112.416 31.0885 113.179C30.4954 113.232 29.4786 113.024 28.9086 113.433C27.6299 114.349 26.7518 116.052 25.3807 116.56C23.4781 117.269 22.261 118.155 21.8836 120.173C19.3109 120.319 13.3797 125.557 13.5414 127.845C11.0534 126.458 10.3525 128.862 9.15851 129.971C7.82592 131.203 7.10955 133.221 5.66143 134.184C4.09005 135.232 3.15801 136.734 1.84083 137.843C0.323369 139.129 0.423512 140.154 1.07055 141.587L1.06284 141.602H1.09365Z" fill="#323232"/>
</svg>
