<svg width="41" height="45" viewBox="0 0 41 45" fill="none" xmlns="http://www.w3.org/2000/svg">
<path d="M35.282 23.3688C34.6716 23.0169 34.0472 22.7291 33.4195 22.5C34.0472 22.2709 34.6716 21.9831 35.282 21.6312C39.5869 19.1464 41.5559 14.4983 39.6803 11.25C37.8048 8.00174 32.795 7.3838 28.4912 9.86859C27.8808 10.2205 27.3193 10.6179 26.8078 11.0469C26.923 10.3888 26.9859 9.70461 26.9859 8.99978C26.9859 4.02911 23.9451 0 20.1951 0C16.4451 0 13.4043 4.02911 13.4043 8.99978C13.4043 9.70461 13.4673 10.3888 13.5824 11.0469C13.0709 10.6179 12.5094 10.2205 11.8991 9.86859C7.59519 7.3838 2.58542 8.00174 0.709877 11.25C-1.16567 14.4983 0.80436 19.1453 5.10823 21.6312C5.71857 21.9831 6.34302 22.2709 6.97074 22.5C6.34302 22.7291 5.71857 23.0169 5.10823 23.3688C0.803274 25.8536 -1.16567 30.5017 0.709877 33.75C2.58542 36.9983 7.59519 37.6162 11.8991 35.1314C12.5094 34.7795 13.0709 34.3821 13.5824 33.9531C13.4673 34.6112 13.4043 35.2954 13.4043 36.0002C13.4043 40.9709 16.4451 45 20.1951 45C23.9451 45 26.9859 40.9709 26.9859 36.0002C26.9859 35.2954 26.923 34.6112 26.8078 33.9531C27.3193 34.3821 27.8808 34.7785 28.4912 35.1314C32.7961 37.6162 37.8059 36.9983 39.6803 33.75C41.5559 30.5007 39.5869 25.8536 35.282 23.3688Z" fill="#7E77FF"/>
</svg>
