<svg width="84" height="131" viewBox="0 0 84 131" fill="none" xmlns="http://www.w3.org/2000/svg">
<g clip-path="url(#clip0_1_6557)">
<path d="M24.1714 -16.6422C23.6335 -15.4487 22.8993 -14.5449 21.4309 -14.4275C21.0108 -14.3923 20.5828 -13.958 20.2333 -13.6254C18.5174 -12.0172 16.8566 -10.3543 15.1176 -8.76959C14.1045 -7.8462 12.9112 -7.11055 11.9487 -6.13627C11.3286 -5.51805 11.1363 -4.44985 10.4886 -3.89032C9.64415 -3.16645 9.61658 -1.92608 8.48225 -1.34308C7.90515 -1.04962 7.79871 0.0968399 7.38641 0.797228C7.1748 1.14938 6.74262 1.3685 6.74262 1.75978C6.34634 2.73407 5.88659 3.69271 5.56854 4.69048C5.03505 6.38082 4.59132 8.10634 4.11618 9.81624C3.91163 10.544 3.684 11.2718 3.54293 12.0153C3.10305 14.3238 2.85554 16.652 3.01649 19.0036C3.02482 19.1366 3.11459 19.2657 3.32684 19.8135C2.87926 19.5865 2.62791 19.4535 2.40412 19.3401C2.58879 19.9387 2.8363 20.3652 2.8363 20.7878C2.83246 22.169 2.60033 23.5659 2.71447 24.9315C2.90299 27.0835 3.28772 29.2199 3.61346 31.3602C3.7353 32.131 3.30695 33.0271 4.20659 33.657C4.34381 33.7549 4.05719 34.463 3.92766 35.0695C3.93536 35.0774 4.31239 35.273 4.35921 35.5313C4.67725 37.2177 4.84268 38.9393 5.22742 40.614C5.47044 41.6783 6.07127 42.6604 6.39316 43.7169C6.8215 45.1529 7.03694 46.6593 7.52042 48.0718C7.97569 49.4022 8.61948 50.6778 9.27545 51.926C9.6916 52.7163 10.3822 53.3659 10.7791 54.1601C11.7095 56.0187 12.5418 57.9282 13.453 59.9081C13.1856 59.9706 12.8438 60.045 12.2199 60.182C13.0368 60.3072 13.555 60.3854 14.057 60.4637C14.034 61.9975 16.1737 62.5257 16.2641 64.3768L18.1487 66.2549C18.0031 66.3993 17.8306 66.5718 17.8306 66.5718C18.5097 67.2486 19.1618 67.8748 19.7857 68.5202C20.948 69.7331 21.9648 71.1377 23.2998 72.1083C23.9712 72.5972 23.9044 73.196 24.2657 73.6267C24.8939 74.3699 25.7498 74.9565 26.5861 75.4773C27.5755 76.0952 28.663 76.5534 29.6642 77.1439C29.8134 77.2301 29.7467 77.6877 29.7899 78.1299C29.8567 78.1337 30.1158 78.0794 30.2807 78.1733C32.0004 79.1983 32.2517 77.6877 33.0173 76.7681C33.885 75.7316 35.0511 74.9373 36.1033 74.0606C36.7747 73.5014 37.4383 72.9103 38.1803 72.4604C38.5769 72.2215 39.1305 72.2566 39.9001 72.116C40.4536 70.946 41.7925 71.3332 42.9979 71.5645C44.0265 71.7601 45.0003 72.2687 46.0289 72.4643C47.8036 72.7927 46.1035 74.7379 47.2539 75.2031C47.144 75.5635 46.9752 75.9348 46.9241 76.3221C46.8456 76.917 47.0576 77.6685 46.7671 78.0832C46.0721 79.0807 45.173 79.9536 44.3131 80.8259C43.6575 81.495 42.935 81.7614 42.5189 81.1039C41.6237 81.534 40.8384 82.1212 39.9825 82.2618C38.8046 82.4573 37.5561 82.442 36.3703 82.2931C34.8979 82.1091 33.4492 81.6988 31.8708 81.3621C31.6392 81.9531 31.8473 83.0836 30.6419 83.2989C30.6144 83.3028 30.7087 83.7565 30.6654 83.9795C30.5202 84.7112 30.3357 85.4352 30.1707 86.163C30.0687 86.6091 29.8724 87.0628 29.8998 87.505C30.0137 89.293 30.1746 91.0733 30.3671 92.8536C30.4574 93.6792 30.6537 94.4934 30.8225 95.4283C30.85 95.4168 30.5712 95.5695 30.5634 95.5695C30.9874 96.266 31.4153 96.8648 31.7256 97.5179C31.9061 97.8936 31.9572 98.3512 31.9612 98.778C31.9729 99.3768 31.6549 99.9986 32.7738 100.002C33.2607 100.002 33.2843 101.185 32.8249 101.806C34.5328 102.812 36.6255 105.915 36.1229 106.51C36.6609 107.852 38.2157 108.039 38.8831 109.526C39.5624 111.041 41.3567 112.054 42.7544 113.377C42.7976 113.295 42.6406 113.607 42.4207 114.038C42.9468 114.179 43.3827 114.3 43.8852 114.433C43.7831 114.621 43.6771 114.821 43.418 115.29C43.8734 114.977 44.1169 114.812 44.1522 114.785C45.8837 116.096 47.5484 117.356 49.6136 118.913C50.87 118.984 52.7193 119.105 54.0267 120.807C54.3722 120.697 54.8238 120.553 55.2753 120.416C55.3185 120.505 55.3656 120.592 55.4088 120.682C55.1928 120.819 54.9769 120.956 54.439 121.304C55.2125 121.339 55.6836 121.323 56.1469 121.394C57.6782 121.621 59.3664 121.55 60.7014 122.193C62.7862 123.198 65.248 121.973 67.1208 123.557C68.0828 122.654 69.4687 123.573 70.5681 122.619C71.7067 121.625 73.2379 121.069 74.6593 120.287C74.3883 119.852 74.1567 119.473 73.9329 119.117C73.607 119.316 73.2772 119.512 72.9474 119.716C72.8139 119.261 72.6765 118.811 72.6176 118.604C71.8049 118.381 70.9843 118.268 70.2775 117.916C69.9713 117.767 69.9084 117.141 69.7004 116.659C69.6101 116.71 69.292 116.887 68.8955 117.11C69.347 115.313 69.3117 115.271 67.3917 114.844C67.3211 113.952 67.2543 113.142 67.1561 111.948C68.279 111.917 70.0695 111.377 70.6662 111.987C71.4004 112.743 72.1229 112.626 72.8257 112.943C72.9984 113.021 73.2733 113.201 73.2654 113.318C73.128 114.989 74.8242 114.707 75.5623 115.145C76.8579 115.912 77.8552 116.859 79.0724 117.9C80.8313 116.554 82.2801 118.843 83.8428 118.601L81.9896 120.447L81.2593 119.719C81.1494 119.758 81.0355 119.801 80.9256 119.841C81.063 120.267 81.0983 120.772 81.3614 121.104C82.0328 121.946 81.8875 123.295 80.9687 123.851C80.8431 123.929 80.6507 123.957 80.584 124.062C79.7516 125.471 78.24 126.039 76.9954 126.926C76.5282 127.259 76.0138 127.537 75.4955 127.78C74.086 128.426 72.6608 129.024 71.2473 129.658C71.0549 129.74 70.8979 129.904 70.7094 130.006C69.7239 130.55 68.8759 131.465 67.5645 130.394C67.0934 130.01 66.0646 130.307 65.2833 130.295C64.6002 127.76 67.0776 126.598 67.859 124.74C67.0187 124.873 66.1275 125.166 65.248 125.111C63.8581 125.025 62.48 124.692 61.094 124.485C60.1085 124.34 59.0916 124.329 58.1415 124.078C57.5996 123.937 57.2031 123.323 56.6613 123.111C56.1037 122.893 55.4441 122.956 54.8512 122.81C53.7794 122.548 51.8281 122.247 51.8241 121.922C51.7809 120.322 50.9092 121.378 50.4224 121.261C50.2654 121.222 50.1947 120.838 50.069 120.573C48.4436 120.831 47.9135 120.505 47.835 119.011C47.1871 119.078 46.5393 119.144 45.762 119.222C45.8287 118.647 45.8837 118.209 45.9661 117.516C45.4478 117.814 45.1298 117.99 44.6076 118.291C44.694 117.696 44.7411 117.337 44.7921 117.004C44.3092 116.906 43.7635 116.941 43.4101 116.699C42.5973 116.139 41.8867 115.439 41.125 114.812C40.9955 114.707 40.7717 114.711 40.6539 114.602C39.7783 113.799 38.8674 113.017 38.09 112.125C37.9134 111.917 38.2078 111.295 38.2864 110.865C37.8034 110.978 37.399 111.076 36.8964 111.193C37.0496 110.774 36.4763 110.141 34.949 108.815L35.801 107.965C35.746 107.903 35.6989 107.84 35.6439 107.777C35.4162 107.895 35.1925 108.016 34.8822 108.177C34.9215 107.543 34.9608 106.995 35 106.345C34.5014 106.419 34.1637 106.474 33.7868 106.529C33.7868 106.529 33.7476 106.506 33.7044 106.478C35.055 104.42 32.075 105.394 32.1574 104.279C32.1967 103.723 32.4205 103.188 32.6286 102.362C31.7491 102.746 31.5017 102.851 31.1131 103.019C31.3604 102.241 31.5606 101.618 31.7609 100.988C31.2152 100.962 30.7518 100.938 30.0647 100.903L30.9482 100.022C29.5464 99.8541 29.1381 98.516 29.8684 96.7395C29.3855 96.4616 28.9026 96.1919 28.4982 95.9606C28.6905 94.9784 28.8947 93.938 29.1538 92.6306C27.8818 90.9953 27.76 86.8123 29.1813 85.255C28.9418 85.0633 28.7023 84.8716 28.3057 84.5546C28.8476 84.3278 29.2128 84.175 29.6721 83.9833C29.358 83.8274 29.1421 83.7137 28.7102 83.4945C29.3423 83.0446 29.8449 82.6925 30.1864 82.4458C30.2414 81.3033 30.2924 80.2821 30.3474 79.1868C29.6211 79.3549 29.1303 79.468 28.239 79.6757C28.7023 78.9478 28.9143 78.6111 29.1264 78.2749C29.0596 78.2085 28.989 78.1458 28.9182 78.0832C28.6709 78.2513 28.4353 78.5254 28.1683 78.5644C27.7443 78.627 27.0847 78.705 26.9041 78.4781C26.4604 77.9267 26.3898 77.0186 25.8833 76.5924C25.3139 76.1112 24.4384 75.9974 23.2723 75.5712L19.2009 71.5134C19.283 71.392 19.4952 71.0948 19.9075 70.5121C19.4324 70.7268 19.2516 70.8054 18.9457 70.946C19.2362 69.8897 18.7925 69.5337 17.8659 69.0091C16.4482 68.1994 15.5844 66.5635 14.0846 65.7028C13.9673 65.6325 14.034 65.1666 14.0808 64.8931C14.2616 63.8913 13.6454 63.2223 13.0208 62.6627C12.3296 62.0445 11.1478 61.9075 11.3088 60.5498C11.3325 60.3541 10.7477 60.0841 10.3591 59.7828L11.2543 58.8908C10.563 58.4212 9.96604 58.0143 9.29083 57.5604C9.72301 57.1769 10.0173 56.9148 10.6573 56.3396C9.85255 56.4609 9.48705 56.5117 9.12605 56.5666C9.08308 56.1948 9.03947 55.8309 8.99267 55.4162C7.93209 55.1344 8.22321 54.344 8.57652 53.4206C7.13954 53.9919 7.15878 52.5794 7.25688 52.1763C7.52427 51.0495 7.06067 50.7443 6.22067 50.7051C6.09884 50.0987 6.00072 49.5783 5.8712 48.9404C5.85517 48.9404 5.52943 48.8896 5.19599 48.8387C5.18766 48.7605 5.17997 48.6822 5.17997 48.6039C5.53712 48.4749 5.89493 48.3457 6.35789 48.1814C4.83435 47.5084 4.88564 45.8455 5.17612 44.296C4.70097 44.3077 4.21813 44.3194 3.73914 44.3351C3.96677 43.6699 4.19056 43.0008 4.42653 42.3122C3.28772 41.3418 2.79655 39.6632 3.37813 38.7007C2.70229 38.1607 1.57566 37.8203 2.65548 36.666C1.44228 36.4664 1.43844 36.3295 2.69074 34.3848C2.46311 34.1578 2.2156 33.9192 1.97643 33.6727C1.77187 33.4614 1.58784 33.2383 1.35957 32.9801C1.7879 32.7492 2.19637 32.5301 2.84015 32.1858C2.27459 32.1232 1.94884 32.088 1.44228 32.0293C1.61926 31.4072 1.90525 30.8398 1.90141 30.2724C1.89755 29.6895 1.76418 28.9851 1.41471 28.543C0.763229 27.7135 0.684357 26.3596 1.12039 25.9175C0.80619 25.0332 0.574715 24.3719 0.338745 23.7067C1.46601 23.4446 0.582405 22.9946 0.472755 22.5799C0.401581 22.2981 0.374641 21.8169 0.531105 21.6916C1.67376 20.8112 1.30506 19.8878 0.845306 18.8118C0.652939 18.3696 0.994705 17.724 0.998558 17.1723C1.0024 16.7693 0.849152 16.3663 0.700386 15.6464L1.50127 14.8481C1.22234 14.8129 0.970985 14.7816 0.570862 14.7268C0.974838 14.0186 1.4147 13.3613 1.72121 12.6492C1.86997 12.297 1.75649 11.8313 1.77188 11.4166C1.78791 11.0175 1.79945 10.6223 1.85459 10.231C1.89756 9.89842 2.0508 9.57367 2.0508 9.23716C2.0508 8.86934 2.80488 7.4686 2.95749 7.11253C3.20116 6.53338 4.18671 6.23213 3.49163 5.21871C2.93441 4.40484 3.80198 3.08623 4.97606 2.58929C4.74843 2.33888 4.53233 2.09237 4.4028 1.9476C7.18635 -1.55437 9.00036 -5.60021 12.4713 -8.66786C15.687 -11.5046 18.4154 -14.9127 22.5028 -17.1626C22.6912 -17.1391 23.288 -17.0609 23.877 -16.9826C23.9633 -16.873 24.0497 -16.7635 24.14 -16.6578L24.1714 -16.6422ZM45.4714 77.942C45.3654 76.5847 45.2516 75.1565 45.1416 73.8184C44.5998 73.6931 44.1208 73.5832 43.6418 73.4739C43.7399 73.196 43.838 72.9103 43.9401 72.6208C42.3382 73.0745 40.752 73.5206 39.1658 73.9666L38.6043 73.4075C38.0272 73.9826 37.6071 74.4791 37.1084 74.8747C36.547 75.3246 35.7892 75.5865 35.3495 76.1189C34.5328 77.1125 33.881 78.2398 33.1625 79.3159C33.5434 79.5932 34.1166 80.0163 34.7841 80.509C34.8469 80.47 35.428 80.0789 35.4437 80.1019C36.178 81.0917 37.0181 80.1997 37.7799 80.2623C38.2235 80.2974 38.7104 80.2744 39.1108 80.431C40.01 80.7869 40.7363 80.5562 41.5216 80.0789C42.7662 79.3236 44.0775 78.682 45.4596 77.9382L45.4714 77.942ZM67.9846 129.02C70.4149 127.889 72.6647 126.845 75.0008 125.761C74.9851 125.19 74.9655 124.583 74.938 123.828C74.3608 124.482 73.9996 125.24 73.4696 125.385C72.8571 125.549 72.0954 125.174 71.106 124.978C70.9411 126.661 67.749 126.367 67.9807 129.024L67.9846 129.02ZM76.4496 119.238C76.5242 119.125 76.5988 119.019 76.6734 118.905C75.9 117.931 75.1304 116.953 74.5415 116.209C73.9486 116.01 73.4735 115.982 73.1908 115.732C72.3271 114.965 71.5339 114.12 70.7919 113.38C69.8888 114.758 70.6191 115.65 71.6989 116.374C72.8532 117.149 74.0428 117.873 75.2285 118.601C75.6211 118.843 76.0492 119.027 76.4575 119.238H76.4496ZM76.2062 121.828C75.3032 122.274 74.4119 122.709 73.1555 123.327C74.7652 123.17 75.9941 123.049 77.2977 122.916L76.2062 121.828Z" fill="#3830C9"/>
</g>
<defs>
<clipPath id="clip0_1_6557">
<rect width="84" height="131" fill="white" transform="matrix(-1 0 0 1 84 0)"/>
</clipPath>
</defs>
</svg>
