<svg width="25" height="23" viewBox="0 0 25 23" fill="none" xmlns="http://www.w3.org/2000/svg">
<g clip-path="url(#clip0_1_7516)">
<path d="M13.1521 13.2925C12.8248 13.3768 12.7593 13.3265 12.7996 13.0254C12.8082 12.962 12.808 12.8894 12.7862 12.83C12.7163 12.6365 12.722 12.2599 12.7988 12.0811C12.8188 12.0329 12.8346 11.957 12.8103 11.9202C12.6455 11.666 12.7567 11.4096 12.7775 11.1543C12.803 10.843 12.841 10.5324 12.8453 10.2211C12.8483 9.99042 12.907 9.76802 12.9155 9.54612C12.9265 9.24442 12.8501 8.93774 12.811 8.63214C12.8061 8.59683 12.8057 8.56168 12.8061 8.52527C12.8107 8.25354 12.8057 7.97938 12.8252 7.70896C12.8451 7.43075 12.9264 7.18054 13.2794 7.08206C13.2486 7.25137 13.2199 7.40593 13.1882 7.57649C13.2422 7.60163 13.3276 7.64116 13.4944 7.71777C13.342 7.76477 13.2607 7.79043 13.173 7.8174C13.2481 7.8943 13.3191 7.96767 13.4265 8.07748C13.3743 8.14115 13.2959 8.23664 13.2229 8.32661C13.4166 8.37895 13.4165 8.49343 13.2062 8.7803C13.372 8.80977 13.4889 8.84057 13.3147 9.02858C13.2591 9.08745 13.0933 9.24947 13.3397 9.34044C13.369 9.35087 13.3768 9.41751 13.3951 9.45772C13.336 9.47768 13.2779 9.49743 13.2437 9.50892C13.2598 9.92166 13.277 10.3529 13.2955 10.8191C13.1159 10.8838 13.1823 11.0429 13.2946 11.2067C13.2 11.2473 13.1298 11.2772 13.1378 11.2734C13.2175 11.532 13.2874 11.7586 13.3623 12.0018C13.2388 12.0384 13.1583 12.0628 13.0642 12.0911C13.1109 12.1232 13.1469 12.1477 13.203 12.1867C13.1411 12.2281 13.088 12.2644 12.9992 12.3247C13.3227 12.4349 13.3222 12.5759 13.1676 12.8093C13.0915 12.9242 13.1526 13.1273 13.1518 13.2914L13.1521 13.2925Z" fill="white"/>
<path d="M9.72573 9.2014C9.95512 9.35861 10.0559 9.73618 9.93917 9.9354C10.3652 10.0816 9.91813 10.3041 10.0233 10.5046C10.227 10.5186 10.2832 10.6534 10.2765 10.8683C10.2727 10.9956 10.3647 11.1252 10.401 11.2564C10.4267 11.3468 10.4336 11.4433 10.4444 11.5369C10.4595 11.6636 10.3717 11.8095 10.5462 11.9043C10.5809 11.9236 10.6024 12.0534 10.5887 12.0618C10.2569 12.2417 10.546 12.2665 10.6506 12.3736C10.7022 12.4268 10.6475 12.5801 10.6377 12.7198C10.7978 12.7966 11.0255 12.9036 10.6187 13.1068C10.7727 13.1717 10.8834 13.2192 10.9766 13.2582C10.9827 13.356 10.9879 13.4452 10.9925 13.5125C10.8606 13.5564 10.7196 13.6329 10.5741 13.6378C10.5118 13.6396 10.3719 13.4771 10.3863 13.4191C10.4336 13.22 10.3445 13.0832 10.2704 12.9103C10.1713 12.6788 10.1794 12.4074 10.1165 12.1585C10.0599 11.9358 9.9752 11.7178 9.89018 11.5031C9.85368 11.4094 9.68355 11.3236 9.89486 11.2413C9.84596 11.1281 9.77972 11.0175 9.75109 10.9001C9.65957 10.5239 9.58381 10.1433 9.4963 9.7652C9.47538 9.67596 9.41045 9.59475 9.39858 9.50586C9.36539 9.26396 9.34419 9.02068 9.33071 8.77691C9.32443 8.65933 9.34368 8.54086 9.35193 8.41366C9.4934 8.43938 9.61715 8.46107 9.70723 8.47764L9.86002 9.12954C9.84794 9.13534 9.79316 9.1643 9.72418 9.19952L9.72573 9.2014Z" fill="white"/>
<path d="M6.5336 9.93419C6.76507 10.2627 6.99629 10.5901 7.23605 10.9301C7.22143 10.9441 7.17625 10.9854 7.19194 10.9712C7.34551 11.2013 7.48898 11.4027 7.61341 11.6136C7.62991 11.641 7.55105 11.7201 7.51598 11.7758C7.88059 11.9941 8.19813 12.5228 8.01267 12.6724C8.16835 12.7348 8.49148 12.6854 8.28906 13.0014C8.43167 13.0512 8.40524 13.0577 8.45404 13.2325C8.47471 13.3064 8.63212 13.3475 8.74755 13.415C8.6861 13.4872 8.63797 13.5445 8.56347 13.6326C8.75644 13.6344 8.91091 13.5914 8.92445 13.8737C8.93229 14.0504 9.16239 14.2393 9.32707 14.3879C9.4962 14.5411 9.50415 14.5703 9.28725 14.6813C9.22525 14.7129 9.18278 14.78 9.10908 14.8525C8.89806 14.5396 8.62033 14.3242 8.51714 13.946C8.44406 13.6771 8.15934 13.4653 7.9988 13.2102C7.7982 12.894 7.6358 12.5545 7.44086 12.2339C7.36249 12.1048 7.17611 12.0069 7.15907 11.8817C7.12932 11.6545 6.98377 11.5206 6.86756 11.3543C6.67597 11.0814 6.4738 10.8063 6.3407 10.5058C6.27669 10.3617 6.36191 10.1569 6.37879 9.98056C6.43011 9.96553 6.48145 9.95049 6.53278 9.93545L6.5336 9.93419Z" fill="white"/>
<path d="M16.719 11.6253C16.6962 11.7049 16.6623 11.8231 16.6261 11.9407C16.6145 11.9772 16.571 12.0159 16.5789 12.0451C16.6725 12.3725 16.4955 12.5775 16.2522 12.7524C16.6321 12.9312 16.1106 12.9699 16.2209 13.0968C16.128 13.0158 16.034 12.9341 15.9664 12.8754C15.9641 12.746 15.9452 12.6321 15.9666 12.5276C15.9848 12.4379 16.0633 12.3622 16.0905 12.2729C16.2154 11.865 16.3298 11.455 16.45 11.0459C16.5318 10.7648 16.6111 10.482 16.7038 10.2041C16.7281 10.1308 16.7974 10.0735 16.8452 10.0097C16.8341 9.96245 16.7829 9.86844 16.8093 9.83768C16.9584 9.66153 17.0154 9.46582 17.0315 9.23799C17.0434 9.06927 17.1231 8.90751 17.1668 8.74098C17.2061 8.59308 17.1996 8.41721 17.2841 8.30503C17.3471 8.22041 17.5218 8.21611 17.647 8.17697C17.6516 8.30152 17.6595 8.42644 17.6588 8.55212C17.6585 8.6369 17.6505 8.72222 17.6367 8.80654C17.624 8.89065 17.6095 8.97728 17.5801 9.05713C17.4843 9.31696 17.3803 9.57516 17.2721 9.85403C17.4068 9.97475 17.3141 10.3055 17.0972 10.5309C17.0319 10.7107 16.9652 10.8896 16.9034 11.0698C16.8472 11.2311 16.7957 11.3937 16.7193 11.6264L16.719 11.6253Z" fill="white"/>
<path d="M19.0861 11.8988C19.1431 11.9893 19.1805 12.0487 19.2283 12.1236L18.9817 12.1747C18.7535 12.5621 18.6174 12.9844 18.1846 13.1963C18.1274 13.2246 18.132 13.3832 18.0773 13.4023C17.983 13.435 17.8132 13.446 17.7693 13.3924C17.7093 13.3178 17.6845 13.1402 17.7349 13.0692C17.9933 12.7097 18.2751 12.3651 18.5647 12.0288C18.6202 11.9645 18.748 11.9611 18.8519 11.9264C18.725 11.5905 19.0597 11.4518 19.2073 11.2319C19.3252 11.0566 19.5111 10.9279 19.6458 10.7623C19.7172 10.6749 19.7329 10.5462 19.7927 10.4479C19.9534 10.1834 20.1182 9.92147 20.2932 9.66506C20.4597 9.42032 20.6991 9.52482 20.9326 9.53253C20.7802 9.78975 20.6836 10.0509 20.5023 10.2326C20.3113 10.4252 20.1919 10.6514 20.0372 10.8464C19.9214 10.9925 19.8513 11.1755 19.7191 11.314C19.5397 11.5032 19.3857 11.7156 19.2025 11.9418C19.2246 11.9504 19.173 11.9303 19.0878 11.8962L19.0861 11.8988Z" fill="white"/>
<path d="M7.79581 16.3284C7.76308 16.3562 7.74932 16.3689 7.73442 16.3819C7.46628 16.6179 7.37847 16.5922 7.0824 16.3507C6.76164 16.0903 6.39686 15.8808 6.06635 15.6311C5.63098 15.302 5.2103 14.9544 4.78174 14.6162C4.71311 14.5621 4.64286 14.4963 4.56256 14.4689C4.14013 14.3286 3.92827 13.9884 3.72239 13.5588C3.88339 13.5772 4.08154 13.5438 4.19781 13.6242C4.43058 13.7862 4.6011 14.0317 4.82813 14.2025C5.03835 14.3593 5.28896 14.4637 5.56391 14.6148C5.49527 14.6608 5.44789 14.6927 5.36066 14.7504C5.48128 14.7826 5.52527 14.789 5.56486 14.805C5.73876 14.8735 5.92518 14.771 6.07989 15.0681C6.22816 15.3522 6.68372 15.4856 7.00459 15.6844C7.02954 15.7002 7.06107 15.7057 7.08328 15.7243C7.31774 15.9223 7.55141 16.1215 7.79606 16.3295L7.79581 16.3284Z" fill="white"/>
</g>
<defs>
<clipPath id="clip0_1_7516">
<rect width="19.4937" height="16.2448" fill="white" transform="matrix(0.93391 0.357509 -0.357505 0.933911 6.12891 0.361267)"/>
</clipPath>
</defs>
</svg>
