<svg width="12" height="6" viewBox="0 0 12 6" fill="none" xmlns="http://www.w3.org/2000/svg">
<path d="M6.00014 6.00002C5.90143 6.00059 5.80359 5.98167 5.71221 5.94434C5.62083 5.90702 5.53772 5.85203 5.46764 5.78252L0.967639 1.28252C0.826411 1.14129 0.74707 0.949743 0.74707 0.750017C0.74707 0.550291 0.826411 0.358745 0.967639 0.217517C1.10887 0.0762892 1.30041 -0.00305176 1.50014 -0.00305176C1.69987 -0.00305176 1.89141 0.0762892 2.03264 0.217517L6.00014 4.19252L9.96764 0.225017C10.1111 0.102147 10.2957 0.0379425 10.4844 0.0452334C10.6732 0.0525242 10.8522 0.130774 10.9858 0.264345C11.1194 0.397916 11.1976 0.57697 11.2049 0.765727C11.2122 0.954484 11.148 1.13904 11.0251 1.28252L6.52514 5.78252C6.38544 5.92108 6.19689 5.99919 6.00014 6.00002Z" fill="#0D0D0D" fill-opacity="0.6"/>
</svg>
