<svg width="84" height="48" viewBox="0 0 84 48" fill="none" xmlns="http://www.w3.org/2000/svg">
<g clip-path="url(#clip0_1_5848)">
<path d="M2.1188 6.33195C2.1236 3.58633 4.42472 1.3586 7.15051 1.4012C9.90033 1.35292 12.188 3.63841 12.1832 6.35373C12.1908 7.01062 12.0659 7.66246 11.8158 8.2714C11.5656 8.88033 11.1951 9.43421 10.7259 9.90088C10.2567 10.3675 9.69803 10.7377 9.08241 10.9898C8.46679 11.242 7.80647 11.3711 7.13979 11.3696C6.47312 11.3682 5.81337 11.2362 5.19888 10.9814C4.58439 10.7266 4.0274 10.3541 3.56026 9.88538C3.09312 9.41668 2.72513 8.8612 2.47768 8.25119C2.23023 7.64118 2.10824 6.98881 2.1188 6.33195Z" fill="#FEFEFE"/>
<path d="M26.7609 6.37928C26.7426 3.7113 28.9342 1.3851 31.7935 1.38794C32.7867 1.38853 33.7574 1.67882 34.5834 2.22224C35.4094 2.76565 36.0536 3.53786 36.4349 4.44152C36.8162 5.34518 36.9174 6.33983 36.7259 7.30011C36.5344 8.26039 36.0586 9.14329 35.3586 9.83754C34.6586 10.5318 33.7657 11.0063 32.7925 11.2012C31.8192 11.3962 30.8092 11.3028 29.8897 10.933C28.9702 10.5631 28.1824 9.93334 27.6256 9.12296C27.0687 8.31258 26.7679 7.35791 26.7609 6.37928Z" fill="#FEFEFE"/>
<path d="M19.4553 21.6516C19.429 21.6151 19.413 21.5723 19.4091 21.5277C19.4052 21.483 19.4136 21.4382 19.4332 21.3978C20.2797 19.5119 21.3135 17.7424 22.7672 16.237C23.9922 14.9693 25.4142 13.9866 27.0975 13.3967C29.1699 12.6734 31.252 12.6971 33.3331 13.3655C34.8771 13.8625 36.2463 14.673 37.5116 15.6633C37.8306 15.9132 38.1438 16.1679 38.4599 16.4623C37.4578 17.6202 36.4663 18.781 35.4949 19.9587C34.5235 21.1365 33.5666 22.3257 32.6404 23.5754C32.3654 23.3068 32.0768 23.0521 31.7756 22.8123C31.4129 22.5197 31.0098 22.2793 30.5785 22.0984C30.4642 22.0454 30.3366 22.0267 30.2115 22.0445C30.0865 22.0623 29.9695 22.116 29.8752 22.1988C29.452 22.5391 29.0896 22.9468 28.8029 23.405C28.3651 24.0991 27.9966 24.8334 27.7028 25.5977C27.1004 27.0964 26.6459 28.6434 26.2289 30.1999C26.032 30.927 25.8446 31.6579 25.6525 32.3917C25.5641 32.3689 25.5564 32.297 25.5218 32.2383C23.6732 29.0117 21.8253 25.7851 19.978 22.5586C19.8031 22.2565 19.6321 21.9526 19.4553 21.6516Z" fill="#FEFEFE"/>
<path d="M48.6723 5.96461C48.5293 5.33178 48.5188 4.67687 48.6414 4.03989C48.7639 3.40291 49.017 2.79726 49.3852 2.25993C50.1942 1.05091 51.3395 0.326634 52.7951 0.0823685C52.9748 0.052072 53.164 0.0871023 53.3341 0.00378706C53.3187 0.12876 53.214 0.0984635 53.1419 0.106038C52.05 0.198124 51.0204 0.646601 50.2164 1.38042C49.4123 2.11425 48.8798 3.09145 48.703 4.15724C48.4513 5.75727 48.8712 7.18689 50.004 8.36277C50.8755 9.254 52.0561 9.78859 53.3101 9.85984C54.5641 9.93109 55.7992 9.53376 56.769 8.74716C57.2609 8.3561 57.6697 7.87322 57.9719 7.32621C58.2741 6.77919 58.4638 6.17879 58.5301 5.5594C58.6199 4.90463 58.5696 4.2386 58.3825 3.60414C58.1953 2.96968 57.8754 2.38085 57.4434 1.87554C56.597 0.852088 55.4959 0.270775 54.17 0.105091C54.0826 0.0937297 53.9615 0.142015 53.9298 0C54.0749 0.0861555 54.242 0.0511253 54.3977 0.0766879C55.5538 0.256182 56.6085 0.831832 57.3762 1.70228C57.9782 2.36585 58.3807 3.1815 58.5388 4.05783C58.786 5.28837 58.5376 6.56542 57.846 7.61861C57.5007 8.17135 57.0459 8.64983 56.5088 9.02543C55.9716 9.40104 55.3631 9.66607 54.7196 9.80469C53.605 10.0763 52.4287 9.94635 51.4029 9.43829C49.9357 8.72159 49.0009 7.55897 48.6723 5.96461Z" fill="#FEFEFE"/>
<path d="M60.7567 42.1055C61.283 42.9918 61.8967 43.8249 62.5889 44.5926C62.5901 44.6094 62.5864 44.6262 62.5782 44.6409C62.57 44.6557 62.5578 44.6678 62.5428 44.6759C61.3014 45.6511 59.9823 46.5022 58.518 47.1205C57.3004 47.6524 55.9913 47.9512 54.6604 48.001C52.4698 48.0616 50.4809 47.4499 48.6948 46.2021C47.5053 45.3709 46.5185 44.3389 45.6327 43.2065C44.791 42.1329 44.057 40.9883 43.3479 39.8285C42.8175 38.9603 42.2401 38.1243 41.6992 37.259C41.5454 37.0128 41.5435 36.8481 41.7059 36.5962C43.4853 33.8935 45.2564 31.1852 47.0191 28.4711C47.0593 28.3898 47.1136 28.3161 47.1796 28.2534C47.2393 28.3131 47.2881 28.3826 47.3237 28.4588C49.0653 31.3269 50.8069 34.1952 52.5485 37.0639C52.9665 37.7551 53.5997 38.1215 54.3741 38.2805C54.6912 38.3424 55.0177 38.3424 55.3349 38.2805C55.6463 38.2314 55.9421 38.1126 56.1996 37.9331C56.7341 37.5506 57.2393 37.1297 57.7109 36.6739C57.8243 36.5631 57.9338 36.4485 58.0472 36.333C58.106 36.4123 58.1478 36.5025 58.1702 36.5981C58.8745 38.5068 59.6988 40.3596 60.7567 42.1055Z" fill="#FEFEFE"/>
<path d="M0 27.4713C0.0797465 27.335 0.0730209 27.1778 0.0816681 27.0339C0.132101 26.2583 0.240647 25.4874 0.406419 24.7276C0.616525 23.7292 0.919827 22.7521 1.31245 21.8087C1.79358 20.6456 2.39297 19.5335 3.10147 18.4894C3.56818 17.7944 4.12143 17.1599 4.74828 16.6006C5.71581 15.7409 6.82746 15.1577 8.12262 14.9522C8.67728 14.8713 9.24035 14.8627 9.79729 14.9267C10.5151 15.0007 11.2148 15.1954 11.8659 15.5023C12.44 15.7762 12.9731 16.1266 13.4503 16.5438C14.4111 17.3665 15.1634 18.3549 15.8436 19.403C16.7429 20.789 17.477 22.2603 18.1957 23.743C18.7981 24.9917 19.3582 26.2604 19.9453 27.5168C20.3882 28.4635 20.9339 29.362 21.423 30.2879C21.6959 30.8039 21.9822 31.3133 22.2618 31.8264C22.8882 32.9711 23.5041 34.1214 24.143 35.2594C24.4082 35.7328 24.7877 36.1219 25.1749 36.5015C25.3369 36.6627 25.5131 36.8094 25.7014 36.9399C25.7682 36.9901 25.8486 37.0196 25.9325 37.0246C26.0163 37.0297 26.0997 37.0101 26.1722 36.9683C26.4075 36.8562 26.6242 36.7097 26.815 36.5337C27.3825 36.0127 27.9131 35.4541 28.4032 34.8617C29.8338 33.15 31.1357 31.3445 32.405 29.5144C33.1883 28.3853 33.9653 27.2507 34.7359 26.1108C35.4987 24.9851 36.3125 23.8954 37.1206 22.7971C37.7797 21.9053 38.4388 21.0128 39.0979 20.1197C39.4332 19.6681 39.8002 19.2411 40.1634 18.8122C40.909 17.9275 41.7035 17.0839 42.5433 16.2853C43.7338 15.1634 45.0039 14.1418 46.4307 13.3219C47.6932 12.5957 49.0316 12.0608 50.4757 11.8137C51.1857 11.6864 51.908 11.6391 52.6289 11.6727C53.9548 11.7427 55.2568 12.0487 56.4721 12.5759C57.8921 13.1948 59.2164 14.0082 60.4056 14.992C61.3514 15.7768 62.2089 16.6596 62.9632 17.625C63.8631 18.7758 64.6379 20.0166 65.2749 21.3268C65.9124 22.6352 66.4478 23.9895 66.8766 25.378C67.2206 26.4744 67.5146 27.584 67.823 28.6917C68.2073 30.0803 68.5916 31.4708 68.9759 32.8631C69.1873 33.6272 69.391 34.3931 69.6158 35.1543C69.6994 35.4143 69.8031 35.6675 69.9262 35.9117C70.1765 36.4726 70.4694 37.0142 70.8024 37.5316C71.0067 37.8344 71.2557 38.1053 71.5413 38.3354C73.3111 37.9757 74.6159 36.9863 75.52 35.4667C76.1022 34.4916 76.4587 33.4321 76.6931 32.332C77.0563 30.6278 77.1466 28.9019 77.0909 27.1646C77.0588 26.197 76.9881 25.2319 76.8785 24.2694C76.7632 23.2595 76.6066 22.2587 76.4087 21.2672C76.3988 21.2345 76.3859 21.2029 76.3703 21.1725C76.4663 21.1933 76.4663 21.3079 76.4904 21.394C76.6691 22.231 76.7978 23.0764 76.8987 23.9257C77.0227 24.9671 77.0909 26.0152 77.1408 27.0661C77.2339 28.8265 77.1048 30.5915 76.7565 32.3206C76.4856 33.6262 76.0446 34.8703 75.2615 35.9789C74.449 37.1659 73.2151 38.0103 71.8026 38.3458C71.7442 38.3632 71.6839 38.3737 71.623 38.3771C71.6067 38.379 71.5902 38.379 71.574 38.3771H71.5538C71.4588 38.3451 71.3746 38.2877 71.3107 38.2114C70.9148 37.8441 70.6295 37.3981 70.3691 36.9323C69.859 35.9907 69.4688 34.9906 69.2075 33.9548C68.5782 31.5983 67.9181 29.2512 67.2648 26.9014C66.8859 25.4972 66.4187 24.1176 65.8658 22.7706C65.0069 20.7228 63.9125 18.8131 62.4627 17.1109C61.152 15.571 59.5681 14.2789 57.7884 13.2973C56.6757 12.664 55.4689 12.2068 54.2123 11.9425C52.0745 11.5117 50.0126 11.7749 48.017 12.6118C46.4548 13.267 45.0693 14.1967 43.7818 15.2779C43.1688 15.7939 42.5693 16.3251 42.0091 16.896C41.146 17.7685 40.3298 18.6849 39.5639 19.6416C38.5272 20.9462 37.5789 22.3152 36.5758 23.6454C35.1913 25.4803 33.9557 27.4164 32.6365 29.2976C31.3692 31.1107 30.0856 32.9133 28.6809 34.6279C28.1233 35.3128 27.5198 35.9603 26.8746 36.5659C26.6732 36.7533 26.4433 36.9085 26.1934 37.0261C26.1101 37.0734 26.0142 37.095 25.9183 37.0881C25.8224 37.0812 25.7308 37.046 25.6553 36.9872C25.1692 36.6445 24.7858 36.2033 24.4063 35.7564C24.0921 35.3863 23.8855 34.9536 23.6588 34.5332C22.5952 32.564 21.5191 30.6004 20.4468 28.6349C19.9184 27.6663 19.486 26.6561 19.0229 25.6601C17.966 23.3879 16.9139 21.1157 15.5141 19.0243C15.054 18.3254 14.5246 17.6733 13.9335 17.0777C12.8661 16.0174 11.6199 15.258 10.0903 15.0308C8.20332 14.7468 6.53537 15.2325 5.06246 16.4207C3.9585 17.3125 3.14086 18.4344 2.4462 19.6472C1.62382 21.0565 1.00242 22.5708 0.59954 24.1472C0.354632 25.077 0.203691 26.0284 0.148924 26.9875C0.143159 27.1163 0.109531 27.2412 0.0941586 27.3662C0.0883937 27.4202 0.0797465 27.4817 0 27.4713Z" fill="#FEFEFE"/>
<path d="M72.0674 6.33008C72.0699 5.34765 72.3685 4.3881 72.9253 3.57314C73.4821 2.75819 74.272 2.12456 75.1948 1.75262C76.1175 1.38068 77.1316 1.28721 78.1084 1.48405C79.0852 1.68089 79.9806 2.15917 80.6811 2.85823C81.3816 3.5573 81.8557 4.44563 82.043 5.41055C82.2304 6.37547 82.1228 7.37349 81.7337 8.27802C81.3446 9.18254 80.6916 9.95281 79.8576 10.4911C79.0236 11.0294 78.0461 11.3115 77.0492 11.3015C74.3013 11.2949 72.0597 9.06149 72.0674 6.33008Z" fill="#FEFEFE"/>
<path d="M83.9741 28.4503C83.878 31.0539 83.461 33.6101 82.5521 36.0717C81.9362 37.739 81.0917 39.2831 79.9387 40.6541C79.8636 40.7588 79.7623 40.8426 79.6447 40.8974C79.5717 41.0356 79.4314 41.1076 79.3171 41.2022C78.495 41.8731 77.6155 42.4725 76.6883 42.9935C75.381 43.7608 73.9612 44.3242 72.479 44.6636C71.5257 44.8724 70.5452 44.9344 69.5726 44.8473C67.8629 44.7024 66.2398 44.043 64.9233 42.9585C64.5011 42.619 64.1148 42.2383 63.7703 41.8224C63.5686 41.5555 63.3896 41.2728 63.2352 40.9769C62.534 39.7344 61.903 38.4546 61.3453 37.1434C60.9148 36.1664 60.5142 35.1903 60.1462 34.1981C60.0328 33.8951 59.9713 33.5742 59.8839 33.2617C59.5486 32.0773 59.2113 30.8948 58.877 29.7085C58.6512 28.9 58.4167 28.099 58.1371 27.3028C57.6942 26.0502 57.1667 24.8412 56.4298 23.7202C55.6609 22.5276 54.6094 21.5369 53.3658 20.8335C52.6558 20.434 51.9573 20.435 51.2319 20.7616C50.6826 21.0167 50.1688 21.3403 49.7032 21.7244C48.7319 22.5017 47.8854 23.3964 47.0793 24.3318C46.3961 25.1214 45.7572 25.9413 45.1327 26.7754C44.7484 27.2924 44.39 27.832 44.021 28.3622C42.8844 29.9963 41.7363 31.6229 40.615 33.2674C39.3218 35.1609 38.0208 37.0545 36.6037 38.8609C36.0291 39.5893 35.4296 40.2974 34.805 40.9854C34.2814 41.5611 33.7337 42.113 33.1563 42.6337C32.2311 43.4688 31.2491 44.2309 30.1077 44.7677C29.3756 45.1182 28.5918 45.3522 27.7854 45.4608C27.3608 45.5246 26.9311 45.5493 26.5018 45.5346C25.5759 45.4816 24.666 45.2728 23.8115 44.9173C22.831 44.4989 21.9158 43.9452 21.0934 43.2728C20.609 42.8904 20.1486 42.4794 19.7147 42.042C18.8156 41.12 17.9933 40.128 17.256 39.0758C16.2491 37.6509 15.4103 36.1323 14.6263 34.5796C12.7104 30.7881 10.7872 27.0011 8.85667 23.2184C8.82596 23.1347 8.77822 23.058 8.71639 22.9931C8.59825 23.189 8.49547 23.3934 8.40894 23.6047C8.00938 24.5455 7.71555 25.5265 7.53268 26.5302C7.45678 26.9459 7.40394 27.3653 7.37031 27.7875C7.34725 28.0895 7.33572 28.3906 7.33188 28.6926C7.31333 30.0394 7.53881 31.3786 7.99771 32.6473C8.43511 33.8368 9.06275 34.9497 9.85686 35.9439C10.3845 36.6009 10.9665 37.2136 11.5969 37.7759C12.0097 38.148 12.4444 38.4957 12.8988 38.8173C12.9641 38.8656 13.0256 38.9328 13.1217 38.9196C13.3748 38.738 13.6077 38.5305 13.8163 38.3004L18.9086 45.422C18.8168 45.5022 18.7147 45.5703 18.605 45.6246C17.7286 46.1291 16.7616 46.4621 15.7571 46.6054C14.7958 46.7287 13.8199 46.6832 12.8747 46.471C11.323 46.1368 9.92412 45.4627 8.60398 44.6153C7.91088 44.1826 7.25096 43.7004 6.62953 43.1724C5.98003 42.6044 5.43525 41.9464 4.90009 41.2789C4.15113 40.3483 3.48233 39.3577 2.90066 38.3174C2.66334 37.9302 2.45485 37.5269 2.25404 37.1207C1.71733 36.0416 1.26757 34.9225 0.908918 33.7739C0.627741 32.881 0.412915 31.969 0.266142 31.0453C0.173287 30.4948 0.109149 29.9399 0.0739817 29.3828C0.0825928 29.2263 0.0573759 29.0698 0 28.9236C0.125865 28.9369 0.100884 29.042 0.109531 29.113C0.176787 29.6527 0.205612 30.1951 0.282476 30.7339C0.545745 32.4703 1.02662 34.1679 1.71407 35.7877C2.07645 36.6379 2.48342 37.469 2.93333 38.2777C2.94005 38.29 2.94774 38.3023 2.95543 38.3146C2.96311 38.3269 2.97368 38.3468 2.98329 38.3629C3.76463 39.697 4.66767 40.9583 5.68122 42.131C6.32784 42.8818 7.08687 43.501 7.89106 44.07C8.65073 44.6123 9.45406 45.0927 10.2931 45.5062C11.3839 46.0519 12.5616 46.4092 13.775 46.5628C15.5121 46.7701 17.1292 46.4123 18.6396 45.5394C18.8077 45.4447 18.7933 45.3566 18.6934 45.2175L16.5604 42.2304C15.7021 41.0312 14.8447 39.8319 13.9883 38.6327C13.8221 38.4008 13.8182 38.4017 13.6146 38.5939C13.4777 38.7373 13.3185 38.8581 13.1428 38.9518H13.1236C13.1079 38.9532 13.0922 38.9532 13.0765 38.9518C12.9917 38.9379 12.9127 38.9005 12.8488 38.8438C10.9272 37.4237 9.33035 35.7318 8.31574 33.5618C7.75022 32.3503 7.40921 31.0488 7.30882 29.7189C7.13876 27.584 7.53653 25.5532 8.34937 23.5792C8.42189 23.4039 8.50764 23.2343 8.6059 23.0717C8.67988 22.9477 8.76443 22.9382 8.84418 23.0717C8.89126 23.1503 8.92969 23.2326 8.971 23.3141C11.0463 27.4009 13.1226 31.4884 15.1999 35.5766C16.1838 37.5145 17.3978 39.3305 18.8163 40.9864C19.7309 42.0695 20.7855 43.0298 21.9534 43.8428C23.1496 44.6617 24.4514 45.2307 25.909 45.4229C27.1225 45.5829 28.2956 45.403 29.437 44.9874C30.5621 44.5774 31.5374 43.9213 32.4463 43.1668C34.1757 41.7296 35.6275 40.0424 36.9861 38.2663C38.4071 36.4107 39.7051 34.4717 41.0272 32.5479C42.2493 30.7679 43.4955 29.0041 44.7349 27.2365C45.549 26.0704 46.4329 24.9531 47.3819 23.8906C48.3293 22.8359 49.3151 21.8134 50.5439 21.0636C51.0801 20.737 51.6383 20.4548 52.3032 20.4615C52.7221 20.4615 53.0814 20.6186 53.4311 20.8118C54.9511 21.6515 56.0532 22.8861 56.89 24.3697C57.7913 25.9612 58.3639 27.6768 58.8529 29.4235C59.2228 30.7433 59.6216 32.0574 59.9723 33.381C60.371 34.8665 61.0292 36.2507 61.6335 37.6575C61.9371 38.3682 62.2686 39.0673 62.6279 39.7546C62.9854 40.4401 63.3149 41.1502 63.8011 41.7561C64.6659 42.8204 65.7896 43.6521 67.0678 44.1741C68.3764 44.728 69.7475 44.8927 71.1502 44.7943C72.4646 44.6996 73.7137 44.3284 74.9204 43.8144C76.1848 43.2608 77.3842 42.5731 78.4975 41.7637C78.8569 41.5075 79.2026 41.2332 79.5332 40.9419L79.5976 40.8851L79.6226 40.8623C80.2125 40.3284 80.6372 39.6694 81.0542 39.0076C82.1447 37.2788 82.8211 35.3872 83.2736 33.4113C83.5319 32.2514 83.7158 31.0767 83.8242 29.8941C83.9337 28.7788 83.9203 27.6597 83.9279 26.5406C83.9264 25.0731 83.8214 23.6075 83.6138 22.1543C83.4429 20.8022 83.079 19.4807 82.5329 18.229C81.9814 16.9916 81.231 15.8952 80.152 15.0441C79.126 14.2158 77.8388 13.7665 76.5125 13.7735C74.7388 13.7735 73.2237 14.4088 71.9006 15.5478C70.8168 16.4813 70.0203 17.6363 69.2642 18.8245C68.8847 19.421 68.5542 20.0449 68.1958 20.6537C68.1345 20.7523 68.0982 20.8639 68.0898 20.9793C68.0815 21.0946 68.1013 21.2102 68.1477 21.3164C68.5119 22.2963 68.8559 23.2847 69.2046 24.2703C69.9012 26.2424 70.6084 28.2098 71.3001 30.1838C71.3092 30.2267 71.3302 30.2664 71.3607 30.2983C71.4414 30.2813 71.4567 30.216 71.4817 30.1649C71.99 29.1726 72.5271 28.1946 73.0526 27.2109C73.9337 25.5655 74.8022 23.9134 75.6929 22.2726C75.8601 21.9659 76.0023 21.6468 76.1877 21.3495C76.231 21.2795 76.2531 21.1602 76.3482 21.1659C74.6841 24.2854 73.0334 27.3757 71.3847 30.465C71.2972 30.4356 71.303 30.3637 71.2838 30.3107C70.2 27.2608 69.1159 24.2091 68.0315 21.1554C68.0063 21.1094 67.9925 21.0581 67.9911 21.0058C67.9898 20.9535 68.001 20.9016 68.0238 20.8544C68.7723 19.4891 69.5486 18.1419 70.5219 16.9158C71.0777 16.1895 71.738 15.5468 72.4819 15.0081C73.5157 14.2838 74.66 13.8228 75.9283 13.7252C77.7779 13.5823 79.3737 14.1693 80.7064 15.4379C81.5365 16.2275 82.1312 17.1771 82.5924 18.2101C83.1449 19.4503 83.4716 20.7512 83.6714 22.0918C83.9856 24.2012 84.0471 26.3248 83.9741 28.4503Z" fill="#FEFEFE"/>
<path d="M79.6428 40.9002C79.5697 41.0384 79.4295 41.1104 79.3151 41.2051C78.4931 41.876 77.6136 42.4753 76.6864 42.9964C75.3791 43.7637 73.9592 44.327 72.4771 44.6664C71.5237 44.8753 70.5433 44.9372 69.5707 44.8501C67.861 44.7052 66.2379 44.0458 64.9214 42.9613C64.4992 42.6218 64.1129 42.2412 63.7684 41.8252C63.5667 41.5584 63.3877 41.2756 63.2332 40.9797C62.532 39.7372 61.9011 38.4575 61.3433 37.1463C60.9148 36.1664 60.5142 35.1903 60.1462 34.1981C60.0328 33.8951 59.9713 33.5742 59.8839 33.2617C59.5486 32.0773 59.2113 30.8948 58.8769 29.7085C58.6512 28.9 58.4167 28.099 58.1371 27.3028C57.6942 26.0502 57.1667 24.8412 56.4298 23.7202C55.6609 22.5276 54.6094 21.5369 53.3658 20.8335C52.6558 20.434 51.9573 20.435 51.2319 20.7616C50.6826 21.0167 50.1688 21.3403 49.7032 21.7245C48.7318 22.5017 47.8854 23.3964 47.0793 24.3318C46.3961 25.1214 45.7572 25.9413 45.1327 26.7754C44.7484 27.2924 44.39 27.832 44.021 28.3622C42.8844 29.9963 41.7363 31.6229 40.615 33.2674C39.3218 35.1609 38.0208 37.0545 36.6037 38.8609C36.0291 39.5893 35.4296 40.2974 34.805 40.9854C34.2814 41.5611 33.7337 42.113 33.1563 42.6337C32.231 43.4688 31.2491 44.2309 30.1077 44.7677C29.3756 45.1182 28.5918 45.3522 27.7854 45.4608C27.3608 45.5246 26.9311 45.5493 26.5018 45.5346C25.5759 45.4816 24.666 45.2729 23.8115 44.9173C22.831 44.4989 21.9158 43.9452 21.0934 43.2728C20.609 42.8904 20.1486 42.4794 19.7147 42.042C18.8156 41.12 17.9933 40.128 17.256 39.0758C16.2491 37.6509 15.4103 36.1323 14.6263 34.5796C12.7104 30.7881 10.7872 27.0011 8.85667 23.2184C8.82596 23.1347 8.77822 23.058 8.71639 22.9931C8.59825 23.189 8.49546 23.3934 8.40893 23.6047C8.00938 24.5455 7.71555 25.5265 7.53268 26.5302C7.45678 26.9459 7.40394 27.3653 7.37031 27.7875C7.34725 28.0895 7.33572 28.3906 7.33188 28.6926C7.31333 30.0394 7.53881 31.3786 7.99771 32.6473C8.43511 33.8368 9.06275 34.9497 9.85686 35.9439C10.3845 36.6009 10.9665 37.2136 11.5969 37.7759C12.0097 38.148 12.4444 38.4957 12.8988 38.8173C12.9641 38.8656 13.0256 38.9328 13.1217 38.9196C13.1232 38.9315 13.1232 38.9436 13.1217 38.9556C13.1063 39.0711 12.9872 39.0985 12.9064 39.1515C12.2281 39.5994 11.4652 39.8067 10.6668 39.9241C8.93738 40.1778 7.25982 39.9071 5.59475 39.4763C4.66757 39.2367 3.81919 38.8135 2.98521 38.3629L2.90546 38.3193C2.66815 37.9321 2.45965 37.5288 2.25884 37.1226C1.72213 36.0435 1.27237 34.9244 0.913722 33.7758C0.632545 32.8829 0.417718 31.9709 0.270946 31.0472C0.178091 30.4967 0.113953 29.9418 0.0787857 29.3847C0.0861449 29.2273 0.0592837 29.0701 0 28.9236L0 27.4713C0.0797465 27.335 0.0730209 27.1778 0.0816681 27.0339C0.132101 26.2583 0.240647 25.4874 0.406419 24.7276C0.616525 23.7292 0.919827 22.7521 1.31245 21.8087C1.79358 20.6456 2.39297 19.5335 3.10147 18.4894C3.56818 17.7944 4.12143 17.1599 4.74828 16.6006C5.71581 15.7409 6.82746 15.1577 8.12262 14.9522C8.67728 14.8713 9.24035 14.8627 9.79729 14.9267C10.5151 15.0007 11.2148 15.1954 11.8659 15.5023C12.44 15.7762 12.9731 16.1266 13.4503 16.5438C14.4111 17.3665 15.1634 18.3549 15.8436 19.403C16.7429 20.789 17.477 22.2603 18.1957 23.743C18.7981 24.9917 19.3582 26.2604 19.9453 27.5168C20.3882 28.4635 20.9339 29.362 21.423 30.2879C21.6959 30.8039 21.9822 31.3133 22.2618 31.8264C22.8882 32.9711 23.5041 34.1214 24.143 35.2594C24.4082 35.7328 24.7877 36.1219 25.1749 36.5015C25.3369 36.6628 25.5131 36.8094 25.7014 36.9399C25.7682 36.9901 25.8486 37.0196 25.9325 37.0246C26.0163 37.0297 26.0997 37.0101 26.1722 36.9683C26.4075 36.8562 26.6242 36.7097 26.815 36.5337C27.3825 36.0128 27.9131 35.4541 28.4032 34.8618C29.8338 33.15 31.1357 31.3445 32.4049 29.5144C33.1883 28.3853 33.9653 27.2507 34.7359 26.1108C35.4987 24.9851 36.3125 23.8954 37.1206 22.7971C37.7797 21.9053 38.4388 21.0128 39.0979 20.1197C39.4332 19.6681 39.8002 19.2411 40.1634 18.8122C40.909 17.9275 41.7035 17.0839 42.5433 16.2853C43.7338 15.1634 45.0039 14.1418 46.4307 13.3219C47.6932 12.5957 49.0316 12.0608 50.4757 11.8137C51.1857 11.6864 51.908 11.6391 52.6289 11.6727C53.9547 11.7427 55.2568 12.0487 56.4721 12.5759C57.8921 13.1948 59.2164 14.0082 60.4056 14.992C61.3514 15.7769 62.2089 16.6596 62.9632 17.625C63.8631 18.7758 64.6379 20.0166 65.2749 21.3268C65.9124 22.6352 66.4478 23.9895 66.8766 25.378C67.2206 26.4744 67.5146 27.584 67.823 28.6917C68.2073 30.0803 68.5916 31.4708 68.9759 32.8631C69.1873 33.6272 69.391 34.3931 69.6158 35.1543C69.6994 35.4143 69.8031 35.6675 69.9262 35.9117C70.1765 36.4726 70.4694 37.0142 70.8024 37.5316C71.0067 37.8344 71.2557 38.1053 71.5413 38.3354C71.5692 38.3454 71.5962 38.3578 71.622 38.3724C71.7481 38.46 71.8618 38.5638 71.9602 38.681C72.8035 39.5207 73.7844 40.2143 74.8618 40.7326C75.5261 41.0478 76.2417 41.2449 76.9756 41.3149C77.7798 41.3829 78.5889 41.2592 79.3343 40.9542C79.4129 40.9085 79.5025 40.8843 79.5938 40.8841C79.6106 40.8876 79.6271 40.893 79.6428 40.9002Z" fill="#22E393"/>
<path d="M57.847 7.61861C57.5017 8.17135 57.0469 8.64982 56.5097 9.02543C55.9725 9.40104 55.364 9.66607 54.7205 9.80469C53.6057 10.0765 52.429 9.94658 51.4029 9.43829C49.9357 8.72159 49.0009 7.55896 48.6723 5.96461C48.5293 5.33178 48.5188 4.67686 48.6414 4.03989C48.7639 3.40291 49.017 2.79725 49.3852 2.25992C50.1942 1.05091 51.3395 0.326631 52.7951 0.0823656C52.9747 0.0520692 53.164 0.0870994 53.3341 0.00378418H53.9327C54.0778 0.0899397 54.2449 0.0549094 54.4006 0.0804721C55.5566 0.259966 56.6114 0.835617 57.3791 1.70607C57.981 2.36964 58.3836 3.18529 58.5416 4.06162C58.7873 5.29118 58.5382 6.5667 57.847 7.61861Z" fill="#22E393"/>
<path d="M83.9742 28.4503C83.8781 31.0539 83.4612 33.6101 82.5522 36.0717C81.9364 37.739 81.0918 39.2831 79.9389 40.6541C79.8638 40.7588 79.7625 40.8426 79.6449 40.8974L79.5334 40.9419C79.1194 41.1159 78.6874 41.2448 78.245 41.3263C77.4401 41.457 76.6154 41.4012 75.8362 41.1634C74.7073 40.8339 73.7273 40.2365 72.8184 39.5142C72.4425 39.2144 72.0836 38.8945 71.7432 38.556C71.6846 38.4983 71.6318 38.4348 71.577 38.3724L71.5453 38.3364C73.3151 37.9766 74.6199 36.9872 75.524 35.4677C76.1062 34.4925 76.4627 33.4331 76.6971 32.3329C77.0603 30.6288 77.1506 28.9028 77.0949 27.1655C77.0629 26.1979 76.9921 25.2328 76.8826 24.2703C76.7673 23.2604 76.6106 22.2597 76.4127 21.2681C76.4028 21.2355 76.3899 21.2038 76.3743 21.1734L76.3637 21.1479C76.3637 21.1554 76.356 21.163 76.3512 21.1706C74.6871 24.2902 73.0365 27.3804 71.3877 30.4697C71.3003 30.4404 71.3061 30.3684 71.2868 30.3154C70.2011 27.2624 69.1161 24.2091 68.0316 21.1554C68.0065 21.1094 67.9927 21.0581 67.9913 21.0058C67.99 20.9535 68.0012 20.9016 68.024 20.8544C68.7724 19.4891 69.5488 18.1419 70.522 16.9158C71.0779 16.1895 71.7381 15.5468 72.4821 15.0081C73.5159 14.2838 74.6602 13.8228 75.9285 13.7252C77.778 13.5823 79.3739 14.1693 80.7065 15.4379C81.5367 16.2275 82.1314 17.1771 82.5926 18.2101C83.1451 19.4503 83.4717 20.7512 83.6716 22.0918C83.9858 24.2012 84.0472 26.3248 83.9742 28.4503Z" fill="#3830C9"/>
<path d="M62.5889 44.5926C62.5901 44.6094 62.5864 44.6262 62.5782 44.6409C62.57 44.6557 62.5578 44.6678 62.5428 44.6759C61.3014 45.6511 59.9823 46.5022 58.518 47.1205C57.3004 47.6524 55.9913 47.9512 54.6604 48.001C52.4698 48.0616 50.4809 47.4499 48.6948 46.2021C47.5053 45.3709 46.5185 44.3389 45.6327 43.2065C44.791 42.1329 44.057 40.9883 43.3479 39.8285C42.8175 38.9603 42.2401 38.1243 41.6992 37.259C41.5454 37.0128 41.5435 36.8481 41.7059 36.5962C43.4853 33.8935 45.2564 31.1852 47.0191 28.4711C47.0593 28.3898 47.1136 28.3161 47.1796 28.2534C47.2393 28.3131 47.2881 28.3826 47.3237 28.4588C49.0653 31.3269 50.8069 34.1952 52.5485 37.0639C52.9665 37.7551 53.5997 38.1215 54.3741 38.2805C54.6912 38.3424 55.0177 38.3424 55.3349 38.2805C55.6463 38.2314 55.9421 38.1126 56.1996 37.9331C56.7341 37.5506 57.2393 37.1297 57.7109 36.6739C57.8243 36.5631 57.9338 36.4485 58.0472 36.333C58.106 36.4123 58.1478 36.5025 58.1702 36.5981C58.8706 38.5078 59.695 40.3606 60.7528 42.1064C61.2804 42.9926 61.8954 43.8254 62.5889 44.5926Z" fill="#3830C9"/>
<path d="M38.46 16.4633C37.4578 17.6212 36.4663 18.7819 35.4949 19.9597C34.5236 21.1375 33.5666 22.3266 32.6404 23.5763C32.3654 23.3077 32.0768 23.053 31.7757 22.8132C31.4129 22.5206 31.0098 22.2803 30.5785 22.0994C30.4642 22.0464 30.3366 22.0276 30.2115 22.0454C30.0865 22.0633 29.9695 22.1169 29.8752 22.1997C29.4521 22.5401 29.0896 22.9478 28.8029 23.4059C28.3651 24.1 27.9966 24.8344 27.7028 25.5986C27.1004 27.0973 26.6459 28.6444 26.229 30.2008C26.032 30.928 25.8446 31.6589 25.6525 32.3926C25.5641 32.3699 25.5564 32.2979 25.5218 32.2392C23.6732 29.0126 21.8253 25.7861 19.978 22.5595C19.8041 22.2565 19.633 21.9526 19.4563 21.6516C19.4299 21.6151 19.414 21.5723 19.4101 21.5277C19.4062 21.483 19.4145 21.4382 19.4342 21.3978C20.2806 19.5119 21.3145 17.7424 22.7681 16.237C23.9932 14.9693 25.4152 13.9866 27.0985 13.3967C29.1709 12.6734 31.253 12.6971 33.3341 13.3655C34.8781 13.8625 36.2472 14.673 37.5126 15.6633C37.8306 15.9142 38.1439 16.1688 38.46 16.4633Z" fill="#3830C9"/>
<path d="M12.1832 6.35373C12.1908 7.01062 12.0659 7.66246 11.8158 8.2714C11.5656 8.88033 11.1951 9.43421 10.7259 9.90088C10.2567 10.3675 9.69803 10.7377 9.08241 10.9898C8.46679 11.242 7.80647 11.3711 7.13979 11.3696C6.47312 11.3682 5.81337 11.2362 5.19888 10.9814C4.58439 10.7266 4.0274 10.3541 3.56026 9.88538C3.09312 9.41668 2.72513 8.8612 2.47768 8.25119C2.23023 7.64118 2.10824 6.98881 2.1188 6.33195C2.1236 3.58633 4.42472 1.3586 7.15051 1.4012C9.89648 1.35292 12.188 3.63841 12.1832 6.35373Z" fill="#22E393"/>
<path d="M82.1327 6.35847C82.1305 7.01257 81.997 7.65977 81.7399 8.26282C81.4828 8.86586 81.1072 9.41284 80.6347 9.87227C80.1622 10.3317 79.6021 10.6945 78.9868 10.9398C78.3714 11.1851 77.7129 11.308 77.0491 11.3015C74.3013 11.2949 72.0626 9.06149 72.0674 6.33007C72.0712 5.01482 72.6051 3.75494 73.5516 2.82758C74.4981 1.90022 75.7797 1.38136 77.1145 1.38512C78.4492 1.38889 79.7278 1.91498 80.6689 2.84767C81.61 3.78035 82.1366 5.04323 82.1327 6.35847Z" fill="#3830C9"/>
<path d="M36.8281 6.33289C36.8344 7.64839 36.31 8.91246 35.3705 9.847C34.9052 10.3097 34.3521 10.6777 33.7425 10.9297C33.133 11.1818 32.4791 11.3131 31.818 11.3162C30.483 11.3223 29.2002 10.8057 28.2518 9.87981C27.3034 8.95396 26.7671 7.69478 26.7609 6.37928C26.7426 3.7113 28.9342 1.3851 31.7935 1.38794C33.1264 1.38643 34.4054 1.90642 35.3495 2.83364C36.2935 3.76087 36.8253 5.01947 36.8281 6.33289Z" fill="#3830C9"/>
<path d="M18.9054 45.422C18.8136 45.5022 18.7115 45.5704 18.6018 45.6246C17.7263 46.1288 16.7604 46.4618 15.7569 46.6054C14.7956 46.7287 13.8197 46.6832 12.8745 46.471C11.3228 46.1368 9.92385 45.4627 8.60371 44.6153C7.91061 44.1826 7.25069 43.7004 6.62926 43.1725C5.97976 42.6044 5.43499 41.9464 4.89982 41.2789C4.15086 40.3483 3.48206 39.3577 2.90039 38.3175C2.91714 38.3122 2.93484 38.3106 2.95227 38.3127C3.00891 38.3271 3.06256 38.3511 3.11081 38.3837C3.43075 38.5305 3.75454 38.6678 4.06488 38.8353C4.63494 39.1207 5.23788 39.3372 5.86062 39.4801C7.12984 39.8001 8.41539 39.997 9.72977 39.9535C10.5598 39.9348 11.3803 39.7747 12.1548 39.4801C12.4842 39.3501 12.7939 39.1761 13.0753 38.9631L13.1243 38.9262C13.3774 38.7447 13.6103 38.5371 13.8189 38.307L18.9054 45.422Z" fill="#3830C9"/>
</g>
<defs>
<clipPath id="clip0_1_5848">
<rect width="84" height="48" fill="white"/>
</clipPath>
</defs>
</svg>
