<svg width="49" height="48" viewBox="0 0 49 48" fill="none" xmlns="http://www.w3.org/2000/svg">
<g clip-path="url(#clip0_1_7493)">
<path d="M6.04228 6.09276L5.58944 10.4012L9.89787 10.8541L14.2063 11.3069L14.6591 6.99843L15.112 2.68997L10.8035 2.23714L6.49512 1.7843L6.04228 6.09276ZM13.4282 6.86905L13.1047 9.94653L10.0272 9.62308L6.94981 9.29963L7.27327 6.22214L7.59672 3.14468L10.6742 3.46813L13.7516 3.79159L13.4282 6.86905Z" fill="white"/>
<path d="M8.50514 6.35062L8.31107 8.1971L10.1575 8.39118L12.004 8.58525L12.1981 6.73877L12.3922 4.89226L10.5457 4.69819L8.69922 4.50412L8.50514 6.35062Z" fill="white"/>
<path d="M18.6743 4.30892L18.5449 5.53993L19.1604 5.60462L19.7759 5.66931L19.9053 4.43831L20.0347 3.20732L19.4192 3.14263L18.8037 3.07794L18.6743 4.30892Z" fill="white"/>
<path d="M21.2022 3.95237L21.1375 4.56787L21.753 4.63256L22.3685 4.69725L22.3038 5.31275L22.2391 5.92823L21.6236 5.86354L21.0081 5.79885L20.8787 7.02985L20.7494 8.26083L21.9803 8.39021L23.2113 8.51959L23.1466 9.13509L23.0819 9.75059L21.2355 9.55652L19.389 9.36245L19.3243 9.97793L19.2596 10.5934L18.6441 10.5287L18.0286 10.4641L18.158 9.23307L18.2874 8.00207L18.9029 8.06676L19.5184 8.13145L19.5831 7.51595L19.6478 6.90047L17.8013 6.7064L15.9548 6.51233L15.8901 7.12781L15.8254 7.74331L16.4409 7.808L17.0564 7.87269L16.9917 8.48819L16.927 9.10369L16.3115 9.039L15.6961 8.97431L15.5667 10.2053L15.4373 11.4363L16.0528 11.501L16.6683 11.5657L16.6036 12.1812L16.5389 12.7967L14.6924 12.6026L12.8459 12.4085L12.7813 13.024L12.7166 13.6395L15.1785 13.8983L17.6405 14.157L17.5111 15.388L17.3817 16.619L17.9972 16.6837L18.6127 16.7484L18.7421 15.5174L18.8715 14.2864L19.487 14.3511L20.1025 14.4158L20.0378 15.0313L19.9731 15.6468L20.5885 15.7115L21.204 15.7762L21.2687 15.1607L21.3334 14.5452L21.9489 14.6098L22.5644 14.6745L22.3703 16.521L22.1763 18.3675L21.5608 18.3028L20.9453 18.2381L21.01 17.6226L21.0747 17.0071L20.4592 16.9424L19.8437 16.8778L19.7143 18.1088L19.5849 19.3397L20.8159 19.4691L22.0469 19.5985L21.9822 20.214L21.9175 20.8295L22.533 20.8942L23.1485 20.9589L23.0191 22.1899L22.8897 23.4208L21.6587 23.2915L20.4278 23.1621L20.3631 23.7775L20.2984 24.3931L19.6829 24.3284L19.0674 24.2637L19.1968 23.0327L19.3262 21.8017L19.9416 21.8664L20.5571 21.9311L20.6218 21.3156L20.6865 20.7001L18.84 20.506L16.9936 20.312L17.0583 19.6965L17.123 19.081L17.7384 19.1457L18.3539 19.2104L18.4186 18.5949L18.4833 17.9794L17.2523 17.85L16.0214 17.7206L15.8273 19.5671L15.6332 21.4136L15.0177 21.3489L14.4022 21.2842L14.4669 20.6687L14.5316 20.0532L13.3006 19.9238L12.0697 19.7944L12.1343 19.179L12.199 18.5635L13.43 18.6928L14.661 18.8222L14.7257 18.2067L14.7904 17.5912L11.0974 17.2031L7.40449 16.8149L7.59856 14.9684L7.79264 13.122L8.40813 13.1867L9.02363 13.2513L8.95894 13.8668L8.89424 14.4823L9.50972 14.547L10.1252 14.6117L10.0605 15.2272L9.99583 15.8427L13.0733 16.1662L16.1507 16.4896L16.2154 15.8741L16.2801 15.2586L13.8182 14.9999L11.3562 14.7411L11.4856 13.5101L11.615 12.2791L8.53751 11.9557L5.46006 11.6322L5.33068 12.8632L5.20129 14.0942L5.81679 14.1589L6.43228 14.2236L6.3029 15.4546L6.17352 16.6856L5.55802 16.6209L4.94253 16.5562L4.87784 17.1717L4.81315 17.7872L6.04413 17.9165L7.27511 18.0459L7.21041 18.6614L7.14572 19.2769L7.76122 19.3416L8.37672 19.4063L8.31203 20.0218L8.24733 20.6373L7.01634 20.5079L5.78537 20.3785L5.85006 19.763L5.91475 19.1475L5.29926 19.0828L4.68377 19.0181L4.61908 19.6336L4.55438 20.2491L5.16988 20.3138L5.78537 20.3785L5.72068 20.994L5.65599 21.6095L5.04049 21.5448L4.425 21.4801L4.36031 22.0956L4.29561 22.7112L5.5266 22.8406L6.75757 22.9699L6.69289 23.5853L6.62819 24.2009L5.39722 24.0715L4.16624 23.9421L3.7134 28.2506L3.26056 32.5591L3.87605 32.6238L4.49155 32.6884L4.7503 30.2265L5.00908 27.7644L5.62456 27.8291L6.24006 27.8938L6.30473 27.2784L6.36943 26.6628L6.98493 26.7275L7.60043 26.7922L7.53573 27.4078L7.47105 28.0232L8.70202 28.1525L9.93299 28.2819L9.99767 27.6665L10.0624 27.051L8.8314 26.9216L7.60043 26.7922L7.79451 24.9456L7.98856 23.0993L8.60404 23.164L9.21954 23.2287L9.15486 23.8441L9.09016 24.4597L9.70565 24.5243L10.3211 24.589L10.2565 25.2044L10.1917 25.82L11.4227 25.9494L12.6537 26.0788L12.589 26.6943L12.5243 27.3097L11.9089 27.245L11.2934 27.1803L11.2287 27.7959L11.164 28.4113L12.395 28.5407L13.6259 28.6701L13.82 26.8237L14.0141 24.9772L14.6296 25.0419L15.2451 25.1066L15.3098 24.491L15.3744 23.8756L17.2209 24.0697L19.0674 24.2637L19.0027 24.8791L18.938 25.4947L19.5535 25.5594L20.169 25.6241L20.2337 25.0085L20.2984 24.3931L21.5293 24.5225L22.7603 24.6519L22.825 24.0363L22.8897 23.4208L24.1207 23.5502L25.3516 23.6796L25.2869 24.2951L25.2222 24.9106L24.6068 24.846L23.9913 24.7813L23.9266 25.3966L23.8619 26.0122L22.6309 25.8829L21.4 25.7535L21.2706 26.9844L21.1412 28.2154L20.5257 28.1507L19.9102 28.086L19.9749 27.4706L20.0396 26.855L19.4241 26.7904L18.8086 26.7257L18.6793 27.9566L18.5499 29.1876L19.7808 29.317L21.0118 29.4463L20.9471 30.0619L20.8824 30.6773L18.4205 30.4185L15.9585 30.1598L15.8938 30.7754L15.8291 31.391L15.2136 31.3263L14.5981 31.2616L14.6628 30.646L14.7275 30.0304L12.8811 29.8363L11.0346 29.6423L10.9699 30.2578L10.9052 30.8734L11.5207 30.9381L12.1362 31.0028L12.0715 31.6182L12.0068 32.2338L11.3913 32.1691L10.7758 32.1044L10.7111 32.7198L10.6464 33.3353L11.2619 33.4L11.8774 33.4647L11.9421 32.8491L12.0068 32.2338L12.6223 32.2985L13.2378 32.3632L13.0437 34.2095L12.8497 36.056L14.0806 36.1854L15.3116 36.3148L14.9882 39.3923L14.6647 42.4698L16.5112 42.6639L18.3576 42.8579L18.293 43.4733L18.2283 44.0889L21.3057 44.4124L24.3833 44.7358L24.448 44.1202L24.5126 43.5049L23.8971 43.4402L23.2815 43.3755L23.3462 42.7599L23.4109 42.1445L24.642 42.2739L25.873 42.4033L25.9377 41.7877L26.0023 41.1723L27.2333 41.3017L28.4642 41.4311L28.5289 40.8155L28.5936 40.1999L27.3627 40.0705L26.1317 39.9412L26.067 40.5567L26.0023 41.1723L24.7714 41.0429L23.5402 40.9135L23.6049 40.298L23.6696 39.6824L24.2852 39.7471L24.9008 39.8118L24.9655 39.1964L25.0302 38.5808L25.6455 38.6455L26.2611 38.7102L26.3258 38.0948L26.3905 37.4792L25.7749 37.4145L25.1596 37.3499L25.2242 36.7345L25.2889 36.1189L26.5199 36.2483L27.7508 36.3777L27.6215 37.6086L27.4921 38.8396L29.954 39.0983L32.4159 39.3571L32.3512 39.9727L32.2865 40.588L31.6711 40.5234L31.0555 40.4587L30.9908 41.0742L30.9261 41.6898L30.3108 41.6252L29.6952 41.5605L29.6305 42.1758L29.5658 42.7914L28.3349 42.662L27.1039 42.5327L27.0392 43.148L26.9745 43.7636L28.2055 43.893L29.4364 44.0224L29.3718 44.6377L29.3071 45.2533L31.1536 45.4474L33.0001 45.6415L33.0648 45.0259L33.1295 44.4105L33.7449 44.4752L34.3605 44.5399L34.2958 45.1553L34.2311 45.7709L35.462 45.9002L36.693 46.0296L36.7577 45.414L36.8223 44.7987L36.2068 44.734L35.5914 44.6693L35.7208 43.4383L35.8502 42.2074L35.2346 42.1427L34.6192 42.078L34.5545 42.6934L34.4898 43.309L33.8742 43.2443L33.2589 43.1796L33.3236 42.564L33.3883 41.9486L32.7727 41.8839L32.1571 41.8192L32.2218 41.2036L32.2865 40.588L34.7486 40.8468L37.2105 41.1056L37.1458 41.7212L37.0811 42.3367L38.3121 42.4661L39.543 42.5955L39.4783 43.2109L39.4136 43.8265L38.7983 43.7618L38.1827 43.6971L38.118 44.3125L38.0533 44.928L39.2843 45.0574L40.5152 45.1868L40.4505 45.8022L40.3858 46.4178L41.0014 46.4825L41.617 46.5472L41.6817 45.9316L41.7464 45.3162L41.1308 45.2515L40.5152 45.1868L40.5799 44.5712L40.6446 43.9558L41.2602 44.0205L41.8757 44.0852L41.9404 43.4697L42.0051 42.8543L40.774 42.7249L39.543 42.5955L39.6077 41.9799L39.6724 41.3643L39.057 41.2997L38.4415 41.235L38.5061 40.6196L38.5708 40.004L39.8018 40.1334L41.0327 40.2627L40.968 40.8783L40.9034 41.4937L41.5189 41.5584L42.1345 41.6231L42.3286 39.7768L42.5227 37.9302L43.138 37.9949L43.7536 38.0596L43.883 36.8286L44.0124 35.5977L43.3968 35.533L42.7814 35.4683L42.652 36.6993L42.5227 37.9302L41.9071 37.8655L41.2915 37.8008L41.3562 37.1852L41.4209 36.5699L40.8055 36.5052L40.1899 36.4405L40.2546 35.8249L40.3193 35.2095L40.9349 35.2742L41.5503 35.3389L41.615 34.7233L41.6796 34.108L42.2952 34.1727L42.9108 34.2374L42.9755 33.6218L43.0402 33.0062L43.6556 33.0709L44.2711 33.1356L44.3358 32.5202L44.4005 31.9046L43.7849 31.8399L43.1696 31.7752L43.2343 31.1598L43.299 30.5443L42.6834 30.4796L42.0678 30.4149L42.1325 29.7995L42.1972 29.1839L42.8128 29.2486L43.4283 29.3133L43.493 28.6977L43.5577 28.0823L44.1731 28.147L44.7887 28.2117L44.8534 27.5961L44.918 26.9808L44.3025 26.9161L43.6871 26.8514L43.7518 26.2358L43.8165 25.6203L43.2009 25.5556L42.5853 25.4909L42.65 24.8755L42.7147 24.26L43.3303 24.3247L43.9459 24.3894L44.0106 23.7739L44.0752 23.1584L44.6906 23.223L45.3062 23.2877L45.3709 22.6723L45.4356 22.0568L44.2046 21.9274L42.9735 21.798L42.8441 23.029L42.7147 24.26L42.0993 24.1953L41.4838 24.1306L41.4191 24.7461L41.3544 25.3616L41.97 25.4263L42.5853 25.4909L42.3913 27.3374L42.1972 29.1839L41.5818 29.1192L40.9662 29.0545L41.0956 27.8236L41.225 26.5926L40.6096 26.5279L39.994 26.4632L40.0587 25.8476L40.1234 25.2322L38.8925 25.1028L37.6615 24.9734L37.7262 24.3579L37.7909 23.7424L37.1753 23.6777L36.56 23.6131L36.6246 22.9976L36.6893 22.3821L37.3047 22.4467L37.9203 22.5114L37.985 21.896L38.0497 21.2805L39.8962 21.4745L41.7425 21.6686L41.8072 21.0531L41.8719 20.4376L42.4875 20.5023L43.1028 20.567L43.1675 19.9515L43.2322 19.336L43.8478 19.4007L44.4634 19.4654L44.5281 18.8499L44.5928 18.2344L45.2081 18.2991L45.8237 18.3638L45.8884 17.7483L45.9531 17.1328L45.3375 17.0681L44.7222 17.0034L44.7868 16.3879L44.8515 15.7724L44.236 15.7077L43.6204 15.643L43.5557 16.2585L43.491 16.874L42.8756 16.8093L42.26 16.7446L42.3247 16.1292L42.3894 15.5137L41.7741 15.449L41.1585 15.3843L41.0938 15.9998L41.0291 16.6153L41.6447 16.68L42.26 16.7446L42.1954 17.3601L42.1307 17.9756L40.8997 17.8463L39.6688 17.7169L39.5394 18.9479L39.41 20.1789L38.7944 20.1142L38.179 20.0495L38.3731 18.203L38.5672 16.3565L39.1826 16.4212L39.7981 16.4859L39.8628 15.8704L39.9275 15.2549L39.3119 15.1902L38.6966 15.1255L38.6319 15.741L38.5672 16.3565L37.9516 16.2918L37.3362 16.2271L37.4009 15.6116L37.4656 14.9961L36.85 14.9314L36.2347 14.8668L36.17 15.4823L36.1053 16.0977L36.7207 16.1624L37.3362 16.2271L37.2716 16.8426L37.2069 17.4581L36.5913 17.3934L35.9759 17.3287L35.9112 17.9442L35.8465 18.5597L34.6154 18.4303L33.3844 18.3009L33.4491 17.6854L33.5138 17.07L34.1294 17.1347L34.7447 17.1993L34.8094 16.5838L34.8741 15.9683L34.2588 15.9037L33.6432 15.839L33.5785 16.4545L33.5138 17.07L32.8984 17.0053L32.2828 16.9406L32.2182 17.5561L32.1535 18.1716L30.9225 18.0422L29.6916 17.9128L29.6269 18.5283L29.5622 19.1438L28.9466 19.0791L28.3312 19.0144L28.2665 19.6299L28.2019 20.2454L27.5863 20.1807L26.9709 20.116L27.0356 19.5005L27.1003 18.8851L26.4847 18.8204L25.8691 18.7557L25.8044 19.3711L25.7397 19.9866L25.1244 19.922L24.5088 19.8573L24.4441 20.4728L24.3794 21.0882L23.764 21.0236L23.1485 20.9589L23.2779 19.7279L23.4072 18.4969L24.0227 18.5616L24.6382 18.6263L24.7029 18.0108L24.7676 17.3953L25.3831 17.46L25.9985 17.5247L26.0632 16.9092L26.1279 16.2937L26.7435 16.3584L27.359 16.4231L27.4237 15.8076L27.4884 15.1921L28.1038 15.2568L28.7194 15.3215L28.6547 15.937L28.59 16.5525L29.8209 16.6818L31.0519 16.8112L31.1813 15.5802L31.3107 14.3492L32.5416 14.4786L33.7726 14.608L33.9666 12.7615L34.1607 10.915L34.7763 10.9797L35.3917 11.0444L35.2623 12.2754L35.1329 13.5064L35.7485 13.5711L36.3641 13.6358L36.4934 12.4048L36.6228 11.1738L36.0072 11.1091L35.3917 11.0444L35.4564 10.4289L35.521 9.8134L36.1366 9.8781L36.7522 9.9428L36.8169 9.3273L36.8816 8.71182L36.266 8.64712L35.6504 8.58242L35.7151 7.96692L35.7798 7.35142L35.1644 7.28674L34.5489 7.22204L34.4842 7.83754L34.4195 8.45304L33.8041 8.38836L33.1885 8.32366L33.2532 7.70816L33.3179 7.09266L32.7025 7.02798L32.087 6.96328L32.1516 6.3478L32.2163 5.7323L34.0629 5.92638L35.9092 6.12044L35.9739 5.50494L36.0386 4.88944L31.7301 4.43661L27.4217 3.98378L27.357 4.59927L27.2923 5.21477L27.9079 5.27947L28.5235 5.34417L28.4588 5.95967L28.3941 6.57515L29.0095 6.63983L29.6251 6.70453L29.4957 7.93553L29.3663 9.16651L28.7507 9.10181L28.1353 9.03713L28.2 8.42163L28.2647 7.80615L27.6491 7.74145L27.0336 7.67675L27.0983 7.06125L27.1629 6.44575L26.5476 6.38107L25.932 6.31637L25.9967 5.70089L26.0614 5.08539L24.8304 4.95601L23.5995 4.82663L23.6641 4.21113L23.7288 3.59564L22.4979 3.46626L21.2669 3.33688L21.2022 3.95237ZM30.9207 6.21842L30.856 6.8339L30.2404 6.7692L29.6251 6.70453L29.6897 6.08905L29.7544 5.47354L30.3698 5.53822L30.9854 5.60292L30.9207 6.21842ZM24.6364 6.80249L24.5717 7.418L23.3407 7.28861L22.1097 7.15923L22.1744 6.54373L22.2391 5.92823L23.4701 6.05761L24.7011 6.18699L24.6364 6.80249ZM33.1238 8.93914L33.0591 9.55464L33.6747 9.61934L34.2901 9.68402L34.2254 10.2995L34.1607 10.915L33.5453 10.8503L32.9298 10.7856L32.9945 10.1701L33.0591 9.55464L32.4438 9.48996L31.8282 9.42526L31.7635 10.0408L31.6988 10.6563L31.0832 10.5916L30.4679 10.5269L30.3385 11.7579L30.2091 12.9888L30.8245 13.0535L31.44 13.1182L31.5047 12.5027L31.5694 11.8872L32.185 11.9519L32.8004 12.0166L32.7357 12.6321L32.671 13.2476L32.0556 13.1829L31.44 13.1182L31.3754 13.7337L31.3107 14.3492L30.6951 14.2845L30.0797 14.2199L30.015 14.8354L29.9503 15.4508L29.3348 15.3861L28.7194 15.3215L28.7841 14.706L28.8488 14.0905L29.4641 14.1552L30.0797 14.2199L30.1444 13.6043L30.2091 12.9888L29.5935 12.9241L28.9781 12.8595L29.0428 12.244L29.1075 11.6285L28.4919 11.5638L27.8766 11.4991L27.7472 12.7301L27.6178 13.9611L25.7713 13.767L23.9248 13.5729L24.0542 12.3419L24.1835 11.111L23.568 11.0463L22.9525 10.9816L22.8232 12.2126L22.6938 13.4436L22.0783 13.3789L21.4628 13.3142L21.3981 13.9297L21.3334 14.5452L20.7179 14.4805L20.1025 14.4158L20.2318 13.1848L20.3612 11.9538L19.7457 11.8891L19.1302 11.8244L19.1949 11.2089L19.2596 10.5934L19.8751 10.6581L20.4906 10.7228L20.4259 11.3383L20.3612 11.9538L20.9767 12.0185L21.5922 12.0832L21.6569 11.4677L21.7216 10.8522L22.3371 10.9169L22.9525 10.9816L23.0172 10.3661L23.0819 9.75059L23.6974 9.81529L24.3129 9.87998L24.3776 9.26448L24.4423 8.64898L25.0578 8.71367L25.6733 8.77836L25.6086 9.39386L25.5439 10.0094L24.9284 9.94467L24.3129 9.87998L24.2482 10.4955L24.1835 11.111L24.799 11.1756L25.4145 11.2403L25.3498 11.8558L25.2851 12.4713L25.9007 12.536L26.516 12.6007L26.7101 10.7542L26.9042 8.90773L27.5198 8.97243L28.1353 9.03713L28.0707 9.65263L28.006 10.2681L29.2369 10.3975L30.4679 10.5269L30.5326 9.91139L30.5972 9.29589L31.2126 9.36056L31.8282 9.42526L31.8929 8.80976L31.9576 8.19428L32.5732 8.25898L33.1885 8.32366L33.1238 8.93914ZM17.9639 11.0796L17.8993 11.695L17.2838 11.6303L16.6683 11.5657L16.733 10.9502L16.7976 10.3347L17.4131 10.3994L18.0286 10.4641L17.9639 11.0796ZM18.9362 13.6709L18.8715 14.2864L18.256 14.2217L17.6405 14.157L17.7052 13.5415L17.7699 12.926L18.3853 12.9907L19.0008 13.0554L18.9362 13.6709ZM24.9617 15.5488L24.897 16.1643L24.2815 16.0996L23.666 16.0349L23.7307 15.4194L23.7954 14.8039L24.4109 14.8686L25.0264 14.9333L24.9617 15.5488ZM43.2969 18.7205L43.2322 19.336L42.6169 19.2713L42.0013 19.2066L41.9366 19.8221L41.8719 20.4376L41.2565 20.3729L40.6409 20.3082L40.7056 19.6927L40.7703 19.0772L41.3859 19.1419L42.0013 19.2066L42.066 18.5911L42.1307 17.9756L42.7462 18.0403L43.3616 18.105L43.2969 18.7205ZM31.9594 20.0181L31.8947 20.6336L32.5103 20.6983L33.1257 20.7629L33.1903 20.1474L33.255 19.5319L34.486 19.6613L35.7171 19.7907L35.6525 20.4062L35.5878 21.0217L36.2031 21.0864L36.8187 21.1511L36.8834 20.5356L36.9481 19.9201L37.5635 19.9848L38.179 20.0495L38.1144 20.665L38.0497 21.2805L37.4341 21.2158L36.8187 21.1511L36.754 21.7666L36.6893 22.3821L36.0738 22.3174L35.4584 22.2527L35.329 23.4837L35.1996 24.7147L34.584 24.65L33.9685 24.5853L34.0331 23.9698L34.0978 23.3543L32.8669 23.2249L31.6359 23.0955L31.7653 21.8645L31.8947 20.6336L30.6638 20.5042L29.4328 20.3748L29.4975 19.7593L29.5622 19.1438L30.7931 19.2732L32.0241 19.4026L31.9594 20.0181ZM10.9034 19.0496L10.8387 19.6651L9.60769 19.5357L8.37672 19.4063L8.44141 18.7908L8.5061 18.1753L9.73707 18.3047L10.968 18.4341L10.9034 19.0496ZM26.9062 20.7315L26.8415 21.347L26.2259 21.2823L25.6104 21.2176L25.5457 21.8331L25.481 22.4486L26.7121 22.578L27.9431 22.7074L28.0078 22.0919L28.0725 21.4764L28.6878 21.5411L29.3034 21.6058L29.2387 22.2213L29.174 22.8368L29.7894 22.9015L30.405 22.9662L30.3403 23.5817L30.2756 24.1971L30.8912 24.2618L31.5066 24.3265L31.4419 24.942L31.3772 25.5576L30.1462 25.4282L28.9153 25.2988L28.98 24.6832L29.0447 24.0678L28.4291 24.0031L27.8137 23.9384L27.749 24.5538L27.6843 25.1694L27.0687 25.1047L26.4534 25.04L26.5181 24.4245L26.5828 23.809L25.9672 23.7443L25.3516 23.6796L25.4163 23.0641L25.481 22.4486L24.8656 22.3839L24.2501 22.3192L24.3148 21.7037L24.3794 21.0882L24.995 21.1529L25.6104 21.2176L25.6751 20.6021L25.7397 19.9866L26.3553 20.0513L26.9709 20.116L26.9062 20.7315ZM9.41361 21.3822L9.34892 21.9977L8.73343 21.933L8.11795 21.8683L8.05327 22.4837L7.98856 23.0993L7.37307 23.0346L6.75757 22.9699L6.82227 22.3543L6.88696 21.7389L7.50246 21.8036L8.11795 21.8683L8.18264 21.2528L8.24733 20.6373L8.86281 20.702L9.47831 20.7667L9.41361 21.3822ZM13.1065 21.7703L13.0419 22.3858L12.4264 22.3211L11.8109 22.2564L11.7462 22.8719L11.6815 23.4875L12.297 23.5522L12.9125 23.6168L12.8478 24.2322L12.7831 24.8478L11.5521 24.7184L10.3211 24.589L10.4505 23.3581L10.5799 22.127L11.1954 22.1917L11.8109 22.2564L11.8756 21.6409L11.9403 21.0254L12.5558 21.0901L13.1712 21.1548L13.1065 21.7703ZM16.7995 22.1585L16.7348 22.7739L16.1193 22.7093L15.5038 22.6446L15.4391 23.26L15.3744 23.8756L14.7589 23.8109L14.1435 23.7462L14.2082 23.1306L14.2729 22.5152L14.8883 22.5799L15.5038 22.6446L15.5685 22.0291L15.6332 21.4136L16.2487 21.4783L16.8642 21.543L16.7995 22.1585ZM37.5968 25.5889L37.5321 26.2045L38.7631 26.3338L39.994 26.4632L39.9294 27.0786L39.8647 27.6942L38.6337 27.5648L37.4028 27.4354L37.4675 26.8198L37.5321 26.2045L36.9165 26.1398L36.3012 26.0751L36.2365 26.6905L36.1718 27.3061L35.5562 27.2414L34.9409 27.1767L34.8762 27.792L34.8115 28.4076L36.6578 28.6017L38.5043 28.7958L38.4396 29.4114L38.3749 30.0267L37.7594 29.962L37.144 29.8973L37.0793 30.5129L37.0146 31.1283L36.399 31.0636L35.7837 30.9989L35.719 31.6145L35.6543 32.2299L36.8852 32.3593L38.1162 32.4886L38.1809 31.8733L38.2456 31.2577L38.8611 31.3224L39.4765 31.3871L39.6059 30.1561L39.7353 28.9251L40.3509 28.9898L40.9662 29.0545L40.9015 29.6701L40.8368 30.2855L41.4524 30.3502L42.0678 30.4149L41.8737 32.2614L41.6796 34.108L41.0643 34.0433L40.4487 33.9786L40.5781 32.7474L40.7075 31.5164L40.0921 31.4518L39.4765 31.3871L39.3471 32.618L39.2177 33.8492L37.9868 33.7198L36.7558 33.5904L36.6912 34.2058L36.6265 34.8214L36.0109 34.7567L35.3955 34.692L35.5249 33.4611L35.6543 32.2299L35.0387 32.1652L34.4233 32.1005L34.2939 33.3317L34.1646 34.5626L33.549 34.4979L32.9334 34.4332L32.9981 33.8177L33.0628 33.2023L32.4474 33.1376L31.8318 33.0729L31.7671 33.6883L31.7024 34.3039L31.0871 34.2392L30.4715 34.1745L30.4068 34.7899L30.3421 35.4054L29.7267 35.3408L29.1112 35.2761L29.1759 34.6605L29.2405 34.0451L29.8561 34.1098L30.4715 34.1745L30.6009 32.9435L30.7303 31.7124L31.9612 31.8417L33.1922 31.9711L33.2569 31.3557L33.3216 30.7402L34.5527 30.8696L35.7837 30.9989L35.8483 30.3836L35.913 29.768L33.4509 29.5092L30.989 29.2504L30.9243 29.866L30.8597 30.4814L28.3978 30.2226L25.9359 29.9639L26.0005 29.3485L26.0652 28.7329L24.2187 28.5388L22.3722 28.3448L22.4369 27.7294L22.5016 27.1138L23.1171 27.1785L23.7325 27.2432L23.7972 26.6276L23.8619 26.0122L24.4775 26.0769L25.0928 26.1416L25.0282 26.757L24.9635 27.3726L25.579 27.4373L26.1946 27.502L26.2593 26.8864L26.324 26.271L27.5549 26.4004L28.7859 26.5298L28.7212 27.1451L28.6565 27.7607L29.2719 27.8254L29.8875 27.8901L29.8228 28.5057L29.7581 29.1211L30.3737 29.1858L30.989 29.2504L31.1184 28.0195L31.2478 26.7885L33.0943 26.9826L34.9409 27.1767L35.0056 26.5611L35.0702 25.9457L35.6856 26.0104L36.3012 26.0751L36.3659 25.4595L36.4306 24.844L37.0459 24.9087L37.6615 24.9734L37.5968 25.5889ZM23.4091 30.3207L23.3444 30.9361L22.7289 30.8714L22.1134 30.8067L21.984 32.0379L21.8547 33.2688L20.0082 33.0747L18.1617 32.8807L18.2264 32.2651L18.2911 31.6497L19.5221 31.7791L20.753 31.9085L20.8177 31.2929L20.8824 30.6773L21.4979 30.742L22.1134 30.8067L22.1781 30.1913L22.2428 29.5757L22.8583 29.6404L23.4738 29.7051L23.4091 30.3207ZM29.4346 32.1986L29.3699 32.8142L28.7543 32.7495L28.139 32.6848L28.0096 33.9157L27.8802 35.1467L27.2646 35.082L26.6493 35.0173L26.714 34.4017L26.7786 33.7864L25.5477 33.657L24.3165 33.5276L24.2519 34.1429L24.1872 34.7585L23.5718 34.6939L22.9562 34.6292L22.8916 35.2445L22.8269 35.8601L23.4424 35.9248L24.0578 35.9895L23.9931 36.6051L23.9284 37.2205L24.544 37.2852L25.1596 37.3499L25.0949 37.9654L25.0302 38.5808L23.799 38.4514L22.5681 38.322L22.6975 37.0911L22.8269 35.8601L21.5959 35.7307L20.3649 35.6014L20.3002 36.2169L20.2355 36.8323L20.851 36.897L21.4665 36.9617L21.4018 37.5773L21.3371 38.1927L20.1061 38.0633L18.8752 37.9339L18.7458 39.1649L18.6164 40.396L19.2319 40.4607L19.8474 40.5254L19.9121 39.9098L19.9768 39.2942L21.2078 39.4236L22.4387 39.553L22.374 40.1686L22.3093 40.7842L21.6939 40.7195L21.0784 40.6548L21.0137 41.2702L20.949 41.8857L20.3335 41.8211L19.718 41.7564L19.6533 42.3717L19.5886 42.9873L18.9731 42.9226L18.3576 42.8579L18.4223 42.2424L18.487 41.627L17.256 41.4976L16.025 41.3682L16.0897 40.7526L16.1544 40.1373L16.7699 40.202L17.3854 40.2666L17.4501 39.6511L17.5148 39.0355L16.8993 38.9708L16.2838 38.9061L16.4132 37.6751L16.5426 36.4442L15.9271 36.3795L15.3116 36.3148L15.3763 35.6994L15.441 35.0838L16.0565 35.1485L16.672 35.2132L16.7367 34.5976L16.8013 33.9823L15.5704 33.8529L14.3394 33.7235L14.4041 33.1079L14.4688 32.4925L15.0843 32.5572L15.6998 32.6219L15.7645 32.0063L15.8291 31.391L16.4446 31.4556L17.0601 31.5203L16.9307 32.7513L16.8013 33.9823L17.4168 34.0469L18.0323 34.1116L17.903 35.3426L17.7736 36.5736L18.3891 36.6382L19.0045 36.7029L19.0692 36.0876L19.1339 35.472L19.7494 35.5367L20.3649 35.6014L20.4296 34.9858L20.4943 34.3704L21.7253 34.4998L22.9562 34.6292L23.0209 34.0136L23.0856 33.3982L23.7012 33.4629L24.3165 33.5276L24.4459 32.2966L24.5753 31.0654L27.0374 31.3242L29.4993 31.583L29.4346 32.1986ZM32.7393 36.2796L32.6746 36.8952L32.0593 36.8305L31.4437 36.7658L31.379 37.3814L31.3143 37.9967L30.0834 37.8674L28.8524 37.738L28.9171 37.1226L28.9818 36.507L30.2127 36.6364L31.4437 36.7658L31.5084 36.1502L31.5731 35.5348L32.1886 35.5995L32.804 35.6642L32.7393 36.2796ZM37.5339 38.0283L37.3399 39.8746L35.4934 39.6805L33.647 39.4865L33.8411 37.6402L34.0352 35.7936L35.8815 35.9877L37.728 36.1817L37.5339 38.0283ZM40.0605 37.6715L39.9312 38.9024L39.3158 38.8377L38.7002 38.773L38.8296 37.5421L38.959 36.3111L39.5746 36.3758L40.1899 36.4405L40.0605 37.6715ZM32.0924 42.4346L32.0277 43.0502L32.6433 43.1149L33.2589 43.1796L33.1942 43.7949L33.1295 44.4105L31.8983 44.2811L30.6674 44.1518L30.7968 42.9208L30.9261 41.6898L31.5417 41.7545L32.1571 41.8192L32.0924 42.4346Z" fill="white"/>
<path d="M33.0613 21.3792L32.9966 21.9947L33.6122 22.0594L34.2275 22.1241L34.2922 21.5086L34.3569 20.8931L33.7416 20.8284L33.126 20.7637L33.0613 21.3792Z" fill="white"/>
<path d="M35.0711 37.7669L35.0064 38.3824L35.6217 38.4471L36.2373 38.5118L36.302 37.8962L36.3667 37.2809L35.7511 37.2162L35.1357 37.1515L35.0711 37.7669Z" fill="white"/>
<path d="M38.0472 9.45656L37.5943 13.765L41.9028 14.2179L46.2112 14.6707L46.664 10.3622L47.1169 6.05377L42.8084 5.60094L38.5 5.1481L38.0472 9.45656ZM45.4329 10.2328L45.1094 13.3103L42.0321 12.9869L38.9547 12.6634L39.2781 9.58594L39.6016 6.50848L42.679 6.83193L45.7563 7.15537L45.4329 10.2328Z" fill="white"/>
<path d="M40.51 9.71451L40.316 11.561L42.1625 11.7551L44.0088 11.9491L44.2029 10.1026L44.397 8.25615L42.5506 8.06209L40.7041 7.86801L40.51 9.71451Z" fill="white"/>
<path d="M16.1482 4.66625L16.0835 5.28175L16.699 5.34644L17.3145 5.41113L17.3792 4.79563L17.4439 4.18013L16.8284 4.11544L16.2129 4.05075L16.1482 4.66625Z" fill="white"/>
<path d="M39.0867 23.2537L39.022 23.8692L39.6376 23.9339L40.2529 23.9986L40.3176 23.3831L40.3823 22.7676L39.7669 22.7029L39.1514 22.6382L39.0867 23.2537Z" fill="white"/>
<path d="M16.4114 25.8529L16.3467 26.4682L15.7312 26.4036L15.1157 26.3389L14.9864 27.5698L14.857 28.8008L16.088 28.9302L17.3189 29.0595L17.3836 28.4442L17.4483 27.8286L16.8328 27.7639L16.2173 27.6992L16.282 27.0838L16.3467 26.4682L16.9622 26.5329L17.5777 26.5976L17.6424 25.9823L17.7071 25.3667L17.0916 25.302L16.4761 25.2373L16.4114 25.8529Z" fill="white"/>
<path d="M5.98195 30.3534L5.85257 31.5844L6.46807 31.649L7.08354 31.7137L7.01884 32.3293L6.95416 32.9447L7.56966 33.0094L8.18515 33.0741L8.24983 32.4587L8.31453 31.8431L8.93001 31.9078L9.5455 31.9725L9.61021 31.3569L9.67488 30.7415L9.05939 30.6768L8.44391 30.6122L8.37923 31.2275L8.31453 31.8431L7.69904 31.7784L7.08354 31.7137L7.21292 30.4828L7.3423 29.2518L6.72682 29.1871L6.11133 29.1224L5.98195 30.3534Z" fill="white"/>
<path d="M2.679 38.0962L2.22616 42.4046L6.53459 42.8575L10.843 43.3103L11.2959 39.0019L11.7487 34.6934L7.44026 34.2406L3.13184 33.7877L2.679 38.0962ZM10.0649 38.8725L9.74143 41.95L6.66397 41.6265L3.58653 41.3031L3.90998 38.2256L4.23344 35.1481L7.31088 35.4715L10.3883 35.795L10.0649 38.8725Z" fill="white"/>
<path d="M5.14088 38.3542L4.9468 40.2008L6.79327 40.3949L8.63974 40.5889L8.83382 38.7424L9.0279 36.8958L7.18143 36.7018L5.33496 36.5077L5.14088 38.3542Z" fill="white"/>
<path d="M12.3972 40.3614L12.0738 43.4389L12.6893 43.5036L13.3048 43.5683L13.6282 40.4908L13.9517 37.4133L13.3362 37.3486L12.7207 37.2839L12.3972 40.3614Z" fill="white"/>
</g>
<defs>
<clipPath id="clip0_1_7493">
<rect width="43.3216" height="43.322" fill="white" transform="translate(5.39355 0.421417) rotate(6)"/>
</clipPath>
</defs>
</svg>
