<svg width="51" height="13" viewBox="0 0 51 13" fill="none" xmlns="http://www.w3.org/2000/svg">
<path d="M25.9225 10.9517L25.8439 10.4159L25.9225 10.9517ZM50.1625 7.49711C50.2125 7.79198 50.014 8.07143 49.7192 8.12128L44.9143 8.93355C44.6195 8.98339 44.3399 8.78476 44.2899 8.48988C44.2399 8.19501 44.4384 7.91556 44.7333 7.86571L49.0042 7.14369L48.28 2.87235C48.23 2.57747 48.4285 2.29802 48.7233 2.24818C49.0182 2.19833 49.2977 2.39697 49.3477 2.69184L50.1625 7.49711ZM0.243052 11.8293C1.25628 7.4669 4.82768 5.07273 9.08396 3.9498C13.3398 2.82698 18.3944 2.93541 22.647 3.65028C24.7769 4.00831 26.7232 4.52136 28.2844 5.11893C29.82 5.70672 31.0666 6.40712 31.7056 7.18553C32.0341 7.58575 32.2494 8.06646 32.174 8.59323C32.099 9.11673 31.7565 9.54712 31.2758 9.89259C30.3335 10.5697 28.6056 11.1068 26.0011 11.4875L25.8439 10.4159C28.431 10.0377 29.9294 9.52619 30.6435 9.01302C30.991 8.76334 31.0842 8.56317 31.1019 8.43922C31.1192 8.31853 31.0841 8.13489 30.8686 7.87239C30.4196 7.32536 29.4038 6.70682 27.8977 6.13032C26.4172 5.56362 24.5427 5.06704 22.468 4.71827C18.3113 4.01953 13.4215 3.92562 9.36074 4.99696C5.30039 6.0682 2.18292 8.26471 1.29796 12.0748L0.243052 11.8293ZM26.0011 11.4875C24.0035 11.7795 22.4257 11.6717 21.2628 11.2445C20.0852 10.8119 19.3193 10.0422 19.0381 9.04959C18.7625 8.07677 18.9822 6.99345 19.5487 5.96774C20.1175 4.93796 21.0555 3.92589 22.3006 3.05487C27.3012 -0.443301 37.3762 -1.78267 49.9421 7.146L49.3151 8.02871C37.0188 -0.70843 27.4526 0.772745 22.9217 3.94238C21.7839 4.73831 20.9708 5.63365 20.4968 6.49175C20.0205 7.35391 19.9056 8.13893 20.0801 8.75494C20.249 9.35118 20.7177 9.89072 21.6358 10.228C22.5686 10.5706 23.9475 10.6931 25.8439 10.4159L26.0011 11.4875Z" fill="white" fill-opacity="0.9"/>
</svg>
