<svg width="42" height="47" viewBox="0 0 42 47" fill="none" xmlns="http://www.w3.org/2000/svg">
<path d="M36.6882 24.4074C36.0535 24.0399 35.4042 23.7393 34.7514 23.5C35.4042 23.2607 36.0535 22.9601 36.6882 22.5926C41.1647 19.9973 43.2121 15.1426 41.2618 11.75C39.3115 8.35737 34.1021 7.71197 29.6267 10.3072C28.992 10.6747 28.4082 11.0899 27.8763 11.5379C27.996 10.8505 28.0615 10.1359 28.0615 9.39977C28.0615 4.20818 24.8995 0 21 0C17.1005 0 13.9385 4.20818 13.9385 9.39977C13.9385 10.1359 14.004 10.8505 14.1237 11.5379C13.5918 11.0899 13.008 10.6747 12.3733 10.3072C7.89791 7.71197 2.68846 8.35737 0.73817 11.75C-1.21212 15.1426 0.836418 19.9962 5.31182 22.5926C5.94648 22.9601 6.59583 23.2607 7.24856 23.5C6.59583 23.7393 5.94648 24.0399 5.31182 24.4074C0.835289 27.0027 -1.21212 31.8574 0.73817 35.25C2.68846 38.6426 7.89791 39.288 12.3733 36.6928C13.008 36.3253 13.5918 35.9102 14.1237 35.4621C14.004 36.1495 13.9385 36.8641 13.9385 37.6002C13.9385 42.7918 17.1005 47 21 47C24.8995 47 28.0615 42.7918 28.0615 37.6002C28.0615 36.8641 27.996 36.1495 27.8763 35.4621C28.4082 35.9102 28.992 36.3242 29.6267 36.6928C34.1032 39.288 39.3127 38.6426 41.2618 35.25C43.2121 31.8562 41.1647 27.0027 36.6882 24.4074Z" fill="#7E77FF" fill-opacity="0.1"/>
</svg>
