<svg width="75" height="39" viewBox="0 0 75 39" fill="none" xmlns="http://www.w3.org/2000/svg">
<path fill-rule="evenodd" clip-rule="evenodd" d="M3.6 0C1.61178 0 0 1.61177 0 3.6V28.8C0 30.7882 1.61178 32.4 3.60001 32.4H28.5253C28.7521 32.4 28.9655 32.499 29.1326 32.6524L34.596 37.6662C35.9728 38.9297 38.0875 38.9297 39.4643 37.6662L44.9277 32.6524C45.0948 32.499 45.3082 32.4 45.535 32.4H70.8C72.7882 32.4 74.4 30.7882 74.4 28.8V3.6C74.4 1.61178 72.7882 0 70.8 0H3.6Z" fill="#3830C9"/>
<rect x="4.7998" y="4.19922" width="64.812" height="24.012" rx="3.6" fill="white"/>
<circle cx="20.406" cy="16.2048" r="2.5515" fill="#3830C9"/>
<path d="M26.6385 23.6324C26.8196 23.8483 27.1425 23.8773 27.349 23.6856C28.324 22.7808 29.1139 21.6929 29.6727 20.4823C30.3029 19.117 30.6236 17.6293 30.6119 16.1256C30.6002 14.622 30.2564 13.1395 29.605 11.7841C29.0274 10.5823 28.2207 9.50688 27.2318 8.61732C27.0223 8.42884 26.6999 8.46294 26.5222 8.68163C26.3444 8.90031 26.3786 9.22068 26.5871 9.41032C27.4598 10.2042 28.1727 11.16 28.6851 12.2262C29.2714 13.446 29.5808 14.7803 29.5913 16.1336C29.6018 17.4869 29.3132 18.8258 28.746 20.0545C28.2502 21.1286 27.5523 22.0954 26.6921 22.9027C26.4866 23.0956 26.4573 23.4165 26.6385 23.6324Z" fill="#0D0D0D" fill-opacity="0.6"/>
<path d="M24.4521 21.0266C24.6332 21.2425 24.9566 21.272 25.1583 21.0752C25.7518 20.4961 26.2355 19.8123 26.5842 19.0569C27.0043 18.1467 27.2181 17.1549 27.2103 16.1524C27.2025 15.15 26.9733 14.1617 26.5391 13.2581C26.1787 12.5082 25.6844 11.832 25.082 11.2622C24.8772 11.0686 24.5543 11.1031 24.3766 11.3218C24.1988 11.5404 24.2338 11.8603 24.4359 12.0567C24.923 12.5297 25.3239 13.0858 25.6192 13.7002C25.9883 14.4682 26.1831 15.3083 26.1898 16.1604C26.1964 17.0125 26.0147 17.8555 25.6575 18.6291C25.3719 19.248 24.9796 19.8103 24.5 20.2909C24.3009 20.4904 24.2709 20.8107 24.4521 21.0266Z" fill="#212121"/>
<path d="M14.174 8.7778C13.9929 8.5619 13.67 8.53282 13.4635 8.72454C12.4885 9.62938 11.6986 10.7173 11.1398 11.9279C10.5096 13.2932 10.1889 14.7809 10.2006 16.2845C10.2123 17.7882 10.5561 19.2707 11.2075 20.626C11.7851 21.8278 12.5918 22.9033 13.5807 23.7928C13.7902 23.9813 14.1126 23.9472 14.2903 23.7285C14.4681 23.5098 14.4339 23.1895 14.2254 22.9998C13.3527 22.2059 12.6398 21.2502 12.1274 20.1839C11.5411 18.9641 11.2317 17.6299 11.2212 16.2766C11.2107 14.9233 11.4993 13.5844 12.0665 12.3556C12.5623 11.2815 13.2602 10.3148 14.1204 9.50741C14.3259 9.31455 14.3552 8.99369 14.174 8.7778Z" fill="#0D0D0D" fill-opacity="0.6"/>
<path d="M16.3604 11.3835C16.1793 11.1676 15.8559 11.1382 15.6542 11.335C15.0607 11.9141 14.577 12.5978 14.2283 13.3533C13.8082 14.2635 13.5944 15.2553 13.6022 16.2577C13.61 17.2602 13.8392 18.2485 14.2734 19.152C14.6338 19.902 15.1281 20.5781 15.7305 21.1479C15.9353 21.3416 16.2582 21.3071 16.4359 21.0884C16.6137 20.8697 16.5787 20.5498 16.3766 20.3535C15.8895 19.8804 15.4886 19.3243 15.1933 18.71C14.8242 17.9419 14.6294 17.1019 14.6227 16.2498C14.6161 15.3977 14.7978 14.5547 15.155 13.781C15.4406 13.1621 15.8329 12.5999 16.3125 12.1193C16.5116 11.9198 16.5416 11.5994 16.3604 11.3835Z" fill="#212121"/>
<path d="M35.6291 22.2051V11.4971H37.8996V20.3301H42.2429V22.2051H35.6291ZM43.6605 22.2051V11.4971H45.9311V22.2051H43.6605ZM54.2848 11.4971H56.5772L52.9371 22.2051H50.4615L46.8287 11.4971H49.1212L51.1354 17.8691C51.2477 18.2451 51.3624 18.6846 51.4796 19.1875C51.6017 19.6855 51.6773 20.0322 51.7066 20.2275C51.7604 19.7783 51.9435 18.9922 52.256 17.8691L54.2848 11.4971ZM63.6492 22.2051H57.4822V11.4971H63.6492V13.3574H59.7527V15.7085H63.3782V17.5688H59.7527V20.3301H63.6492V22.2051Z" fill="#3830C9"/>
</svg>
