<svg width="58" height="28" viewBox="0 0 58 28" fill="none" xmlns="http://www.w3.org/2000/svg">
<path d="M0 4C0 1.79086 1.79086 0 4 0H54C56.2091 0 58 1.79086 58 4V24C58 26.2091 56.2091 28 54 28H4C1.79086 28 0 26.2091 0 24V4Z" fill="#3830C9"/>
<rect x="3" y="3" width="52" height="21.99" rx="4" fill="white"/>
<circle cx="14" cy="14" r="1.75" fill="#3830C9"/>
<path d="M18.2745 19.0942C18.3988 19.2423 18.6202 19.2622 18.7619 19.1307C19.4306 18.5101 19.9723 17.764 20.3556 16.9336C20.7878 15.9972 21.0078 14.9769 20.9998 13.9455C20.9918 12.9142 20.7559 11.8974 20.3092 10.9678C19.9131 10.1436 19.3597 9.40594 18.6815 8.79582C18.5378 8.66654 18.3167 8.68993 18.1948 8.83992C18.0728 8.98991 18.0963 9.20964 18.2393 9.33971C18.8379 9.88423 19.3268 10.5398 19.6783 11.2711C20.0804 12.1077 20.2926 13.0228 20.2998 13.951C20.307 14.8792 20.1091 15.7975 19.7201 16.6403C19.38 17.377 18.9013 18.04 18.3113 18.5938C18.1703 18.7261 18.1503 18.9461 18.2745 19.0942Z" fill="#0D0D0D" fill-opacity="0.6"/>
<path d="M16.7746 17.3055C16.8989 17.4535 17.1207 17.4738 17.259 17.3388C17.6661 16.9416 17.9978 16.4726 18.237 15.9545C18.5251 15.3302 18.6718 14.6499 18.6664 13.9624C18.6611 13.2748 18.5039 12.597 18.2061 11.9773C17.9589 11.4629 17.6199 10.9991 17.2067 10.6083C17.0662 10.4755 16.8448 10.4992 16.7228 10.6492C16.6009 10.7992 16.6249 11.0185 16.7636 11.1532C17.0976 11.4777 17.3726 11.8591 17.5751 12.2805C17.8283 12.8072 17.9619 13.3834 17.9665 13.9678C17.971 14.5523 17.8464 15.1305 17.6014 15.6611C17.4055 16.0856 17.1365 16.4712 16.8075 16.8008C16.6709 16.9376 16.6504 17.1574 16.7746 17.3055Z" fill="#212121"/>
<path d="M9.72546 8.9058C9.60121 8.75773 9.37978 8.73778 9.2381 8.86928C8.56943 9.48988 8.02766 10.236 7.64439 11.0664C7.21216 12.0028 6.99219 13.0231 7.00021 14.0545C7.00823 15.0858 7.24405 16.1026 7.6908 17.0322C8.08694 17.8564 8.64025 18.5941 9.3185 19.2042C9.46221 19.3335 9.6833 19.3101 9.80523 19.1601C9.92716 19.0101 9.90368 18.7904 9.76069 18.6603C9.1621 18.1158 8.67318 17.4602 8.32172 16.7289C7.91965 15.8923 7.70741 14.9772 7.70019 14.049C7.69297 13.1208 7.89094 12.2025 8.27995 11.3597C8.61999 10.623 9.09866 9.95999 9.68871 9.40623C9.82965 9.27395 9.84971 9.05388 9.72546 8.9058Z" fill="#0D0D0D" fill-opacity="0.6"/>
<path d="M11.2253 10.6945C11.101 10.5465 10.8792 10.5262 10.7408 10.6612C10.3338 11.0584 10.0021 11.5274 9.76288 12.0455C9.47473 12.6698 9.32808 13.3501 9.33343 14.0376C9.33878 14.7252 9.49599 15.403 9.79382 16.0227C10.041 16.5371 10.38 17.0009 10.7932 17.3917C10.9336 17.5245 11.1551 17.5008 11.277 17.3508C11.399 17.2008 11.375 16.9815 11.2363 16.8468C10.9023 16.5223 10.6273 16.1409 10.4247 15.7195C10.1716 15.1928 10.038 14.6166 10.0334 14.0322C10.0289 13.4477 10.1535 12.8695 10.3984 12.3389C10.5944 11.9144 10.8634 11.5288 11.1924 11.1992C11.3289 11.0624 11.3495 10.8426 11.2253 10.6945Z" fill="#212121"/>
<path d="M26.4336 19V10.4336H28.25V17.5H31.7246V19H26.4336ZM33.2188 19V10.4336H35.0352V19H33.2188ZM43.9121 10.4336L41 19H39.0195L36.1133 10.4336H37.9473L39.5586 15.5312C39.5859 15.6172 39.6309 15.7793 39.6934 16.0176C39.7559 16.252 39.8184 16.502 39.8809 16.7676C39.9473 17.0293 39.9922 17.2461 40.0156 17.418C40.0391 17.2461 40.0801 17.0293 40.1387 16.7676C40.2012 16.5059 40.2617 16.2578 40.3203 16.0234C40.3828 15.7852 40.4277 15.6211 40.4551 15.5312L42.0781 10.4336H43.9121ZM49.9297 19H44.9961V10.4336H49.9297V11.9219H46.8125V13.8027H49.7129V15.291H46.8125V17.5H49.9297V19Z" fill="#3830C9"/>
</svg>
