<svg width="60" height="60" viewBox="0 0 60 60" fill="none" xmlns="http://www.w3.org/2000/svg">
<circle cx="30" cy="30" r="30" fill="#E8E4FA"/>
<path d="M31.3565 17.7947C30.8479 17.286 30.1581 17.0002 29.4388 17H19.7123C18.993 17 18.3031 17.2858 17.7944 17.7944C17.2858 18.3031 17 18.993 17 19.7123V29.4388C17.0002 30.1581 17.286 30.8479 17.7947 31.3565L28.6441 42.2059C29.1528 42.7143 29.8425 43 30.5617 43C31.281 43 31.9707 42.7143 32.4794 42.2059L42.2059 32.4794C42.7143 31.9707 43 31.281 43 30.5617C43 29.8425 42.7143 29.1528 42.2059 28.6441L31.3565 17.7947ZM23.7809 26.4932C23.0613 26.493 22.3713 26.207 21.8627 25.6981C21.354 25.1892 21.0683 24.4991 21.0685 23.7795C21.0687 23.06 21.3547 22.37 21.8636 21.8613C22.3725 21.3527 23.0627 21.067 23.7822 21.0672C24.5018 21.0673 25.1918 21.3534 25.7004 21.8623C26.2091 22.3712 26.4948 23.0613 26.4946 23.7809C26.4944 24.5004 26.2084 25.1904 25.6995 25.6991C25.1906 26.2077 24.5004 26.4934 23.7809 26.4932Z" fill="#A08BFA"/>
</svg>
