<svg width="322" height="125" viewBox="0 0 322 125" fill="none" xmlns="http://www.w3.org/2000/svg">
<path opacity="0.1" d="M151 29.5082C151 25.9138 153.914 23 157.508 23H168.492C172.086 23 175 25.9138 175 29.5082V118.492C175 122.086 172.086 125 168.492 125H157.508C153.914 125 151 122.086 151 118.492V29.5082Z" fill="#A08CFB"/>
<rect x="10" y="27" width="7" height="57" rx="1.55555" fill="url(#paint0_linear_1_7352)"/>
<rect x="63" y="44" width="7" height="43" rx="1.55555" fill="url(#paint1_linear_1_7352)"/>
<rect x="113" y="34" width="7" height="55" rx="1.55555" fill="url(#paint2_linear_1_7352)"/>
<rect x="164" y="32" width="7" height="57" rx="1.55555" fill="url(#paint3_linear_1_7352)"/>
<rect x="215" y="18" width="7" height="71" rx="1.55555" fill="url(#paint4_linear_1_7352)"/>
<rect x="265" y="37" width="7" height="52" rx="1.55555" fill="url(#paint5_linear_1_7352)"/>
<rect x="315" width="7" height="89" rx="1.55555" fill="url(#paint6_linear_1_7352)"/>
<rect opacity="0.4" y="54.002" width="7.03394" height="29.6988" rx="1.5631" fill="url(#paint7_linear_1_7352)"/>
<rect opacity="0.4" x="53" y="57.002" width="7.03394" height="29.6988" rx="1.5631" fill="url(#paint8_linear_1_7352)"/>
<rect opacity="0.4" x="103" y="51" width="7" height="38" rx="1.5631" fill="url(#paint9_linear_1_7352)"/>
<rect opacity="0.4" x="154" y="59.002" width="7.03394" height="29.6988" rx="1.5631" fill="url(#paint10_linear_1_7352)"/>
<rect opacity="0.4" x="205" y="30" width="7" height="59" rx="1.5631" fill="url(#paint11_linear_1_7352)"/>
<rect opacity="0.4" x="255" y="73" width="7" height="16" rx="1.5631" fill="url(#paint12_linear_1_7352)"/>
<rect opacity="0.4" x="305" y="18" width="7" height="71" rx="1.5631" fill="url(#paint13_linear_1_7352)"/>
<path opacity="0.5" d="M8.77332 105.48H7.95265V101.229H7.92463L6.18319 105.436H5.51865L3.77321 101.229H3.74519V105.48H2.92851V99.7037H3.96537L5.83491 104.263H5.86693L7.73247 99.7037H8.77332V105.48ZM11.5436 105.561C10.3386 105.561 9.54596 104.732 9.54596 103.375C9.54596 102.022 10.3426 101.193 11.5436 101.193C12.7446 101.193 13.5412 102.022 13.5412 103.375C13.5412 104.732 12.7486 105.561 11.5436 105.561ZM11.5436 104.848C12.2242 104.848 12.6605 104.312 12.6605 103.375C12.6605 102.442 12.2202 101.906 11.5436 101.906C10.867 101.906 10.4267 102.442 10.4267 103.375C10.4267 104.312 10.867 104.848 11.5436 104.848ZM14.2098 105.48V101.269H15.0345V101.974H15.0545C15.2827 101.493 15.7311 101.197 16.3796 101.197C17.3084 101.197 17.8408 101.789 17.8408 102.754V105.48H16.9721V102.922C16.9721 102.29 16.6758 101.942 16.0753 101.942C15.4668 101.942 15.0745 102.374 15.0745 103.026V105.48H14.2098Z" fill="#454459"/>
<path opacity="0.5" d="M209.56 105.48H208.664V99.7037H212.271V100.476H209.56V102.306H212.042V103.062H209.56V105.48ZM212.947 105.48V101.269H213.772V101.986H213.792C213.932 101.493 214.308 101.201 214.805 101.201C214.929 101.201 215.037 101.221 215.101 101.233V102.038C215.033 102.01 214.881 101.99 214.713 101.99C214.156 101.99 213.812 102.362 213.812 102.958V105.48H212.947ZM215.665 105.48V101.269H216.53V105.48H215.665ZM216.098 100.652C215.821 100.652 215.597 100.432 215.597 100.16C215.597 99.8839 215.821 99.6637 216.098 99.6637C216.378 99.6637 216.602 99.8839 216.602 100.16C216.602 100.432 216.378 100.652 216.098 100.652Z" fill="#454459"/>
<path opacity="0.5" d="M56.9734 105.48H56.0766V100.476H54.3072V99.7037H58.7388V100.476H56.9734V105.48ZM62.2097 101.269V105.48H61.381V104.768H61.361C61.1288 105.272 60.7004 105.557 60.0559 105.557C59.1392 105.557 58.5787 104.96 58.5787 103.995V101.269H59.4434V103.827C59.4434 104.468 59.7477 104.812 60.3441 104.812C60.9687 104.812 61.345 104.38 61.345 103.723V101.269H62.2097ZM64.8278 101.89C64.2233 101.89 63.799 102.35 63.755 102.986H65.8607C65.8407 102.342 65.4323 101.89 64.8278 101.89ZM65.8567 104.243H66.6774C66.5573 105.012 65.8287 105.561 64.8639 105.561C63.6268 105.561 62.8782 104.724 62.8782 103.395C62.8782 102.074 63.6389 101.193 64.8278 101.193C65.9968 101.193 66.7254 102.018 66.7254 103.295V103.591H63.751V103.643C63.751 104.376 64.1913 104.86 64.8839 104.86C65.3763 104.86 65.7406 104.612 65.8567 104.243Z" fill="#454459"/>
<path opacity="0.5" d="M106.804 101.125L105.559 105.48H104.711L103.153 99.7037H104.086L105.155 104.227H105.187L106.408 99.7037H107.241L108.466 104.227H108.498L109.566 99.7037H110.499L108.938 105.48H108.093L106.844 101.125H106.804ZM112.413 101.89C111.808 101.89 111.384 102.35 111.34 102.986H113.446C113.426 102.342 113.017 101.89 112.413 101.89ZM113.442 104.243H114.262C114.142 105.012 113.414 105.561 112.449 105.561C111.212 105.561 110.463 104.724 110.463 103.395C110.463 102.074 111.224 101.193 112.413 101.193C113.582 101.193 114.31 102.018 114.31 103.295V103.591H111.336V103.643C111.336 104.376 111.776 104.86 112.469 104.86C112.961 104.86 113.326 104.612 113.442 104.243ZM116.564 105.553C115.499 105.553 114.795 104.704 114.795 103.375C114.795 102.046 115.499 101.201 116.556 101.201C117.161 101.201 117.641 101.505 117.877 101.97H117.893V99.7037H118.762V105.48H117.921V104.764H117.905C117.657 105.244 117.177 105.553 116.564 105.553ZM116.792 101.93C116.108 101.93 115.68 102.49 115.68 103.375C115.68 104.263 116.108 104.82 116.792 104.82C117.457 104.82 117.901 104.255 117.901 103.375C117.901 102.502 117.457 101.93 116.792 101.93Z" fill="#454459"/>
<path opacity="0.5" d="M257.461 103.871H258.346C258.41 104.444 258.966 104.82 259.727 104.82C260.455 104.82 260.98 104.444 260.98 103.927C260.98 103.479 260.664 103.211 259.915 103.026L259.166 102.846C258.106 102.59 257.613 102.094 257.613 101.289C257.613 100.292 258.482 99.6076 259.715 99.6076C260.936 99.6076 261.773 100.292 261.801 101.289H260.928C260.876 100.713 260.399 100.364 259.703 100.364C259.006 100.364 258.53 100.717 258.53 101.229C258.53 101.637 258.834 101.878 259.579 102.062L260.215 102.218C261.4 102.498 261.893 102.974 261.893 103.819C261.893 104.9 261.032 105.577 259.663 105.577C258.382 105.577 257.517 104.916 257.461 103.871ZM264.066 104.868C264.671 104.868 265.143 104.452 265.143 103.903V103.571L264.106 103.635C263.59 103.671 263.298 103.899 263.298 104.259C263.298 104.628 263.602 104.868 264.066 104.868ZM263.826 105.553C263.002 105.553 262.425 105.04 262.425 104.283C262.425 103.547 262.99 103.095 263.99 103.038L265.143 102.97V102.646C265.143 102.178 264.827 101.898 264.299 101.898C263.798 101.898 263.486 102.138 263.41 102.514H262.593C262.641 101.753 263.29 101.193 264.331 101.193C265.351 101.193 266.004 101.733 266.004 102.578V105.48H265.175V104.788H265.155C264.911 105.256 264.379 105.553 263.826 105.553ZM267.097 100.272H267.966V101.269H268.766V101.954H267.966V104.275C267.966 104.64 268.126 104.804 268.478 104.804C268.566 104.804 268.706 104.796 268.762 104.784V105.468C268.666 105.492 268.474 105.508 268.282 105.508C267.429 105.508 267.097 105.184 267.097 104.372V101.954H266.484V101.269H267.097V100.272Z" fill="#454459"/>
<path d="M157.892 105.48H156.863V100.576H155.134V99.7037H159.618V100.576H157.892V105.48ZM160.254 105.48V99.7037H161.239V101.966H161.259C161.487 101.449 161.956 101.157 162.6 101.157C163.537 101.157 164.085 101.773 164.085 102.746V105.48H163.089V102.95C163.089 102.358 162.792 102.002 162.216 102.002C161.615 102.002 161.251 102.418 161.251 103.042V105.48H160.254ZM168.649 101.237V105.48H167.688V104.744H167.668C167.444 105.26 167.016 105.557 166.371 105.557C165.451 105.557 164.866 104.96 164.866 103.979V101.237H165.863V103.779C165.863 104.388 166.159 104.716 166.72 104.716C167.296 104.716 167.652 104.308 167.652 103.691V101.237H168.649Z" fill="#454459"/>
<path opacity="0.5" d="M306.654 103.871H307.539C307.603 104.444 308.16 104.82 308.92 104.82C309.649 104.82 310.173 104.444 310.173 103.927C310.173 103.479 309.857 103.211 309.108 103.026L308.36 102.846C307.299 102.59 306.806 102.094 306.806 101.289C306.806 100.292 307.675 99.6076 308.908 99.6076C310.129 99.6076 310.966 100.292 310.994 101.289H310.121C310.069 100.713 309.593 100.364 308.896 100.364C308.2 100.364 307.723 100.717 307.723 101.229C307.723 101.637 308.027 101.878 308.772 102.062L309.409 102.218C310.594 102.498 311.086 102.974 311.086 103.819C311.086 104.9 310.225 105.577 308.856 105.577C307.575 105.577 306.71 104.916 306.654 103.871ZM315.398 101.269V105.48H314.569V104.768H314.549C314.317 105.272 313.888 105.557 313.244 105.557C312.327 105.557 311.767 104.96 311.767 103.995V101.269H312.631V103.827C312.631 104.468 312.936 104.812 313.532 104.812C314.157 104.812 314.533 104.38 314.533 103.723V101.269H315.398ZM316.254 105.48V101.269H317.079V101.974H317.099C317.327 101.493 317.775 101.197 318.424 101.197C319.353 101.197 319.885 101.789 319.885 102.754V105.48H319.017V102.922C319.017 102.29 318.72 101.942 318.12 101.942C317.511 101.942 317.119 102.374 317.119 103.026V105.48H316.254Z" fill="#454459"/>
<path d="M166.2 115C166.2 116.767 164.767 118.2 163 118.2C161.233 118.2 159.8 116.767 159.8 115C159.8 113.233 161.233 111.8 163 111.8C164.767 111.8 166.2 113.233 166.2 115Z" fill="url(#paint14_linear_1_7352)" stroke="white" stroke-width="1.6"/>
<defs>
<linearGradient id="paint0_linear_1_7352" x1="13.5" y1="27" x2="13.5" y2="84" gradientUnits="userSpaceOnUse">
<stop stop-color="#B09FFF"/>
<stop offset="1" stop-color="#8D79F6"/>
</linearGradient>
<linearGradient id="paint1_linear_1_7352" x1="66.5" y1="44" x2="66.5" y2="87" gradientUnits="userSpaceOnUse">
<stop stop-color="#B09FFF"/>
<stop offset="1" stop-color="#8D79F6"/>
</linearGradient>
<linearGradient id="paint2_linear_1_7352" x1="116.5" y1="34" x2="116.5" y2="89" gradientUnits="userSpaceOnUse">
<stop stop-color="#B09FFF"/>
<stop offset="1" stop-color="#8D79F6"/>
</linearGradient>
<linearGradient id="paint3_linear_1_7352" x1="167.5" y1="32" x2="167.5" y2="89" gradientUnits="userSpaceOnUse">
<stop stop-color="#B09FFF"/>
<stop offset="1" stop-color="#8D79F6"/>
</linearGradient>
<linearGradient id="paint4_linear_1_7352" x1="218.5" y1="18" x2="218.5" y2="89" gradientUnits="userSpaceOnUse">
<stop stop-color="#B09FFF"/>
<stop offset="1" stop-color="#8D79F6"/>
</linearGradient>
<linearGradient id="paint5_linear_1_7352" x1="268.5" y1="37" x2="268.5" y2="89" gradientUnits="userSpaceOnUse">
<stop stop-color="#B09FFF"/>
<stop offset="1" stop-color="#8D79F6"/>
</linearGradient>
<linearGradient id="paint6_linear_1_7352" x1="318.5" y1="0" x2="318.5" y2="89" gradientUnits="userSpaceOnUse">
<stop stop-color="#B09FFF"/>
<stop offset="1" stop-color="#8D79F6"/>
</linearGradient>
<linearGradient id="paint7_linear_1_7352" x1="3.51697" y1="54.002" x2="3.51697" y2="83.7007" gradientUnits="userSpaceOnUse">
<stop stop-color="#B09FFF"/>
<stop offset="1" stop-color="#8D79F6"/>
</linearGradient>
<linearGradient id="paint8_linear_1_7352" x1="56.517" y1="57.002" x2="56.517" y2="86.7007" gradientUnits="userSpaceOnUse">
<stop stop-color="#B09FFF"/>
<stop offset="1" stop-color="#8D79F6"/>
</linearGradient>
<linearGradient id="paint9_linear_1_7352" x1="106.5" y1="51" x2="106.5" y2="89" gradientUnits="userSpaceOnUse">
<stop stop-color="#B09FFF"/>
<stop offset="1" stop-color="#8D79F6"/>
</linearGradient>
<linearGradient id="paint10_linear_1_7352" x1="157.517" y1="59.002" x2="157.517" y2="88.7007" gradientUnits="userSpaceOnUse">
<stop stop-color="#B09FFF"/>
<stop offset="1" stop-color="#8D79F6"/>
</linearGradient>
<linearGradient id="paint11_linear_1_7352" x1="208.5" y1="30" x2="208.5" y2="89" gradientUnits="userSpaceOnUse">
<stop stop-color="#B09FFF"/>
<stop offset="1" stop-color="#8D79F6"/>
</linearGradient>
<linearGradient id="paint12_linear_1_7352" x1="258.5" y1="73" x2="258.5" y2="89" gradientUnits="userSpaceOnUse">
<stop stop-color="#B09FFF"/>
<stop offset="1" stop-color="#8D79F6"/>
</linearGradient>
<linearGradient id="paint13_linear_1_7352" x1="308.5" y1="18" x2="308.5" y2="89" gradientUnits="userSpaceOnUse">
<stop stop-color="#B09FFF"/>
<stop offset="1" stop-color="#8D79F6"/>
</linearGradient>
<linearGradient id="paint14_linear_1_7352" x1="163" y1="111" x2="163" y2="119" gradientUnits="userSpaceOnUse">
<stop stop-color="#B09FFF"/>
<stop offset="1" stop-color="#8D79F6"/>
</linearGradient>
</defs>
</svg>
