<svg width="60" height="60" viewBox="0 0 60 60" fill="none" xmlns="http://www.w3.org/2000/svg">
<circle cx="30" cy="30" r="30" fill="#22E393" fill-opacity="0.1"/>
<path opacity="0.6" d="M31.1125 22.3496H21.3875C19.25 22.3496 17.5 24.0996 17.5 26.2371V40.4371C17.5 42.2496 18.8 43.0246 20.3875 42.1371L25.3 39.3996C25.825 39.1121 26.675 39.1121 27.1875 39.3996L32.1 42.1371C33.6875 43.0246 34.9875 42.2496 34.9875 40.4371V26.2371C35 24.0996 33.25 22.3496 31.1125 22.3496Z" fill="#06A865"/>
<path d="M42.5 21.3875V35.5875C42.5 37.4 41.2 38.1625 39.6125 37.2875L35 34.7125V26.2375C35 24.1 33.25 22.35 31.1125 22.35H25V21.3875C25 19.25 26.75 17.5 28.8875 17.5H38.6125C40.75 17.5 42.5 19.25 42.5 21.3875Z" fill="#06A865"/>
</svg>
