<svg width="316" height="118" viewBox="0 0 316 118" fill="none" xmlns="http://www.w3.org/2000/svg">
<rect opacity="0.2" x="0.461914" y="49" width="17" height="48" rx="2" fill="#A08CFB"/>
<rect x="0.461914" y="71" width="17" height="26" rx="2" fill="url(#paint0_linear_1_7323)"/>
<rect x="0.461914" y="81" width="17" height="16" rx="2" fill="url(#paint1_linear_1_7323)"/>
<rect opacity="0.2" x="149.462" y="24" width="17" height="73" rx="2" fill="#A08CFB"/>
<rect x="149.462" y="55" width="17" height="42" rx="2" fill="url(#paint2_linear_1_7323)"/>
<rect x="149.462" y="70" width="17" height="27" rx="2" fill="url(#paint3_linear_1_7323)"/>
<rect opacity="0.2" x="50.4619" y="60" width="17" height="37" rx="2" fill="#A08CFB"/>
<rect x="50.4619" y="72" width="17" height="25" rx="2" fill="url(#paint4_linear_1_7323)"/>
<rect x="50.4619" y="81" width="17" height="16" rx="2" fill="url(#paint5_linear_1_7323)"/>
<rect opacity="0.2" x="199.462" y="39" width="17" height="58" rx="2" fill="#A08CFB"/>
<rect x="199.462" y="54" width="17" height="43" rx="2" fill="url(#paint6_linear_1_7323)"/>
<rect x="199.462" y="70" width="17" height="27" rx="2" fill="url(#paint7_linear_1_7323)"/>
<rect opacity="0.2" x="99.4619" y="45" width="17" height="53" rx="3" fill="#A08CFB"/>
<rect x="99.4619" y="75" width="17" height="23" rx="3" fill="url(#paint8_linear_1_7323)"/>
<rect x="99.4619" y="84" width="17" height="14" rx="3" fill="url(#paint9_linear_1_7323)"/>
<rect opacity="0.2" x="248.462" y="24" width="17" height="74" rx="2" fill="#A08CFB"/>
<rect x="248.462" y="76" width="17" height="22" rx="2" fill="url(#paint10_linear_1_7323)"/>
<rect x="248.462" y="84" width="17" height="14" rx="2" fill="url(#paint11_linear_1_7323)"/>
<rect opacity="0.2" x="298.462" width="17" height="97" rx="2" fill="#A08CFB"/>
<rect x="298.462" y="45" width="17" height="52" rx="2" fill="url(#paint12_linear_1_7323)"/>
<rect x="298.462" y="64" width="17" height="33" rx="2" fill="url(#paint13_linear_1_7323)"/>
<path opacity="0.5" d="M6.89525 115.385H6.04519V110.981H6.01617L4.21238 115.339H3.52404L1.71611 110.981H1.68709V115.385H0.841173V109.401H1.91515L3.85163 114.124H3.8848L5.81713 109.401H6.89525V115.385ZM9.76472 115.468C8.51659 115.468 7.69555 114.609 7.69555 113.204C7.69555 111.802 8.52073 110.944 9.76472 110.944C11.0087 110.944 11.8339 111.802 11.8339 113.204C11.8339 114.609 11.0129 115.468 9.76472 115.468ZM9.76472 114.73C10.4696 114.73 10.9216 114.174 10.9216 113.204C10.9216 112.237 10.4655 111.682 9.76472 111.682C9.06394 111.682 8.60781 112.237 8.60781 113.204C8.60781 114.174 9.06394 114.73 9.76472 114.73ZM12.5264 115.385V111.023H13.3806V111.752H13.4013C13.6377 111.255 14.1021 110.948 14.7739 110.948C15.7359 110.948 16.2874 111.562 16.2874 112.561V115.385H15.3876V112.735C15.3876 112.08 15.0807 111.719 14.4587 111.719C13.8284 111.719 13.4221 112.167 13.4221 112.843V115.385H12.5264Z" fill="#454459"/>
<path opacity="0.5" d="M204.295 115.385H203.366V109.401H207.102V110.201H204.295V112.096H206.865V112.88H204.295V115.385ZM207.803 115.385V111.023H208.657V111.765H208.678C208.823 111.255 209.212 110.952 209.727 110.952C209.855 110.952 209.967 110.973 210.034 110.985V111.819C209.963 111.79 209.805 111.769 209.631 111.769C209.055 111.769 208.698 112.155 208.698 112.772V115.385H207.803ZM210.618 115.385V111.023H211.514V115.385H210.618ZM211.066 110.384C210.78 110.384 210.548 110.156 210.548 109.874C210.548 109.588 210.78 109.36 211.066 109.36C211.356 109.36 211.588 109.588 211.588 109.874C211.588 110.156 211.356 110.384 211.066 110.384Z" fill="#454459"/>
<path opacity="0.5" d="M54.9665 115.385H54.0376V110.201H52.2048V109.401H56.7951V110.201H54.9665V115.385ZM60.3903 111.023V115.385H59.5319V114.647H59.5112C59.2707 115.169 58.827 115.464 58.1594 115.464C57.2098 115.464 56.6293 114.846 56.6293 113.846V111.023H57.525V113.672C57.525 114.336 57.8401 114.692 58.4579 114.692C59.1048 114.692 59.4946 114.244 59.4946 113.564V111.023H60.3903ZM63.1022 111.665C62.476 111.665 62.0365 112.142 61.9909 112.801H64.172C64.1513 112.134 63.7283 111.665 63.1022 111.665ZM64.1679 114.103H65.0179C64.8935 114.9 64.1388 115.468 63.1395 115.468C61.8582 115.468 61.0828 114.601 61.0828 113.224C61.0828 111.856 61.8706 110.944 63.1022 110.944C64.313 110.944 65.0677 111.798 65.0677 113.121V113.428H61.9867V113.481C61.9867 114.24 62.4429 114.742 63.1602 114.742C63.6703 114.742 64.0476 114.485 64.1679 114.103Z" fill="#454459"/>
<path opacity="0.5" d="M103.128 110.873L101.838 115.385H100.959L99.3461 109.401H100.312L101.419 114.087H101.453L102.717 109.401H103.58L104.849 114.087H104.882L105.989 109.401H106.955L105.338 115.385H104.463L103.169 110.873H103.128ZM108.937 111.665C108.311 111.665 107.872 112.142 107.826 112.801H110.007C109.986 112.134 109.563 111.665 108.937 111.665ZM110.003 114.103H110.853C110.729 114.9 109.974 115.468 108.975 115.468C107.693 115.468 106.918 114.601 106.918 113.224C106.918 111.856 107.706 110.944 108.937 110.944C110.148 110.944 110.903 111.798 110.903 113.121V113.428H107.822V113.481C107.822 114.24 108.278 114.742 108.995 114.742C109.505 114.742 109.883 114.485 110.003 114.103ZM113.237 115.459C112.134 115.459 111.404 114.58 111.404 113.204C111.404 111.827 112.134 110.952 113.229 110.952C113.855 110.952 114.353 111.267 114.597 111.748H114.614V109.401H115.514V115.385H114.643V114.643H114.626C114.369 115.14 113.872 115.459 113.237 115.459ZM113.474 111.707C112.765 111.707 112.321 112.287 112.321 113.204C112.321 114.124 112.765 114.701 113.474 114.701C114.162 114.701 114.622 114.116 114.622 113.204C114.622 112.3 114.162 111.707 113.474 111.707Z" fill="#454459"/>
<path opacity="0.5" d="M250.956 113.718H251.873C251.939 114.311 252.515 114.701 253.303 114.701C254.058 114.701 254.601 114.311 254.601 113.776C254.601 113.311 254.274 113.034 253.498 112.843L252.723 112.656C251.624 112.391 251.114 111.877 251.114 111.043C251.114 110.011 252.014 109.302 253.291 109.302C254.556 109.302 255.422 110.011 255.451 111.043H254.547C254.493 110.446 254 110.085 253.278 110.085C252.557 110.085 252.063 110.45 252.063 110.981C252.063 111.404 252.379 111.653 253.15 111.844L253.809 112.005C255.037 112.296 255.547 112.789 255.547 113.664C255.547 114.784 254.655 115.484 253.237 115.484C251.91 115.484 251.014 114.8 250.956 113.718ZM257.798 114.75C258.424 114.75 258.914 114.319 258.914 113.751V113.407L257.84 113.473C257.305 113.51 257.002 113.747 257.002 114.12C257.002 114.502 257.317 114.75 257.798 114.75ZM257.549 115.459C256.695 115.459 256.098 114.929 256.098 114.145C256.098 113.382 256.683 112.913 257.719 112.855L258.914 112.785V112.449C258.914 111.964 258.586 111.674 258.039 111.674C257.52 111.674 257.197 111.922 257.118 112.312H256.272C256.322 111.524 256.994 110.944 258.072 110.944C259.129 110.944 259.805 111.504 259.805 112.378V115.385H258.947V114.667H258.926C258.673 115.153 258.122 115.459 257.549 115.459ZM260.937 109.99H261.837V111.023H262.666V111.732H261.837V114.137C261.837 114.514 262.003 114.684 262.368 114.684C262.459 114.684 262.604 114.676 262.662 114.663V115.372C262.563 115.397 262.364 115.414 262.165 115.414C261.281 115.414 260.937 115.078 260.937 114.236V111.732H260.303V111.023H260.937V109.99Z" fill="#454459"/>
<path opacity="0.5" d="M153.822 115.385H152.894V110.201H151.061V109.401H155.651V110.201H153.822V115.385ZM156.335 115.385V109.401H157.223V111.752H157.243C157.484 111.242 157.961 110.948 158.624 110.948C159.582 110.948 160.154 111.586 160.154 112.573V115.385H159.255V112.748C159.255 112.105 158.931 111.719 158.301 111.719C157.637 111.719 157.231 112.175 157.231 112.864V115.385H156.335ZM164.761 111.023V115.385H163.903V114.647H163.882C163.642 115.169 163.198 115.464 162.53 115.464C161.581 115.464 161 114.846 161 113.846V111.023H161.896V113.672C161.896 114.336 162.211 114.692 162.829 114.692C163.476 114.692 163.866 114.244 163.866 113.564V111.023H164.761Z" fill="#454459"/>
<path opacity="0.5" d="M299.726 113.718H300.642C300.709 114.311 301.285 114.701 302.073 114.701C302.827 114.701 303.371 114.311 303.371 113.776C303.371 113.311 303.043 113.034 302.268 112.843L301.492 112.656C300.393 112.391 299.883 111.877 299.883 111.043C299.883 110.011 300.783 109.302 302.06 109.302C303.325 109.302 304.192 110.011 304.221 111.043H303.317C303.263 110.446 302.769 110.085 302.048 110.085C301.326 110.085 300.833 110.45 300.833 110.981C300.833 111.404 301.148 111.653 301.919 111.844L302.579 112.005C303.806 112.296 304.316 112.789 304.316 113.664C304.316 114.784 303.425 115.484 302.006 115.484C300.679 115.484 299.784 114.8 299.726 113.718ZM308.782 111.023V115.385H307.924V114.647H307.903C307.662 115.169 307.219 115.464 306.551 115.464C305.602 115.464 305.021 114.846 305.021 113.846V111.023H305.917V113.672C305.917 114.336 306.232 114.692 306.85 114.692C307.497 114.692 307.886 114.244 307.886 113.564V111.023H308.782ZM309.669 115.385V111.023H310.524V111.752H310.544C310.781 111.255 311.245 110.948 311.917 110.948C312.879 110.948 313.43 111.562 313.43 112.561V115.385H312.531V112.735C312.531 112.08 312.224 111.719 311.602 111.719C310.971 111.719 310.565 112.167 310.565 112.843V115.385H309.669Z" fill="#454459"/>
<defs>
<linearGradient id="paint0_linear_1_7323" x1="8.96191" y1="71" x2="8.96191" y2="97" gradientUnits="userSpaceOnUse">
<stop stop-color="#B09FFF"/>
<stop offset="1" stop-color="#8D79F6"/>
</linearGradient>
<linearGradient id="paint1_linear_1_7323" x1="8.96191" y1="81" x2="8.96191" y2="97" gradientUnits="userSpaceOnUse">
<stop stop-color="#FFD572"/>
<stop offset="1" stop-color="#FEBD38"/>
</linearGradient>
<linearGradient id="paint2_linear_1_7323" x1="157.962" y1="55" x2="157.962" y2="97" gradientUnits="userSpaceOnUse">
<stop stop-color="#B09FFF"/>
<stop offset="1" stop-color="#8D79F6"/>
</linearGradient>
<linearGradient id="paint3_linear_1_7323" x1="157.962" y1="70" x2="157.962" y2="97" gradientUnits="userSpaceOnUse">
<stop stop-color="#FFD572"/>
<stop offset="1" stop-color="#FEBD38"/>
</linearGradient>
<linearGradient id="paint4_linear_1_7323" x1="58.9619" y1="72" x2="58.9619" y2="97" gradientUnits="userSpaceOnUse">
<stop stop-color="#B09FFF"/>
<stop offset="1" stop-color="#8D79F6"/>
</linearGradient>
<linearGradient id="paint5_linear_1_7323" x1="58.9619" y1="81" x2="58.9619" y2="97" gradientUnits="userSpaceOnUse">
<stop stop-color="#FFD572"/>
<stop offset="1" stop-color="#FEBD38"/>
</linearGradient>
<linearGradient id="paint6_linear_1_7323" x1="207.962" y1="54" x2="207.962" y2="97" gradientUnits="userSpaceOnUse">
<stop stop-color="#B09FFF"/>
<stop offset="1" stop-color="#8D79F6"/>
</linearGradient>
<linearGradient id="paint7_linear_1_7323" x1="207.962" y1="70" x2="207.962" y2="97" gradientUnits="userSpaceOnUse">
<stop stop-color="#FFD572"/>
<stop offset="1" stop-color="#FEBD38"/>
</linearGradient>
<linearGradient id="paint8_linear_1_7323" x1="107.962" y1="75" x2="107.962" y2="98" gradientUnits="userSpaceOnUse">
<stop stop-color="#B09FFF"/>
<stop offset="1" stop-color="#8D79F6"/>
</linearGradient>
<linearGradient id="paint9_linear_1_7323" x1="107.962" y1="84" x2="107.962" y2="98" gradientUnits="userSpaceOnUse">
<stop stop-color="#FFD572"/>
<stop offset="1" stop-color="#FEBD38"/>
</linearGradient>
<linearGradient id="paint10_linear_1_7323" x1="256.962" y1="76" x2="256.962" y2="98" gradientUnits="userSpaceOnUse">
<stop stop-color="#B09FFF"/>
<stop offset="1" stop-color="#8D79F6"/>
</linearGradient>
<linearGradient id="paint11_linear_1_7323" x1="256.962" y1="84" x2="256.962" y2="98" gradientUnits="userSpaceOnUse">
<stop stop-color="#FFD572"/>
<stop offset="1" stop-color="#FEBD38"/>
</linearGradient>
<linearGradient id="paint12_linear_1_7323" x1="306.962" y1="45" x2="306.962" y2="97" gradientUnits="userSpaceOnUse">
<stop stop-color="#B09FFF"/>
<stop offset="1" stop-color="#8D79F6"/>
</linearGradient>
<linearGradient id="paint13_linear_1_7323" x1="306.962" y1="64" x2="306.962" y2="97" gradientUnits="userSpaceOnUse">
<stop stop-color="#FFD572"/>
<stop offset="1" stop-color="#FEBD38"/>
</linearGradient>
</defs>
</svg>
