<svg width="397" height="100" viewBox="0 0 397 100" fill="none" xmlns="http://www.w3.org/2000/svg">
<path d="M70.5 77C34.507 47.0217 11.3826 65.7636 1 84.5V100H396.5V2C390.732 16.275 363.741 101.285 320.5 57C293.487 29.335 271.52 39 264 58.5C254.194 83.928 222.803 98.1957 196.5 72.5C170.197 46.8043 159.604 65.0266 147.5 72.5C140.578 76.5154 106.493 106.978 70.5 77Z" fill="url(#paint0_linear_1_7293)"/>
<path d="M1 83.5C11.3826 64.7636 34.507 46.0217 70.5 76C106.493 105.978 140.578 75.5154 147.5 71.5C159.604 64.0266 170.197 45.8043 196.5 71.5C222.803 97.1957 254.194 82.928 264 57.5C271.52 38 293.487 28.335 320.5 56C363.741 100.285 390.732 15.275 396.5 1" stroke="#036FFE"/>
<defs>
<linearGradient id="paint0_linear_1_7293" x1="177.5" y1="10" x2="177.5" y2="100" gradientUnits="userSpaceOnUse">
<stop stop-color="#DFEEFF"/>
<stop offset="1" stop-color="#EAF2FE" stop-opacity="0"/>
</linearGradient>
</defs>
</svg>
