<svg width="50" height="48" viewBox="0 0 50 48" fill="none" xmlns="http://www.w3.org/2000/svg">
<path d="M36.4561 12.955C30.1145 11.5118 26.311 17.4609 26.311 17.4609C26.311 17.4609 25.4861 10.4585 19.0986 9.00481C14.2998 7.91272 7.96079 10.4701 8.01786 19.5751C8.07166 28.6794 20.5501 42.8507 20.5501 42.8507C20.5501 42.8507 37.8758 35.4656 41.8674 27.2819C45.8532 19.0935 41.6414 14.1351 36.4561 12.955Z" fill="#E53E3E"/>
<path d="M17.973 9.42697C22.952 10.5601 24.207 16.4753 24.5095 18.8249C24.5541 19.1589 24.9802 19.2696 25.1805 18.9948L26.2986 17.4577C26.017 13.9415 23.921 10.1019 19.0993 9.00457C17.1044 8.55058 14.8411 8.73144 12.8839 9.74683C14.5512 9.12714 16.3549 9.05872 17.973 9.42697Z" fill="#5C0026"/>
<path d="M36.4573 12.9546C34.9243 12.6057 33.4528 12.6223 32.2125 13.0463C33.0428 12.9252 34.0036 13.0784 34.9405 13.2916C39.6311 14.3591 43.0209 18.8721 39.2558 26.6663C36.0213 33.3548 24.5661 39.7572 20.9199 42.3658C20.6895 42.5304 20.5473 42.8529 20.5473 42.8529C20.5473 42.8529 37.8729 35.4678 41.8645 27.2841C45.8543 19.0931 41.6491 14.1362 36.4573 12.9546Z" fill="#5C0026"/>
<path d="M13.1381 12.475C14.5309 11.3656 16.7243 10.6899 18.0757 12.3515C18.8046 13.2512 18.0923 14.5947 17.1592 15.0162C15.7998 15.6302 14.6727 15.9353 13.6553 17.1508C13.0442 17.8833 12.5829 18.7293 12.245 19.6239C12.1098 19.9756 11.6147 19.9559 11.5036 19.5965C10.7753 17.1499 11.1064 14.0901 13.1381 12.475Z" fill="#E59AB3"/>
<path d="M29.894 19.2822C29.3863 19.1666 29.1378 18.5933 29.4326 18.1608C29.9781 17.3685 30.6134 16.6208 31.322 15.9896C32.3674 15.0596 34.0251 14.7547 34.8255 15.6431C35.6476 16.5571 35.2068 17.9038 34.3675 18.4122C32.5645 19.5075 30.6245 19.4484 29.894 19.2822Z" fill="#E59AB3"/>
<path d="M35.2669 10.5966C36.695 9.99829 41.2114 9.87884 44.0337 12.919C46.856 15.9592 46.1194 20.4978 45.4757 21.8879L45.3417 21.8712C45.4872 20.4298 45.4005 16.8442 42.5278 13.6926C40.0522 10.9759 35.6364 10.7289 35.2746 10.7293L35.2669 10.5966Z" fill="#5C0026"/>
<path d="M38.8153 7.91751C40.0166 7.49841 43.56 7.03694 46.1047 9.51094C48.6493 11.9849 48.4517 15.5024 48.0666 16.7102L47.9332 16.7211C47.9662 15.8191 47.2686 12.5562 44.8305 10.4923C42.3924 8.42839 38.8125 8.05123 38.8125 8.05123L38.8153 7.91751Z" fill="#DB668D"/>
<path d="M21.2087 7.39708C20.1801 6.23967 16.1602 4.17756 12.3003 5.69702C8.44028 7.21649 7.14029 11.6269 7.119 13.1586L7.24704 13.2015C7.7397 11.8391 9.36946 8.64413 13.3231 7.04607C16.7305 5.66823 20.8183 7.35647 21.1443 7.51336L21.2087 7.39708Z" fill="#5C0026"/>
<path d="M19.1685 3.44609C18.2669 2.5484 15.2722 0.599009 11.9075 1.7282C8.54293 2.85739 7.19889 6.11392 7.02342 7.36941L7.13895 7.43705C7.49953 6.60956 9.5404 3.96982 12.6315 3.16427C15.7227 2.35871 19.1133 3.56788 19.1133 3.56788L19.1685 3.44609Z" fill="#DB668D"/>
<path d="M13.6386 38.1458C12.2671 37.6476 11.1218 36.791 10.1265 35.8203C9.13752 34.8373 8.30042 33.7165 7.62848 32.5059C6.95579 31.2986 6.43769 30.0024 6.11154 28.65C5.79924 27.2973 5.64867 25.8849 5.89864 24.4534L6.06244 24.4149L6.33927 25.3633C6.44371 25.6765 6.54085 25.9915 6.65333 26.2996C6.86677 26.9226 7.09998 27.5387 7.35264 28.1469C7.8584 29.361 8.44012 30.5442 9.08944 31.6877C9.72343 32.838 10.4268 33.9558 11.2048 35.0183L11.8009 35.8052L12.4267 36.5677L13.0733 37.3143L13.7511 38.0302L13.6386 38.1458Z" fill="#5C0026"/>
<path d="M9.23314 38.2941C8.20882 37.8749 7.35668 37.2744 6.57024 36.5821C5.79585 35.8822 5.10191 35.0559 4.57076 34.1047C4.03484 33.1593 3.68314 32.1008 3.53767 31.0445C3.40352 29.9838 3.41693 28.9257 3.70804 27.8585L3.84117 27.8337C4.04607 28.8105 4.27286 29.782 4.56756 30.7276C4.86152 31.6765 5.25257 32.5924 5.74667 33.449C6.2247 34.3157 6.79773 35.1283 7.41575 35.9098C7.72237 36.3034 8.04255 36.6829 8.366 37.0632C8.68469 37.4492 9.00963 37.8229 9.33636 38.2039L9.23314 38.2941Z" fill="#DB668D"/>
<path d="M41.6837 32.6007C41.2921 34.0034 40.5484 35.2123 39.6782 36.2959C38.7999 37.369 37.7785 38.3166 36.6428 39.1124C35.5114 39.9057 34.271 40.5571 32.954 41.0153C31.6334 41.459 30.2335 41.7364 28.7807 41.5953L28.7276 41.435L29.6483 41.083L30.5544 40.6897L31.4485 40.2731L32.3264 39.8217C33.486 39.1982 34.6044 38.5011 35.6748 37.7345C36.755 36.9846 37.7914 36.1697 38.7728 35.294C39.2655 34.8549 39.7407 34.4014 40.2026 33.9312C40.4374 33.7021 40.6612 33.4602 40.8909 33.2231L41.5509 32.4878L41.6837 32.6007Z" fill="#5C0026"/>
<path d="M42.1896 36.6124C41.9895 37.7038 41.547 38.6642 40.9638 39.5616C40.3636 40.4678 39.5971 41.2519 38.7049 41.8727C37.8119 42.4963 36.8312 42.945 35.831 43.2376C34.8224 43.5214 33.7976 43.6947 32.6927 43.6293L32.642 43.5041C33.1007 43.3053 33.5561 43.1057 34.0104 42.8956C34.4666 42.6928 34.9195 42.4892 35.3662 42.267C36.2583 41.8292 37.1298 41.3454 37.9358 40.7709C38.752 40.2124 39.4975 39.5552 40.1764 38.8278C40.5143 38.4636 40.8405 38.09 41.1525 37.7028C41.4704 37.3204 41.7767 36.9284 42.0804 36.5324L42.1896 36.6124Z" fill="#DB668D"/>
</svg>
