<svg width="56" height="55" viewBox="0 0 56 55" fill="none" xmlns="http://www.w3.org/2000/svg">
<g opacity="0.7">
<path d="M41.9359 20.0088C36.2245 16.8977 30.9484 21.5904 30.9484 21.5904C30.9484 21.5904 32.056 14.6271 26.3033 11.4935C21.9814 9.13924 15.1861 9.87905 12.7685 18.6575C10.3479 27.4342 18.5091 44.4617 18.5091 44.4617C18.5091 44.4617 37.1892 42.059 43.2531 35.2668C49.3128 28.4685 46.6059 22.5526 41.9359 20.0088Z" fill="#E53E3E"/>
<path d="M25.1047 11.5943C29.5889 14.0369 29.1904 20.0706 28.8435 22.414C28.7957 22.7476 29.1757 22.9699 29.4431 22.7598L30.9366 21.5841C31.6205 18.1235 30.6459 13.859 26.3034 11.4936C24.5068 10.5149 22.2794 10.0744 20.12 10.5201C21.8929 10.3765 23.6474 10.8004 25.1047 11.5943Z" fill="#5C0026"/>
<path d="M41.9358 20.0089C40.5551 19.2569 39.1345 18.8732 37.8256 18.9445C38.6576 19.0534 39.5407 19.4618 40.3844 19.9213C44.609 22.2225 46.6458 27.4865 40.9056 33.9653C35.9763 39.5241 23.2129 42.5752 18.9954 44.0956C18.729 44.1914 18.5044 44.4632 18.5044 44.4632C18.5044 44.4632 37.1845 42.0605 43.2485 35.2683C49.3127 28.4686 46.6117 22.556 41.9358 20.0089Z" fill="#5C0026"/>
<path d="M19.6239 13.2146C21.2657 12.5252 23.5601 12.4705 24.4095 14.4366C24.8667 15.5005 23.8163 16.6001 22.8038 16.7524C21.3288 16.9741 20.1612 16.9617 18.852 17.8552C18.0648 18.3943 17.3912 19.0832 16.823 19.8524C16.5974 20.1542 16.1263 20.0008 16.1169 19.6246C16.0804 17.0723 17.23 14.2174 19.6239 13.2146Z" fill="#E59AB3"/>
<path d="M33.9018 24.3159C33.4446 24.0668 33.3611 23.4476 33.7623 23.1114C34.5024 22.497 35.3169 21.9499 36.1703 21.5349C37.429 20.9237 39.1072 21.0804 39.6362 22.1528C40.1792 23.2557 39.3892 24.4321 38.4435 24.6935C36.4108 25.258 34.5597 24.6743 33.9018 24.3159Z" fill="#E59AB3"/>
<path d="M41.4322 17.416C42.9692 17.228 47.3483 18.3395 49.2389 22.0319C51.1296 25.7243 49.1882 29.8923 48.1912 31.0554L48.0668 31.0029C48.5982 29.6551 49.4885 26.1807 47.5795 22.3674C45.9347 19.0806 41.752 17.6437 41.4036 17.5458L41.4322 17.416Z" fill="#5C0026"/>
<path d="M45.5744 15.8011C46.8444 15.724 50.38 16.2421 52.1571 19.3142C53.9343 22.3862 52.7889 25.7178 52.0903 26.7756L51.9589 26.75C52.2356 25.8908 52.4504 22.5611 50.6644 19.9126C48.8783 17.2642 45.5354 15.9291 45.5354 15.9291L45.5744 15.8011Z" fill="#DB668D"/>
<path d="M28.7704 10.5187C28.0948 9.12547 24.7859 6.0492 20.6584 6.46336C16.5308 6.87751 14.082 10.7691 13.6456 12.2375L13.7571 12.3136C14.6013 11.1361 17.0374 8.50383 21.2765 8.03948C24.93 7.63873 28.4057 10.3736 28.6769 10.6131L28.7704 10.5187Z" fill="#5C0026"/>
<path d="M27.8799 6.16256C27.2559 5.05375 24.9031 2.36436 21.3583 2.53742C17.8135 2.71049 15.6356 5.47966 15.1258 6.64032L15.2186 6.73679C15.7903 6.03831 18.4714 4.05199 21.6651 4.11613C24.8588 4.18028 27.7936 6.26476 27.7936 6.26476L27.8799 6.16256Z" fill="#DB668D"/>
<path d="M13.1349 38.0566C11.9502 37.2046 11.0806 36.0692 10.3863 34.8647C9.70143 33.65 9.20013 32.3441 8.8822 30.9965C8.56265 29.6518 8.41602 28.2637 8.46939 26.8735C8.53616 25.4868 8.77479 24.0866 9.4041 22.7768L9.57221 22.7842L9.58108 23.7722C9.59655 24.102 9.60451 24.4315 9.62909 24.7585C9.66531 25.4161 9.72246 26.0724 9.80046 26.7264C9.9575 28.0322 10.196 29.3289 10.5105 30.6057C10.8082 31.885 11.1816 33.1518 11.6419 34.3857L12.0019 35.3048L12.3971 36.2086L12.8166 37.1028L13.2745 37.9758L13.1349 38.0566Z" fill="#5C0026"/>
<path d="M8.854 37.0027C7.98199 36.3211 7.32494 35.5118 6.75605 34.632C6.20084 33.7481 5.75737 32.7644 5.50448 31.7047C5.24542 30.6493 5.19439 29.5351 5.34125 28.4789C5.50017 27.4217 5.80041 26.407 6.37041 25.4589L6.50527 25.4711C6.4372 26.4669 6.39165 27.4635 6.41849 28.4536C6.44372 29.4467 6.57136 30.4343 6.81427 31.3929C7.03896 32.3569 7.3698 33.2946 7.75237 34.2145C7.94058 34.6766 8.14567 35.1288 8.35371 35.5826C8.55559 36.0407 8.76684 36.4885 8.97783 36.9439L8.854 37.0027Z" fill="#DB668D"/>
<path d="M41.6317 40.3358C40.874 41.5795 39.83 42.5409 38.6982 43.3475C37.5614 44.1418 36.3211 44.7765 35.012 45.2339C33.7076 45.6901 32.337 45.9802 30.945 46.0636C29.5536 46.1319 28.1309 46.0188 26.771 45.4884L26.7634 45.3198L27.7452 45.231L28.724 45.0986L29.6977 44.9404L30.6652 44.7444C31.9505 44.4592 33.2162 44.092 34.4545 43.6448C35.6977 43.2165 36.9165 42.7137 38.0988 42.1374C38.6923 41.8485 39.2728 41.5412 39.845 41.2141C40.1331 41.0573 40.4143 40.8853 40.6997 40.7195L41.5346 40.1911L41.6317 40.3358Z" fill="#5C0026"/>
<path d="M41.0294 44.3344C40.5404 45.3304 39.8537 46.1346 39.0487 46.8399C38.2249 47.549 37.2743 48.0955 36.247 48.4507C35.2183 48.8084 34.1526 48.9739 33.1105 48.9838C32.0627 48.9831 31.0294 48.8716 29.9838 48.5086L29.969 48.3743C30.4644 48.3076 30.9569 48.2392 31.4512 48.1603C31.9453 48.089 32.4365 48.0161 32.9268 47.9236C33.9042 47.7445 34.8743 47.5155 35.8061 47.1814C36.7432 46.8656 37.6393 46.4356 38.4902 45.9198C38.9142 45.6611 39.3296 45.3901 39.7351 45.1022C40.1449 44.8204 40.5461 44.5263 40.9459 44.2277L41.0294 44.3344Z" fill="#DB668D"/>
</g>
</svg>
