<svg width="55" height="53" viewBox="0 0 55 53" fill="none" xmlns="http://www.w3.org/2000/svg">
<g opacity="0.3">
<path d="M30.8937 10.7194C24.9115 13.2712 25.3216 20.3204 25.3216 20.3204C25.3216 20.3204 20.5453 15.1336 14.5198 17.7038C9.99294 19.6348 6.35981 25.4247 11.7478 32.7647C17.1327 40.106 35.552 44.2613 35.552 44.2613C35.552 44.2613 45.2499 28.1161 43.6812 19.147C42.105 10.1775 35.7852 8.63295 30.8937 10.7194Z" fill="#E53E3E"/>
<path d="M13.8564 18.7067C18.5532 16.7033 23.0398 20.7572 24.6633 22.4825C24.8953 22.7268 25.3054 22.5665 25.3064 22.2264L25.3101 20.3257C23.0191 17.6434 19.0691 15.7637 14.5206 17.7039C12.6388 18.5066 10.912 19.9809 9.92276 21.9514C10.9094 20.4714 12.3299 19.3578 13.8564 18.7067Z" fill="#5C0026"/>
<path d="M30.8944 10.7195C29.4483 11.3363 28.2664 12.213 27.5107 13.2841C28.1121 12.6989 28.98 12.2592 29.8638 11.8823C34.2887 9.99481 39.6815 11.6608 41.2051 20.1816C42.5098 27.4957 36.9893 39.401 35.567 43.6527C35.477 43.9211 35.5509 44.2658 35.5509 44.2658C35.5509 44.2658 45.2489 28.1205 43.6801 19.1515C42.1057 10.1775 35.7921 8.63037 30.8944 10.7195Z" fill="#5C0026"/>
<path d="M11.729 24.0114C12.2061 22.2959 13.5859 20.4619 15.6551 21.0146C16.7732 21.3156 16.9846 22.8214 16.4762 23.7103C15.7356 25.005 15.0018 25.9133 14.8911 27.4945C14.8259 28.4463 14.9487 29.4019 15.1999 30.3247C15.2967 30.6888 14.8843 30.9633 14.5834 30.7374C12.5583 29.1835 11.0313 26.5113 11.729 24.0114Z" fill="#E59AB3"/>
<path d="M29.291 19.694C28.812 19.8983 28.2744 19.5798 28.2594 19.0566C28.2364 18.095 28.3121 17.1167 28.5157 16.1899C28.8167 14.8234 29.9802 13.6039 31.1496 13.8538C32.3516 14.1117 32.7847 15.4609 32.4034 16.365C31.5858 18.3098 29.98 19.4001 29.291 19.694Z" fill="#E59AB3"/>
<path d="M28.5468 9.50756C29.3523 8.18516 32.9397 5.43876 37.0088 6.24499C41.078 7.05121 43.1442 11.1588 43.4385 12.6622L43.3202 12.7272C42.5923 11.4746 40.4185 8.62175 36.2432 7.75492C32.6445 7.00728 28.9237 9.39792 28.6309 9.61048L28.5468 9.50756Z" fill="#5C0026"/>
<path d="M29.8493 5.25586C30.5763 4.21167 33.175 1.75913 36.6871 2.26974C40.1993 2.78035 42.1029 5.74476 42.4996 6.94878L42.398 7.03594C41.8955 6.28608 39.4163 4.05294 36.2311 3.81196C33.0458 3.57098 29.9254 5.36582 29.9254 5.36582L29.8493 5.25586Z" fill="#DB668D"/>
<path d="M15.2849 15.1646C13.773 14.8308 9.30777 15.5192 7.07333 19.0143C4.8389 22.5094 6.37362 26.8437 7.25503 28.0966L7.3839 28.0562C6.98354 26.6638 6.42893 23.1204 8.69312 19.5067C10.6442 16.3918 14.945 15.3608 15.301 15.2965L15.2849 15.1646Z" fill="#5C0026"/>
<path d="M11.3153 13.1618C10.0585 12.9638 6.48965 13.1421 4.4274 16.0305C2.36515 18.9189 3.18727 22.3446 3.78174 23.4643L3.91498 23.4513C3.72151 22.5696 3.82556 19.2346 5.85621 16.7687C7.88687 14.3028 11.342 13.2929 11.342 13.2929L11.3153 13.1618Z" fill="#DB668D"/>
<path d="M27.1953 44.5066C25.7923 44.9078 24.3623 44.886 22.9868 44.6838C21.6091 44.4679 20.2737 44.0515 19.0193 43.4653C17.7663 42.8822 16.5862 42.1365 15.5287 41.2326C14.4822 40.3204 13.5316 39.265 12.8942 37.9591L13.0043 37.8318L13.7849 38.4374C14.0532 38.6298 14.3166 38.8279 14.5885 39.0114C15.1269 39.3907 15.6772 39.7528 16.2386 40.0971C17.3605 40.7836 18.5257 41.4005 19.7224 41.9456C20.9107 42.5051 22.1361 42.9977 23.3895 43.4017L24.3339 43.6892L25.288 43.9396L26.2497 44.1649L27.2185 44.3469L27.1953 44.5066Z" fill="#5C0026"/>
<path d="M23.7144 47.211C22.6389 47.4725 21.5966 47.4862 20.5535 47.3869C19.5158 47.2745 18.469 47.0124 17.4808 46.5537C16.4922 46.1026 15.5864 45.4517 14.8489 44.6816C14.1179 43.9014 13.508 43.0366 13.1177 42.0016L13.2109 41.9034C13.9499 42.5742 14.7036 43.2279 15.497 43.8208C16.2917 44.4168 17.1457 44.929 18.0484 45.3328C18.944 45.7543 19.8848 46.0762 20.8438 46.3464C21.323 46.4853 21.8049 46.6048 22.29 46.7229C22.7745 46.8486 23.2569 46.9606 23.745 47.0774L23.7144 47.211Z" fill="#DB668D"/>
<path d="M46.6533 23.5625C47.1591 24.9281 47.2661 26.3434 47.1971 27.7314C47.1153 29.1158 46.8442 30.4824 46.3913 31.7931C45.9405 33.0993 45.3182 34.3546 44.5205 35.4983C43.7113 36.6323 42.7404 37.6783 41.4811 38.4164L41.3441 38.3178L41.8832 37.4925L42.3862 36.6424L42.8658 35.7804L43.312 34.8999C43.8852 33.7147 44.3819 32.4939 44.799 31.2452C45.2338 30.0042 45.595 28.7362 45.876 27.4513C46.0174 26.8066 46.1363 26.1606 46.2344 25.5088C46.2901 25.1856 46.3295 24.8583 46.3764 24.5316L46.4795 23.5489L46.6533 23.5625Z" fill="#5C0026"/>
<path d="M49.4168 26.5144C49.895 27.5156 50.1001 28.553 50.1543 29.6219C50.1999 30.7079 50.0392 31.7926 49.6809 32.8187C49.3236 33.8477 48.7926 34.7863 48.1543 35.6101C47.504 36.4317 46.7758 37.1732 45.8427 37.7685L45.7282 37.6968C45.983 37.2667 46.2347 36.838 46.4794 36.4012C46.7298 35.9694 46.9771 35.5388 47.2085 35.0968C47.6741 34.2189 48.096 33.3158 48.4117 32.3777C48.745 31.4466 48.9632 30.477 49.0862 29.4895C49.1461 28.9965 49.1911 28.5025 49.2166 28.0059C49.2497 27.5097 49.2677 27.0126 49.2814 26.5137L49.4168 26.5144Z" fill="#DB668D"/>
</g>
</svg>
