<svg width="467" height="99" viewBox="0 0 467 99" fill="none" xmlns="http://www.w3.org/2000/svg">
<path d="M260.747 81.3262C236.088 82.292 209.811 82.436 184.494 81.8183C156.654 81.139 126.227 80.4643 98.77 77.9269C37.0725 72.2253 1.45256 52.6374 5.30568 33.7492C8.64917 17.3591 69.8912 9.45483 114.186 6.8266C160.412 4.08384 210.635 5.13189 258.351 8.21641C300.619 10.9487 342.878 14.7703 383.428 20.1908C404.676 23.0313 429.12 26.6137 445.964 32.1076C486.466 45.3171 439.515 62.0704 411.339 69.6833C377.903 78.7176 335.933 84.7344 293.879 89.3166C265.043 92.4586 235.38 93.594 204.094 93.6976C184.351 93.763 163.002 94.5497 144.115 91.8275" stroke="#22E393" stroke-width="9" stroke-linecap="round"/>
</svg>
