<svg width="23" height="19" viewBox="0 0 23 19" fill="none" xmlns="http://www.w3.org/2000/svg">
<path d="M7.46263 18.208C15.8585 18.208 20.45 11.2498 20.45 5.21584C20.45 5.01823 20.446 4.82153 20.437 4.62563C21.3304 3.97895 22.1015 3.17826 22.7139 2.26109C21.8961 2.62484 21.0159 2.86966 20.0926 2.98004C21.0351 2.41475 21.7585 1.52044 22.0999 0.454427C21.2039 0.986164 20.2236 1.36101 19.2014 1.56281C18.3685 0.675235 17.1826 0.120117 15.8695 0.120117C13.3488 0.120117 11.3047 2.16505 11.3047 4.68573C11.3047 5.0441 11.3448 5.39256 11.4231 5.72692C7.6294 5.53595 4.26541 3.71893 2.01405 0.95605C1.60856 1.6529 1.39528 2.44489 1.39599 3.25113C1.39599 4.83536 2.20181 6.23388 3.42726 7.05208C2.70239 7.02994 1.99343 6.83407 1.36 6.48096C1.35932 6.50013 1.35932 6.51881 1.35932 6.53929C1.35932 8.75067 2.93269 10.597 5.02131 11.0154C4.62904 11.1223 4.22426 11.1763 3.81769 11.1761C3.52408 11.1761 3.23793 11.1472 2.95983 11.0938C3.54095 12.9081 5.22602 14.2284 7.22387 14.2653C5.66157 15.4902 3.69356 16.2198 1.55462 16.2198C1.19076 16.2202 0.827197 16.199 0.46582 16.1566C2.48597 17.4519 4.8847 18.2077 7.46286 18.2077" fill="#35AAF3"/>
</svg>
