<svg width="64" height="18" viewBox="0 0 64 18" fill="none" xmlns="http://www.w3.org/2000/svg">
<g clip-path="url(#clip0_1_7536)">
<path d="M11.9506 10.6134C11.9506 7.64149 11.9506 4.66941 11.9506 1.69712C11.9506 1.60937 11.9506 1.52161 11.9506 1.43386C11.9504 1.34626 11.9392 1.25903 11.9174 1.17425C11.8281 0.807401 11.6085 0.486375 11.3003 0.272092C10.992 0.0578089 10.6165 -0.0348202 10.245 0.0117827C9.87352 0.0583857 9.53191 0.240978 9.28502 0.524909C9.03812 0.80884 8.90311 1.17435 8.9056 1.55208C8.9056 2.93097 8.9056 4.30985 8.9056 5.68874V5.89106C8.73167 5.80636 8.5819 5.73079 8.43031 5.6601C7.71738 5.33401 6.94739 5.15401 6.16498 5.13052C5.72595 5.1167 5.2868 5.15413 4.85628 5.24205C4.0765 5.38987 3.33472 5.69632 2.6761 6.14275C1.97492 6.6145 1.38003 7.22995 0.930149 7.94904C0.3534 8.86376 0.0635149 9.86928 0.00493406 10.9479C-0.0133203 11.3769 0.0191176 11.8065 0.101562 12.2277C0.290214 13.2976 0.765341 14.295 1.4755 15.112C1.9682 15.6829 2.56216 16.156 3.22688 16.5069C3.90934 16.8728 4.65816 17.0955 5.42819 17.1615C5.90924 17.2058 6.39381 17.1919 6.87158 17.12C8.23416 16.915 9.48407 16.2393 10.4082 15.2083C10.7327 14.8474 11.0137 14.4489 11.2452 14.0212C11.7549 13.0772 11.9699 12.0607 11.9699 10.9918C11.9705 10.8657 11.9506 10.7407 11.9506 10.6134ZM5.97173 14.1065C4.35441 14.1004 3.06201 12.7219 3.06624 11.1484C3.07047 9.57493 4.39488 8.18061 5.99589 8.22327C7.57817 8.19889 8.91104 9.54264 8.90802 11.1667C8.9018 11.9489 8.58939 12.6969 8.0389 13.2476C7.4884 13.7982 6.74447 14.107 5.96931 14.1065H5.97173Z" fill="#FAFAFA"/>
<path d="M27.4586 9.47801C27.4902 9.68058 27.4744 9.88778 27.4127 10.0831C27.3792 10.2053 27.3341 10.3238 27.278 10.4372C26.8082 11.3757 26.3631 12.3264 25.8588 13.2478C25.5665 13.7804 25.2694 14.3112 24.8992 14.7945C23.9043 16.0946 22.6051 16.8845 21.0014 17.1645C20.7875 17.2027 20.5712 17.2263 20.354 17.2352C20.354 17.2437 20.354 17.2516 20.354 17.2595C20.3513 17.2562 20.3493 17.2523 20.3483 17.248C20.3472 17.2438 20.3471 17.2394 20.348 17.2352V17.2285C20.35 17.2251 20.3525 17.2221 20.3552 17.2193C20.5419 17.1681 20.7357 17.1657 20.9259 17.1358C22.0596 16.9617 23.1218 16.469 23.9909 15.7141C24.6655 15.137 25.1528 14.4166 25.5883 13.6531C26.1771 12.6226 26.6862 11.55 27.214 10.4878C27.2912 10.325 27.3529 10.1553 27.3982 9.98077C27.5861 9.30554 27.0824 8.53221 26.3552 8.38229C25.7918 8.2665 25.1528 8.58888 24.9101 9.06727C24.6027 9.67363 24.2826 10.2745 23.9631 10.8754C23.6189 11.5238 23.2988 12.1868 22.9364 12.8224C22.3784 13.789 21.5474 14.3594 20.4392 14.4922C19.331 14.6251 18.3635 14.2612 17.5802 13.469C16.9261 12.8078 16.5988 11.9949 16.6 11.046C16.6 10.0649 16.9509 9.23485 17.6388 8.55902C18.2427 7.96789 18.9674 7.63211 19.8183 7.59859C19.9235 7.5887 20.0292 7.58524 20.1348 7.58823C20.3903 7.60956 20.4724 7.86369 20.3764 8.05321C20.2357 8.33049 20.0895 8.60473 19.9434 8.87957C19.6764 9.38172 19.4041 9.88143 19.1438 10.3866C18.7264 11.1965 19.2374 12.1783 20.1263 12.3398C20.3951 12.382 20.6701 12.3434 20.9172 12.2287C21.1642 12.114 21.3723 11.9284 21.5154 11.695C21.6966 11.3794 21.859 11.0527 22.0239 10.7273C22.4436 9.8985 22.8923 9.08555 23.3072 8.25493C23.4475 7.99319 23.5566 7.7156 23.6321 7.42796C23.7529 6.90874 23.6176 6.45291 23.2698 6.06167C22.9563 5.70821 22.5565 5.48273 22.1223 5.31941C21.5918 5.1225 21.0371 4.99948 20.4736 4.95376C18.9356 4.82366 17.4063 5.29079 16.198 6.25978C14.9897 7.22877 14.1934 8.62657 13.9717 10.1679C13.8014 11.3343 13.9687 12.4556 14.4331 13.5361C14.8479 14.4807 15.491 15.3051 16.3035 15.934C17.1159 16.5628 18.0717 16.9758 19.0834 17.1352C19.273 17.1651 19.4669 17.1681 19.6541 17.2193C19.6569 17.2221 19.6593 17.2251 19.6613 17.2285V17.2352C19.6625 17.2438 19.6603 17.2525 19.6553 17.2595C19.6553 17.2516 19.6553 17.2431 19.6553 17.2352C18.1844 17.1508 16.7929 16.5342 15.736 15.4984C14.6792 14.4626 14.0279 13.077 13.9015 11.5958C13.7751 10.1146 14.1822 8.6371 15.048 7.43424C15.9138 6.23138 17.1803 5.38382 18.6153 5.047C19.8281 4.75884 21.0997 4.8583 22.254 5.3316C22.639 5.47943 22.9874 5.71005 23.2752 6.00743C23.5989 6.34687 23.7306 6.75639 23.7143 7.22015C23.7043 7.33199 23.6791 7.44191 23.6394 7.54679C23.531 7.87488 23.3944 8.19278 23.2311 8.49686C22.8416 9.24704 22.446 9.99478 22.0565 10.745C21.8886 11.0637 21.74 11.3903 21.5589 11.7017C21.4227 11.9365 21.2219 12.1263 20.9809 12.2482C20.74 12.3701 20.4691 12.4189 20.2012 12.3885C19.613 12.3087 19.1667 11.9223 19.0145 11.3574C18.9645 11.1835 18.9499 11.0012 18.9716 10.8215C18.9933 10.6418 19.0508 10.4684 19.1407 10.3117C19.4524 9.75651 19.7368 9.18732 20.0376 8.62666C20.1414 8.43409 20.2423 8.2403 20.3468 8.04773C20.3714 8.00848 20.3862 7.9638 20.3898 7.91751C20.3935 7.87122 20.386 7.82472 20.3679 7.78202C20.3166 7.66502 20.2212 7.62663 20.0986 7.6248C19.511 7.60631 18.9293 7.74799 18.4148 8.03493C17.4304 8.59193 16.8343 9.43657 16.6713 10.5646C16.3893 12.5147 17.7735 14.1406 19.4566 14.4325C20.6518 14.6397 22.1235 14.2222 22.9147 12.7871C23.3978 11.9059 23.8544 11.0082 24.3224 10.1179C24.5103 9.76077 24.6944 9.40183 24.8841 9.04594C25.1679 8.51453 25.7435 8.24152 26.3522 8.34512C26.9018 8.43775 27.3566 8.91004 27.4586 9.47801Z" fill="#FAFAFA"/>
<path d="M50.0274 11.2958C50.0274 12.7283 50.0274 14.1609 50.0274 15.5934C50.0274 16.215 49.7617 16.6903 49.2248 16.9993C48.9306 17.1555 48.5946 17.2123 48.2661 17.1614C47.9375 17.1105 47.6339 16.9545 47.3997 16.7165C47.1675 16.4787 47.0201 16.1698 46.9806 15.8383C46.97 15.6787 46.97 15.5184 46.9806 15.3587C46.9838 13.9945 46.9838 12.6302 46.9806 11.266C46.9806 10.6657 46.8483 10.0977 46.5192 9.58887C46.0747 8.89963 45.4605 8.45111 44.6597 8.28169C44.2845 8.19507 43.8957 8.18671 43.5171 8.25713C43.1386 8.32755 42.7783 8.47526 42.4584 8.69121C41.7524 9.15741 41.3296 9.82227 41.169 10.6553C41.1393 10.8281 41.1261 11.0035 41.1297 11.1788C41.1297 12.6499 41.1297 14.1214 41.1297 15.5934C41.1297 16.215 40.8664 16.6903 40.3283 16.9987C40.1345 17.1089 39.9172 17.1706 39.6948 17.1784C39.492 17.1933 39.2883 17.1663 39.0962 17.099C38.9041 17.0317 38.7276 16.9256 38.5775 16.7872C38.4332 16.6606 38.3155 16.5061 38.2311 16.3329C38.1468 16.1597 38.0977 15.9713 38.0866 15.7786C38.0811 15.6964 38.0866 15.6129 38.0866 15.53C38.0866 14.1174 38.0866 12.7042 38.0866 11.2909C38.0938 11.0232 38.0666 10.7557 38.0056 10.4951C37.6819 9.28843 36.9186 8.52119 35.7065 8.26889C34.8217 8.08607 34.0028 8.30485 33.2956 8.89354C32.74 9.35608 32.4121 9.95269 32.2762 10.6608C32.2456 10.8434 32.2324 11.0285 32.2369 11.2136C32.2369 12.6798 32.2369 14.1466 32.2369 15.6135C32.2369 16.2869 31.8444 16.8823 31.2193 17.0956C30.7024 17.2723 30.2095 17.1992 29.7699 16.8603C29.5783 16.7177 29.425 16.5291 29.3239 16.3116C29.2227 16.0941 29.177 15.8545 29.1907 15.6147C29.1907 14.8249 29.1907 14.0355 29.1907 13.2465C29.1907 12.486 29.1835 11.723 29.1907 10.9661C29.2016 9.88748 29.5193 8.89841 30.0743 7.9843C30.3462 7.53428 30.6783 7.12416 31.0611 6.76548C31.8513 6.01236 32.832 5.49364 33.8953 5.26634C34.3512 5.16451 34.8175 5.11827 35.2843 5.12862C36.0757 5.14709 36.8555 5.32411 37.5784 5.64936C38.3014 5.97462 38.953 6.44164 39.4955 7.02326C39.5096 7.03673 39.5229 7.05097 39.5354 7.06592C39.5789 7.12077 39.6157 7.11772 39.6646 7.06592C39.8156 6.9087 39.9666 6.7533 40.1339 6.61009C40.8935 5.94194 41.8096 5.48048 42.7954 5.26939C43.2513 5.16779 43.7176 5.12175 44.1844 5.13227C44.9921 5.15195 45.7875 5.3365 46.5225 5.6748C47.2576 6.0131 47.9172 6.49814 48.4614 7.10066C49.0923 7.79072 49.5511 8.6226 49.7997 9.52732C49.9047 9.91121 49.9738 10.3042 50.0063 10.701C50.0256 10.8985 50.0268 11.0972 50.0274 11.2958Z" fill="#FAFAFA"/>
<path d="M63.9999 15.8269C63.9891 15.8423 63.9809 15.8594 63.9758 15.8775C63.9009 16.4808 63.553 16.8757 63.0095 17.0835C62.6819 17.2112 62.3204 17.2196 61.9873 17.1074C61.6542 16.9952 61.3703 16.7693 61.1844 16.4686C61.095 16.3284 61.124 16.3162 60.9537 16.4162C60.3566 16.7575 59.7051 16.991 59.0284 17.106C58.7858 17.1449 58.5412 17.1697 58.2958 17.1804C58.0504 17.1894 57.8046 17.1854 57.5596 17.1682C57.1896 17.1451 56.8232 17.082 56.4665 16.9799C55.7329 16.7805 55.0446 16.4394 54.4398 15.9756C53.1953 15.0307 52.3644 13.634 52.1231 12.0815C52.0538 11.6534 52.0336 11.2186 52.0627 10.7859C52.1503 9.52805 52.5712 8.39333 53.3545 7.40914C54.1351 6.40916 55.2133 5.6886 56.4303 5.35361C56.83 5.24425 57.2394 5.17505 57.6526 5.14702C58.4235 5.09223 59.1975 5.19291 59.9294 5.44319C60.6862 5.70024 61.3846 6.1071 61.9836 6.63994C62.5825 7.17279 63.0701 7.82089 63.4177 8.5463C63.6833 9.0983 63.8616 9.68885 63.9462 10.2965C63.9625 10.4129 63.9679 10.5287 63.9733 10.6451C63.9733 10.6871 63.9607 10.7341 63.9999 10.767C63.9202 10.7572 63.9395 10.6908 63.9347 10.6451C63.852 9.4403 63.4141 8.37566 62.6785 7.43291C61.9629 6.5188 61.0479 5.88014 59.9609 5.49255C59.2125 5.23686 58.4212 5.13384 57.6331 5.18946C56.8449 5.24508 56.0756 5.45825 55.3698 5.81656C54.664 6.17487 54.0358 6.67119 53.5218 7.27665C53.0077 7.88211 52.6181 8.58465 52.3755 9.3434C52.1529 10.0308 52.0603 10.7544 52.1026 11.4763C52.1847 12.8609 52.6715 14.0889 53.5882 15.1236C54.5926 16.2577 55.8487 16.9324 57.3549 17.1048C58.5172 17.2459 59.6948 17.0337 60.7369 16.4954C60.8057 16.4607 60.871 16.4192 60.9386 16.3815C61.0799 16.3028 61.1252 16.312 61.2152 16.4424C61.3327 16.6218 61.4842 16.7761 61.6609 16.8964C62.5451 17.482 63.7571 16.964 63.9317 15.9335C63.9401 15.8921 63.9262 15.8299 63.9999 15.8269Z" fill="#FAFAFA"/>
<path d="M63.9729 10.6454C63.9674 10.529 63.962 10.4132 63.9457 10.2968C63.8612 9.68916 63.6829 9.0986 63.4173 8.5466C63.0697 7.8212 62.5821 7.17309 61.9831 6.64025C61.3841 6.10741 60.6858 5.70054 59.929 5.4435C59.1971 5.19322 58.4231 5.09254 57.6522 5.14733C57.239 5.17536 56.8295 5.24456 56.4298 5.35391C55.2137 5.68937 54.1364 6.4099 53.3565 7.40945C52.5714 8.39364 52.1522 9.52836 52.0647 10.7862C52.0355 11.2189 52.0558 11.6537 52.125 12.0818C52.3664 13.6343 53.1973 15.031 54.4417 15.9759C55.0459 16.4395 55.7333 16.7805 56.4661 16.9802C56.8229 17.0823 57.1896 17.1455 57.5598 17.1685C57.8048 17.1857 58.0505 17.1897 58.296 17.1807C58.5414 17.17 58.7859 17.1452 59.0285 17.1063C59.7052 16.9913 60.3568 16.7578 60.9538 16.4165C61.1266 16.3165 61.0952 16.3287 61.1845 16.4689C61.3704 16.7696 61.6543 16.9955 61.9874 17.1077C62.3206 17.2199 62.682 17.2115 63.0096 17.0838C63.5531 16.876 63.8986 16.4811 63.9759 15.8778C63.9811 15.8597 63.9892 15.8426 64.0001 15.8272V10.7691C63.9602 10.7344 63.9747 10.6875 63.9729 10.6454ZM58.0254 14.1062C57.2515 14.1043 56.5099 13.7927 55.9634 13.2397C55.4169 12.6868 55.1101 11.9376 55.1103 11.1567C55.1103 9.45035 56.5204 8.18705 58.0321 8.21996C59.6053 8.19132 60.9623 9.52287 60.9545 11.1695C60.9484 11.9497 60.6373 12.696 60.0887 13.246C59.5402 13.796 58.7987 14.1051 58.0254 14.1062Z" fill="#22E393"/>
<path d="M20.3544 17.2352C20.3544 17.2437 20.3544 17.2516 20.3544 17.2596H19.6562C19.6562 17.2516 19.6562 17.2431 19.6562 17.2352L19.6617 17.2285C19.674 17.2156 19.6887 17.2054 19.705 17.1985C19.7213 17.1916 19.7388 17.1881 19.7565 17.1883C19.9231 17.1791 20.09 17.1791 20.2566 17.1883C20.2742 17.1881 20.2918 17.1916 20.3081 17.1985C20.3244 17.2054 20.3391 17.2156 20.3514 17.2285L20.3544 17.2352Z" fill="#A9B0C3"/>
<path d="M50.0274 15.5931C50.0274 16.2147 49.7617 16.6901 49.2248 16.999C48.9306 17.1552 48.5946 17.212 48.2661 17.1611C47.9375 17.1102 47.6339 16.9543 47.3997 16.7163C47.1675 16.4784 47.0201 16.1696 46.9806 15.8381C46.97 15.6784 46.97 15.5182 46.9806 15.3585C46.9838 13.9942 46.9838 12.63 46.9806 11.2657C46.9806 10.6655 46.8483 10.0975 46.5192 9.58863C46.0747 8.89939 45.4605 8.45086 44.6597 8.28145C44.2845 8.19482 43.8957 8.18646 43.5171 8.25688C43.1386 8.3273 42.7783 8.47502 42.4584 8.69097C41.7524 9.15717 41.3296 9.82203 41.169 10.6551C41.1393 10.8279 41.1261 11.0032 41.1297 11.1786C41.1297 12.6497 41.1297 14.1212 41.1297 15.5931C41.1297 16.2147 40.8664 16.6901 40.3283 16.9984C40.1345 17.1087 39.9172 17.1703 39.6948 17.1782C39.492 17.1931 39.2883 17.166 39.0962 17.0988C38.9041 17.0315 38.7276 16.9254 38.5775 16.787C38.4332 16.6603 38.3155 16.5059 38.2311 16.3327C38.1468 16.1595 38.0977 15.971 38.0866 15.7784C38.0811 15.6961 38.0866 15.6126 38.0866 15.5297C38.0866 14.1171 38.0866 12.7039 38.0866 11.2907C38.0938 11.023 38.0666 10.7555 38.0056 10.4948C37.6819 9.28819 36.9186 8.52094 35.7065 8.26865C34.8217 8.08583 34.0028 8.3046 33.2956 8.89329C32.74 9.35583 32.4121 9.95244 32.2762 10.6606C32.2456 10.8431 32.2324 11.0282 32.2369 11.2133C32.2369 12.6795 32.2369 14.1464 32.2369 15.6132C32.2369 16.2866 31.8444 16.882 31.2193 17.0953C30.7024 17.272 30.2095 17.1989 29.7699 16.8601C29.5783 16.7174 29.425 16.5288 29.3239 16.3113C29.2227 16.0938 29.177 15.8543 29.1907 15.6144C29.1907 14.8247 29.1907 14.0353 29.1907 13.2463C29.1907 12.4858 29.1835 11.7228 29.1907 10.9659C29.2016 9.88724 29.5193 8.89817 30.0743 7.98406C30.3462 7.53403 30.6783 7.12392 31.0611 6.76524C31.8513 6.01211 32.832 5.49339 33.8953 5.2661C34.3512 5.16427 34.8175 5.11803 35.2843 5.12837C36.0757 5.14685 36.8555 5.32386 37.5784 5.64912C38.3014 5.97438 38.953 6.44139 39.4955 7.02302C39.5096 7.03649 39.5229 7.05073 39.5354 7.06568C39.5789 7.12053 39.6157 7.11748 39.6646 7.06568C39.8156 6.90845 39.9666 6.75305 40.1339 6.60984C40.8935 5.9417 41.8096 5.48024 42.7954 5.26914C43.2513 5.16755 43.7176 5.12151 44.1844 5.13203C44.9921 5.1517 45.7875 5.33626 46.5225 5.67456C47.2576 6.01286 47.9172 6.4979 48.4614 7.10041C49.0923 7.79047 49.5511 8.62235 49.7997 9.52708C49.9047 9.91096 49.9738 10.3039 50.0063 10.7008C50.0238 10.9007 50.025 11.0993 50.0256 11.298C50.028 12.7293 50.0286 14.161 50.0274 15.5931Z" fill="#22E393"/>
<path d="M11.9506 10.6134C11.9506 7.64149 11.9506 4.66941 11.9506 1.69712C11.9506 1.60937 11.9506 1.52161 11.9506 1.43386C11.9504 1.34626 11.9392 1.25903 11.9174 1.17425C11.8281 0.807401 11.6085 0.486375 11.3003 0.272092C10.992 0.0578089 10.6165 -0.0348202 10.245 0.0117827C9.87352 0.0583857 9.53191 0.240978 9.28502 0.524909C9.03812 0.80884 8.90311 1.17435 8.9056 1.55208C8.9056 2.93097 8.9056 4.30985 8.9056 5.68874V5.89106C8.73167 5.80636 8.5819 5.73079 8.43031 5.6601C7.71738 5.33401 6.94739 5.15401 6.16498 5.13052C5.72595 5.1167 5.2868 5.15413 4.85628 5.24205C4.0765 5.38987 3.33472 5.69632 2.6761 6.14275C1.97492 6.6145 1.38003 7.22995 0.930149 7.94904C0.3534 8.86376 0.0635149 9.86928 0.00493406 10.9479C-0.0133203 11.3769 0.0191176 11.8065 0.101562 12.2277C0.290214 13.2976 0.765341 14.295 1.4755 15.112C1.9682 15.6829 2.56216 16.156 3.22688 16.5069C3.90934 16.8728 4.65816 17.0955 5.42819 17.1615C5.90924 17.2058 6.39381 17.1919 6.87158 17.12C8.23416 16.915 9.48407 16.2393 10.4082 15.2083C10.7327 14.8474 11.0137 14.4489 11.2452 14.0212C11.7549 13.0772 11.9699 12.0607 11.9699 10.9918C11.9705 10.8657 11.9506 10.7407 11.9506 10.6134ZM5.97173 14.1065C4.35441 14.1004 3.06201 12.7219 3.06624 11.1484C3.07047 9.57493 4.39488 8.18061 5.99589 8.22327C7.57817 8.19889 8.91104 9.54264 8.90802 11.1667C8.9018 11.9489 8.58939 12.6969 8.0389 13.2476C7.4884 13.7982 6.74447 14.107 5.96931 14.1065H5.97173Z" fill="#22E393"/>
<path d="M27.4136 10.0823C27.38 10.2044 27.3349 10.323 27.2789 10.4364C26.809 11.3748 26.3639 12.3255 25.8597 13.2469C25.5674 13.7796 25.2702 14.3104 24.9 14.7936C23.9051 16.0937 22.6059 16.8837 21.0023 17.1636C20.7883 17.2018 20.572 17.2254 20.3549 17.2343H19.6543C18.1834 17.15 16.7919 16.5333 15.7351 15.4975C14.6782 14.4617 14.0269 13.0761 13.9005 11.5949C13.7741 10.1138 14.1812 8.63624 15.047 7.43339C15.9128 6.23053 17.1794 5.38297 18.6143 5.04615C19.8271 4.75799 21.0987 4.85744 22.253 5.33074C22.638 5.47858 22.9865 5.70919 23.2742 6.00657C23.598 6.34601 23.7296 6.75554 23.7133 7.2193C23.7034 7.33114 23.6782 7.44106 23.6384 7.54594C23.53 7.87402 23.3934 8.19192 23.2302 8.49601C22.8406 9.24619 22.4451 9.99393 22.0555 10.7441C21.8894 11.0628 21.7409 11.3895 21.5597 11.7009C21.4235 11.9356 21.2227 12.1254 20.9818 12.2473C20.7408 12.3693 20.47 12.418 20.2021 12.3877C19.6138 12.3079 19.1675 11.9215 19.0154 11.3566C18.9653 11.1827 18.9507 11.0004 18.9724 10.8207C18.9941 10.6409 19.0517 10.4675 19.1416 10.3108C19.4532 9.75565 19.7377 9.18646 20.0384 8.62581C20.1423 8.43324 20.2431 8.23944 20.3476 8.04687C20.3722 8.00763 20.387 7.96294 20.3907 7.91665C20.3944 7.87037 20.3868 7.82387 20.3688 7.78117C20.3174 7.66416 20.222 7.62577 20.0994 7.62394C19.5118 7.60546 18.9302 7.74714 18.4157 8.03407C17.4313 8.59107 16.8352 9.43571 16.6721 10.5637C16.3901 12.5138 17.7743 14.1397 19.4574 14.4316C20.6526 14.6388 22.1244 14.2214 22.9155 12.7862C23.3987 11.905 23.8552 11.0074 24.3233 10.117C24.5111 9.75992 24.6953 9.40098 24.8849 9.04508C25.1688 8.51368 25.7443 8.24066 26.3531 8.34426C26.9057 8.43872 27.3622 8.91101 27.4625 9.47898C27.4927 9.68119 27.476 9.88774 27.4136 10.0823Z" fill="#3830C9"/>
</g>
<defs>
<clipPath id="clip0_1_7536">
<rect width="64" height="18" fill="white"/>
</clipPath>
</defs>
</svg>
