<svg width="24" height="24" viewBox="0 0 24 24" fill="none" xmlns="http://www.w3.org/2000/svg">
<g clip-path="url(#clip0_1_7550)">
<path d="M12 24C18.6274 24 24 18.6274 24 12C24 5.37258 18.6274 0 12 0C5.37258 0 0 5.37258 0 12C0 18.6274 5.37258 24 12 24Z" fill="#3830C9"/>
<path d="M20.2281 10.818C20.1872 10.9658 20.1321 11.1093 20.0636 11.2465C19.4901 12.3815 18.9471 13.532 18.3316 14.6465C17.9746 15.291 17.6121 15.933 17.1601 16.5175C15.9461 18.0881 14.3596 19.0436 12.4006 19.384C12.1393 19.43 11.8752 19.4585 11.6101 19.4695H10.7551C8.95981 19.367 7.26162 18.6208 5.97195 17.3676C4.68228 16.1145 3.88756 14.4385 3.73354 12.6469C3.57951 10.8553 4.0765 9.06818 5.13337 7.61332C6.19024 6.15846 7.73614 5.13335 9.48761 4.72596C10.9991 4.37596 12.4841 4.49846 13.9291 5.07046C14.3992 5.24897 14.8246 5.52797 15.1756 5.88796C15.5706 6.29846 15.7316 6.79396 15.7116 7.35496C15.6995 7.49022 15.6687 7.62315 15.6201 7.74996C15.4873 8.14716 15.32 8.53196 15.1201 8.89996C14.6446 9.80746 14.1616 10.712 13.6861 11.6195C13.4856 12.004 13.3006 12.4 13.0791 12.775C12.7356 13.3575 12.0666 13.692 11.4221 13.606C10.7041 13.5095 10.1591 13.042 9.97211 12.356C9.91098 12.1456 9.89312 11.9251 9.91958 11.7077C9.94605 11.4903 10.0163 11.2805 10.1261 11.091C10.5066 10.4195 10.8536 9.73096 11.2206 9.05296C11.3476 8.81996 11.4706 8.58546 11.5981 8.35296C11.6283 8.30562 11.6464 8.25163 11.6509 8.19569C11.6555 8.13974 11.6462 8.08354 11.6241 8.03196C11.5616 7.88996 11.4451 7.84396 11.2951 7.84146C10.5671 7.82996 9.87561 7.98096 9.24011 8.33746C8.04011 9.01146 7.31111 10.03 7.11211 11.3975C6.76761 13.756 8.45711 15.7235 10.5121 16.0765C11.9711 16.3265 13.7676 15.822 14.7331 14.0845C15.3256 13.0185 15.8801 11.9345 16.4516 10.856C16.6806 10.424 16.9056 9.98946 17.1371 9.55896C17.4836 8.91646 18.1871 8.58596 18.9291 8.71146C19.6036 8.82546 20.1611 9.39696 20.2831 10.084C20.3222 10.3296 20.3034 10.5809 20.2281 10.818Z" fill="white"/>
</g>
<defs>
<clipPath id="clip0_1_7550">
<rect width="24" height="24" fill="white"/>
</clipPath>
</defs>
</svg>
