<svg width="16" height="22" viewBox="0 0 16 22" fill="none" xmlns="http://www.w3.org/2000/svg">
<path d="M15.1894 11.5319C14.6876 10.883 13.9304 10.4373 12.9178 10.1951C14.2073 9.53731 14.774 8.42092 14.6184 6.84573C14.5664 6.27453 14.4085 5.77949 14.1444 5.35988C13.8802 4.94018 13.5236 4.60277 13.0733 4.34752C12.6234 4.09195 12.134 3.8974 11.6064 3.76328C11.0786 3.62915 10.4727 3.53176 9.78897 3.47124V0.200012H7.79008V3.38036C7.44394 3.38036 6.91607 3.38899 6.20652 3.40632V0.200012H4.20735V3.47124C3.92169 3.47993 3.50203 3.48434 2.9482 3.48434L0.196289 3.47124V5.60017H1.63708C2.2948 5.60017 2.6799 5.89448 2.79239 6.48286V10.2085C2.87905 10.2085 2.9482 10.2129 3.00017 10.2216H2.79239V15.4397C2.72323 15.881 2.4723 16.1018 2.03955 16.1018H0.598851L0.19638 18.4774H2.79261C2.95707 18.4774 3.1949 18.4796 3.50658 18.4835C3.81807 18.4879 4.05163 18.49 4.20744 18.49V21.8001H6.20693V18.529C6.5703 18.5378 7.09817 18.5421 7.79049 18.5421V21.8001H9.78942V18.49C10.4992 18.4555 11.1287 18.3909 11.678 18.2954C12.2276 18.1999 12.7534 18.0508 13.2553 17.8473C13.757 17.6441 14.1767 17.3908 14.5141 17.0879C14.8518 16.7853 15.1306 16.4 15.3517 15.9326C15.572 15.4652 15.7128 14.9243 15.7732 14.3098C15.8862 13.1072 15.6914 12.1811 15.1894 11.5319ZM6.24539 5.74257C6.306 5.74257 6.47691 5.74039 6.75817 5.73603C7.03956 5.73157 7.27312 5.7273 7.45917 5.72293C7.64526 5.71866 7.89624 5.72948 8.21223 5.75544C8.52809 5.7814 8.79416 5.81609 9.01044 5.85929C9.22673 5.90248 9.46493 5.97391 9.72432 6.07343C9.98416 6.17287 10.1917 6.29408 10.3473 6.43685C10.5032 6.57961 10.6351 6.76143 10.7431 6.98213C10.8514 7.20278 10.9055 7.45589 10.9055 7.74142C10.9055 7.98376 10.8667 8.2045 10.7889 8.40364C10.7112 8.60265 10.5941 8.76929 10.4385 8.90341C10.2829 9.03758 10.1225 9.15452 9.95801 9.25396C9.79374 9.35339 9.58369 9.43351 9.32848 9.49402C9.07332 9.55463 8.85049 9.60223 8.66022 9.63679C8.4698 9.67143 8.23187 9.6953 7.94625 9.70822C7.66059 9.72113 7.44417 9.72995 7.29713 9.73422C7.14995 9.7385 6.94881 9.7385 6.69342 9.73422C6.43799 9.72995 6.2889 9.72768 6.24553 9.72768V5.74253L6.24539 5.74257ZM11.7041 14.5825C11.6217 14.7817 11.5158 14.9548 11.3861 15.1021C11.2562 15.2489 11.0852 15.3789 10.8733 15.4912C10.6614 15.6039 10.4556 15.6946 10.2568 15.7638C10.0576 15.8333 9.81739 15.8936 9.5364 15.9457C9.25478 15.9977 9.00831 16.0342 8.79607 16.056C8.58415 16.0777 8.33113 16.0949 8.03678 16.108C7.74265 16.1207 7.51318 16.1273 7.34882 16.1273C7.18437 16.1273 6.97663 16.125 6.72566 16.1207C6.47455 16.1167 6.31459 16.1145 6.2453 16.1145V11.7268C6.31446 11.7268 6.52001 11.7225 6.86192 11.7137C7.20388 11.705 7.48281 11.7009 7.69919 11.7009C7.91552 11.7009 8.21419 11.7137 8.59511 11.7398C8.97566 11.7656 9.29588 11.8044 9.55573 11.8563C9.81525 11.9083 10.0985 11.9883 10.4059 12.0966C10.713 12.2047 10.962 12.3366 11.1524 12.4924C11.3428 12.6484 11.5028 12.8472 11.6326 13.0896C11.7627 13.3318 11.8276 13.6088 11.8276 13.9204C11.8275 14.163 11.7865 14.3833 11.7041 14.5825Z" fill="#3830C9"/>
</svg>
