<svg width="22" height="22" viewBox="0 0 22 22" fill="none" xmlns="http://www.w3.org/2000/svg">
<path d="M15.0058 13.0223C15.0304 11.3398 13.2966 10.1567 11.0594 9.92332C9.74524 9.79027 9.03087 9.41568 9.03087 8.54779C9.03087 7.71879 9.87419 7.10267 10.8137 7.15385C12.5208 7.25005 12.7685 8.30626 12.7685 8.95104C12.7685 8.95104 14.6271 8.9715 14.6271 8.95104C14.6271 7.38105 13.7224 5.99939 11.874 5.59205V3.73346H10.0318V5.52655C8.12204 5.8295 7.06378 7.36877 7.04536 8.6788C7.01875 10.4125 8.46797 11.3766 10.8731 11.7246C12.3673 11.9293 13.0326 12.5004 13.0182 13.2577C13.006 14.0765 12.4717 14.8605 10.9324 14.8605C9.47095 14.8605 8.87121 13.9578 8.87121 13.006H6.86523C6.86523 14.7131 7.77816 15.9658 10.0216 16.2565V18.0455H11.8638V16.2749C14.4675 15.9453 14.9894 13.9885 15.0058 13.0223Z" fill="#3830C9"/>
<path d="M2.07786 11C2.0779 9.13088 2.66493 7.30898 3.75608 5.79143C4.84723 4.27388 6.38741 3.13732 8.15923 2.54215V0.579166C5.87327 1.20271 3.85576 2.56063 2.41754 4.4437C0.979324 6.32677 0.200195 8.63051 0.200195 11C0.200195 13.3695 0.979324 15.6732 2.41754 17.5563C3.85576 19.4393 5.87327 20.7973 8.15923 21.4208V19.4578C6.38741 18.8627 4.84723 17.7261 3.75608 16.2085C2.66493 14.691 2.0779 12.8691 2.07786 11ZM13.7371 0.548462V2.50531C15.5336 3.08543 17.1 4.2202 18.211 5.74652C19.3221 7.27283 19.9206 9.11211 19.9206 11C19.9206 12.8879 19.3221 14.7271 18.211 16.2535C17.1 17.7798 15.5336 18.9145 13.7371 19.4947V21.4515C16.0469 20.8452 18.0908 19.4907 19.5494 17.5998C21.008 15.7089 21.7991 13.3881 21.7991 11C21.7991 8.61189 21.008 6.29107 19.5494 4.40017C18.0908 2.50927 16.0469 1.15482 13.7371 0.548462Z" fill="#3830C9"/>
</svg>
