<svg width="55" height="55" viewBox="0 0 55 55" fill="none" xmlns="http://www.w3.org/2000/svg">
<path d="M15.1048 16.4805C15.5365 13.7531 18.0976 11.892 20.825 12.3238L38.3788 15.1026C41.1063 15.5343 42.9673 18.0954 42.5355 20.8229L39.7567 38.3766C39.325 41.1041 36.7639 42.9651 34.0365 42.5333L16.4827 39.7546C13.7553 39.3228 11.8942 36.7617 12.326 34.0343L15.1048 16.4805Z" fill="url(#paint0_linear_1_5815)" fill-opacity="0.4"/>
<path d="M45 49.9978C47.2091 49.9978 49 48.2069 49 45.9978C49 43.7887 47.2091 41.9978 45 41.9978C42.7909 41.9978 41 43.7887 41 45.9978C41 48.2069 42.7909 49.9978 45 49.9978Z" fill="#0D0D0D"/>
<path d="M31 49.9978C33.2091 49.9978 35 48.2069 35 45.9978C35 43.7887 33.2091 41.9978 31 41.9978C28.7909 41.9978 27 43.7887 27 45.9978C27 48.2069 28.7909 49.9978 31 49.9978Z" fill="#0D0D0D"/>
<path d="M31 46.9978C31.5523 46.9978 32 46.5501 32 45.9978C32 45.4455 31.5523 44.9978 31 44.9978C30.4477 44.9978 30 45.4455 30 45.9978C30 46.5501 30.4477 46.9978 31 46.9978Z" fill="white"/>
<path d="M45 46.9978C45.5523 46.9978 46 46.5501 46 45.9978C46 45.4455 45.5523 44.9978 45 44.9978C44.4477 44.9978 44 45.4455 44 45.9978C44 46.5501 44.4477 46.9978 45 46.9978Z" fill="white"/>
<path d="M51.8098 21.6816C51.6695 21.5227 51.4676 21.4317 51.2556 21.4318H24.6513C24.2431 21.4318 23.9122 21.7625 23.9121 22.1706C23.9121 22.2203 23.9171 22.2699 23.9271 22.3186L26.8831 37.0988C26.9534 37.4429 27.2561 37.69 27.6073 37.69C27.6398 37.6921 27.6724 37.6921 27.7049 37.69L49.8751 34.7339C50.2082 34.6894 50.4693 34.4259 50.5107 34.0924L51.9887 22.2683C52.0169 22.0561 51.9517 21.842 51.8098 21.6816Z" fill="#E5DD00"/>
<path d="M30.563 34.734C30.2018 34.7338 29.8936 34.4725 29.8344 34.1162L28.3564 25.2481C28.3016 24.8436 28.585 24.4714 28.9895 24.4166C29.3768 24.364 29.738 24.6223 29.8137 25.0057L31.2917 33.8738C31.3584 34.2762 31.0866 34.6566 30.6843 34.7237C30.6442 34.7306 30.6037 34.734 30.563 34.734Z" fill="white"/>
<path d="M34.2577 33.995C33.8742 33.9965 33.5532 33.7045 33.5187 33.3224L32.7797 25.1934C32.7414 24.787 33.0398 24.4266 33.4462 24.3884C33.4482 24.3882 33.4502 24.388 33.4522 24.3878C33.8587 24.351 34.218 24.6508 34.2548 25.0573L34.9938 33.1864C35.0305 33.5929 34.7308 33.9522 34.3243 33.989H34.3242L34.2577 33.995Z" fill="white"/>
<path d="M37.9529 33.256C37.5448 33.256 37.2139 32.9251 37.2139 32.517V25.1268C37.2139 24.7187 37.5448 24.3878 37.9529 24.3878C38.361 24.3878 38.6919 24.7187 38.6919 25.1268V32.517C38.6919 32.9251 38.361 33.256 37.9529 33.256Z" fill="white"/>
<path d="M41.6483 32.5169H41.5655C41.1597 32.474 40.8655 32.1101 40.9085 31.7042C40.9087 31.7017 40.909 31.6991 40.9093 31.6966L41.6483 25.0455C41.6963 24.6391 42.0615 24.3463 42.4686 24.3878C42.8743 24.4327 43.1668 24.7979 43.122 25.2036V25.2037L42.3829 31.8548C42.3436 32.2309 42.0266 32.5167 41.6483 32.5169Z" fill="white"/>
<path d="M45.3433 31.7779C44.9352 31.7778 44.6044 31.4468 44.6045 31.0387C44.6045 30.9785 44.6119 30.9185 44.6265 30.8601L46.1045 24.948C46.194 24.5499 46.5895 24.2997 46.9877 24.3893C47.3858 24.4789 47.636 24.8743 47.5464 25.2725C47.5439 25.2836 47.5412 25.2947 47.5381 25.3057L46.0601 31.2178C45.9781 31.5469 45.6825 31.7779 45.3433 31.7779Z" fill="white"/>
<path d="M48.2993 40.646H31.2415C28.778 40.6404 26.6582 38.9029 26.169 36.4884L22.5671 18.4758H18.739C18.3309 18.4758 18 18.145 18 17.7368C18 17.3287 18.3309 16.9978 18.739 16.9978H23.1731C23.5243 16.9977 23.827 17.2449 23.8973 17.589L27.6189 36.1972C27.9677 37.9221 29.4818 39.1637 31.2415 39.1681H48.2993C48.7075 39.1681 49.0384 39.4989 49.0384 39.9071C49.0384 40.3152 48.7075 40.646 48.2993 40.646Z" fill="white"/>
<path d="M48.2993 40.646H31.2415C28.778 40.6404 26.6582 38.9029 26.169 36.4884L22.5671 18.4758H18.739C18.3309 18.4758 18 18.145 18 17.7368C18 17.3287 18.3309 16.9978 18.739 16.9978H23.1731C23.5243 16.9977 23.827 17.2449 23.8973 17.589L27.6189 36.1972C27.9677 37.9221 29.4818 39.1637 31.2415 39.1681H48.2993C48.7075 39.1681 49.0384 39.4989 49.0384 39.9071C49.0384 40.3152 48.7075 40.646 48.2993 40.646Z" fill="#0D0D0D"/>
<path d="M27.6072 37.6901C27.1991 37.7166 26.8467 37.4072 26.8202 36.9991C26.7936 36.591 27.103 36.2386 27.5111 36.2121L49.1168 33.3314L50.4189 22.9099H24.6511C24.243 22.9099 23.9121 22.579 23.9121 22.1709C23.9121 21.7627 24.243 21.4318 24.6511 21.4318H51.2554C51.6636 21.4287 51.997 21.757 52.0002 22.1651C52.0004 22.1977 51.9985 22.2302 51.9945 22.2625L50.5165 34.0866C50.4751 34.4201 50.214 34.6836 49.881 34.7281L27.7107 37.6842C27.6763 37.6885 27.6418 37.6904 27.6072 37.6901Z" fill="#0D0D0D"/>
<path d="M30.563 34.734C30.2018 34.7338 29.8936 34.4725 29.8344 34.1162L28.3564 25.2481C28.3016 24.8436 28.585 24.4714 28.9895 24.4166C29.3768 24.364 29.738 24.6223 29.8137 25.0057L31.2917 33.8738C31.3584 34.2762 31.0866 34.6566 30.6843 34.7237C30.6442 34.7306 30.6037 34.734 30.563 34.734Z" fill="#0D0D0D"/>
<path d="M34.2577 33.995C33.8742 33.9965 33.5532 33.7045 33.5187 33.3224L32.7797 25.1934C32.7414 24.787 33.0398 24.4266 33.4462 24.3884C33.4482 24.3882 33.4502 24.388 33.4522 24.3878C33.8587 24.351 34.218 24.6508 34.2548 25.0573L34.9938 33.1864C35.0305 33.5929 34.7308 33.9522 34.3243 33.989H34.3242L34.2577 33.995Z" fill="#0D0D0D"/>
<path d="M37.9529 33.256C37.5448 33.256 37.2139 32.9251 37.2139 32.517V25.1268C37.2139 24.7187 37.5448 24.3878 37.9529 24.3878C38.361 24.3878 38.6919 24.7187 38.6919 25.1268V32.517C38.6919 32.9251 38.361 33.256 37.9529 33.256Z" fill="#0D0D0D"/>
<path d="M41.6483 32.5169H41.5655C41.1597 32.474 40.8655 32.1101 40.9085 31.7042C40.9087 31.7017 40.909 31.6991 40.9093 31.6966L41.6483 25.0456C41.6985 24.6403 42.0622 24.3487 42.4686 24.3879C42.8743 24.4328 43.1668 24.7979 43.122 25.2037V25.2037L42.3829 31.8548C42.3436 32.2309 42.0266 32.5167 41.6483 32.5169Z" fill="#0D0D0D"/>
<path d="M45.3433 31.7779C44.9352 31.7778 44.6044 31.4468 44.6045 31.0387C44.6045 30.9785 44.6119 30.9185 44.6265 30.8601L46.1045 24.948C46.194 24.5499 46.5895 24.2997 46.9877 24.3893C47.3858 24.4789 47.636 24.8743 47.5464 25.2725C47.5439 25.2836 47.5412 25.2947 47.5381 25.3057L46.0601 31.2178C45.9781 31.5469 45.6825 31.7779 45.3433 31.7779Z" fill="#0D0D0D"/>
<defs>
<linearGradient id="paint0_linear_1_5815" x1="15.8865" y1="11.542" x2="38.975" y2="43.3151" gradientUnits="userSpaceOnUse">
<stop stop-color="#E5DD00"/>
<stop offset="1" stop-color="#E5DD00" stop-opacity="0"/>
</linearGradient>
</defs>
</svg>
