<svg width="40" height="40" viewBox="0 0 40 40" fill="none" xmlns="http://www.w3.org/2000/svg">
<circle cx="18" cy="17.9973" r="18" fill="url(#paint0_linear_1_5802)" fill-opacity="0.4"/>
<path d="M23.375 3.18481H21C17.7261 3.18481 15.0625 5.84838 15.0625 9.12231V11.057C13.5255 12.8749 12.6875 15.1536 12.6875 17.5614V25.7473C12.6875 26.4032 13.2192 26.9348 13.875 26.9348C14.5308 26.9348 15.0625 26.4032 15.0625 25.7473V17.5614C15.0625 15.763 15.6735 14.0585 16.7972 12.6848H18.625C21.8989 12.6848 24.5625 10.0213 24.5625 6.74731V4.37231C24.5625 3.71644 24.0309 3.18481 23.375 3.18481Z" fill="#3830C9"/>
<path d="M25.75 38.8098C25.0941 38.8098 24.5625 38.2782 24.5625 37.6223C24.5625 36.9664 25.0941 36.4348 25.75 36.4348C31.643 36.4348 36.4375 31.6404 36.4375 25.7473C36.4375 19.8543 31.643 15.0598 25.75 15.0598C25.0941 15.0598 24.5625 14.5282 24.5625 13.8723C24.5625 13.2164 25.0941 12.6848 25.75 12.6848C32.9527 12.6848 38.8125 18.5446 38.8125 25.7473C38.8125 32.95 32.9527 38.8098 25.75 38.8098Z" fill="#3830C9"/>
<path d="M25.75 36.4348C19.8569 36.4348 15.0625 31.6404 15.0625 25.7473V23.4989C15.0625 21.0911 14.2245 18.8124 12.6875 16.9945V15.0598C12.6875 11.7859 10.0239 9.12231 6.75 9.12231H4.375C3.7192 9.12231 3.1875 9.65394 3.1875 10.3098V12.6848C3.1875 15.9588 5.85106 18.6223 9.125 18.6223H10.9528C12.0765 19.996 12.6875 21.7005 12.6875 23.4989V25.7473C12.6875 32.95 18.5473 38.8098 25.75 38.8098C26.4059 38.8098 26.9375 38.2782 26.9375 37.6223C26.9375 36.9664 26.4059 36.4348 25.75 36.4348Z" fill="#938DFF"/>
<path d="M32.1866 20.0852C32.0773 19.9155 31.8892 19.8129 31.6874 19.8129H27.8067L28.7162 9.77276C28.7312 9.60666 28.6757 9.4419 28.5632 9.31877C28.4507 9.19564 28.2916 9.12543 28.1249 9.12543H25.7499C25.5173 9.12543 25.3063 9.2611 25.2098 9.47262L19.247 22.5351C19.1631 22.719 19.1784 22.9328 19.2876 23.1027C19.3969 23.2726 19.585 23.3754 19.7871 23.3754H23.6995L22.7836 33.4152C22.7684 33.5813 22.8239 33.7462 22.9364 33.8694C23.0489 33.9926 23.208 34.0629 23.3749 34.0629H25.7499C25.9827 34.0629 26.194 33.9268 26.2904 33.7149L32.2279 20.6524C32.3114 20.4686 32.2959 20.255 32.1866 20.0852Z" fill="#22E393"/>
<path d="M29.8116 20.0821C29.7023 19.9124 29.5142 19.8098 29.3124 19.8098H25.4317L26.3412 9.76967C26.3674 9.48148 26.1819 9.21644 25.9021 9.14222C25.6227 9.06808 25.3299 9.20627 25.2098 9.46953L19.247 22.532C19.1631 22.7159 19.1784 22.9297 19.2876 23.0997C19.3969 23.2695 19.585 23.3723 19.7871 23.3723H23.6995L22.7836 33.4121C22.7573 33.7006 22.9428 33.9659 23.2229 34.04C23.2736 34.0534 23.3246 34.0599 23.375 34.0599C23.6031 34.0599 23.8172 33.9278 23.9154 33.7118L29.8529 20.6493C29.9364 20.4655 29.9209 20.2519 29.8116 20.0821Z" fill="#03CF99"/>
<defs>
<linearGradient id="paint0_linear_1_5802" x1="18" y1="-0.00268555" x2="18" y2="35.9973" gradientUnits="userSpaceOnUse">
<stop stop-color="#00B182" stop-opacity="0.6"/>
<stop offset="1" stop-color="#00B182" stop-opacity="0"/>
</linearGradient>
</defs>
</svg>
