<svg width="48" height="49" viewBox="0 0 48 49" fill="none" xmlns="http://www.w3.org/2000/svg">
<path d="M14.5417 10.8249C15.5874 8.92783 17.7356 7.91982 19.8629 8.32805L33.5088 10.9467C35.6361 11.3549 37.2586 13.0865 37.5277 15.2359L39.2541 29.0231C39.5232 31.1724 38.3777 33.2506 36.4167 34.1707L23.8378 40.0731C21.8768 40.9932 19.5464 40.546 18.0653 38.9653L8.56474 28.826C7.08366 27.2453 6.78883 24.8907 7.83446 22.9937L14.5417 10.8249Z" fill="url(#paint0_linear_1_5790)" fill-opacity="0.4"/>
<g clip-path="url(#clip0_1_5790)">
<path d="M45.4614 27.2337L42.3583 33.4802C42.0045 34.208 41.2869 34.6831 40.4782 34.7336L33.5241 35.1784C32.7155 35.2289 31.9372 34.8549 31.4823 34.1777L31.0578 33.5409L29.2182 34.7639C28.2479 35.4108 27.2472 33.9048 26.2768 34.5517C25.3166 35.1884 26.3173 36.6945 25.3571 37.3414C24.3867 37.9782 23.386 36.4721 22.4258 37.1191C21.4454 37.766 22.4561 39.272 21.4858 39.9088C20.5255 40.5557 19.5249 39.0496 18.5444 39.6965C17.5842 40.3434 18.5849 41.8495 17.6145 42.4964L16.5128 43.2342C16.25 43.406 15.9265 43.4667 15.6132 43.4162L13.5007 43.0018C12.8335 42.8805 12.409 42.2336 12.5404 41.5765L12.591 41.334L14.5418 41.708C14.8551 41.7585 15.1785 41.6978 15.4312 41.526L16.5431 40.7882C17.5134 40.1413 16.5128 38.6352 17.473 37.9883C18.4433 37.3414 19.4541 38.8475 20.4144 38.2107C21.3847 37.5638 20.3739 36.0578 21.3442 35.4108C22.3146 34.7639 23.3153 36.2801 24.2856 35.6332C25.2459 34.9863 24.2452 33.4802 25.2054 32.8435C26.1657 32.1966 27.1764 33.7026 28.1468 33.0557L29.9763 31.8327L30.4008 32.4695C30.8557 33.1467 31.644 33.5308 32.4527 33.4802L39.4068 33.0254C40.2155 32.9748 40.9331 32.4998 41.2869 31.7721L44.39 25.5254C44.6729 24.9392 44.6932 24.262 44.4405 23.6656L45.3097 24.9695C45.7545 25.6467 45.8151 26.5059 45.4614 27.2337Z" fill="#0D0D0D"/>
<path d="M15.8273 43.9388C15.7296 43.9388 15.6314 43.9318 15.5332 43.9161L13.4035 43.4975C12.9578 43.4166 12.5665 43.1619 12.3083 42.7819C12.0473 42.3979 11.9535 41.935 12.0448 41.478L12.0956 41.2312C12.1514 40.9617 12.4179 40.788 12.6859 40.8373L14.6369 41.2114C14.8126 41.2411 15.0065 41.2035 15.1467 41.1088L16.2636 40.3665C16.4951 40.2125 16.5153 39.9509 16.5064 39.3922C16.497 38.8237 16.4842 38.0449 17.1905 37.5691C17.9086 37.0904 18.6291 37.4052 19.1553 37.6352C19.6636 37.8573 19.9104 37.9402 20.1349 37.7892C20.3649 37.6362 20.3842 37.3766 20.3738 36.8209C20.363 36.2494 20.3486 35.4676 21.0638 34.9908C21.7799 34.5131 22.4956 34.829 23.0192 35.0599C23.5266 35.284 23.7748 35.3669 24.0053 35.2129C24.2313 35.0609 24.2506 34.8003 24.2402 34.2446C24.2294 33.6751 24.2146 32.8943 24.9258 32.4224C25.6325 31.9477 26.3491 32.2576 26.8723 32.4856C27.3846 32.7077 27.6338 32.7896 27.8663 32.6357L29.6953 31.4127C29.8069 31.3386 29.9446 31.31 30.0749 31.3376C30.2067 31.3633 30.3221 31.4413 30.3967 31.5528L30.8211 32.1895C31.173 32.7126 31.7811 33.0088 32.4212 32.9762L39.3737 32.5211C40.002 32.4817 40.5602 32.1105 40.8321 31.5508L43.937 25.3006C44.1551 24.8485 44.17 24.3234 43.975 23.8634C43.8733 23.6236 43.9711 23.3452 44.2006 23.2208C44.432 23.0984 44.7168 23.1695 44.8609 23.3857L45.73 24.6896C46.2729 25.5168 46.343 26.575 45.9156 27.4544C45.9146 27.4554 45.9146 27.4564 45.9136 27.4584L42.8107 33.7057C42.3819 34.5871 41.4999 35.1754 40.5103 35.2386L33.5558 35.6828C32.5692 35.7519 31.6108 35.2751 31.0625 34.4598L30.9169 34.2407L29.4979 35.1843C28.7838 35.6601 28.0681 35.3482 27.545 35.1211C27.0347 34.898 26.7869 34.8191 26.5569 34.9721C26.3309 35.1221 26.3116 35.3797 26.322 35.9335C26.3328 36.503 26.3477 37.2828 25.6394 37.7606C24.9198 38.2314 24.2072 37.9185 23.6855 37.6905C23.1791 37.4674 22.9333 37.3865 22.7078 37.5385C22.4684 37.6964 22.4482 37.957 22.4576 38.5137C22.4669 39.0823 22.4798 39.8611 21.7631 40.331C21.0603 40.8048 20.3452 40.4948 19.8235 40.2668C19.3097 40.0437 19.06 39.9608 18.8226 40.1178C18.599 40.2688 18.5793 40.5284 18.5882 41.0841C18.5976 41.6556 18.6109 42.4394 17.8948 42.9171L16.7942 43.6535C16.5059 43.842 16.1718 43.9388 15.8273 43.9388ZM13.0309 41.933C13.0477 42.0317 13.0857 42.1275 13.1444 42.2143C13.249 42.3683 13.408 42.471 13.5911 42.5045L15.7103 42.9211C15.892 42.9507 16.083 42.9112 16.2365 42.8105L17.3331 42.0771C17.5665 41.9212 17.5868 41.6596 17.5774 41.1009C17.568 40.5323 17.5552 39.7535 18.2619 39.2768C18.987 38.799 19.7036 39.1119 20.2272 39.3409C20.7321 39.5601 20.9774 39.6449 21.2035 39.489C21.4359 39.337 21.4557 39.0803 21.4468 38.5305C21.4374 37.958 21.4241 37.1743 22.1471 36.6975C22.8544 36.2178 23.57 36.5346 24.0922 36.7646C24.6015 36.9887 24.8483 37.0716 25.0797 36.9186C25.3028 36.7686 25.3221 36.508 25.3117 35.9523C25.3008 35.3827 25.286 34.6019 25.9972 34.1301C26.7109 33.6553 27.426 33.9672 27.9487 34.1943C28.46 34.4173 28.7068 34.4983 28.9378 34.3433L30.484 33.3158C30.2935 33.1529 30.1237 32.9644 29.9811 32.7521L29.8365 32.535L28.4274 33.4766C27.7113 33.9534 26.9937 33.6415 26.4696 33.4125C25.9612 33.1924 25.7169 33.1095 25.4874 33.2634C25.2594 33.4145 25.2401 33.6721 25.2505 34.2258C25.2614 34.7954 25.2762 35.5752 24.5679 36.0529C23.8498 36.5297 23.1337 36.2138 22.6115 35.9848C22.1022 35.7598 21.8554 35.6759 21.6245 35.8318C21.3935 35.9858 21.3742 36.2454 21.3846 36.8011C21.3954 37.3727 21.4098 38.1544 20.6946 38.6312C19.9854 39.1001 19.2712 38.7891 18.7501 38.5611C18.2358 38.3351 17.9861 38.2541 17.7531 38.4091C17.5276 38.5611 17.5078 38.8207 17.5172 39.3755C17.5266 39.948 17.5394 40.7317 16.8233 41.2085L15.7103 41.9478C15.3644 42.1827 14.9059 42.2755 14.4617 42.2074L13.0309 41.933ZM31.9518 33.9672C32.3062 34.442 32.891 34.7105 33.4922 34.674L40.4462 34.2298C41.0735 34.1903 41.6322 33.8182 41.9036 33.2595L45.0075 27.0103C45.2523 26.5059 45.2395 25.9077 44.9813 25.4082C44.9433 25.5227 44.8979 25.6352 44.8446 25.7458L41.7393 31.997C41.3099 32.8795 40.4274 33.4688 39.4384 33.53L32.4858 33.985C32.3047 33.9968 32.127 33.9889 31.9518 33.9672Z" fill="#0D0D0D"/>
<path d="M25.2088 32.838C24.2443 33.4804 25.2481 34.9874 24.2835 35.6298C23.3191 36.2722 22.3153 34.7652 21.3508 35.4076C20.3788 36.0551 21.3825 37.5621 20.418 38.2045C19.4535 38.8469 18.4498 37.3399 17.4777 37.9873C16.5132 38.6297 17.517 40.1368 16.545 40.7842L15.4373 41.522C15.1811 41.6926 14.8547 41.7578 14.5458 41.7024L12.4267 41.2973C11.7664 41.1714 11.3348 40.5234 11.4731 39.8656L11.9159 37.754C11.9839 37.4477 12.1698 37.1715 12.426 37.0009L29.2218 25.8138L32.2331 30.3349L28.1491 33.0551C27.1771 33.7026 26.1733 32.1955 25.2088 32.838Z" fill="#DDDDDD"/>
<path d="M14.765 42.2271C14.6619 42.2271 14.5577 42.2182 14.4556 42.1995L12.3319 41.7938C11.8788 41.7079 11.4874 41.4483 11.2303 41.0623C10.9726 40.6764 10.8833 40.2144 10.9786 39.7623L11.4218 37.65C11.519 37.2107 11.782 36.8218 12.1458 36.58L28.9415 25.3934C29.174 25.2384 29.4874 25.3006 29.6424 25.5335L32.6539 30.0544C32.7285 30.1659 32.7551 30.3021 32.729 30.4344C32.7028 30.5657 32.6253 30.6812 32.5138 30.7552L28.4297 33.4756C27.7131 33.9524 26.9945 33.6385 26.4708 33.4105C25.9625 33.1874 25.7167 33.1064 25.4892 33.2584C25.2607 33.4105 25.2414 33.6701 25.2518 34.2248C25.2622 34.7953 25.2765 35.5761 24.5633 36.0499C23.8526 36.5267 23.1365 36.2108 22.6138 35.9818C22.105 35.7568 21.8577 35.6778 21.6307 35.8278C21.3982 35.9828 21.378 36.2444 21.3869 36.8031C21.3962 37.3716 21.4091 38.1514 20.6984 38.6252C19.9872 39.098 19.2735 38.7871 18.7514 38.5581C18.2386 38.335 17.9903 38.2541 17.7583 38.4081C17.5303 38.5601 17.5101 38.8187 17.5195 39.3724C17.5289 39.944 17.5417 40.7267 16.8256 41.2045L15.7176 41.9428C15.4387 42.1284 15.1036 42.2271 14.765 42.2271ZM29.0812 26.5147L12.7064 37.421C12.5604 37.5187 12.4493 37.6835 12.4098 37.8622L11.9676 39.9696C11.9291 40.1542 11.9656 40.3427 12.0713 40.5017C12.1764 40.6596 12.3363 40.7652 12.5209 40.8008L14.6406 41.2055C14.8154 41.239 15.0108 41.1995 15.1569 41.1018L16.2649 40.3635C16.4978 40.2085 16.5181 39.9479 16.5087 39.3892C16.4993 38.8207 16.4865 38.0409 17.1977 37.5671C17.9148 37.0893 18.6324 37.4032 19.1561 37.6322C19.6644 37.8563 19.9117 37.9362 20.1377 37.7842C20.3657 37.6322 20.3855 37.3736 20.3766 36.8189C20.3672 36.2473 20.3544 35.4646 21.0705 34.9868C21.7832 34.513 22.4978 34.8259 23.02 35.0559C23.5283 35.279 23.7756 35.3619 24.0031 35.2089C24.2316 35.0569 24.2514 34.7983 24.241 34.2436C24.2307 33.673 24.2163 32.8922 24.9285 32.4174C25.6392 31.9456 26.3529 32.2565 26.8756 32.4836C27.3864 32.7067 27.6351 32.7876 27.8691 32.6346L31.5326 30.1945L29.0812 26.5147Z" fill="#0D0D0D"/>
<path d="M44.2379 23.2606L40.3705 17.4572C39.9279 16.7911 39.1537 16.3979 38.346 16.4478L31.3879 16.8983C30.5803 16.9483 29.8596 17.4241 29.4968 18.1499L26.4061 24.4039C26.0531 25.1274 26.1067 25.9966 26.5493 26.6626L30.4069 32.4683C30.8617 33.1419 31.6435 33.523 32.4512 33.4731L39.4092 33.0226C40.2169 32.9727 40.9376 32.4968 41.2906 31.7733L44.3933 25.5269C44.744 24.7934 44.6829 23.9365 44.2379 23.2606ZM41.0546 25.4816L41.0447 25.4839C40.4234 25.8955 39.5859 25.7241 39.1742 25.1028L36.7155 21.4243C36.3039 20.803 36.473 19.9555 37.0845 19.5461L37.0943 19.5439C37.7156 19.1323 38.5608 19.2915 38.9846 19.9204L41.4311 23.5914C41.8451 24.2225 41.666 25.0722 41.0546 25.4816Z" fill="#22E393"/>
<path d="M32.3137 33.9829C31.3863 33.9829 30.5078 33.521 29.9876 32.7501L26.1281 26.9421C25.5867 26.1277 25.5191 25.0696 25.9519 24.1832L29.0435 17.926C29.4857 17.0406 30.3716 16.4543 31.3572 16.3941L38.3132 15.943C39.2928 15.8887 40.2454 16.3556 40.7912 17.1778L44.6581 22.9799C44.6586 22.9809 44.6591 22.9819 44.6596 22.9819C45.2075 23.815 45.2785 24.8475 44.8491 25.7447L41.7428 31.9979C41.3134 32.8784 40.4305 33.4647 39.4404 33.5269L32.4834 33.978C32.4267 33.981 32.3699 33.9829 32.3137 33.9829ZM38.4825 16.9488C38.4469 16.9488 38.4119 16.9498 38.3763 16.9518L31.4204 17.4029C30.7926 17.4414 30.2294 17.8135 29.9486 18.3761L26.859 24.6283C26.5841 25.192 26.6261 25.8652 26.9701 26.3834L30.8276 32.1884C31.178 32.7066 31.7875 33.0047 32.4203 32.9692L39.3763 32.5181C40.0055 32.4786 40.5642 32.1085 40.8362 31.5518L43.9405 25.3015C44.2125 24.734 44.1671 24.0716 43.8157 23.5386L39.9498 17.7375C39.622 17.244 39.0673 16.9488 38.4825 16.9488ZM40.3031 26.2126C39.701 26.2126 39.1097 25.9214 38.7529 25.3825L36.2956 21.7046C35.7275 20.8498 35.956 19.6939 36.8029 19.1263C36.8232 19.1125 36.8439 19.1007 36.8656 19.0898C37.7145 18.5657 38.8413 18.8045 39.4034 19.6376L41.8514 23.3106C42.417 24.1733 42.184 25.3341 41.3351 25.9017C41.3179 25.9135 41.2996 25.9234 41.2808 25.9333C40.9773 26.1228 40.6387 26.2126 40.3031 26.2126ZM37.3305 19.991C36.9796 20.2536 36.8893 20.7718 37.1366 21.1449L39.5939 24.8228C39.853 25.2107 40.3772 25.3203 40.7651 25.0627C40.7779 25.0548 40.7907 25.0469 40.8041 25.04C41.1688 24.7725 41.2616 24.2542 41.0084 23.8683L38.5639 20.2003C38.3008 19.8114 37.7648 19.7058 37.3735 19.9654C37.3591 19.9742 37.3453 19.9831 37.3305 19.991Z" fill="#0D0D0D"/>
</g>
<defs>
<linearGradient id="paint0_linear_1_5790" x1="16.2953" y1="7.64343" x2="31.5875" y2="40.234" gradientUnits="userSpaceOnUse">
<stop stop-color="#00B182" stop-opacity="0.6"/>
<stop offset="1" stop-color="#00B182" stop-opacity="0"/>
</linearGradient>
<clipPath id="clip0_1_5790">
<rect width="38" height="38" fill="white" transform="translate(9.94141 10.9387)"/>
</clipPath>
</defs>
</svg>
