<svg width="59" height="27" viewBox="0 0 59 27" fill="none" xmlns="http://www.w3.org/2000/svg">
<path d="M30.6334 5.07825L30.278 6.17209L30.6334 5.07825ZM58.8232 13.6315C58.8133 12.9965 58.2904 12.49 57.6553 12.5003L47.3062 12.6678C46.6711 12.6781 46.1644 13.2012 46.1743 13.8363C46.1843 14.4713 46.7072 14.9777 47.3423 14.9675L56.5415 14.8185L56.6857 24.017C56.6957 24.652 57.2186 25.1585 57.8537 25.1482C58.4887 25.1379 58.9955 24.6148 58.9855 23.9798L58.8232 13.6315ZM0.430463 1.07454C0.972877 9.48961 4.72538 14.6317 9.78171 17.3308C14.7608 19.9888 20.8414 20.1938 25.9939 19.1339C28.5811 18.6016 30.9807 17.7418 32.9419 16.6722C34.8808 15.6147 36.4922 14.2965 37.3672 12.7923C37.8123 12.0271 38.0818 11.1863 38.0711 10.302C38.0603 9.40937 37.7647 8.55103 37.2044 7.76349C36.1139 6.23087 34.0312 4.97151 30.9889 3.98442L30.278 6.17209C33.1541 7.10528 34.6673 8.16602 35.33 9.09743C35.6463 9.54191 35.7666 9.95157 35.7712 10.3309C35.7758 10.7186 35.66 11.1539 35.3791 11.6367C34.8022 12.6285 33.5993 13.6944 31.8413 14.6532C30.1056 15.5999 27.9259 16.3886 25.5315 16.8811C20.7206 17.8708 15.2284 17.6307 10.8657 15.3018C6.58035 13.0142 3.22225 8.62767 2.72579 0.925457L0.430463 1.07454ZM30.9889 3.98442C28.5828 3.20377 26.5095 3.25087 24.8785 4.10146C23.2399 4.95605 22.2681 6.50658 21.8372 8.26973C20.9893 11.7392 22.121 16.3699 24.7989 20.0301C27.5141 23.7412 31.9241 26.6015 37.769 26.3147C43.5687 26.0301 50.5488 22.6571 58.4992 14.45L56.8475 12.8502C49.1083 20.8393 42.644 23.7728 37.6574 24.0175C32.7159 24.26 28.9976 21.8726 26.6555 18.6715C24.2762 15.4195 23.4217 11.4736 24.0715 8.81463C24.3895 7.51358 25.0375 6.61197 25.9414 6.14055C26.8529 5.66515 28.2447 5.51238 30.278 6.17209L30.9889 3.98442Z" fill="#22E393"/>
</svg>
